<?xml version="1.0" encoding="utf-8"?>
<!-- Generator: Adobe Illustrator 18.1.1, SVG Export Plug-In . SVG Version: 6.00 Build 0)  -->
<!DOCTYPE svg PUBLIC "-//W3C//DTD SVG 1.1//EN" "http://www.w3.org/Graphics/SVG/1.1/DTD/svg11.dtd">
<svg version="1.1" id="Calque_1" xmlns="http://www.w3.org/2000/svg" xmlns:xlink="http://www.w3.org/1999/xlink" x="0px" y="0px"
	 viewBox="0 0 98.4 96.9" enable-background="new 0 0 98.4 96.9" xml:space="preserve">
<path fill-rule="evenodd" clip-rule="evenodd" fill="#FFFFFF" d="M61.4,29.8c-0.9-0.5-1.6-1-2.3-1.4c0.1-0.4,0.1-0.7,0.2-1.1
	c0.8-0.4,1.4,0.3,2,0.6c0.1,0,0.1,0.2,0.1,0.3C61.4,28.7,61.4,29.1,61.4,29.8"/>
<path fill-rule="evenodd" clip-rule="evenodd" fill="#FFFFFF" d="M31.4,48.8c0.4-0.2,0.9-0.4,1.3-0.6c2.2-0.6,3.7-2.2,4.8-4.1
	c0.7-1.2,1.1-2.5,1-3.9c-0.1-1.3-0.6-2.5-1.3-3.6c-0.1-0.2-0.3-0.3-0.5-0.4c-0.7-0.4-1.2-1-1.4-1.8c-0.2-0.7-0.4-1.4-0.6-2.2
	c-0.2-0.7-0.4-1.4-0.6-2.1c0.6-0.5,1.5-0.7,2.3-0.9c0.5-0.2,1-0.3,1.5-0.4c0.4-0.1,0.4-0.4,0.3-0.7c-0.2-0.5-0.5-0.7-1-0.7
	c-0.5,0-0.9,0.1-1.3,0.1c-0.3,0-0.6,0.1-0.9,0.1c0-0.1,0-0.2,0-0.2c0.3-1,0.7-1.6,1.9-1.4c0.6,0.1,0.7-0.1,0.7-0.6
	c0-1-0.8-1.6-1.7-1.5c-0.2,0-0.4,0.1-0.7,0.2c-0.8-2.2-1.5-4.4-2.2-6.6c-0.1-0.2-0.1-0.4-0.2-0.6c0-0.2,0-0.4,0.3-0.4
	c0.1,0,0.2,0,0.2,0c0.4-0.1,0-0.7,0.6-0.7c0.3,0,0.7-0.1,1-0.1c0.3-0.1,0.5-0.2,0.8-0.3c-0.3-0.5-0.7-0.5-1.1-0.5
	c-0.4,0-0.5-0.2-0.3-0.5c0.3-0.8,0.9-1.1,1.6-1.2c0.1,0,0.3,0,0.5,0c0.9,0,0.9,0,1,0.9c0,0.1,0,0.2,0,0.3c0,0.1,0.1,0.2,0.2,0.2
	c0.1,0,0.2-0.1,0.3-0.1c1.1-1.3,0.6-3.2-1.1-3.8c-0.2-0.1-0.4-0.1-0.5-0.1l0,0c0-0.2,0.2-0.4,0.1-0.6c-0.1-0.3,0.1-0.4,0.2-0.3
	c0.4,0.1,0.7,0.3,1.1,0.4c0.5,0.2,0.9-0.1,0.8-0.7c-0.1-0.7-0.1-1.4-0.3-2c-0.2-0.7-0.1-1.3,0-2c0.2-0.9,0.2-0.9,1.1-0.9l0,0
	c0.3,0.7,0.8,0.6,1.4,0.5c0.3,0,0.6-0.2,0.9-0.2c0.4,0,0.6,0.2,0.4,0.5c-0.3,0.4-0.6,0.9-0.9,1.3c-0.4,0.5-0.9,0.9-1.3,1.3
	c-0.1,0.2-0.2,0.4-0.4,0.7c0.3,0,0.5,0,0.7-0.1c0.5-0.2,1-0.5,1.5-0.8c0.7-0.4,0.9-0.3,1.2,0.4c0.1,0.2,0.3,0.4,0.4,0.4
	c0.3,0,0.5-0.2,0.5-0.5c0.1-0.3,0.2-0.7,0.2-1c0-0.5,0.3-0.8,0.9-0.9c0,0.7,0,1.3,0,1.8c0,0.5,0.3,0.6,0.7,0.3
	c0.4-0.3,0.8-0.7,1.2-1.1c0.9-0.9,1-0.9,2.2-0.7c-0.3-0.8-0.3-0.8-2.8-1.6c0.1-0.5,0.6-0.2,0.8-0.3c0.3-0.1,0.6-0.1,0.4-0.6
	c-0.1-0.3,0.2-0.6,0.5-0.4c0.4,0.2,0.9,0.4,1.3,0.7c0.2,0.1,0.4,0,0.5-0.1c0.1-0.1,0-0.4-0.1-0.5c-0.2-0.2-0.5-0.3-0.8-0.4
	C48,2.8,48,2.6,48,2.3c0.1-0.2,0.1-0.4,0.2-0.6c0.5-1.2,0.6-1.3,1.9-1.3c0.1,0,0.3,0,0.5,0c-0.2,0.3-0.5,0.6-0.6,1
	c-0.1,0.3-0.2,0.6-0.2,0.8c0,0.2,0.2,0.4,0.3,0.7c0.2-0.1,0.5-0.3,0.6-0.4c0.2-0.3,0.3-0.7,0.5-1c0.3,0.5,0.5,1.1,0.8,1.5
	c0.8,1.3,2,1.9,3.6,1.7c0.1,0,0.2-0.1,0.4-0.2c-0.1-0.1-0.2-0.4-0.3-0.4c-0.4-0.2-0.8-0.3-1.2-0.4c-0.4-0.1-0.6-0.3-0.5-0.7
	c0.2-0.7,0-1.3-0.2-2c-0.1-0.4,0-0.6,0.5-0.7c0.7-0.1,1.3-0.2,2.1-0.3c-0.1,0.7-0.5,1.1-0.7,1.5c-0.3,0.4-0.5,0.9-0.7,1.4
	c-0.1,0.2,0.2,0.5,0.4,0.4C55.6,3,56,2.8,56.4,2.5c0.4-0.2,0.7-0.5,1-0.7c0.5-0.2,0.7-0.2,0.8,0.4c0.1,0.2,0.1,0.5,0.1,0.8
	c0,0.3,0,0.7,0,1c0,0.1,0.1,0.3,0.2,0.3c0.1,0,0.3,0,0.4-0.1c0.4-0.5,0.6-1,0.5-1.7c-0.1-0.3-0.1-0.5,0-0.8c0.4,0.3,0.4,0.8,0.5,1.2
	c0,0.1,0.1,0.2,0.3,0.3c0,0,0.2-0.1,0.3-0.2c0.5-0.7,1.2-1.4,0.7-2.5c1.3-0.4,2.6-0.5,3.9,0.2c1,0.5,1.4,1.3,1.7,2.3
	c0.2,1,0.2,1,1.3,1.1c0.1,0,0.2,0.1,0.5,0.2c-0.5,0.2-0.8,0.4-1.2,0.6c0.3,0.6,0.8,0.6,1.3,0.8c1,0.4,1.2,1,0.7,1.9
	c-0.2,0.4-0.6,0.7-0.9,1c-0.2,0.2-0.5,0.3-0.7,0.4c1.6,1,1.9,2.1,0.4,2.8c0.1,0.2,0.2,0.4,0.3,0.6c0.6,0.8,0.5,1.7,0.4,2.5
	c-0.4,2-2.3,4.5-4.2,5.3c-0.1-0.9-0.3-1.9-0.4-2.8c-0.1-0.9-0.1-1.8-0.2-2.8c0.7,0.1,1.4,0.1,2.2,0.2c-0.5-1.2-1.1-2.2-1.9-3.2
	c-1.4-1.6-2.9-2.9-4.8-3.8c-0.3-0.1-0.5-0.3-0.8-0.4c-0.9-0.5-1.6-0.4-2.2,0.4c-0.5,0.6-0.9,1.3-1.5,2c0.7,0,1.4,0,2,0
	c1.9,0.1,3.5,0.7,4.8,2.1c1.3,1.4,1.3,2.9,0.2,4.3c-1,1.3-2.2,1.6-3.8,1.1c-0.3-0.1-0.5-0.2-0.7-0.3c-0.3-0.2-0.6-0.4-0.9-0.6
	c0.6-0.3,1.3,0.2,1.7-0.4c-0.2-0.6-0.3-1.3-0.5-1.9c-1-0.5-1.8,0.6-2.9,0.6c0.2-0.6,0.7-0.8,1.2-0.8c0.5,0,0.9,0,1.4,0
	c0.4,0,0.7,0,1.2-0.1c-0.4-0.5-0.8-0.7-1.2-0.7c-0.9,0-1.7,0-2.6,0c-0.5,0-0.9,0-1.4,0c-1.2,0.1-1.9-0.5-2.4-1.5
	c0-0.1-0.1-0.1-0.1-0.2c0,0-0.1,0-0.2-0.1c-0.1,0.2-0.3,0.5-0.4,0.7c-0.7,1.1-1.7,1.7-2.7,2.4c-0.7,0.5-1.5,0.9-2.2,1.5
	c-0.8,0.6-1.3,1.4-1.6,2.3c-0.2,0.5-0.1,0.7,0.4,0.8c0.4,0.1,0.8,0.2,1.2,0.3c0.2,0.1,0.3,0.2,0.4,0.4c0.1,0.1,0.1,0.2,0.1,0.3
	c0,0.1-0.1,0.3-0.2,0.5c-0.2-0.4-0.3-0.7-0.4-1c-0.3,0-0.6,0-0.9,0c-0.9-0.1-0.9-0.1-1.3,0.9c-0.5-0.4-0.9-0.8-1.4-1.2
	c-0.4-0.4-0.8-0.9-1.3-1.1C40,18,40,17.6,40.1,17.2c0-0.3,0.2-0.7,0.2-1c0-0.2,0.2-0.4,0.1-0.5c-0.1-0.3-0.3-0.5-0.4-0.8
	c-0.2,0.1-0.5,0.3-0.6,0.5c-0.2,0.3-0.3,0.7-0.5,1.1c-0.3-1.3,0.6-2.1,1.1-3c-0.8,0.2-1.4,0.6-1.9,1.4c-0.6,1.1-0.9,2.2-0.4,3.3
	c0.1,0.1,0,0.3,0,0.5c-0.2,0-0.3,0-0.5,0c-0.3,0-0.7-0.3-0.8-0.2c-0.3,0.3,0,0.6,0.1,0.9c0.2,0.8,0.6,1.5,0.2,2.5
	c1-0.3,0.9-1.3,1.4-1.8c0.4,0.3,0.9,0.5,1.3,0.8c1.1,0.8,2.3,1.4,3.7,1.2c0.1,0,0.1,0,0.2,0.1c-0.2,0.7-0.3,1.5-0.5,2.2
	c-0.2,0.6,0,1,0.1,1.5c0.2,0.5,0.5,0.8,1.1,0.8c3.3,0.1,6.5,1,9.4,2.4c2,1,4.1,2,6.3,2.6c0.5,0.1,1,0.3,1.6,0.5
	c0.1,0.7-0.2,1.2-0.5,1.7c-0.5,0.6-1.1,1-1.8,1.3c-0.9,0.4-1.8,0.7-2.6,1.5c0.2,0.2,0.4,0.3,0.6,0.5c1.2,0.9,1.6,2.2,1.4,3.6
	c0,0.2-0.1,0.4-0.2,0.7c-0.2,0.6-0.3,1.2,0.5,1.4c1.6,1.8,3.9,2.6,5.8,3.9c0.5,0.3,1,0.5,1.5,0.8c-0.4-0.1-0.9-0.1-1.3-0.2
	c-1.3-0.2-2.6-0.6-3.9-1.1c-1.4-0.6-2.5-1.4-3.3-2.7c-0.5,0.7-0.9,1.4-1.5,2c-0.7,0.8-1,0.8-1.4-0.2c-0.3-0.8-1.1-1.1-1.9-0.5
	c-0.4,0.3-0.8,0.7-1.2,1.1c-0.5,0.5-1,1-1.5,1.6c-1,1-2.3,1.4-3.7,1.4c-0.5,0-0.7-0.2-0.5-0.7c0.5-1.6,1.1-3.1,2.1-4.4
	c1.2-1.6,2.4-3.2,3.6-4.8c0.5-0.6,1-1.2,1.5-1.8c-0.5-0.6-1-1.1-1.6-1.5c-1.3-0.8-2.5-1.6-3.8-2.5c-1.3-0.8-2.5-1.7-3.4-3
	c-0.6-0.9-1-1.8-1.2-2.9c-0.1-0.4-0.3-0.5-0.6-0.3c-0.5,0.2-1,0.4-1.4,0.7c-0.2,0.1-0.3,0.3-0.4,0.5c-0.2,1.1-0.5,2.2-0.5,3.3
	c-0.1,1.2-0.1,2.5,0,3.8c0.1,1.5,0.3,2.9,0.5,4.4c0.2,1.7,0.5,3.3,0.8,5c0.2,1.3,0.5,2.5,0.4,3.8c0,0.1,0,0.3,0,0.5h-1
	c0-0.1-0.1-0.2-0.1-0.3c0.1-0.6-0.1-1-0.4-1.5c-0.2-0.3-0.3-0.6-0.5-0.9c-0.1-0.2-0.1-0.6-0.3-0.6c-0.2-0.1-0.5,0.1-0.7,0.2
	c-1.2,0.6-2.3,1.1-3.4,1.7C34.1,48.4,32.8,48.8,31.4,48.8L31.4,48.8z M59.6,11.4c-1-0.4-1.8-0.8-2.6-1c-0.8-0.3-1.6-0.1-2.1,0.7
	C56,12.1,57.9,12.3,59.6,11.4 M47.1,8.2c0.9-0.3,1.8-0.1,2.7,0.3c-0.3-0.9-0.8-1.4-1.5-1.4C47.7,7.1,47.3,7.5,47.1,8.2"/>
<path fill-rule="evenodd" clip-rule="evenodd" fill="#FFFFFF" d="M62.2,27.9c-0.5-1.1-1.6-1.4-2.7-1.6c-0.7-0.1-1.3-0.2-2.1-0.3
	c1.5-0.5,2.9-0.5,4.2,0.3c0.3-0.8-0.1-1.2-0.6-1.6c-0.4-0.3-0.8-0.7-1.2-1.1c-0.4-0.5-0.3-0.8,0.4-0.9c1-0.2,1.9-0.3,2.9-0.5
	c0.5-0.1,0.7,0.1,0.8,0.6c0.1,0.5,0.1,1.1-0.2,1.6c-0.3,0.5-0.5,1-0.7,1.5C62.7,26.5,62.4,27.2,62.2,27.9"/>
<path fill-rule="evenodd" clip-rule="evenodd" fill="#FFFFFF" d="M40.2,3.9c-0.2,0.5-0.7,0.5-1.1,0.4l0,0
	C39.4,4.1,39.8,3.9,40.2,3.9L40.2,3.9z"/>
<path fill-rule="evenodd" clip-rule="evenodd" fill="#FFFFFF" d="M40.3,4C40.3,3.9,40.3,3.9,40.3,4C40.3,3.9,40.3,3.9,40.3,4
	C40.3,3.9,40.3,3.9,40.3,4L40.3,4z"/>
<path fill-rule="evenodd" clip-rule="evenodd" fill="#FFFFFF" d="M4.6,37.7c1.3-0.2,3.3,2.8,4.3,4.9c1.7,3.7,2.3,8.1,2.2,13.8
	C4.7,54.6,2.9,45.5,4.6,37.7z M0,54.6c5.4,1.8,11.1,6,12,13.5C4.8,66.8,1.9,61.2,0,54.6z M12,41.1c-3.3-6.8-1.9-19,4.9-21.2
	C18.2,28.1,17.9,38.3,12,41.1z M22.7,56.8c3.9,5.7-0.4,13.9-3.7,17.2C14.1,68.2,20.5,61.1,22.7,56.8z M13.5,58.3
	c-0.5-8.3,4.6-11,7.4-16C23.6,49.4,18.8,56.3,13.5,58.3z M4,73c6.3-1.3,13.2,2,14.4,7.7C11,80.7,6.8,77.6,4,73z M14.1,85.9
	c6.1-2.3,13.7,0,17.8,2.5C27.2,91.9,16.9,89.9,14.1,85.9z M34.4,85.9c-6.6-0.3-10.1-8-7.1-14.1C31.2,74.8,35.3,79.1,34.4,85.9z"/>
<path fill-rule="evenodd" clip-rule="evenodd" fill="#FFFFFF" d="M87.3,54.3c-0.2-5.7,0.5-10.2,2.2-13.8c0.9-2.1,3-5.1,4.3-4.9
	C95.5,43.4,93.7,52.5,87.3,54.3z M86.4,66c0.8-7.5,6.5-11.7,12-13.5C96.5,59.1,93.6,64.6,86.4,66z M81.5,17.8
	c6.8,2.2,8.2,14.3,4.9,21.2C80.5,36.2,80.2,25.9,81.5,17.8z M79.4,71.8c-3.3-3.3-7.6-11.5-3.7-17.2C77.9,59,84.3,66.1,79.4,71.8z
	 M77.5,40.2c2.8,5,7.9,7.6,7.4,16C79.5,54.2,74.8,47.2,77.5,40.2z M80,78.6c1.3-5.7,8.2-9,14.4-7.7C91.6,75.5,87.4,78.6,80,78.6z
	 M66.5,86.3c4.1-2.5,11.7-4.8,17.8-2.5C81.5,87.8,71.2,89.8,66.5,86.3z M71.1,69.7c3,6.1-0.5,13.8-7.1,14.1
	C63.1,77,67.1,72.7,71.1,69.7z"/>
<path fill-rule="evenodd" clip-rule="evenodd" fill="#FFFFFF" d="M37.5,90.2c7.5,2.6,18.7,6.7,18.7,6.7l0.6-3l-17.1-5.1L37.5,90.2z"
	/>
<path fill-rule="evenodd" clip-rule="evenodd" fill="#FFFFFF" d="M59.7,88.8l-17.1,5.1l0.6,3c0,0,11.2-4.1,18.7-6.7L59.7,88.8z"/>
<line fill="#8CC9AA" x1="34.4" y1="65.5" x2="62.5" y2="65.5"/>
<line fill="#FFFFFF" x1="34.4" y1="73.5" x2="62.5" y2="73.5"/>
<path fill="#8CC9AA" d="M38.7,54h1.7l3.5,8.3H42l-0.8-1.9h-3.5L37,62.3h-1.9L38.7,54z M40.6,58.9l-1.1-2.7l-1.1,2.7H40.6z"/>
<path fill="#8CC9AA" d="M48,54h1.7l3.5,8.3h-1.9l-0.8-1.9h-3.5l-0.8,1.9h-1.9L48,54z M50,58.9l-1.1-2.7l-1.1,2.7H50z"/>
<path fill="#8CC9AA" d="M58.4,62.5c-0.6,0-1.2-0.1-1.7-0.3c-0.5-0.2-1-0.5-1.3-0.9c-0.4-0.4-0.7-0.8-0.9-1.4s-0.3-1.1-0.3-1.7v0
	c0-0.6,0.1-1.1,0.3-1.7c0.2-0.5,0.5-1,0.9-1.4c0.4-0.4,0.8-0.7,1.4-0.9c0.5-0.2,1.1-0.3,1.7-0.3c0.4,0,0.7,0,1.1,0.1
	c0.3,0.1,0.6,0.1,0.9,0.3c0.3,0.1,0.5,0.2,0.7,0.4c0.2,0.2,0.4,0.3,0.6,0.5l-1.2,1.3c-0.3-0.3-0.7-0.5-1-0.7
	c-0.3-0.2-0.7-0.2-1.1-0.2c-0.3,0-0.7,0.1-1,0.2c-0.3,0.1-0.5,0.3-0.8,0.6s-0.4,0.5-0.5,0.8c-0.1,0.3-0.2,0.6-0.2,1v0
	c0,0.4,0.1,0.7,0.2,1c0.1,0.3,0.3,0.6,0.5,0.8c0.2,0.2,0.5,0.4,0.8,0.6c0.3,0.1,0.6,0.2,1,0.2c0.5,0,0.9-0.1,1.2-0.3
	c0.3-0.2,0.7-0.4,1-0.7l1.2,1.2c-0.2,0.2-0.4,0.4-0.7,0.6c-0.2,0.2-0.5,0.3-0.7,0.5s-0.6,0.2-0.9,0.3C59.2,62.4,58.8,62.5,58.4,62.5
	z"/>
<path fill="#FFFFFF" d="M35.2,67.5h0.4v3.1h2V71h-2.4V67.5z"/>
<path fill="#FFFFFF" d="M42,67.4h0.4L44,71h-0.4L43.2,70h-1.9L40.8,71h-0.4L42,67.4z M43,69.7l-0.8-1.8l-0.8,1.8H43z"/>
<path fill="#FFFFFF" d="M47.2,67.5h1.5c0.2,0,0.4,0,0.5,0.1s0.3,0.1,0.4,0.2c0.1,0.2,0.2,0.3,0.2,0.6v0c0,0.1,0,0.2,0,0.3
	c0,0.1-0.1,0.2-0.1,0.2c-0.1,0.1-0.1,0.1-0.2,0.2c-0.1,0-0.1,0.1-0.2,0.1c0.1,0,0.2,0.1,0.3,0.1s0.2,0.1,0.2,0.2
	c0.1,0.1,0.1,0.1,0.2,0.2c0,0.1,0.1,0.2,0.1,0.3v0c0,0.2,0,0.3-0.1,0.4s-0.1,0.2-0.3,0.3c-0.1,0.1-0.2,0.1-0.4,0.2
	c-0.2,0-0.3,0.1-0.5,0.1h-1.5V67.5z M48.6,69c0.2,0,0.4-0.1,0.6-0.2s0.2-0.3,0.2-0.5v0c0-0.2-0.1-0.3-0.2-0.4
	c-0.1-0.1-0.3-0.2-0.6-0.2h-1.1V69H48.6z M48.7,70.6c0.3,0,0.5-0.1,0.6-0.2c0.2-0.1,0.2-0.3,0.2-0.5v0c0-0.2-0.1-0.3-0.2-0.4
	c-0.2-0.1-0.4-0.2-0.7-0.2h-1.1v1.2H48.7z"/>
<path fill="#FFFFFF" d="M53.3,67.5h2.5v0.4h-2.1V69h1.9v0.4h-1.9v1.2h2.2V71h-2.5V67.5z"/>
<path fill="#FFFFFF" d="M59.1,67.5h0.4v3.1h2V71h-2.4V67.5z"/>
</svg>
