<?xml version="1.0" encoding="utf-8"?>
<!-- Generator: Adobe Illustrator 18.1.1, SVG Export Plug-In . SVG Version: 6.00 Build 0)  -->
<!DOCTYPE svg PUBLIC "-//W3C//DTD SVG 1.1//EN" "http://www.w3.org/Graphics/SVG/1.1/DTD/svg11.dtd">
<svg version="1.1" id="Layer_1" xmlns="http://www.w3.org/2000/svg" xmlns:xlink="http://www.w3.org/1999/xlink" x="0px" y="0px"
	 viewBox="0 0 251.7 161.7" enable-background="new 0 0 251.7 161.7" xml:space="preserve">
<path fill="#D21D5A" d="M125.9,85.9c1.5-1.4,2.8-2.7,4.1-3.9c25.6-25.6,51.1-51.1,76.7-76.7c7.1-7.1,11.3-7.1,18.5,0.1
	c6.7,6.7,13.4,13.4,20.1,20.1c8.5,8.5,8.5,12.4,0.1,20.8c-28.1,28.2-56.3,56.3-84.4,84.4c-8.6,8.6-17.2,17.2-25.8,25.8
	c-6.9,6.9-11.8,6.9-18.8-0.1C79.3,119.4,42.2,82.3,5.1,45.2C-1.7,38.4-1.7,33.6,5,26.9c7.4-7.4,14.8-14.9,22.3-22.3
	c6.2-6.2,10.9-6.2,17.1,0C70.2,30.4,96,56.2,121.8,82C123,83.3,124.4,84.5,125.9,85.9z"/>
</svg>
