<?xml version="1.0" encoding="utf-8"?>
<!-- Generator: Adobe Illustrator 18.1.1, SVG Export Plug-In . SVG Version: 6.00 Build 0)  -->
<!DOCTYPE svg PUBLIC "-//W3C//DTD SVG 1.1//EN" "http://www.w3.org/Graphics/SVG/1.1/DTD/svg11.dtd">
<svg version="1.1" xmlns="http://www.w3.org/2000/svg" xmlns:xlink="http://www.w3.org/1999/xlink" x="0px" y="0px"
	 viewBox="0 0 154 154" enable-background="new 0 0 154 154" xml:space="preserve">
<g id="Twitter" display="none">
	<circle display="inline" fill="#00ADEE" cx="77" cy="77" r="77"/>
	<path display="inline" fill="#FFFFFF" d="M116,52.8c-2.9,1.3-6,2.1-9.2,2.5c3.3-2,5.8-5.1,7-8.9c-3.1,1.8-6.5,3.2-10.2,3.9
		c-2.9-3.1-7.1-5.1-11.7-5.1c-8.8,0-16,7.2-16,16c0,1.3,0.1,2.5,0.4,3.6c-13.3-0.7-25.1-7-33-16.7c-1.4,2.4-2.2,5.1-2.2,8
		c0,5.6,2.8,10.5,7.1,13.3c-2.6-0.1-5.1-0.8-7.2-2c0,0.1,0,0.1,0,0.2c0,7.8,5.5,14.2,12.8,15.7c-1.3,0.4-2.8,0.6-4.2,0.6
		c-1,0-2-0.1-3-0.3c2,6.4,7.9,11,14.9,11.1c-5.5,4.3-12.4,6.9-19.9,6.9c-1.3,0-2.6-0.1-3.8-0.2c7.1,4.5,15.5,7.2,24.5,7.2
		c29.4,0,45.5-24.4,45.5-45.5c0-0.7,0-1.4,0-2.1C111.1,58.8,113.9,56,116,52.8z"/>
</g>
<g id="Youtube">
	<g>
		<path fill-rule="evenodd" clip-rule="evenodd" fill="#FFFFFF" d="M125.5,79.3h-16.3v16.3h-4.6V79.3H88.3v-4.6h16.3V58.4h4.6v16.3
			h16.3V79.3z"/>
		<path fill-rule="evenodd" clip-rule="evenodd" fill="#FFFFFF" d="M63,87.8c1.1,0.8,2.3,1.6,3.4,2.3c6.4,4.1,8.5,9.1,8,13.7
			c-0.6,5.5-6,9.9-15.1,10.5c-9.7,0.6-22.8-3.3-20.4-16.1c1.3-6.8,10.3-10.3,17.8-10.6C58.9,87.6,61,87.7,63,87.8L63,87.8z M85,34.5
			l-6.6,4.2H71c3.1,2.2,5.6,5.4,6.9,8.9c1.4,3.8,1.6,7.9,0.2,11.8c-1.4,3.6-4.1,6.7-8.2,9.1c-2.3,1.3-3.5,3.1-3.6,4.7
			C66,78,71.8,81.5,75.2,84c7.4,5.5,10.3,14.6,5.4,23.4c-4.7,8.4-15.8,12.1-27.6,12.1c-14.7-0.1-23.9-6.8-24.4-15.9
			C27.9,91.8,40.1,86.1,51,84.9c3.1-0.4,5.8-0.3,8.4-0.1c-3.9-2.6-5.3-7.8-3.4-11.2c0.5-0.9,0.2-0.6-0.8-0.4
			c-9,1.4-18.2-4.5-20.4-13.3c-1.1-4.5-0.4-9.2,1.3-12.9c3.7-8,12-12.4,21.1-12.4C66.9,34.5,75.7,34.5,85,34.5L85,34.5z M68.5,54
			c1.2,7.1-0.6,13.8-7,15.6c-6.6,1.8-13.8-3.3-16.1-12.4c-2.6-10,0.1-16.4,6.3-18.3C59,36.6,66.8,43.2,68.5,54L68.5,54z"/>
	</g>
</g>
</svg>
