<?xml version="1.0" encoding="utf-8"?>
<!-- Generator: Adobe Illustrator 18.1.1, SVG Export Plug-In . SVG Version: 6.00 Build 0)  -->
<svg version="1.1" id="Layer_1" xmlns="http://www.w3.org/2000/svg" xmlns:xlink="http://www.w3.org/1999/xlink" x="0px" y="0px"
	 viewBox="0 0 400 400" enable-background="new 0 0 400 400" xml:space="preserve">
<g>
	<path fill="#FFFFFF" d="M130.9,290.7c0.2-2.6,0.4-5.2,0.6-7.7c0.4-5.1,0.8-10.2,1.3-15.2c1.3-13.9,2.6-27.9,6.9-41.4
		c2.2-7.1,6.7-11.6,13.6-13.8c3.1-1,6.2-1.9,9.6-3c-0.7,3.1-1.4,5.8-1.9,8.6c-1,6-1.2,12-0.7,18.1c0.6,7,2,13.8,4.3,20.4
		c0.2,0.6,0,1.5-0.3,2.1c-1.7,3.1-1.6,6.3,0.4,8.9c1.9,2.5,5.2,3.6,8.2,2.7c3.2-0.9,5.3-3.5,5.7-6.9c0.4-3.6-2.6-7.5-6.3-8
		c-1.5-0.2-2.2-0.9-2.6-2.3c-3.2-9.3-4.2-19-3.6-28.8c0.3-5.2,1.3-10.4,3.5-15.2c0.4-0.8,1.2-1.6,2-1.9c2.3-1,4.7-1.8,7.2-2.7
		c2,5.8,3.9,11.6,6,17.3c2.2,5.7,4.6,11.2,8.1,16.2c0.2,0,0.4-0.1,0.5-0.1c0.4-1.9,0.8-3.8,1.1-5.8c0.5-3.2,0.9-6.4,1.6-9.5
		c0.5-2.1,0.4-4.1-0.7-5.9c-0.6-1-0.4-1.7,0.6-2.4c1.1-0.8,2.2-1.7,3.2-2.7c0.8-0.7,1.4-0.7,2.1,0c0.4,0.4,0.8,0.7,1.2,1
		c3,2.5,2.8,2.5,1.9,6.2c-0.4,1.6,0.1,3.3,0.4,5c0.7,4.3,1.4,8.6,2.1,12.8c0.1,0.4,0.2,0.8,0.6,1.3c6.7-10.2,10.5-21.7,14.2-33.3
		c3.5,1.1,6.8,2.2,10.2,3.4c0.5,0.2,0.8,1,0.9,1.6c0.9,4.4,0.5,8.9-0.5,13.3c-0.1,0.5-0.9,1.2-1.5,1.3c-8.4,0.8-13.1,5.6-15.5,13.4
		c-1.7,5.5-4,10.8-5.8,16.3c-0.7,2.1-0.8,4.5-1,6.7c-0.2,4.9,3.4,7.9,8.1,8.6c1.6,0.2,2.5-0.8,2.9-2.3c0.4-1.4-0.2-2.5-1.5-3.2
		c-3.8-2-4.5-3-3.2-7.2c1.4-4.6,3.1-9,4.7-13.4c0.7-1.9,1.3-3.9,2-5.8c3-7.8,12.1-9.6,17.5-3.6c2,2.3,2.7,5.1,2.4,8.2
		c-0.4,4.3-0.7,8.5-1.2,12.8c-0.4,3-0.7,6.1-1.4,9c-0.7,2.9-1.9,3.5-4.8,3.5c-2.2,0-3.4,0.8-3.6,2.5c-0.2,1.5,0.9,2.8,2.8,3.2
		c4.7,1.1,8.8-0.7,10.4-5.3c1.3-3.8,1.9-7.9,2.5-12c0.6-4.7,0.9-9.3,1.2-14c0.5-6.7-2.2-11.9-8.1-15.2c-1.1-0.6-1.3-1.2-1.1-2.3
		c0.7-4.2,1.5-8.3,0.8-12.6c-0.1-0.4,0.1-0.8,0.1-1.5c7.4,2.4,15.5,3.6,19.5,11.4c2,3.8,3.4,8.1,4.2,12.3c1.8,9.5,3.1,18.9,4.3,28.5
		c1.1,8.5,1.7,17,2.4,25.5c0.1,1,0,2,0,3.1C223.5,290.7,177.4,290.7,130.9,290.7z"/>
	<path fill="#FFFFFF" d="M165.3,155.7c-0.4-3.1-1-6.6-1.4-10c-0.6-4.9,0.3-9.6,2.2-14.1c1.2-3,3.4-5,6.3-6.3
		c0.6-0.3,1.3-0.7,1.6-1.2c5.2-8.5,13.1-12.9,22.9-13.5c9.1-0.6,17.8,1,25.1,7.1c3.2,2.7,5.7,6,7.7,9.7c0.3,0.6,0.7,1.3,1.3,1.6
		c3.2,1.8,4.2,4.9,4.7,8.3c0.8,6.1-0.1,12.1-1.2,18c-0.1,0.3-0.1,0.7-0.1,0.8c1.2,0.4,2.6,0.4,3.2,1.1c0.7,0.9,0.9,2.4,1,3.6
		c0.2,2.8-0.7,5.2-3,6.9c-1.6,1.2-2.6,3.2-5.1,3.2c-0.4,0-0.8,0.9-1,1.5c-2.5,6.1-5.5,12-9.9,16.9c-1.7,2-3.7,3.8-5.8,5.4
		c-8.6,6.5-18.7,6.3-27.1-0.4c-6.7-5.3-10.9-12.3-14.3-20c-0.3-0.6-0.6-1.3-0.8-2c-0.3-1-0.8-1.6-2-1.8c-4.7-0.8-8.7-8.7-6.6-12.9
		C163.2,156.9,164.3,156.5,165.3,155.7z M192.9,139.2c0,0.2,0,0.5,0,0.7c3,0.5,6,1.3,9.1,1.6c4.5,0.4,8.9,0.1,13.3-1.2
		c1.9-0.6,3.4,0.7,2.8,2.3c-0.3,0.7-1.2,1.4-2,1.6c-5.3,1.6-10.8,1.9-16.2,1.1c-8.2-1.2-15.8-3.7-21.2-10.9
		c-3.1,3.2-5.5,6.9-5.7,11.3c-0.4,12.1,2.6,23.5,8.5,34.1c2.6,4.8,6.1,8.9,10.8,11.8c5.3,3.3,10.8,3.4,16.2,0.2
		c1.8-1.1,3.5-2.4,5-3.9c5.3-5.2,8.7-11.6,11-18.7c3-9.1,4.3-18.3,2-27.7c-0.7-3-1.9-5.8-4-8.2C213.4,140.2,203.5,141.6,192.9,139.2
		z"/>
</g>
</svg>
