<?xml version="1.0" encoding="utf-8"?>
<!-- Generator: Adobe Illustrator 18.1.1, SVG Export Plug-In . SVG Version: 6.00 Build 0)  -->
<!DOCTYPE svg PUBLIC "-//W3C//DTD SVG 1.1//EN" "http://www.w3.org/Graphics/SVG/1.1/DTD/svg11.dtd">
<svg version="1.1" id="Twitter" xmlns="http://www.w3.org/2000/svg" xmlns:xlink="http://www.w3.org/1999/xlink" x="0px" y="0px"
	 viewBox="0 0 154 154" enable-background="new 0 0 154 154" xml:space="preserve">
<path fill="#FFFFFF" d="M116,52.8c-2.9,1.3-6,2.1-9.2,2.5c3.3-2,5.8-5.1,7-8.9c-3.1,1.8-6.5,3.2-10.2,3.9c-2.9-3.1-7.1-5.1-11.7-5.1
	c-8.8,0-16,7.2-16,16c0,1.3,0.1,2.5,0.4,3.6c-13.3-0.7-25.1-7-33-16.7c-1.4,2.4-2.2,5.1-2.2,8c0,5.6,2.8,10.5,7.1,13.3
	c-2.6-0.1-5.1-0.8-7.2-2c0,0.1,0,0.1,0,0.2c0,7.8,5.5,14.2,12.8,15.7c-1.3,0.4-2.8,0.6-4.2,0.6c-1,0-2-0.1-3-0.3
	c2,6.4,7.9,11,14.9,11.1c-5.5,4.3-12.4,6.9-19.9,6.9c-1.3,0-2.6-0.1-3.8-0.2c7.1,4.5,15.5,7.2,24.5,7.2c29.4,0,45.5-24.4,45.5-45.5
	c0-0.7,0-1.4,0-2.1C111.1,58.8,113.9,56,116,52.8z"/>
</svg>
