<?xml version="1.0" encoding="utf-8"?>
<!-- Generator: Adobe Illustrator 18.1.1, SVG Export Plug-In . SVG Version: 6.00 Build 0)  -->
<svg version="1.1" id="Layer_1" xmlns="http://www.w3.org/2000/svg" xmlns:xlink="http://www.w3.org/1999/xlink" x="0px" y="0px"
	 viewBox="0 0 878.7 25.2" enable-background="new 0 0 878.7 25.2" xml:space="preserve">
<g>
	<g>
		<g>
			<path d="M626.8,8.5c-0.4,0,0.5-0.1,0.7-0.1C627.8,8.5,627,8.6,626.8,8.5z"/>
			<path d="M647.1,8.6c0-0.1,0.9-0.1,1.4-0.1C648.4,8.6,647.6,8.6,647.1,8.6z"/>
			<path d="M527.4,8.7c-0.4,0,0.5-0.1,0.7-0.1C528.5,8.7,527.6,8.7,527.4,8.7z"/>
			<path d="M632.4,8.6c2,0.1,2.6,0.4,4.2,0.1c2.4,0.2-1.4,0.4-2.8,0.4C633.5,8.9,631.8,8.9,632.4,8.6z"/>
			<path d="M640.1,9.3c-0.6,0-0.7,0-0.7-0.1c0.1-0.1-0.3-0.1-0.7-0.1c1.9-0.2,2.9-0.5,7-0.5c0.6,0.2-1.9,0.3-2.8,0.4
				c-0.3,0-0.6,0.2-0.7,0.2C641.8,9.2,638.9,8.9,640.1,9.3z"/>
			<path d="M754.8,8.6c3.5-0.1,1.7,0.6,6.3,0.4c-0.4,0.1-0.7,0.1-0.7,0.3c-2,0.1-3.2-0.2-4.2-0.2c-0.8,0-0.7,0.2-2.1,0.2
				c-0.1-0.2,0.9-0.2,0.7-0.4c-1.9-0.1-1.4,0.2-2.1,0.3C749.8,8.9,755.1,8.9,754.8,8.6z"/>
			<path d="M647.8,8.8c-0.4,0,0.5-0.1,0.7-0.1C648.8,8.8,648,8.8,647.8,8.8z"/>
			<path d="M673.7,8.7c-1.1,0.1,0.2,0.4-2.1,0.4C671.8,8.9,671.8,8.7,673.7,8.7z"/>
			<path d="M537.2,8.9c-0.4,0,0.5-0.1,0.7-0.1C538.3,8.9,537.4,8.9,537.2,8.9z"/>
			<path d="M542.8,8.8c-1.3,0.1,0.1,0.6-2.8,0.5c-0.3-0.2,0.5-0.2,1.4-0.2C541.1,9.1,540.8,9,540,9C540.5,8.9,541.5,8.8,542.8,8.8z"
				/>
			<path d="M604.4,8.9C606.2,8.6,606.1,9.4,604.4,8.9L604.4,8.9z"/>
			<path d="M645.7,8.9c0.3-0.2,2.2,0,1.4,0.2c-1.4,0-2.2,0-2.1-0.2c0.6,0,0.7,0.1,1.4,0.1C646.5,8.9,646.1,8.9,645.7,8.9z"/>
			<path d="M652.7,8.9c0.6-0.2,3.1,0.1,1.4,0.2C653.3,9.1,653.6,8.9,652.7,8.9z"/>
			<path d="M606.5,8.9c0.5,0,0.9,0,1.4,0c0,0.1,0,0.1,0,0.2c-0.5,0-0.9,0-1.4,0C606.5,9,606.5,9,606.5,8.9z"/>
			<path d="M526.7,9.1c-0.4,0,0.5-0.1,0.7-0.1C527.8,9,526.9,9.1,526.7,9.1z"/>
			<path d="M555.4,9c1,0.1,2.2,0.1,2.1,0.4c-0.9,0-1.9,0-2.8,0C555.3,9.3,555.5,9.1,555.4,9z"/>
			<path d="M649.9,9.1c-0.4,0,0.5-0.1,0.7-0.1C650.9,9,650.1,9.1,649.9,9.1z"/>
			<path d="M673.7,9.1c0.2-0.1,1.4-0.1,1.4,0C674.7,9.2,674.4,9.1,673.7,9.1z"/>
			<path d="M461,9.2c0.3-0.2,0.9,0.1,0.7,0.2C461.4,9.5,460.8,9.3,461,9.2z"/>
			<path d="M462.4,9.2c-0.4,0,0.5-0.1,0.7-0.1C463.4,9.1,462.6,9.2,462.4,9.2z"/>
			<path d="M565.9,9.1c1.2,0.1,0.1,0.2,0,0.3C564.7,9.3,565.8,9.2,565.9,9.1z"/>
			<path d="M470.1,9.2c1.5,0,0.3,0.3,0.7,0.4C469.5,9.5,468.9,9.3,470.1,9.2z"/>
			<path d="M547,9.4c-0.4,0,0.5-0.1,0.7-0.1C548.1,9.3,547.2,9.4,547,9.4z"/>
			<path d="M803.1,9.4c-0.4,0,0.5-0.1,0.7-0.1C804.2,9.3,803.3,9.4,803.1,9.4z"/>
			<path d="M463.8,9.5c-0.3,0.1-0.9,0.2-2.1,0.2C462,9.6,462.6,9.5,463.8,9.5z"/>
			<path d="M442.8,9.9c-0.4,0,0.5-0.1,0.7-0.1C443.8,9.8,443,9.9,442.8,9.9z"/>
			<path d="M368.6,10c1.1,0,1.2,0.1,2.1,0.1c0,0.1,0,0.1,0,0.2c-0.8,0-1.2,0-1.4,0.1C368.4,10.3,368.7,10.1,368.6,10z"/>
			<path d="M374.2,10.2c0.2-0.1,0.8,0,0.7,0.1C374.7,10.4,374.1,10.3,374.2,10.2z"/>
			<path d="M372.1,10.3c-0.4,0,0.5-0.1,0.7-0.1C373.2,10.3,372.3,10.4,372.1,10.3z"/>
			<path d="M365.8,10.4c0.1-0.1,1.3-0.1,2.1-0.1C367.8,10.4,366.6,10.4,365.8,10.4z"/>
			<path d="M348.3,10.5c-0.4,0,0.5-0.1,0.7-0.1C349.4,10.5,348.5,10.5,348.3,10.5z"/>
			<path d="M597.4,10.5c0.1-0.1,1.3-0.1,2.1-0.1C599.4,10.5,598.2,10.5,597.4,10.5z"/>
			<path d="M727.5,10.5c0-0.1,0.9-0.1,1.4-0.1C728.9,10.5,728.1,10.5,727.5,10.5z"/>
			<path d="M736.6,10.5c0.6,0.1,1.9,0.1,2.1,0C742,10.7,735.1,11,736.6,10.5z"/>
			<path d="M323.1,10.7c-0.4,0,0.5-0.1,0.7-0.1C324.2,10.7,323.3,10.7,323.1,10.7z"/>
			<path d="M283.2,11.4c0.1-0.1,1.3-0.1,2.1-0.1c0.2,0.2,0.2,0.5-2.1,0.4C283.2,11.6,286.2,11.4,283.2,11.4z"/>
			<path d="M314.7,11.5c-0.4,0,0.5-0.1,0.7-0.1C315.8,11.5,314.9,11.5,314.7,11.5z"/>
			<path d="M309.1,11.7c-0.4,0,0.5-0.1,0.7-0.1C310.2,11.6,309.3,11.7,309.1,11.7z"/>
			<path d="M668.1,13.1c2.3,0.1,0.7,0.3,2.8,0.4c-0.9,0.4-1.8,0-3.5,0C667.1,13.3,667.8,13.3,668.1,13.1z"/>
			<path d="M654.1,13.3c0.5-0.2,1.3,0,2.1,0C655.6,13.5,654.9,13.3,654.1,13.3z"/>
			<path d="M663.2,13.3c-0.4,0,0.5-0.1,0.7-0.1C664.2,13.3,663.3,13.3,663.2,13.3z"/>
			<path d="M611.4,13.3c2.6,0.2-1.7,0.3-2.1,0.5c-0.9,0-0.6-0.2-0.7-0.4c0.6,0.1,1.6,0.1,2.8,0.1C611.4,13.4,611.4,13.4,611.4,13.3z
				"/>
			<path d="M651.3,13.4c-0.4,0,0.5-0.1,0.7-0.1C652.3,13.4,651.5,13.4,651.3,13.4z"/>
			<path d="M622.6,13.5c0.2-0.1,1.4-0.1,1.4,0C623.7,13.6,623.4,13.5,622.6,13.5z"/>
			<path d="M628.9,13.4c0.2,0.2-1,0.3-2.8,0.3C626.7,13.5,627.1,13.4,628.9,13.4z"/>
			<path d="M655.5,13.5C653.4,13.8,652.7,13.2,655.5,13.5L655.5,13.5z"/>
			<path d="M694.6,13.5L694.6,13.5c2.6-0.1-1,0.3-1.4,0.1C693.1,13.5,694.2,13.5,694.6,13.5z"/>
			<path d="M675.8,13.6c0.7-0.1,1.1,0,0.7,0.1C675.7,13.8,675.4,13.6,675.8,13.6z"/>
			<path d="M689.7,13.6c0.2-0.1,1.4-0.1,1.4,0C690.8,13.7,690.5,13.6,689.7,13.6z"/>
			<path d="M750.6,13.5c-1.1,0.1-1,0.3-2.8,0.3C748.4,13.6,748.4,13.4,750.6,13.5z"/>
			<path d="M656.2,13.7c-0.4,0,0.5-0.1,0.7-0.1C657.2,13.6,656.4,13.7,656.2,13.7z"/>
			<path d="M517.6,13.8c0.6,0,1.1,0.1,2.1,0.1c-0.1,0.1-0.7,0.1-0.7,0.2c-0.5,0-0.9,0-1.4,0C517.6,13.9,517.6,13.9,517.6,13.8z"/>
			<path d="M540.7,13.9C538.6,14.2,538.4,13.6,540.7,13.9L540.7,13.9z"/>
			<path d="M520.4,13.9c0-0.1,0.9-0.1,1.4-0.1C521.8,13.9,521,13.9,520.4,13.9z"/>
			<path d="M536.5,13.9c0-0.1,0.9-0.1,1.4-0.1C537.9,13.9,537.1,13.9,536.5,13.9z"/>
			<path d="M796.8,14.1c-0.4,0,0.5-0.1,0.7-0.1C797.9,14.1,797,14.1,796.8,14.1z"/>
			<path d="M456.8,14.3c-0.4,0,0.5-0.1,0.7-0.1C457.8,14.3,457,14.3,456.8,14.3z"/>
			<path d="M460.3,14.3c-0.4,0,0.5-0.1,0.7-0.1C461.3,14.3,460.5,14.3,460.3,14.3z"/>
			<path d="M314.7,15.7c0.6-0.2,2.5,0.1,3.5,0.1c-0.2,0.1-1.2,0.1-1.4,0.3C315.4,16.1,316.7,15.7,314.7,15.7z"/>
			<path d="M321,15.7c-0.4,0,0.5-0.1,0.7-0.1C322.1,15.7,321.2,15.8,321,15.7z"/>
			<path d="M325.9,15.7c1,0.1,2.2,0.1,2.1,0.4C327,15.9,325.3,15.9,325.9,15.7z"/>
			<path d="M362.3,15.9c0-0.1,0.9-0.1,1.4-0.1C363.7,15.9,362.8,15.9,362.3,15.9z"/>
			<path d="M318.9,16.1c0.2-0.1,1.4-0.1,1.4,0C319.7,16.2,319.1,16.2,318.9,16.1z"/>
			<path d="M323.8,16.1c0.1-0.1,1.3-0.1,2.1-0.1C325.8,16.1,324.6,16.1,323.8,16.1z"/>
			<path d="M350.4,16.7c-0.4,0,0.5-0.1,0.7-0.1C351.5,16.7,350.6,16.8,350.4,16.7z"/>
			<path d="M310.5,16.8c0.1-0.1,0.7,0,0.7,0C311.1,16.9,310.5,16.9,310.5,16.8z"/>
			<path d="M267.2,16.9c2.1,0.1-0.1,0.4-2.1,0.3C265.1,17,267.4,17.1,267.2,16.9z"/>
			<path d="M279,16.9c0.8,0,0.5,0.2,1.4,0.2C280.1,17.3,278.2,17.1,279,16.9z"/>
			<path d="M241.3,17.1c2.7,0.1,0.5,0.4-2.1,0.3C238.9,17.1,242.4,17.4,241.3,17.1z"/>
			<path d="M261.6,17.2c-0.1-0.1,0.3-0.1,0.7-0.1c0.5,0,0.9,0,1.4,0c0,0.1,0,0.2,0,0.3C262.7,17.3,262.6,17.2,261.6,17.2z"/>
			<path d="M207.7,17.5c-0.1-0.1,1.9-0.3,3.5-0.2c-0.7,0.1-0.7,0.3-1.4,0.5c-0.9,0-1.9,0-2.8,0c0-0.1,0-0.2,0-0.4
				C207.6,17.3,207.6,17.4,207.7,17.5z"/>
			<path d="M222.4,17.5c0-0.1,0.9-0.1,1.4-0.1C223.8,17.5,222.9,17.5,222.4,17.5z"/>
			<path d="M430.2,18c1.8,0,1.8,0.2,2.1,0.4C429.8,18.4,429.1,18.1,430.2,18z"/>
			<path d="M55.9,18.4c3.2,0.3,11.9-0.2,14,0.3c-1.7,0.3-4.6,0.2-7,0.1c-3.5,0-3.4,0.1-6.3,0C56,18.7,55.8,18.6,55.9,18.4z"/>
			<path d="M130,17.5c0.6-0.2,0.4,0.1,1.4,0.1c0.6,0,0.7,0.1,1.4,0.1c2.1,0,6.9-0.2,9.1-0.2c1.2,0,1.3,0,1.4,0.2
				c2.4-0.3,6,0,9.1-0.1c0.7,0,0.6-0.1,0.7-0.2c1.5,0.1,1.5,0.1,0.7,0.3c1.4,0.1,1.1-0.2,1.4-0.2c0,0,3.2,0,4.2,0
				c5.5-0.1,10.9,0.1,17.5,0c-1,0.3-1.3,0.4-3.5,0.5c-1.3,0-1.5-0.1-2.8-0.1c-5.6,0.1-13.5,0.1-18.2,0.2c-1,0-1.3-0.1-2.1-0.1
				c-0.5,0-1.3,0.2-1.4,0.2c-1.2,0-1.2-0.1-2.1-0.1c-4.2,0-9.4,0.2-13.3,0.2c-4,0-10.1-0.1-14,0c-2.7,0.1-2.9-0.2-4.9,0.1
				c-2.3-0.2-4.8,0-7-0.3c-2.3,0.1-4.3,0.2-6.3,0.3c-6.1-0.2-12.9,0.1-19.6,0c-1.6,0-3.1,0-4.9,0c-1.2,0-1.2-0.1-2.1-0.1
				c-2.6,0-4.5,0-7,0c-3.1,0-6.1-0.1-9.1-0.1c-1.3,0-1.5,0.1-2.8,0.1c-1.3,0-2.7-0.2-4.2-0.2c-1.4,0-2.9,0.1-4.2,0.1
				c-3.4-0.1-6.2-0.2-10.5-0.3c-0.6,0-2.8,0-2.8,0c-1.4,0-2.5-0.2-3.5-0.3c-1.4-0.1-2.4,0.1-3.5-0.1c-0.1-0.3-0.8-0.3,0-0.5
				c-0.2-0.2-1.8-0.2-2.8-0.3c-0.6-0.1-1.4-0.2-2.1-0.3c-0.7-0.1-2,0-2.8,0c-1.1,0-0.8-0.2-2.1-0.4c-0.4,0-1.7,0-2.1,0
				c-0.2,0-0.5-0.2-0.7-0.2c-0.6-0.1-1.8-0.3-2.8-0.5c-0.6-0.1-0.8-0.2-1.4-0.3c-1-0.1-1.6-0.4-2.1-0.7C8,14.2,9.1,14.2,9,14.1
				c-0.1-0.2-1.2-0.4-1.4-0.6c-0.4-0.4,0.5-0.7-1.4-1c1.8-0.4,0.5-0.9,2.1-1.4c-4.3-0.4-2.4-1.2-7-1.6C1.3,9.3,0.9,9.1,2,9.1
				c-3-0.4-1.8-0.8-1.4-1.4c2.2,0,3.8-0.2,6.3-0.2c1.5,0,2.9,0.1,4.2,0.2c1.8,0,2.1-0.2,4.2,0c1.3,0.1,1.6,0.2,2.8,0.2
				c0.6,0,1.5,0,2.1,0c0.4,0,0.4,0.2,0.7,0.2c1,0.1,2,0,2.8,0.1c1.6,0.1,2,0.2,4.9,0.2c3.3,0,7.1,0.1,12.6,0.3
				c1.4,0,2.4,0.2,3.5,0.2c1.4,0,2.8-0.1,4.2-0.1c2.1,0,8.8,0.1,11.9,0.2c3.4,0.1,9.3-0.1,11.9-0.1c1.8,0,8.3,0.2,11.9,0.2
				c0.6,0,1.1-0.1,2.1-0.1c1.6,0,3.3,0.1,4.9,0.1c1.1,0,1.2-0.1,2.1-0.1c5.3,0,10.3,0.1,15.4,0.1c1.2,0,1.8-0.1,2.1-0.2
				c0.6,0.3,1.6,0,4.9,0.1c1.9,0,1.5,0,3.5,0c1,0,3.1-0.1,4.2-0.1c0.6,0,0.7,0.1,1.4,0.1c1.7,0,4.6-0.2,7,0.1
				c6.4-0.2,12.7-0.3,18.9-0.3c4.3,0,12,0.1,17.5,0c1.1,0,1.2-0.1,2.1-0.1c1.2,0,2.7,0.1,2.8,0.1c1.9,0,3.7-0.1,5.6-0.1
				c3.7,0.1,7.4-0.2,11.2-0.1c3.4,0.1,9.4,0,14.7-0.1c1.9,0,1.5,0.1,3.5,0c2.7-0.1,6,0.2,7-0.1c0.4,0.3,3.4,0,7,0.1
				c0.5,0,1.5,0.1,1.4,0.1c2.2,0,4.7-0.2,7-0.2c7.9-0.1,17.4,0,24.5-0.2c2.9-0.1,7.2,0.1,9.1,0.1c4.7,0,10.7-0.3,17.5-0.2
				c1,0,1.3,0.1,2.1,0.1c2.1,0,4.4-0.2,6.3-0.2c4.5-0.1,9.1,0.1,13.3,0c1,0,1.3-0.1,2.1-0.1c1.6,0,3,0,4.9,0c2.6,0,5,0.1,7.7,0.1
				c1.8,0,3.8-0.2,5.6-0.2c1.5,0,1.8,0.1,2.8,0.1c3.1,0,6.6-0.2,9.1-0.2c1.4,0,1.7,0.2,2.8,0.2c0.3,0,3.9-0.2,4.2-0.2
				c0.4,0,2.1,0.2,2.8-0.1c1,0.2,3.7,0.1,4.9,0.1c0.6,0,0.7,0.1,1.4,0.1c1.1,0,1.7-0.1,2.8-0.2c4.8-0.1,11.9,0.1,16.1,0
				c1,0,1.9-0.2,2.8-0.2c1.1,0,1.2,0.1,2.1,0.1c1.3,0,2.6-0.1,2.8-0.1c0.6,0,0.7,0.1,1.4,0.1c7.6-0.1,16.3-0.1,23.1-0.2
				c1.1,0,1.2,0.1,2.1,0.1c0.8,0,1.6-0.2,2.1-0.2c1.1,0,1,0.1,1.4,0.1c1.5,0,5.3-0.2,7.7,0.1c6.3-0.5,19.3,0.1,28-0.4
				c1.2,0,2.9,0,3.5,0.2c1.1-0.2,10.4-0.3,14-0.3c3.6,0,6.3,0.2,9.8,0.1c0.6,0,2.1-0.2,2.8-0.2c1.3,0,3.4,0.1,4.9,0.1
				c2,0,7.5-0.2,11.2-0.2c3.1,0,6.2,0.1,9.8,0.1c1.2,0,4.6-0.2,6.3,0.1c2.7-0.1,6.1-0.2,8.4-0.2c2,0,3.7,0.1,5.6,0.1
				c1.9,0,3.7-0.2,5.6-0.2c2.9,0,5.5,0.1,8.4,0.1c0.6,0,1.3-0.1,1.4-0.2c5.2,0.4,12.6-0.3,17.5,0.1c0.7,0.1,0.5-0.2,0.7-0.2
				c1.2,0,3.5,0.1,5.6,0.1c6.4,0,14.6,0,20.3,0c1.4,0,3.8-0.3,3.5,0.1c2.4-0.4,9.4-0.1,15.4-0.2c0,0.1,0,0.2,0,0.3
				c1.3,0,0.4-0.3,1.4-0.4c2.1,0.2,6.5-0.2,8.4,0.2c1.2-0.4,5,0,8.4-0.1c0.9,0,2-0.2,2.1-0.2c0.9,0,1.1,0.2,2.1,0.2
				c2,0,4.7-0.2,7-0.2c0.9,0,0.9,0.2,1.4,0.2c1,0.1,1.1-0.1,1.4-0.1c0.5,0,1.2,0.1,2.1,0.1c1.5,0,2.2,0,3.5,0c1.3,0,2.5-0.2,3.5-0.2
				c1.1,0,2.4,0.1,3.5,0.1c1.1,0,1.2-0.1,2.1-0.1c3.8,0,7.5,0.2,11.2,0.2c1.1,0,1.2-0.1,2.1-0.1c0.6,0,1.5,0.1,1.4,0.1
				c0.5,0,1.3-0.2,1.4-0.2c0.5,0,0.8,0.1,1.4,0.1c0.9,0,1.2-0.1,1.4-0.1c2.4,0,5.3,0.1,7.7,0.1c0.9,0,2.6-0.1,3.5-0.1
				c2.9,0,6.4,0.4,9.1,0c14,0.2,30.8,0,42,0.3c0.7,0,0.5-0.1,0.7-0.2c3.9,0,8.4,0.3,11.2,0c2.7,0.1,6.3,0.1,9.8,0.2
				c3.2,0.1,5.7-0.2,7.7,0.1c0.8,0,0.5-0.2,1.4-0.2c1.5,0,2.2,0.1,2.1,0.3c5.9-0.3,13.9-0.1,23.8-0.1c3.6,0,7.7-0.1,11.2,0
				c0.2,0,2,0.2,2.1,0.2c3.3,0,6-0.1,9.1-0.1c1.5,0,1.7,0,2.8,0c1.1,0,2.6,0.2,3.5,0.2c3.4,0,9.2-0.3,7.7,0.1c1.6,0,1-0.2,2.1-0.2
				c2.9,0,4.8,0.2,6.3,0.5c2.2-0.1,2.6-0.3,4.9-0.3c1.1,0,2.2,0.1,3.5,0.1c1.2,0,1.2-0.1,2.1-0.1c1.3,0,1.6,0.2,2.1,0.2
				c1.1,0,3-0.1,4.2-0.1c3.4,0,7.4,0.2,10.5,0.2c1.4,0,2-0.1,2.8-0.1c0.8,0,1.3,0.1,2.8,0.2c0.8,0,2,0,2.8,0c0.6,0,0.5,0.2,1.4,0.2
				c3.4,0.1,8.8,0,9.8,0.5c0.7,0,1.4,0,2.1,0c0.1,0.3,1.4,0.5,1.4,0.8c0,0-1.4,0.2-1.4,0.2c-0.1,0.1,0.8,0.4-0.7,0.6
				c-0.2,0-1.2,0-1.4,0c-0.8,0.1-0.2,0.2-0.7,0c-0.6,0-0.7,0.1-1.4,0.1c-0.1,0.2,0.9,0.2,0.7,0.4c1.3,0,1.5-0.1,2.8-0.1
				c0.4,0.2-1,0.1-0.7,0.1c-2.5,0.2-1.6,0.4-3.5,0.1c-1.8,0,1,0.2,0,0.4c-0.9,0-2.1-0.4-2.8-0.1c-1,0,0.3-0.1,0-0.3
				c-1.3-0.2-2.8-0.3-5.6-0.3c-1.4,0-0.2,0.4-2.1,0.4c-1.6,0.1-2.5-0.4-2.8,0c-1.6,0-0.4-0.4,0.7-0.4c-0.9-0.1-2.4-0.2-4.2-0.2
				c-0.3,0.2,4.2,0.1,0.7,0.2c-2.6,0.1-1.7,0.1-4.2,0.1c-1.9,0-3.8,0.2-4.9,0.1c-1.4-0.3-1.5-0.3-4.2-0.4c0.2-0.1,1.2-0.1,1.4-0.3
				c-1,0.1-5.5,0.2-4.2,0.4c-0.3,0.3-1.1,0-2.1-0.1c-2.2-0.1-3.6,0-4.9-0.3c-0.9,0.1,0.6,0.3-1.4,0.4c-1.2,0-1.3-0.1-1.4-0.2
				c-2.3,0-2.4,0.3-4.9,0.3c0.1-0.2-1.1-0.3-2.1-0.4c-1.4-0.1-1.1,0.2-1.4,0.2c0.2,0-3.4,0.1-4.2,0.1c-0.7,0-1.7-0.2-2.1-0.2
				c-1.9,0-1.5,0.2-2.8-0.1c-4,0.2-4.6,0.1-9.1,0c3-0.2-0.7-0.4,0-0.8c-1.6,0.1-1,0.5-2.1,0.7c-2,0.1-1.8-0.1-3.5-0.1
				c0.2-0.1,1.2-0.2,1.4-0.1c1-0.1,2-0.3,2.8-0.5c-0.3-0.3-1.5-0.4-3.5-0.3c-0.1,0.2,1.6,0.2,2.1,0.4c-1.3,0.3-3.8,0-4.9,0.3
				c2.3,0,0.7,0.2-1.4,0.4c-1.8,0.1-2.4-0.4-3.5-0.1c-0.4-0.3-0.7,0.1-2.8-0.1c-0.1-0.2,1.1-0.3,1.4-0.4c-1.8,0-2.3,0.1-2.1,0.4
				c-0.5-0.1-3.4-0.2-2.8,0.1c-3.2-0.2-2.9-0.2-5.6,0c-0.3-0.1-3.4-0.6,0-0.6c-1.4-0.1-3.7-0.1-4.2-0.4c-1.5,0-0.2,0.4-1.4,0.5
				c-0.7-0.2-2.2-0.2-3.5-0.3c-0.2,0.2,2.7,0.1,2.1,0.4c2,0.1,1.8-0.1,3.5-0.1c-0.3,0.2,0.5,0.3,0.7,0.2c1.7,0.1-0.3,0.5-2.8,0.4
				c1.3-0.3,0.4,0-1.4-0.2c-0.5,0-0.1-0.3-1.4-0.3c-1.6,0.1-1.1,0.2-0.7,0.4c-2-0.1-2-0.5-3.5-0.6c-1.8,0,1,0.2,0,0.4
				c-0.8-0.1-1.9-0.1-3.5-0.1c1.8-0.2-0.6-0.5,0.7-0.6c-4.7,0.1-7.2,0-9.8,0c-1.6,0.1,0.8,0.1-0.7,0.3c-3.3,0.2-4.3,0.1-7.7,0.2
				c0.6,0.1,0.4,0.2,1.4,0.3c-1,0.2-5.2,0-6.3-0.3C738.6,9,737,9,735.9,8.8c0.5-0.2,1.3,0,2.1,0c-1.1-0.4-2.7-0.3-4.9-0.4
				c-0.3,0.2,1.3,0.2,0.7,0.5c-1.8-0.1-2.1-0.3-1.4-0.5c-3,0-5.7,0.6-2.8,0.7c-0.5,0.2-4,0.3-4.2,0c-0.7,0.1-0.7,0.2-2.1,0.2
				c0-0.1-0.9-0.1-1.4-0.1c0.5-0.2,1.4-0.5-1.4-0.5c0.1-0.1,1.3-0.1,2.1-0.1c0-0.1,0-0.3,0-0.5c-0.9,0.1-2.6,0.1-3.5,0.2
				c-1.1,0.4,2.2,0.5,0.7,0.7c-3.4,0-3.5-0.4-2.8-0.7c-1.7-0.1-8.6-0.2-8.4,0.2c-1.4,0-0.2-0.4-2.1-0.4c-1.4,0.1-0.7,0.6,0,0.7
				c1.1-0.2,0.5-0.2,2.1-0.3c2.1-0.1,0.4,0.4,2.8,0.1c1.9-0.3,0,0,2.1,0c1.2,0,1.3-0.1,1.4-0.2c1.5,0.1-0.5,0.2,0.7,0.5
				c-1.3-0.2-1.9,0.1-2.8,0.1c-1,0-3.8,0.1-4.9,0.1c-1.8,0-2.5-0.1-4.9-0.1c-3,0.1-5.2-0.1-7.7,0.1c0.5-0.3-1.2-0.3-0.7-0.5
				c1,0.3,5.3,0.2,6.3-0.2c1.6,0,1,0.2,2.1,0.2c1.8,0,2.3-0.1,2.1-0.4c-1.3-0.1-1.2,0.2-1.4,0.2c-0.7,0-1.4-0.2-2.1-0.2
				c-1.8-0.1-3.7,0.1-4.2-0.1c-0.6,0.2-4.5,0-4.9,0.2c-0.3-0.3-5.4,0-5.6-0.4c-1.1,0.1-3.6,0.1-4.2,0.3c-1.2-0.2-4.1-0.1-6.3-0.1
				c-1.2,0-1.3,0.1-1.4,0.2c-0.8,0-3.6-0.4-2.1-0.2c-0.9,0.2-2.7,0.1-4.2,0.1c-1.1,0-1.7-0.2-2.1-0.2c-1.2,0-1.5,0.1-2.8,0.1
				c-0.3,0-1.1-0.1-2.1-0.1c-0.9,0-1.9,0.2-2.8,0.2c-2.1,0-3.2-0.1-6.3-0.1c-0.7,0-2.3,0.1-2.1,0.1c-0.4,0-1.5-0.2-1.4-0.2
				c-0.9,0-1.1,0.2-2.1,0.2c-2.9,0-6.3-0.2-8.4,0.2c-1.1-0.3-4.9-0.2-5.6-0.5c-0.9,0-0.6,0.2-0.7,0.4c-1.4-0.2-5,0-5.6,0
				c0,0,0-0.2,0-0.2c-0.9,0-1.1,0.2-2.1,0.2c-1.4,0-2.1-0.2-2.1,0.1c-0.9-0.1-1.4-0.2-2.1-0.4c-0.8,0.1-1.9,0.1-3.5,0.1
				c-1.2,0.4-3.8,0-4.9,0.4c-1.1-0.2-4.8-0.4-5.6-0.1c-1.5,0-1.3-0.1-1.4-0.3c-0.9,0-1.1,0.2-2.1,0.2c-1,0-3.6-0.1-4.9-0.1
				c-4.6,0.1-10.8,0.2-16.8,0c-0.7,0.2-4.4,0.1-5.6,0.3c-0.9,0-1.4-0.1-1.4-0.3c-1.5,0.1-2.4,0.2-2.8,0.4c-0.8,0-0.3-0.1-0.7-0.2
				c-0.3,0-0.9,0.1-1.4,0.1c-0.2,0-0.6-0.2-0.7-0.2c-1.3,0-3,0.3-4.9,0.1c-1.2,0-1.6,0.2-1.4,0.4c-0.6,0.3-0.9-0.2-0.7-0.3
				c-8.4,0-13.1,0-19.6-0.1c-1.8,0-3.2,0.1-4.2,0.3c-0.5-0.3-1.9-0.1-3.5-0.1c-3,0-6.8-0.1-9.1,0.1c-2.6-0.2-8.1-0.3-10.5,0
				c-1.7,0-3.4,0-4.2-0.1c-2,0-1.3,0.4-1.4,0.6c-2.4,0.2-5.3-0.3-3.5-0.1c2.2,0,3.1-0.1,2.8-0.4c-0.2,0-1.4-0.2-1.4-0.2
				c-1.3,0-0.8,0.2-1.4,0.3c-0.3,0-1.7-0.1-1.4-0.2c-0.8,0.1-1.8,0.5,0.7,0.6c-3.5,0.3-5.9,0.2-11.2,0.1c0.2,0.2-1.9,0.2-4.2,0.1
				c0,0.1,0.9,0.1,1.4,0.1c-2.4,0.2-4.5,0.2-7,0.3c0.1-0.2-1.1-0.3-1.4-0.5c-2.1,0.1,1,0.3-0.7,0.5c-2.9,0,0.7-0.2-2.1-0.3
				c-0.8,0-0.4,0.1,0,0.1c-1.1,0-4.4,0.3-6.3,0c2.2-0.2,0.4-0.4,0.7-0.8c-1.5,0-1.3,0.1-1.4,0.3c-3.3-0.2-6.3-0.2-9.1,0
				c3.3-0.5-1,0.1-2.1-0.3c-2.1,0.3-2.2,0.6-1.4,1c-2.9,0-2.1-0.3-4.9-0.1c-0.4-0.1-0.7-0.1-0.7-0.3c-1.1,0-2.3,0.3-0.7,0.4
				c-1.3,0.3-2.1-0.3-2.8-0.4c-0.9,0-0.7,0.2,0,0.2c-0.8,0-3.5,0.1-5.6,0.2c0.8-0.1,0.8-0.2,0-0.4c-2.5,0-1.2,0.5-4.2,0.2
				c0,0.1-1.3,0.2-2.8,0.4c-0.7-0.1-0.7-0.2-2.1-0.2c-1.8,0-1.7,0.2-2.8,0.3c-2.7,0-2.5-0.1-4.2,0.1c-2.1,0-3.5-0.1-4.9-0.3
				c-0.7,0.1-0.7,0.2-2.1,0.2c-0.4-0.2,0.8-0.5-0.7-0.5c-0.2,0.1-0.5,0.3-1.4,0.5c-1,0-1.8-0.1-2.8-0.2c-2.8,0.2-4.8,0-7.7,0.3
				c-0.2-0.2,0.1-0.3,0.7-0.5c-1-0.2-1.5,0.1-0.7-0.3c-4.7,0.1,1.3,0.9-4.2,0.9c0.4-0.1,0.7-0.1,0.7-0.3c-2.6,0.2-3.9-0.1-6.3,0.1
				c1.9-0.2-1.6-0.1-0.7-0.5c1.6,0,1,0.2,2.1,0.2c3.2-0.3-0.7-0.5-0.7-0.8c-1.3,0.1-0.5,0.3-2.1,0.1c-2.4,0.1-2.4,0.3-2.8,0.5
				c-1.3,0-2.5,0.1-1.4,0.1c-0.2,0.3-1.9-0.3-2.1,0c-0.8,0-0.6-0.2-0.7-0.3c-2.3,0.1-0.3,0.2-0.7,0.5c-2.2-0.1-1.7,0.1-2.8,0.2
				c-1.8,0-0.9-0.1-0.7-0.2c-2.7,0.1-3.9,0.4-6.3,0.1c-1.2,0.2-0.9,0.1-3.5,0.1c-0.1-0.2,0.9-0.2,0.7-0.4c-2.7-0.1-0.1,0.4-2.8,0.3
				c0.7-0.3,1-0.3,1.4-0.5c-0.3,0-1.4-0.2-2.1-0.3c-1-0.1-1.1,0.1-1.4,0.1c-0.5,0-1.4-0.2-1.4-0.2c-0.9,0-2.1,0.2-2.8,0.3
				c-2.7-0.3-7.7,0.2-10.5-0.1c-2.4,0-0.8,0.3-1.4,0.5c-0.5,0.2-3.1,0.3-2.1,0.5c-1-0.3-7.2,0-7.7-0.4c-1.3,0.3-3.4,0.3-6.3,0.2
				c-2.8,0.4-11.5,0.1-14.7,0.2c-0.5-0.3-2.6-0.3-3.5-0.5c0.1-0.1,1.3-0.1,2.1-0.1c-2.4-0.4-2.7,0.3-6.3,0c-1.8,0,1,0.2,0,0.4
				c0.8,0,1.8-0.2,0.7-0.2c0.6-0.2,2.5,0.1,3.5,0.1c-0.1,0.2-4.9,0.3-2.8,0.5c-1.8,0.3-6.4-0.2-8.4,0.1c-1.1,0,0.6-0.2-0.7-0.2
				c-2.1,0-1.2,0.3-2.8,0.4c-1.8,0-2.2-0.1-2.8-0.3c-2,0.1-2.9,0.1-4.9,0c-4.7,0.5-9.2,0.3-16.8,0.3c0.5-0.1,0.8-0.2,0.7-0.4
				c-1.6,0.3-3.3,0.5-4.9,0.2c-1,0,0.3,0.1,0,0.3c-2.8-0.2-5,0.1-7.7,0.2c-0.8,0-0.5-0.2-1.4-0.2c-3.1,0.1-8.2,0.2-11.9,0.2
				c-1.2,0-1.3,0-1.4-0.2c-0.1,0.1-3.1,0.3-1.4,0.1c-0.9-0.1-1.8,0.1-3.5,0.2c-2.2,0-4.1-0.1-6.3-0.1c-0.7,0-0.5,0.1-0.7,0.2
				c-2.8-0.1-8.7,0.1-10.5-0.1c-1.3,0.1-0.5,0.3-2.1,0.1c-0.9,0.5,5,0.5,5.6,0.2c1.2-0.1,1.3,0.2,1.4,0.2c2.9,0,4.6-0.3,7,0.1
				c0.3-0.2-0.5-0.2-1.4-0.2c0.4-0.3,3,0,4.2,0c0.8,0,2.4-0.2,2.8,0.1c2-0.4,4.2-0.1,7.7-0.3c-0.7,0.2,2.1,0.3,0,0.4
				c0.6,0.1,1.6,0,2.8,0.2c0.1-0.3,5.2,0,4.2-0.5c3.4,0,3.3,0.4,5.6,0.5c1.3,0,3.5,0,2.8,0c1.4-0.1-1.1-0.2,1.4-0.3
				c2.7,0,0.3,0.1,0.7,0.3c2.2,0,1.7-0.5,4.9-0.5c0.4,0.2-0.3,0.3-2.1,0.3c-0.4,0.3,1.8,0,2.8,0.1c0.6,0,0.4,0.2,1.4,0.2
				c0.6,0,1.6-0.2,2.8-0.1c0-0.1-0.9-0.1-1.4-0.1c2-0.1,0.8-0.6,3.5-0.5c-0.3,0.3-2.4,0.3,0,0.5c1.3-0.1-0.5-0.3,1.4-0.4
				c0.9,0,3.4,0.3,3.5,0.1c1.9,0.1-1.6,0.2-1.4,0.4c1.8,0,2.7-0.1,2.8-0.4c2,0,1.9,0.3,3.5,0.4c1.3,0,2.3-0.1,2.8-0.2
				c1.8,0.3,3.8,0.1,6.3,0.1c1.7,0,5,0.3,4.9-0.1c3,0,5.1-0.1,7.7,0.1c1.8-0.1,2.1-0.2,4.2-0.1c0.2-0.2-0.1-0.3-1.4-0.3
				c-1.8-0.2,3.7-0.1,2.1,0.3c2.5-0.1,3.2,0,5.6-0.2c-0.7,0.3,1.5,0,2.8,0c0.6,0,7.7,0.3,9.1,0c2.2,0,1.8,0.2,3.5,0.3
				c1.1-0.2,0.5,0,2.8-0.1c2.3-0.1,5.5-0.3,7,0c1.2,0,1.7-0.2,2.8-0.2c5.7-0.1,10.8-0.1,15.4-0.1c2.5,0,5.1,0.1,7-0.1
				c1.2,0,2.9,0,3.5,0.2c0.5-0.3,1.7-0.1,3.5-0.1c2,0,2.5-0.2,4.2,0.1c2.3-0.2,4.8-0.2,7.7,0c0.9-0.1,1.2-0.2,2.1-0.2
				c1.6,0,4.5,0,5.6,0c1.1,0,1.3,0.1,2.1,0.1c3.2,0,6.6-0.2,9.8-0.3c1.2,0,1.2,0.1,2.1,0.1c1.3,0,1.5-0.1,2.8-0.1
				c0.1,0-0.1,0.2,0,0.2c0.5,0,5.9-0.2,7,0.1c0-0.2,5.5-0.5,4.9,0c1.2-0.4,4.2-0.4,7-0.5c1.6,0,1.3,0.1,2.1,0.2c1,0,1.1-0.1,1.4-0.1
				c1.3,0,2,0.3,2.8,0.2c1,0-0.3-0.1,0-0.3c2.1,0,7.6,0.4,7-0.1c2.6,0.1,7.8,0.2,9.8,0.2c1.8,0,3.3-0.2,4.9-0.2c2,0,3.7,0.1,5.6,0.1
				c2.4,0,4.7-0.1,7-0.1c2.4,0,5.3,0.1,8.4-0.1c0.8,0.1,0.3,0.1,0,0.3c0.9-0.1,1.1,0,2.1,0c1,0,0.2-0.3,1.4-0.3c1.6,0,1,0.2,2.1,0.2
				c0.9-0.3,1.8-0.1,6.3-0.1c0.6,0,0.7-0.1,1.4-0.1c1,0,1.3,0.1,2.1,0.1c1.7,0,3.5-0.2,4.9-0.2c1.3,0,1.5,0.1,2.8,0.1
				c1.7,0,3.6,0,5.6,0c4.2,0,8.3-0.2,9.1,0.1c-0.2-0.4,4.8-0.2,6.3-0.4c1.4,0,1.9,0.2,2.8,0.3c1.8-0.1,2.9-0.2,4.2,0.1
				c1-0.1,1.5-0.2,2.8-0.3c1.9-0.1,4,0.1,5.6,0.1c1.4,0,2.7-0.2,4.2-0.2c0.5,0,0.8,0.1,1.4,0.1c0.8,0,1.3-0.1,1.4-0.1
				c2.2,0,3.9,0.2,6.3,0.1c0.1,0.2,0.5,0.3,1.4,0.4c0.9,0,0.6-0.2,0.7-0.4c2.8,0,8.1-0.2,11.2,0.1c1.9-0.3,3.7-0.1,7.7-0.2
				c-0.4,0.1-0.7,0.1-0.7,0.3c0.7-0.2,2.3-0.2,2.8-0.4c3.7,0.3,9.2-0.2,9.1,0.5c1.3,0,0.1-0.3,0.7-0.4c1.1-0.1,2.5,0.5,2.8-0.2
				c4.7,0.2,8.3-0.2,11.9-0.1c0.4,0,2.6,0.1,2.1,0.3c1.9-0.3,2.5-0.2,6.3-0.2c4,0,6.5-0.3,9.1,0.2c1-0.1,1.7-0.1,2.1-0.3
				c1,0.5,2.3-0.2,2.1,0.5c0.6-0.2,1.9-0.3,2.8-0.5c2.1,0.1-1,0.3,0.7,0.5c1.5,0,1.5-0.2,1.4-0.5c0.9,0.1,3.3,0.1,4.2,0.2
				c-1,0.3,0.2,0.3,1.4,0.5c0.6-0.1,0.5-0.5,2.8-0.5c0.5,0,1.2-0.1,2.1-0.1c-0.4,0-0.9,0.3,0.7,0.2c2-0.1-1-0.2,0.7-0.4
				c0.7,0,0.5,0.1,0.7,0.2c3.5,0.1,8.5-0.2,9.1,0.1c1.3-0.1,2.6-0.2,4.2-0.2c-1.9,0.2,0.2,0.4,0.7,0.6c-0.9-0.1-1.4-0.1-1.4,0.1
				c-0.9,0-1.1-0.2-2.1-0.2c-1.5,0-1.5,0.2-1.4,0.5c0.6,0.1,2.3,0.1,3.5,0.2c0-0.1-0.9-0.1-1.4-0.1c0.2-0.2,3.1-0.1,3.5,0
				c-0.1-0.2,1-0.7,0-1c2.8,0.2,6.5-0.3,8.4,0.2c0.8,0,0.6-0.2,0.7-0.3c2.6,0.2,5.1,0,7,0c1.2,0,1.8,0.2,2.1,0.2
				c0.4,0,1.5-0.2,1.4-0.2c1.7,0,2.4,0.3,4.2,0.3c0.6-0.3,3,0.1,2.8-0.3c3.2,0.2,5.4,0.2,8.4,0c0.2,0.1,2.1,0,2.1,0.2
				c2.5-0.3,5.3,0,7.7-0.2c1.1,0.1,1.7,0.3,2.8,0.4c2.2-0.1-0.8-0.2-1.4-0.3c1.1-0.1,2.6-0.1,4.2,0c-0.5,0.2-2.1,0.1-0.7,0.3
				c1.3,0,4.1-0.2,4.9,0c1.7,0-0.4-0.4,2.1-0.3c-1.5,0.4,1.6,0.1,2.8,0c0,0.1,0,0.1,0,0.2c3.9,0,3.8,0,7.7,0c0.1,0.1-1,0.1-0.7,0.2
				c0.2,0,1.9,0,2.1,0c-0.2,0-0.6,0.4,2.1,0.3c-0.1,0.1-1.3,0.1-2.1,0.1c0.4,0.1,0.8,0.2,0,0.2c-0.1,0.2,2.5,0,3.5,0.1
				c-2-0.3,2.3-0.3-0.7-0.4c2.5-0.2,5.4-0.7,9.1-0.5c0,0.3,2,0.4,3.5,0.5c1.1-0.1-0.2-0.1,0.7-0.4c4.5,0,9.7-0.3,14-0.1
				c0.2,0-0.1,0.2,0,0.2c1.9,0,3.3-0.4,4.2,0c0.7,0,0.5-0.1,0.7-0.2c0.5,0.1,2.2,0.1,2.1,0.4c2.5,0.1,3-0.2,4.2-0.3
				c0.5,0,3.5,0.2,2.8-0.2c1.3,0.2,4.3,0.1,4.9,0.4c1.9-0.1,3.9-0.2,5.6-0.3c1.1,0,1.2,0.1,2.1,0.1c0.2,0,0.7-0.1,1.4-0.1
				c0.3,0,1.2,0.2,1.4,0.2c1.3,0,3.7-0.2,3.5,0.1c0.7-0.3,4,0,6.3-0.2c0.5,0.1,1.6,0.1,1.4,0.3c1.4,0.1,1-0.2,1.4-0.2
				c0.2,0,1,0.1,1.4,0.1c0.7,0,1.8-0.2,2.1-0.2c0.6,0,4,0,4.9,0.1c0.6,0,1,0.2,1.4,0.3c0.2,0,1.7-0.2,2.1-0.1c0.1,0-0.1,0.2,0,0.2
				c0.8,0,1.6-0.3,3.5-0.1c2.4-0.2,5.6-0.4,7.7-0.1c-0.2,0.1-1.4,0.1-1.4,0.2c0.2,0.1,1.8,0.1,2.8,0.1c0.9-0.1,1.3-0.2,1.4-0.4
				c1.3,0.2,3.9,0.2,5.6,0.4c1-0.3,3.6,0,3.5-0.3c4.9,0.1,5.6,0,11.2,0.1c0.6,0.5,4.2,0.4,5.6,0.1c0.4,0,2.7,0.2,2.8,0
				c2.4,0.2,4.9,0.4,8.4,0.3c-0.4,0.3,1.3,0.3,0,0.4c1.7,0,1.5-0.2,3.5-0.1c0.6,0.2,1.2,0.3,1.4,0.5c-3.2,0.1-3.2,0.6-5.6,0.8
				c2.6,0.3-0.7,1,0.7,1.4c-1.3,0.2-3.2,0.2-4.2,0.5c-1-0.3-3-0.1-4.9-0.1c-3.4,0-7.2,0-10.5-0.3c-2.2,0-2.5,0.2-4.9,0.1
				c-1.2-0.2,0.1-0.1,0-0.4c-2.3,0-7.1,0.2-9.1,0.2c-0.7,0-0.5-0.1-0.7-0.2c-1.3-0.1-1.7,0.2-2.1,0.2c-1.2,0-2.4-0.3-5.6-0.2
				c0.4-0.2-0.3-0.3-2.1-0.3c-0.3,0.2,0.5,0.2,1.4,0.2c0.3,0.3-3.8-0.1-3.5,0.2c-1.3,0,1.1-0.3-0.7-0.5c-2.1,0.1-3.8,0.2-6.3,0.3
				c0.4-0.4-2.5,0-2.8,0c-0.6,0-0.7-0.2-1.4-0.2c-1.5-0.1-2.5,0.2-4.2,0.1c1.9-0.2-0.6-0.2-1.4-0.4c-2.1,0.1,1.6,0.1,0.7,0.4
				c-4.2-0.1-5.6,0-9.8-0.1c4-0.1-2.2-0.9,0.7-0.4c-0.5,0.2-1.3,0-2.1,0c-1.3,0-0.6,0.3-2.8,0.3c0.4-0.1,0.7-0.1,0.7-0.3
				c-2.6-0.1-1.1,0.3-3.5,0.3c1.3-0.2-0.9-0.3-1.4-0.4c-0.9,0-0.9,0.3,0,0.3c-0.6,0.1-2.3,0.1-3.5,0.2c-0.4-0.2,1.3-0.1,1.4-0.3
				c-2.1-0.3-2.4,0.1-5.6-0.1c0.5,0.1,1.5,0.2,2.8,0.2c0.7,0.2-4,0.1-1.4,0.2c-0.8,0.3-2.3-0.1-2.1-0.3c-0.6,0-1.1,0.1-2.1,0.1
				c-0.1,0.2,0.9,0.2,0.7,0.4c-1.9-0.1-2.9-0.4-4.2-0.5c-0.4-0.1-1.3-0.2-1.4-0.4c-0.9,0.1-3.7,0-2.8,0.4c-1-0.1-1.7-0.1-2.1-0.3
				c-1.6,0.1-1.1,0.2-0.7,0.5c-1.3,0-0.6-0.3-2.8-0.3c-1.7,0-0.1,0.3,0.7,0.3c-1.6,0.3-4.9-0.2-2.8-0.4c-2.6-0.1-3.7,0.2-4.9,0
				c0.1,0.1-0.2,0.2-0.7,0.2c-0.1,0.2,2.5,0,3.5,0.1c-0.3,0.3-3.3,0.1-4.9,0c-1.7,0,0.4,0.4-2.1,0.3c1.4-0.2-1-0.4-1.4-0.6
				c-2.4,0.1-1.3,0.3-2.1,0.5c-2.1-0.1-0.6-0.2-1.4-0.5c-2.8-0.1-1.4,0.3-4.2,0.2c2.8-0.3-0.7-0.1-2.1,0c0.5,0,2.3,0.2,2.8,0.1
				c1.7,0-0.8,0.2-0.7,0.4c-1-0.1-4,0-3.5-0.4c-0.6,0.1-1.3,0.1-1.4,0c-0.9,0.1-1.4,0.2-2.1,0.4c-4.8-0.1-6.7-0.5-10.5-0.7
				c-1.9,0.1-3.3,0.3-3.5,0.6c-1.6,0-3.3,0-4.9,0c0.4-0.3-4.2,0-3.5-0.4c-0.6-0.1-1.7,0.3-1.4,0.3c-1.2,0-1.3-0.3-2.1-0.4
				c-2,0-1,0.3-3.5,0.5c-1.7-0.1,1.3-0.2,0.7-0.5c-3.2-0.1-1.5,0.3-2.8,0.5c-1.3-0.1-2.5-0.3-3.5-0.5c-1.3,0.1,1.7,0.2,0,0.5
				c-1.2-0.2-4.2-0.2-6.3-0.1c-1.2-0.2,1.1-0.4-1.4-0.5c-1,0-0.1,0.1,0,0.1c-1.2,0.2-2.5-0.1-3.5,0.2c-1.8,0,1-0.2,0-0.4
				c-1.2,0.1-2.2,0.2-2.8,0.4c-0.9-0.2-2.3-0.2-4.2-0.1c0.4,0.1,0.7,0.1,0.7,0.3c-1,0-3.6-0.1-3.5,0.1c-1.3,0,0.4-0.1,0-0.2
				c-0.3,0-1.7,0-2.1,0c-0.7-0.1-0.7-0.4-2.8-0.4c-0.1,0.2-3,0.2-2.8,0c-3-0.1,0.2,0.5-2.8,0.4c-0.1-0.1,0.3-0.1,0.7-0.1
				c-0.2-0.1-1.4-0.1-1.4,0c-1.6,0.1-1.3-0.3-1.4-0.4c0,0-2.2,0.2-1.4-0.2c-2.4,0-3,0.2-4.2,0.3c-1.8,0-2.2-0.2-2.8,0.1
				c-2.4-0.2-6.5-0.1-8.4-0.4c-2,0.1-2.8,0.5-4.2,0.1c-1.1,0.1-1.7,0.3-4.2,0.3c0.2,0.1,1.2,0.2,1.4,0.1c1.1,0.1-0.2,0.1,0.7,0.4
				c-2.8-0.2-1.9,0.2-4.2-0.1c0.2-0.1,2.1,0,2.1-0.2c-0.2-0.3-2.6,0.2-2.8-0.1c-0.9,0-0.6,0.2-0.7,0.4c-3.5-0.1-5,0-6.3-0.2
				c0.1,0.3-1.3,0-4.9,0.1c-1.3-0.2,0.4-0.2,0-0.5c-1.6,0-6.6,0.4-4.9,0c-1.5,0.2-2.7,0.1-4.2,0.2c-2.1,0.1,1.6,0.1,0.7,0.4
				c-2.6,0-2.8-0.2-3.5-0.5c-4.9-0.1-6.6,0-11.2-0.2c-0.6,0.1-0.6,0.4-1.4,0.7c-0.8,0-2.4-0.3-0.7-0.3c-0.5-0.1-1.6-0.1-1.4-0.3
				c-2.7,0.1-6.6-0.1-9.8-0.1c-0.7,0-0.5,0.1-0.7,0.2c-1.6,0-2.1-0.2-4.2-0.1c-1.9,0.2-3.9,0.5-6.3,0.6c-2.5-0.2-3.2-0.1-5.6,0
				c0-0.1,0-0.2,0-0.3c-1.4,0-1.4,0.2-2.8,0.3c-4.3,0-8.4-0.3-11.9-0.2c0-0.1,0-0.1,0-0.2c-2.1,0.1,0.7,0.2,0,0.4
				c-1.7,0-1.5,0.2-3.5,0.1c1.5-0.3-1.4-0.2,0-0.4c-3.5-0.1-1.9,0.4-4.9,0.4c-1,0,0-0.3,0-0.3c-0.3,0-1.7,0.2-1.4,0.2
				c-1.1-0.1-0.5-0.2-1.4-0.4c-1.3-0.2-2.5,0-4.2-0.2c-1.2-0.1-1,0.2-1.4,0.3c-0.4,0-2.4-0.4-3.5,0c-0.7,0-0.5-0.1-0.7-0.2
				c-1.2,0.2-5.4,0-8.4,0.1c-1.5,0-1.2,0.3-2.8,0.2c1.6-0.4-3.1,0.2-2.1,0.5c-1.9,0-2.9-0.5-3.5,0c-1.4-0.1-4.1-0.3-2.1-0.5
				c1.9,0,2,0.3,3.5,0c-2-0.2-5.5,0.3-7.7-0.2c0.3,0.3,0.8,0.5-0.7,0.2c-0.8,0-3.3,0.3-1.4,0.4c-1.7,0.4-2.8,0-5.6,0
				c2.9-0.4-0.8,0-1.4-0.4c-1.9,0.4-3.6,0.1-7,0.1c0,0.3,3.6,0.1,3.5,0.5c-2.5,0.1-3.4,0-5.6,0.1c-0.6-0.1-0.9-0.2-0.7-0.4
				c-2.2,0.1-1.3,0.1-3.5,0c0.7,0.2,3.1,0.1,2.8,0.4c-1.7,0-3.4,0-3.5,0.2c-3.8-0.3-5.9-0.2-10.5-0.2c0.1-0.2-1.2-0.2,0-0.4
				c-2.8,0,0.2,0.3-2.1,0.5c-1,0-0.2-0.3-1.4-0.3c-0.8,0-0.6,0.2-0.7,0.3c-1,0-0.2-0.3-1.4-0.3c-0.8,0.3-3,0.4-6.3,0.4
				c-1.4-0.1-1-0.4-2.1-0.5c-1.6,0-0.4,0.4,0.7,0.4c-3.1,0.3-5.5,0-10.5,0.2c0.6-0.3-1-0.2-0.7-0.5c-1.6,0-2.1,0.2-4.2,0.1
				c-1.4,0.1-0.2,0.5-2.8,0.4c1-0.2,1.7-0.2,0-0.4c-1.6,0,0,0.5-1.4,0.5c-1.2,0.1-1.8-0.2-2.1-0.2c-3,0-7,0.5-9.1,0.1
				c-1.3,0.3-5.5,0.1-7.7,0.3c0.1-0.2-0.9-0.2-0.7-0.4c-0.8,0.2-1.2,0.1-2.8,0.1c-1.8,0-3.3,0.2-5.6,0.2c0-0.1,0-0.2,0-0.4
				c-1.3,0-0.1,0.3-0.7,0.4c-0.8,0.1-11.1,0.2-7-0.1c-1.3,0-3,0-2.8,0.3c-0.9,0.1-2.8-0.3-4.2-0.1c-0.1,0,0.1,0.2,0,0.2
				c-1.7,0-1.9-0.2-4.2-0.2c-0.6-0.3,1.7-0.3,2.1-0.5c-3.8-0.1-3.4,0.4-4.2,0.7c-3-0.1-3.6,0.1-5.6-0.2c-3,0.3-6.9,0.2-9.8-0.2
				c-1.9,0.1,0.3,0.4,2.1,0.3c-2.8,0-8.8,0.2-12.6,0c-0.8,0-0.6,0.2-0.7,0.3c-0.6,0-1.8-0.2-2.1-0.2c-1.3,0-2,0.2-3.5,0.2
				c0.1,0-1.4-0.1-2.1-0.1c-3.2,0-6.3,0.2-9.1,0.2c-0.9,0.2,1.3,0.1,1.4,0.2c0.3,0.2-2.5,0.4-0.7,0.5c-0.7,0.3-1.9-0.1-2.1-0.2
				c0.5,0.5-8.6,0.1-7,0.5c-0.8,0.2-3.7,0-2.8-0.3c-0.8,0-1.8,0.2-0.7,0.2c-0.6,0.2-2.6-0.1-2.8-0.2c0.2,0.4-4.1,0.1-4.2,0.5
				c-1.9,0.1-1.4-0.2-2.1-0.3c-1,0.3-3.9,0.1-5.6,0c-0.2-0.1,0.7-0.2,0.7-0.3c-0.8,0.1-1.9,0.1-3.5,0.1c-0.2-0.2-1.7-0.3-2.1-0.5
				c-2,0.2-7.9-0.4-9.1,0.2c-2.2-0.1-3.1,0-4.9,0.1c-1.5,0-2.2-0.1-2.1-0.3c-0.8,0.1-1.9,0.1-3.5,0.1c0.3,0.3,1.5,0.4,3.5,0.3
				c-2.1,0.3,1.8,0.2,1.4,0.5c-1.2-0.4-3.2,0.1-2.8,0.1c-1,0-1-0.3-2.8-0.3c-0.8,0-0.6,0.2-0.7,0.3c-4-0.2-5.9,0.1-9.1-0.2
				c-2.5-0.1-2.1,0.3-4.2,0.3c-0.3-0.2,1.3-0.2,0.7-0.5c-1.3,0.4-4.5-0.1-6.3-0.2c-1.1,0-0.3,0.2-0.7,0.3c-0.9,0.1-2.6-0.2-3.5,0.1
				c-0.4,0.1,2.2,0.2,0.7,0.5c-2.4,0.1-1.2-0.3-2.8-0.4c-1.4,0-1,0.4,0.7,0.3c-0.6,0.3-4-0.1-4.9-0.1c-0.5,0-0.8,0.2-0.7,0.2
				c-0.9,0-0.1-0.1-0.7-0.2c-1.2-0.1-4.9-0.1-4.9-0.5c-0.6,0.2-5,0-4.2,0.5c-1.2-0.2-2.4-0.2-1.4-0.5c-2.5-0.1-0.7,0.4-2.1,0.5
				c-1.4,0-2.8,0-4.2,0c3.9-0.2,0-0.2-3.5,0c-0.7,0-1,0.2-1.4,0.2c-1.3,0.1-2.9-0.1-3.5,0.2c-2.2,0.1-2.2-0.1-3.5-0.2
				c-0.7,0-0.5,0.1-0.7,0.2c-2.7-0.2-3.8-0.1-6.3-0.3c-1.3,0-3,0-2.8,0.3c-2.2,0-5-0.3-4.9,0.2c-9.8,0.1-17.8,0-28.7,0.2
				c-0.5-0.3,0.4,0-4.2-0.1c-1.4,0-3-0.1-4.9,0c-1-0.6-7.8,0-9.8-0.2c-1.1,0.1-1.5,0.3-3.5,0.3c0.1-0.1,0.7-0.1,0.7-0.2
				c-3.1,0.1-3.7,0-5.6,0.2c-6.6-0.2-9.8,0.3-14-0.1c-4.3,0.3-9,0.3-14,0.4c-1.7,0-3.4-0.1-4.9-0.1c-1.1,0-1.2,0.1-2.1,0.1
				c-4,0-10-0.1-16.1,0c-0.8,0-0.4,0.1,0,0.1c-0.6,0.3-1.4-0.1-1.4-0.1c-2-0.1-3.1,0.1-4.9,0.1c-1.1,0-1.2-0.1-2.1-0.1
				c-2.8,0-5.2,0.1-7.7-0.2c-2.5,0-3.9,0.2-4.2,0.5c2.3,0.1,5.2-0.1,8.4-0.1c2.2,0,4,0.2,5.6-0.1c0.9,0.2,3.7,0.1,4.2,0.4
				c0.5-0.2,2.8-0.2,4.2-0.4c0.8,0,0.6,0.2,0.7,0.3C130.8,17.7,130.8,17.6,130,17.5z"/>
			<path d="M649.2,11.1c-2.4,0-3.9,0-5.6-0.1c-0.2,0.2-2.4,0.2-2.1,0.5c1.3,0,2.3,0.1,2.8,0.2c-0.5,0-0.8,0.1-0.7,0.2
				c2.4,0.1,1.2-0.3,2.8-0.4c1.6,0.2,3.1-0.1,4.2-0.2C649.7,11.2,648.9,11.2,649.2,11.1z"/>
			<path d="M719.1,10.7c1.6,0.6-1,0.2-2.1,0.6c0,0,0.2,0.3,1.4,0.3c-0.3-0.4,1.8-0.2,3.5-0.3c-0.3,0-1.1-0.1-0.7-0.1
				c0.7-0.1,2.8,0.1,2.8-0.1c-0.4-0.1-2.7,0-2.8-0.2c1.4-0.2,3,0.2,3.5-0.2C722.1,10.9,721.7,10.6,719.1,10.7z"/>
			<path d="M738,13.7c0.1,0,2,0,2.1,0C742.2,13.4,735.5,13.3,738,13.7z"/>
			<path d="M758.3,6.6c-0.2,0-1.1,0-0.7,0.1C757.8,6.7,758.7,6.6,758.3,6.6z"/>
			<path d="M716.3,7.6c0-0.1-1.2-0.1-1.4,0C715.1,7.7,715.7,7.6,716.3,7.6z"/>
			<path d="M833.2,7.6c0.1-0.1-0.5-0.2-0.7-0.1C832.4,7.6,833,7.8,833.2,7.6z"/>
			<path d="M717,7.7c0-0.1-0.6-0.1-0.7,0C716.3,7.8,716.9,7.8,717,7.7z"/>
			<path d="M631.7,8c-0.5,0-1.4,0-1.4,0.1C630.8,8.1,631.7,8.1,631.7,8z"/>
			<path d="M691.8,8c-0.2,0-1.1,0-0.7,0.1C691.3,8.1,692.2,8,691.8,8z"/>
			<path d="M739.4,8.6c1.3,0,3,0,2.8-0.3c-1,0-1.5,0-2.1-0.1C740.3,8.4,739.3,8.5,739.4,8.6z"/>
			<path d="M772.3,8.4C774.4,8.6,770.4,8.1,772.3,8.4L772.3,8.4z"/>
			<path d="M751.3,8.5c0-0.1-0.6-0.1-0.7,0C750.6,8.5,751.2,8.6,751.3,8.5z"/>
			<path d="M770.9,8.5c-0.2,0-1.1,0-0.7,0.1C770.4,8.6,771.3,8.5,770.9,8.5z"/>
			<path d="M773.7,8.5c-0.2,0-1.1,0-0.7,0.1C773.2,8.7,774.1,8.6,773.7,8.5z"/>
			<path d="M791.9,8.7c1.2,0,1.8-0.1,2.1-0.2C792.9,8.6,791.6,8.5,791.9,8.7z"/>
			<path d="M490.3,8.6c-0.1,0,0.1,0.2,0,0.2c-0.8,0.1-2-0.2-2.8-0.1c-0.4,0.4,2.4,0.2,2.8,0.2c0.7,0,0.5,0.2,2.1,0.2
				c0.8,0,1.5-0.1,2.1-0.2c0.6-0.1,1.8,0,1.4-0.2C493,8.8,491.8,8.6,490.3,8.6z"/>
			<path d="M780,8.8c0.5,0,0.9,0,1.4,0c0-0.1,0-0.1,0-0.2c-0.5,0-0.9,0-1.4,0C780,8.7,780,8.8,780,8.8z"/>
			<path d="M479.1,9c0.9,0,1.3,0.1,2.8,0.1c-0.1-0.1,0.3-0.3-0.7-0.4C481.5,8.9,479.2,8.8,479.1,9z"/>
			<path d="M806.6,8.8c0,0-0.6-0.1-0.7,0C805.9,8.9,806.5,8.9,806.6,8.8z"/>
			<path d="M811.5,8.8c-0.7-0.1-2.7,0.1-2.8,0.1C807.9,9.1,811.9,8.9,811.5,8.8z"/>
			<path d="M711.4,8.9c-0.2,0-1.1,0-0.7,0.1C710.9,9,711.8,8.9,711.4,8.9z"/>
			<path d="M781.4,9.2c0.4,0.1,2.3-0.5,0.7-0.2C782,9,780.8,9.1,781.4,9.2z"/>
			<path d="M442.8,9c-0.2,0-1.1,0-0.7,0.1C442.3,9.1,443.1,9,442.8,9z"/>
			<path d="M830.4,9c-0.5,0,0.3,0.2-0.7,0.2c-0.5,0-1.5-0.4-2.1-0.1c0.9,0.1,1.3,0.2,1.4,0.4c1,0,2.6,0,2.8-0.1
				c-4,0,3.4-0.3,0.7-0.4C832.6,9.2,830.6,9,830.4,9z"/>
			<path d="M444.9,9.1c-0.2,0-1.1,0-0.7,0.1C444.4,9.2,445.2,9.1,444.9,9.1z"/>
			<path d="M447.7,9.1c-0.2,0-1.1,0-0.7,0.1C447.2,9.2,448,9.1,447.7,9.1z"/>
			<path d="M787,9.1c-0.2,0-1.1,0-0.7,0.1C786.5,9.2,787.4,9.1,787,9.1z"/>
			<path d="M807.3,9.5c0-0.1,1.2-0.1,1.4-0.2c-3.8,0.1,0.2-0.3-3.5-0.3C805.3,9.3,806.5,9.4,807.3,9.5z"/>
			<path d="M455.4,9.4c1.1,0.2,2.1-0.6,0-0.2c0,0,0.7,0,0.7,0C456,9.3,455.3,9.4,455.4,9.4z"/>
			<path d="M479.1,9.3c0,0-0.6-0.1-0.7,0C478.4,9.3,479,9.4,479.1,9.3z"/>
			<path d="M834.6,9.3c0,0-0.6-0.1-0.7,0C833.9,9.3,834.4,9.4,834.6,9.3z"/>
			<path d="M854.2,9.2c-0.2,0-1.1,0-0.7,0.1C853.7,9.3,854.5,9.2,854.2,9.2z"/>
			<path d="M379.8,9.4c-1.6,0.1-2.6-0.2-2.8,0C377.4,9.5,379.7,9.7,379.8,9.4z"/>
			<path d="M381.9,9.4C384.3,9.7,384,9.1,381.9,9.4L381.9,9.4z"/>
			<path d="M384.7,9.5c1.5,0.1,1.5,0.1,0.7-0.1C387.4,9.3,384.3,9.3,384.7,9.5z"/>
			<path d="M387.5,9.4c-0.2,0-1.1,0-0.7,0.1C387,9.5,387.9,9.4,387.5,9.4z"/>
			<path d="M395.2,9.4c-0.8,0-2,0-2.1,0.1C393.9,9.4,395.1,9.5,395.2,9.4z"/>
			<path d="M447.7,9.4c-0.2,0-1.1,0-0.7,0.1C447.2,9.5,448,9.4,447.7,9.4z"/>
			<path d="M817.8,9.4c-0.2,0-1.1,0-0.7,0.1C817.3,9.6,818.1,9.5,817.8,9.4z"/>
			<path d="M393.1,9.5c-0.2,0-1.1,0-0.7,0.1C392.6,9.6,393.5,9.6,393.1,9.5z"/>
			<path d="M413.4,9.8c0.1-0.2-0.6-0.3-2.1-0.3C410.8,9.8,412.7,9.7,413.4,9.8z"/>
			<path d="M417.6,9.5c-0.2,0-1.1,0-0.7,0.1C417.1,9.6,417.9,9.6,417.6,9.5z"/>
			<path d="M424.6,9.6C422.9,9.9,426.9,9.4,424.6,9.6L424.6,9.6z"/>
			<path d="M440,9.5c-0.5,0-1.4,0-1.4,0.1C439.1,9.6,439.9,9.6,440,9.5z"/>
			<path d="M854.9,9.8c-0.8,0-1.1-0.1-1.4-0.2c0.8,0,2,0,2.1-0.1c-0.9,0-1.9,0-2.8,0c0,0.2-0.5,0.2-1.4,0.1
				C850.7,9.9,855.3,9.9,854.9,9.8z"/>
			<path d="M328.7,9.8c1,0,1.8,0.1,2.8,0.2c0-0.1-0.3-0.2-0.7-0.3c0.5,0,1.4,0,1.4-0.1C330.5,9.6,328.8,9.6,328.7,9.8z"/>
			<path d="M334.3,9.9c0.5,0,0.9,0,1.4,0c0.8-0.1,0.8-0.2-0.7-0.3C335,9.7,334.1,9.7,334.3,9.9z"/>
			<path d="M352.5,9.6c-0.2,0-1.1,0-0.7,0.1C352,9.7,352.9,9.7,352.5,9.6z"/>
			<path d="M382.6,9.6c-0.2,0-1.1,0-0.7,0.1C382.1,9.7,383,9.7,382.6,9.6z"/>
			<path d="M406.4,9.6c-0.2,0-1.1,0-0.7,0.1C405.9,9.7,406.7,9.7,406.4,9.6z"/>
			<path d="M839.5,9.6c-0.2,0-1.1,0-0.7,0.1C839,9.7,839.8,9.7,839.5,9.6z"/>
			<path d="M867.5,9.6c-0.2,0-1.1,0-0.7,0.1C867,9.7,867.8,9.7,867.5,9.6z"/>
			<path d="M308.4,9.9c0.5,0,0.8,0.1,0.7,0.2c2.2,0,3.9,0,4.9-0.2C312.2,9.8,309.6,9.6,308.4,9.9z"/>
			<path d="M346.2,9.7c-0.5,0-1.4,0-1.4,0.1C345.4,9.8,346.2,9.8,346.2,9.7z"/>
			<path d="M327.3,9.8c-0.2,0-1.1,0-0.7,0.1C326.8,9.9,327.7,9.8,327.3,9.8z"/>
			<path d="M349,10.2c-0.2-0.1,0-0.2-0.7-0.2C348.5,10.1,348.3,10.2,349,10.2z"/>
			<path d="M350.4,10.3c0.2-0.2,1.9-0.2,2.1-0.4c-2.1,0-7.4-0.2-4.9,0.2c0.3-0.1,0.9-0.2,2.1-0.2C351.4,10,348.5,10.2,350.4,10.3z"
				/>
			<path d="M353.9,9.9C352,10.2,356,9.6,353.9,9.9L353.9,9.9z"/>
			<path d="M406.4,9.8c-0.2,0-1.1,0-0.7,0.1C405.9,9.9,406.7,9.8,406.4,9.8z"/>
			<path d="M297.9,9.9c-0.2,0-1.1,0-0.7,0.1C297.4,10,298.3,9.9,297.9,9.9z"/>
			<path d="M316.1,10c0-0.1-1.2-0.1-1.4,0C314.9,10.1,315.5,10,316.1,10z"/>
			<path d="M295.1,10C290.7,9.9,293.6,10.3,295.1,10L295.1,10z"/>
			<path d="M296.5,10c-0.2,0-1.1,0-0.7,0.1C296,10.1,296.9,10,296.5,10z"/>
			<path d="M336.4,10.3c0.2-0.1,1.7-0.3,0-0.4C336.2,10,334.7,10.3,336.4,10.3z"/>
			<path d="M345.5,10.1c-0.5,0-1.4,0-1.4,0.1C344.7,10.1,345.5,10.2,345.5,10.1z"/>
			<path d="M339.2,10.3C337.3,10.6,341.3,10.1,339.2,10.3L339.2,10.3z"/>
			<path d="M654.8,10.5c-0.2,0-1.1,0-0.7,0.1C654.3,10.6,655.1,10.6,654.8,10.5z"/>
			<path d="M534.4,10.7c-0.2,0-1.1,0-0.7,0.1C533.9,10.8,534.8,10.7,534.4,10.7z"/>
			<path d="M758.3,10.8c0,0-0.6-0.1-0.7,0C757.6,10.8,758.2,10.9,758.3,10.8z"/>
			<path d="M647.8,10.9c0-0.1-0.6-0.1-0.7,0C647.1,10.9,647.6,11,647.8,10.9z"/>
			<path d="M680.7,10.8c-0.2,0-1.1,0-0.7,0.1C680.1,10.9,681,10.8,680.7,10.8z"/>
			<path d="M259.5,10.9c-0.2,0-1.1,0-0.7,0.1C259,11,259.8,10.9,259.5,10.9z"/>
			<path d="M638.7,11.5c-2.1-0.1,1.6-0.1,0.7-0.4c-1.8,0-4.4,0.1-3.5-0.3c-2.9,0-3.4,0.2-3.5,0.5c1.4,0,1.3-0.1,2.1-0.2
				c0.6,0,2,0.1,3.5,0C636.5,11.3,638.1,11.8,638.7,11.5z"/>
			<path d="M734.5,11c-0.9,0-1-0.1-2.1-0.1c-1.8,0.2,0.2,0.4,1.4,0.5c-0.4,0-0.8,0-0.7,0.1c3,0,1-0.2,0.7-0.4c0.4,0.2-2.4-0.2,0-0.2
				C733.8,11,734.4,11.1,734.5,11z"/>
			<path d="M650.6,11.2c0.9,0.1,4.6-0.1,2.1-0.2c0,0,0,0.1,0,0.1C652.3,11.1,650.1,11.1,650.6,11.2z"/>
			<path d="M679.9,11.4c1.4,0,2.8,0,4.2,0c-0.2-0.2,0.8-0.2,0.7-0.4C682.5,11,678.4,10.9,679.9,11.4z"/>
			<path d="M714.9,11.7c0.1-0.1,0.2-0.2,1.4-0.2c0-0.1,0-0.3,0-0.5c-2.3-0.2-3.1,0.2-4.9,0c0.1,0.1-2.4,0.3-0.7,0.4
				c1.1-0.2,2.2,0.1,3.5-0.2C715.4,11.5,713.4,11.6,714.9,11.7z"/>
			<path d="M587.6,11.5c-2,0,1.1,0.1,1.4,0.2c-0.4-0.3,6.9,0.1,3.5-0.4c-2.9,0.5-7-0.4-10.5-0.1c2.2,0.1-2.9,0-2.1,0.3
				C582.9,11.6,586,11.5,587.6,11.5z"/>
			<path d="M656.9,11.3c2.2,0.1,2.2-0.1,2.8-0.3C657.9,11,657.5,11.2,656.9,11.3z"/>
			<path d="M673.7,11.1c-0.5,0-1.4,0-1.4,0.1C672.8,11.1,673.6,11.1,673.7,11.1z"/>
			<path d="M605.8,11.4c1.6,0,2.7,0,3.5,0.1c0.1-0.2-1.1-0.3-2.1-0.4C607,11.3,606,11.3,605.8,11.4z"/>
			<path d="M619.8,11.4c2.1,0.1,7.4,0.1,4.9-0.2c-0.2,0.1-1.2,0-1.4-0.1c-2.4,0-8.1,0-5.6,0.3c0-0.1,1.2-0.1,1.4,0
				C617.9,11.6,619.2,11.4,619.8,11.4z"/>
			<path d="M668.8,11.4c0.5,0,0.9,0,1.4,0c0-0.1,0.6-0.1,0.7-0.2c-0.9,0-1-0.1-2.1-0.1C668.8,11.2,668.8,11.3,668.8,11.4z"/>
			<path d="M689.7,11.2c-0.9,0-1-0.1-2.1-0.1C686.6,11.4,690,11.4,689.7,11.2z"/>
			<path d="M704.4,11.5c0-0.3,2.3-0.1,2.8-0.1c0.1,0,0.5-0.2,0.7-0.2c0.3,0,0.9,0,0.7-0.1c-1.4,0-2.8,0-4.2,0
				C705.1,11.3,702.3,11.5,704.4,11.5z"/>
			<path d="M749.9,11.8c2.3,0,2.4-0.6,0.7-0.6C751.2,11.5,749.6,11.5,749.9,11.8z"/>
			<path d="M755.5,11.5c2.4,0,3.8,0.2,5.6,0.3c-0.2-0.2,0.8-0.2,0.7-0.4c-3,0.2-2.3-0.2-4.9-0.3C757.4,11.4,755.5,11.3,755.5,11.5z"
				/>
			<path d="M777.2,12c0.6-0.3,0.1-0.5,0.7-0.5c1.9,0,0.7,0.3,2.1,0.4c-0.2-0.2,0.8-0.2,0.7-0.4c-1.8,0.1-1.7-0.1-2.8-0.2
				c0.2,0-1.2,0-2.1,0c-0.1,0-0.5-0.1-0.7,0C775.5,11.3,775.1,11.8,777.2,12z"/>
			<path d="M772.3,11.3c-0.3,0.2,1.8,0.5,2.8,0.3C773.7,11.6,773.7,11.4,772.3,11.3z"/>
			<path d="M544.9,11.2c-0.2,0-1.1,0-0.7,0.1C544.4,11.4,545.3,11.3,544.9,11.2z"/>
			<path d="M554.7,11.2c-0.5-0.1-0.6,0.2-0.7,0.2C553,11.7,555.3,11.3,554.7,11.2z"/>
			<path d="M577.1,11.6c0.9-0.1,3.4-0.3,0.7-0.4C578.7,11.5,574.5,11.5,577.1,11.6z"/>
			<path d="M654.1,11.5c0.2-0.2-1-0.3-2.8-0.3C650.6,11.5,653.5,11.4,654.1,11.5z"/>
			<path d="M677.2,11.3c0.8-0.1,0.2-0.1-0.7,0C675.5,11.4,676.3,11.4,677.2,11.3z"/>
			<path d="M700.9,11.3c0.1,0.1-0.1,0.3,0.7,0.3c0-0.1,0-0.2,0-0.4c-0.8,0-2,0-2.1,0.1C700,11.3,700.5,11.3,700.9,11.3z"/>
			<path d="M726.8,11.3c-0.2-0.1-1.9-0.1-2.1,0C724.3,11.5,727.5,11.5,726.8,11.3z"/>
			<path d="M556.1,11.3c-0.2,0-1.1,0-0.7,0.1C555.6,11.4,556.5,11.4,556.1,11.3z"/>
			<path d="M573.6,11.4C571.2,11.1,571.5,11.8,573.6,11.4L573.6,11.4z"/>
			<path d="M729.6,11.3c-0.5,0-1.4,0-1.4,0.1C728.8,11.4,729.6,11.4,729.6,11.3z"/>
			<path d="M741.5,11.3c-0.2,0-1.1,0-0.7,0.1C741,11.4,741.9,11.4,741.5,11.3z"/>
			<path d="M791.9,11.3c-0.2,0-1.1,0-0.7,0.1C791.4,11.4,792.3,11.4,791.9,11.3z"/>
			<path d="M794,11.8c-0.6-0.2,2.4-0.4,0.7-0.5C794.5,11.4,791.9,11.7,794,11.8z"/>
			<path d="M212.6,11.7c2.1,0.1,2.5-0.1,4.2-0.1c0.2,0.1,0,0.2,0.7,0.2c2.6-0.3-2.4-0.2-3.5-0.4C214.2,11.6,213,11.6,212.6,11.7z"/>
			<path d="M221,11.4c-0.8,0-2,0-2.1,0.1C219.7,11.5,220.9,11.5,221,11.4z"/>
			<path d="M228,11.5c0-0.1-1.2-0.1-1.4,0C227.4,11.5,227.7,11.6,228,11.5z"/>
			<path d="M520.4,11.6c0.6,0.1,1.7,0,2.1,0c0.4,0,1,0.5,2.1,0.2c-0.8,0-0.8-0.1-0.7-0.3c0.4,0,0.8-0.1,0-0.1
				C523.4,11.7,520.6,11.2,520.4,11.6z"/>
			<path d="M528.8,11.4c-0.5,0-1.4,0-1.4,0.1C528,11.5,528.8,11.5,528.8,11.4z"/>
			<path d="M563.8,11.6c1.1,0,2.4,0,2.1-0.2c-0.5,0-0.9,0-1.4,0C564.5,11.5,563.9,11.5,563.8,11.6z"/>
			<path d="M600.9,11.5c-0.8,0-1.1-0.1-1.4,0C599.5,11.6,600.7,11.6,600.9,11.5z"/>
			<path d="M675.1,11.4c-0.2,0-1.1,0-0.7,0.1C674.5,11.5,675.4,11.5,675.1,11.4z"/>
			<path d="M689,11.4c-0.2,0-1.1,0-0.7,0.1C688.5,11.5,689.4,11.5,689,11.4z"/>
			<path d="M719.8,11.4c-0.2,0-1.1,0-0.7,0.1C719.3,11.5,720.2,11.5,719.8,11.4z"/>
			<path d="M770.2,11.4c-0.5,0-1.4,0-1.4,0.1C769.3,11.5,770.2,11.5,770.2,11.4z"/>
			<path d="M224.5,11.8c0.8,0,1.6-0.1,2.1-0.2c-0.4,0-2.7-0.2-2.8,0c0.5,0,1.4,0,1.4,0.1C224.4,11.7,223.4,11.7,224.5,11.8z"/>
			<path d="M231.5,11.5C227.1,11.7,229.8,12,231.5,11.5L231.5,11.5z"/>
			<path d="M535.1,11.8c0.1-0.2-0.6-0.3-2.1-0.3C532.9,11.7,533.6,11.8,535.1,11.8z"/>
			<path d="M670.9,11.5c-0.5,0-1.4,0-1.4,0.1C670,11.6,670.8,11.6,670.9,11.5z"/>
			<path d="M682.7,11.5c-0.5,0-1.4,0-1.4,0.1C681.9,11.6,682.7,11.6,682.7,11.5z"/>
			<path d="M685.5,11.6C683.9,11.9,687.9,11.4,685.5,11.6L685.5,11.6z"/>
			<path d="M703,11.6c0-0.1-0.6-0.1-0.7,0C702.3,11.7,702.9,11.7,703,11.6z"/>
			<path d="M784.9,11.6c-1.6,0-2.7,0-3.5-0.1C780.3,11.8,785,11.7,784.9,11.6z"/>
			<path d="M792.6,11.5c-0.2,0-1.1,0-0.7,0.1C792.1,11.6,793,11.6,792.6,11.5z"/>
			<path d="M803.1,11.5c-0.2,0-1.1,0-0.7,0.1C802.6,11.6,803.4,11.6,803.1,11.5z"/>
			<path d="M804.5,11.5c-0.2,0-1.1,0-0.7,0.1C804,11.6,804.8,11.6,804.5,11.5z"/>
			<path d="M188.8,11.7C187.1,12,191.1,11.5,188.8,11.7L188.8,11.7z"/>
			<path d="M192.3,11.8c1.8,0.1,3.6-0.3,3.5,0.1c1.8,0,3.3-0.1,4.2-0.2C198.2,11.6,192.9,11.5,192.3,11.8z"/>
			<path d="M292.3,11.7c0-0.1-1.2-0.1-1.4,0C291.1,11.8,291.7,11.7,292.3,11.7z"/>
			<path d="M503.6,11.6c-0.2,0-1.1,0-0.7,0.1C503.1,11.7,504,11.6,503.6,11.6z"/>
			<path d="M513.4,11.8c0.3-0.2-3.2-0.2-2.1,0c0.2,0,1.2,0,1.4,0C512.8,11.8,513.3,11.9,513.4,11.8z"/>
			<path d="M547.7,11.6c-0.2,0-1.1,0-0.7,0.1C547.2,11.7,548.1,11.6,547.7,11.6z"/>
			<path d="M726.1,11.6c-0.2,0-1.1,0-0.7,0.1C725.6,11.7,726.5,11.6,726.1,11.6z"/>
			<path d="M806.6,11.7c0-0.1-1.2-0.1-1.4,0C806,11.7,806.3,11.8,806.6,11.7z"/>
			<path d="M187.4,11.7c-0.5,0-1.4,0-1.4,0.1C186.5,11.8,187.4,11.8,187.4,11.7z"/>
			<path d="M255.3,11.8c0-0.1-1.2-0.1-1.4,0C254.6,11.8,255,11.9,255.3,11.8z"/>
			<path d="M486.1,12c0.1-0.1,1.2-0.2,0-0.3C486,11.8,484.9,11.9,486.1,12z"/>
			<path d="M495.9,11.7c-0.5,0-1.4,0-1.4,0.1C495.1,11.8,495.9,11.8,495.9,11.7z"/>
			<path d="M801.7,12c0.7,0,1.4,0,2.1,0c0.1-0.2-0.6-0.3-2.1-0.3C801.7,11.8,801.7,11.9,801.7,12z"/>
			<path d="M211.2,11.8c-0.2,0-1.1,0-0.7,0.1C210.7,11.9,211.5,11.8,211.2,11.8z"/>
			<path d="M784.9,11.8c-0.2,0-1.1,0-0.7,0.1C784.4,11.9,785.3,11.8,784.9,11.8z"/>
			<path d="M814.3,12c0-0.1-1.2-0.1-1.4,0C813.7,12,814,12.1,814.3,12z"/>
			<path d="M239.9,12.1c-0.5,0-1.4,0-1.4,0.1C239,12.1,239.8,12.1,239.9,12.1z"/>
			<path d="M798.9,12.2c0-0.1-0.6-0.1-0.7,0C798.2,12.3,798.8,12.3,798.9,12.2z"/>
			<path d="M229.4,12.5c0-0.1-1.2-0.1-1.4,0C228.1,12.6,228.7,12.6,229.4,12.5z"/>
			<path d="M698.1,12.4c-0.2,0-1.1,0-0.7,0.1C697.6,12.5,698.5,12.5,698.1,12.4z"/>
			<path d="M589,12.5c-0.2,0-1.1,0-0.7,0.1C588.5,12.6,589.4,12.5,589,12.5z"/>
			<path d="M762.5,12.5c-0.2,0-1.1,0-0.7,0.1C762,12.6,762.9,12.5,762.5,12.5z"/>
			<path d="M850,12.6c0,0-0.6-0.1-0.7,0C849.3,12.6,849.8,12.7,850,12.6z"/>
			<path d="M682.7,13.1c-0.2,0-1.1,0-0.7,0.1C682.2,13.2,683.1,13.2,682.7,13.1z"/>
			<path d="M700.9,13.3c0.8,0,1.6-0.1,2.1-0.2C702.1,13.1,699.2,13.3,700.9,13.3z"/>
			<path d="M705.8,13.3c1.6,0,2.6,0,2.8-0.2C707,13.1,706,13.2,705.8,13.3z"/>
			<path d="M759,13.1c-0.2,0-1.1,0-0.7,0.1C758.5,13.2,759.4,13.2,759,13.1z"/>
			<path d="M569.4,13.5c2.1-0.1,2.7-0.1,4.2,0.1C573.7,13.2,569.5,13.1,569.4,13.5z"/>
			<path d="M733.8,13.2c-0.2,0-1.1,0-0.7,0.1C733.3,13.3,734.2,13.3,733.8,13.2z"/>
			<path d="M744.3,13.2c-0.2,0-1.1,0-0.7,0.1C743.8,13.3,744.7,13.3,744.3,13.2z"/>
			<path d="M684.1,13.3c-0.2,0-1.1,0-0.7,0.1C683.6,13.4,684.5,13.4,684.1,13.3z"/>
			<path d="M720.5,13.3c-0.2,0-1.1,0-0.7,0.1C720,13.4,720.9,13.4,720.5,13.3z"/>
			<path d="M735.2,13.4c0-0.1-0.6-0.1-0.7,0C734.5,13.5,735.1,13.5,735.2,13.4z"/>
			<path d="M522.5,13.4c-0.5,0-1.4,0-1.4,0.1C521.7,13.5,522.5,13.5,522.5,13.4z"/>
			<path d="M556.8,13.4c-0.5,0-1.4,0-1.4,0.1C556,13.5,556.8,13.5,556.8,13.4z"/>
			<path d="M575.7,13.4c-0.2,0-1.1,0-0.7,0.1C575.2,13.5,576.1,13.4,575.7,13.4z"/>
			<path d="M700.2,13.4c-0.2,0-1.1,0-0.7,0.1C699.7,13.5,700.6,13.4,700.2,13.4z"/>
			<path d="M784.2,13.4c-0.2,0-1.1,0-0.7,0.1C783.7,13.5,784.6,13.4,784.2,13.4z"/>
			<path d="M795.4,13.5c-0.5,0-1.4,0-1.4,0.1C794.5,13.6,795.4,13.6,795.4,13.5z"/>
			<path d="M805.9,13.8c0.8,0.1,3.2-0.3,0.7-0.3c-0.1,0,0,0.1,0,0.1C806.5,13.6,805.9,13.8,805.9,13.8z"/>
			<path d="M814.3,13.9c0.1-0.1-0.2-0.5-0.7-0.3C813,13.9,814,14,814.3,13.9z"/>
			<path d="M857.7,13.9c1.5-0.2,0-0.3-1.4-0.4C856.1,13.7,856.4,13.8,857.7,13.9z"/>
			<path d="M724,13.6c-0.2,0-1.1,0-0.7,0.1C723.5,13.7,724.4,13.6,724,13.6z"/>
			<path d="M778.6,13.6c-0.2,0-1.1,0-0.7,0.1C778.1,13.7,779,13.6,778.6,13.6z"/>
			<path d="M811.5,13.7c-0.8,0-1.1-0.1-1.4,0C810.1,13.8,811.3,13.8,811.5,13.7z"/>
			<path d="M859.8,13.6c-0.2,0-1.1,0-0.7,0.1C859.3,13.7,860.1,13.6,859.8,13.6z"/>
			<path d="M486.8,13.8c0.5,0.1,1.6,0.1,2.1,0.2C488.7,13.7,485.5,13.6,486.8,13.8z"/>
			<path d="M442.1,14.1c0.7,0,1.4,0,2.1,0c0.2-0.2-0.9-0.2-1.4-0.3c0.5,0,1.4,0,1.4-0.1c-0.7,0-1.4,0-2.1,0
				C442.1,13.9,442.1,14,442.1,14.1z"/>
			<path d="M523.9,13.8c-0.2,0-1.1,0-0.7,0.1C523.4,13.9,524.3,13.8,523.9,13.8z"/>
			<path d="M486.8,13.9C489,14.2,484.9,13.7,486.8,13.9L486.8,13.9z"/>
			<path d="M824.8,13.9c-0.8,0-2,0-2.1,0.1C823.5,13.9,824.7,14,824.8,13.9z"/>
			<path d="M441.4,14.1c0,0-0.6-0.1-0.7,0C440.7,14.2,441.2,14.2,441.4,14.1z"/>
			<path d="M447,14c-0.8,0-2,0-2.1,0.1C445.7,14.1,446.9,14.1,447,14z"/>
			<path d="M811.5,14c-0.2,0-1.1,0-0.7,0.1C811,14.1,811.8,14.1,811.5,14z"/>
			<path d="M416.2,14.1c-0.2,0-1.1,0-0.7,0.1C415.7,14.2,416.5,14.2,416.2,14.1z"/>
			<path d="M412,14.2c-0.2,0-1.1,0-0.7,0.1C411.5,14.3,412.3,14.3,412,14.2z"/>
			<path d="M416.2,14.3C412.8,14.1,414.5,14.6,416.2,14.3L416.2,14.3z"/>
			<path d="M409.2,14.6c-0.2,0-1.1,0-0.7,0.1C408.7,14.7,409.5,14.6,409.2,14.6z"/>
			<path d="M333.6,15.5c2.5,0.2,4.7,0.1,8.4,0C340.6,14.9,335,15,333.6,15.5z"/>
			<path d="M344.1,15.4c2-0.1,1.8,0.1,3.5,0.1c0-0.1,0-0.2,0-0.3C345.6,15.3,345,15.1,344.1,15.4z"/>
			<path d="M359.5,15.4c-0.9,0-1.7,0-1.4-0.2c-2.2,0.1-1.3,0.1-3.5,0C353.5,15.7,358.8,15.6,359.5,15.4z"/>
			<path d="M349,15.4C347.3,15.7,351.4,15.2,349,15.4L349,15.4z"/>
			<path d="M306.3,15.6c0,0.1,0,0.2,0,0.3c1.3,0,2.3-0.1,2.8-0.2c-0.9,0-0.6-0.2-1.4-0.2C307.6,15.5,307.1,15.6,306.3,15.6z"/>
			<path d="M355.3,15.7c-0.2,0-1.1,0-0.7,0.1C354.8,15.9,355.7,15.8,355.3,15.7z"/>
			<path d="M300.7,15.9c-0.2,0-1.1,0-0.7,0.1C300.2,16,301.1,16,300.7,15.9z"/>
			<path d="M280.4,16.1c-0.5,0-1.4,0-1.4,0.1C279.6,16.2,280.4,16.2,280.4,16.1z"/>
			<path d="M251.8,16.5c-0.2,0-1.1,0-0.7,0.1C251.3,16.6,252.1,16.5,251.8,16.5z"/>
			<path d="M104.8,17.5c-0.5,0-1.4,0-1.4,0.1C104,17.5,104.8,17.5,104.8,17.5z"/>
			<path d="M157.3,17.6c-0.2,0-1.1,0-0.7,0.1C156.8,17.7,157.7,17.7,157.3,17.6z"/>
			<path d="M135.6,17.9c0-0.1-0.6-0.1-0.7,0C134.9,18,135.5,18,135.6,17.9z"/>
			<path d="M144,17.8c-0.2,0-1.1,0-0.7,0.1C143.5,17.9,144.4,17.9,144,17.8z"/>
			<path d="M276.9,11.3c1.7,0.3-2.5,0.5-4.9,0.5C272.8,11.6,276.9,11.7,276.9,11.3z"/>
			<path d="M618.4,8.5c1,0.1,0.2,0.2,0,0.5c-0.9,0.1-3.4,0-3.5,0.3c-1.1-0.1-1.8-0.3-2.1-0.5C615.5,8.4,617.7,9,618.4,8.5z"/>
			<path d="M608.6,8.6c0.1-0.2,1.8,0.1,3.5,0c-0.1,0.2,0.9,0.2,0.7,0.4c-0.5,0-0.9,0-1.4,0c-0.1,0.1,0.2,0.2,0.7,0.2
				c0.7,0.2-4,0-1.4,0c-0.3-0.1-0.9-0.2-2.1-0.2C608.5,8.7,611.3,8.8,608.6,8.6z"/>
			<path d="M695.3,8.5c0.2-0.2,1.2,0.1,2.8,0C698,8.8,695.8,8.6,695.3,8.5z"/>
			<path d="M623.3,8.5c2.2,0,2.5,0.2,4.9,0.1c0.8,0.3-1.1,0.2-1.4,0.4c-1.8,0-3.7-0.4-3.5,0.1c-1.5-0.1-2.7,0.1-4.2-0.2
				c0-0.2,2.1,0,2.8-0.1c0.1,0-2.3-0.2-0.7-0.2C621.6,8.6,623.6,8.9,623.3,8.5z"/>
			<path d="M556.8,8.6c1.3,0,0.9,0.2,1.4,0.3c0.6,0.1,2.1,0.2,2.1,0.4C558.8,9.1,556.6,9,556.8,8.6z"/>
			<path d="M676.5,8.9c0.8,0.2,0.8,0.2-0.7,0.1C675.4,8.8,678.5,8.8,676.5,8.9z"/>
			<path d="M550.5,9.1c2,0.1-1.1,0.1-0.7,0.3C547.5,9.3,550.6,9.2,550.5,9.1z"/>
			<path d="M738,9.2c0.1-0.1,0.7,0,0.7,0c0.6,0,0.7,0,0.7-0.1C741.6,9.2,738.6,9.4,738,9.2z"/>
			<path d="M374.2,9.6c1.3,0.2-1,0.2-0.7,0.5C371.4,10,374,9.7,374.2,9.6z"/>
			<path d="M395.9,10c0.4,0,0.9,0.2,0.7,0.2c0.3,0-2.1-0.2-1.4-0.1C394.9,10,394.6,9.8,395.9,10z"/>
			<path d="M592.5,13.6c0.8-0.4,3.4,0,4.9,0.1c0.2-0.2,4.4-0.3,3.5,0.1c-2.1-0.1-2.5,0-5.6,0C596,13.5,593.7,13.6,592.5,13.6z"/>
			<path d="M659.7,13.6c0.2-0.1,2.1,0,2.1-0.2c0.7,0,0.5,0.1,0.7,0.2c0.6,0,0.7,0,0.7-0.1C665.2,13.7,660.3,13.6,659.7,13.6z"/>
			<path d="M545.6,13.6c0.6,0,1.1,0.1,2.1,0.1c0.4,0.2-1.3,0.1-1.4,0.3c-1,0,0.3-0.1,0-0.3c-0.6,0-0.7,0.1-1.4,0.1
				C543.6,13.7,545.7,13.7,545.6,13.6z"/>
			<path d="M365.1,15.4c0.7,0.1,1.1,0.2,1.4,0.3C366.2,15.9,365,15.5,365.1,15.4z"/>
			<path d="M289.5,16.8c3,0.3-3.5,0.1-3.5,0.3C283.6,16.9,289.3,17,289.5,16.8z"/>
			<path d="M218.2,17c-0.2,0.3-1,0.3,0,0.6c-1.7-0.2-4.5,0.2-6.3-0.1c-0.5-0.2,1.4-0.2,1.4-0.4c2-0.1,1.8,0.1,3.5,0.1
				C219.1,17.2,214.9,16.9,218.2,17z"/>
			<path d="M260.2,17.3c-2.2-0.1,2.2,0,2.1,0C263,17.4,259.8,17.3,260.2,17.3z"/>
			<path d="M195.8,17.5c0.9-0.3,3.9,0.1,4.9-0.3c2.7,0,4,0.3,4.9,0.5c-4.5,0-8.6,0-11.9,0.2c-0.1-0.3-2.8-0.1-4.2-0.1
				c0.2,0-2.4-0.2-2.8,0.1c-1-0.3-5.3-0.1-7-0.3c-0.1-0.1,0.3-0.1,0.7-0.1c0.9-0.4-0.4,0.3,1.4,0.1c0.1,0-0.1-0.2,0-0.2
				c3.4-0.1,9.9,0.1,12.6-0.2C195.6,17.2,195.7,17.3,195.8,17.5z"/>
			<path d="M185.3,17.5c-0.5,0-1.4,0-1.4,0.1C184.4,17.6,185.3,17.6,185.3,17.5z"/>
			<path d="M230.1,17.3c1,0-0.3,0.1,0,0.3c-2-0.1-2.1-0.1-4.2,0C224.1,17.4,229.7,17.4,230.1,17.3z"/>
		</g>
	</g>
</g>
</svg>
