<?xml version="1.0" encoding="utf-8"?>
<!-- Generator: Adobe Illustrator 18.1.1, SVG Export Plug-In . SVG Version: 6.00 Build 0)  -->
<svg version="1.1" id="Layer_1" xmlns="http://www.w3.org/2000/svg" xmlns:xlink="http://www.w3.org/1999/xlink" x="0px" y="0px"
	 viewBox="0 0 878.7 25.2" enable-background="new 0 0 878.7 25.2" xml:space="preserve">
<g>
	<g>
		<g>
			<path fill-rule="evenodd" clip-rule="evenodd" d="M0,2.5c0.8,0.6,3.3,0.7,5.6,0.8c6.6,0.1,14.7-0.2,20.1,0.2
				c2.8-0.3,9.7-0.3,12.5,0c0.1-0.2,1.3-0.2,2.1-0.2c0.1-0.3,0.2-0.5,1.4-0.4c-0.1,0.3-0.2,0.5-1.4,0.4c1.5,0.7,3.2-0.3,4.9-0.2
				c3.1,0.6,7.2,0.2,11.8,0.2c9.4,0.1,21.2,0.4,33.3,0.2c0-0.3,1.9-0.3,2.1,0c-0.7,0-1.4,0-2.1,0c1.3,0.5,5.5,0.1,6.3-0.2
				c0-0.1,0.6-0.2,0.7,0c3.1-0.2,3.5,0.4,5.6,0.4c2.5-0.4,6.7,0.5,8.3-0.4c-0.8,0-1.2,0-1.4-0.2c3.1-0.3,6.9,0.2,9.7,0.2
				c0,0,0-0.4,0-0.4C96,2.4,77.3,3.3,58.3,2.7c-4.6,0.4-9.3-0.5-13.9,0.2C40,2.3,35.7,2.5,30.6,2.7c0.8,0,1.2,0,1.4,0.2
				c-3-0.1-4.7-0.5-7.6-0.6c0.2,0.4-0.1,0.7-1.4,0.6c0.1,0.3-1,0.1,0,0c0.8-0.3,0.3-0.3,0-0.6c-1.9,0.5-6-0.1-6.9,0.2
				c0.8,0,0.4,0.3,0,0C9.6,1.9,5.4,2.4,0,2.5z M11.8,2.9c-0.4-0.1,0.5-0.3,0.7-0.2C12.9,2.8,12,3,11.8,2.9z M107.7,3.1
				c-0.4-0.1,0.5-0.3,0.7-0.2C108.7,3,107.9,3.2,107.7,3.1z M76.4,3.3c-0.4-0.1,0.5-0.3,0.7-0.2C77.5,3.2,76.6,3.4,76.4,3.3z"/>
			<path fill-rule="evenodd" clip-rule="evenodd" d="M311.9,2.5c0,0.5-1.9,0-2.1,0c-1.3,0-4.3,0.2-6.3,0.2c-2.6,0-5.5,0-8.3,0
				c-5.8,0-12.2,0.2-16.7-0.2c-1.5,0.2-2.7,0.4-4.9,0.4c0-0.2,0.6-0.3,0.7-0.4c6-0.5,12.2,0.2,17.4-0.4c4.5,0.1,12.2,0.5,18.1,0
				C310,2.4,311.3,2.3,311.9,2.5z"/>
			<path fill-rule="evenodd" clip-rule="evenodd" d="M348.7,2.3C349.1,2.6,349.5,2.3,348.7,2.3c0.4-0.5,3.5-0.1,2.8,0.4
				c-10.4-0.1-19,0-30.6,0c2.1-1.2,4.7,0.2,7.6-0.6c0.8,0,1.6,0.1,1.4,0.4c1-0.1,1.8-0.3,2.8-0.4C338.2,2.5,343.6,2,348.7,2.3z"/>
			<path fill-rule="evenodd" clip-rule="evenodd" d="M352.1,2.3c-0.4-0.1,0.5-0.3,0.7-0.2C353.2,2.2,352.3,2.4,352.1,2.3z"/>
			<path fill-rule="evenodd" clip-rule="evenodd" d="M360.5,2.7c-0.4-1-5.9,0.9-6.9-0.4C354.6,2.1,361.5,1.6,360.5,2.7z"/>
			<path fill-rule="evenodd" clip-rule="evenodd" d="M374.4,2.3C373.3,3,369,2.6,366,2.7c-1.1-0.8,3-0.1,2.8-0.6
				C370.5,2.2,372,2.4,374.4,2.3z"/>
			<path fill-rule="evenodd" clip-rule="evenodd" d="M393.1,2.3c-0.1,0.5-2.3,0.4-4.2,0.4c-1.4-0.1-4.8,0.3-4.2-0.4
				C387.4,2.8,389,2,393.1,2.3z"/>
			<path fill-rule="evenodd" clip-rule="evenodd" d="M119.5,2.9c11.1-0.4,18.9-0.4,27.8-0.2c-1,0.1,0.1,0.3,0,0
				c1.3,0,1.5-0.2,2.8-0.2c14,0,30.5,0,42.4,0c-2.8,0.9-7,0.2-10.4,0.2c-4,0-7.8,0.2-11.8,0.2c-5.1,0-10.9-0.1-13.2,0
				c-3.1,0.1-6,0-9,0.2c-3-0.1-6.2-0.1-8.3-0.4c-1.3,0.1-1.3,0.6-3.5,0.4C129.4,2.9,126.3,3.3,119.5,2.9z"/>
			<path fill-rule="evenodd" clip-rule="evenodd" d="M210.5,2.7c-4.6,0.2-10.9,0.3-16,0C199.2,2.5,206.5,2,210.5,2.7z"/>
			<path fill-rule="evenodd" clip-rule="evenodd" d="M211.2,2.5C211.3,1.9,214,2.7,211.2,2.5L211.2,2.5z"/>
			<path fill-rule="evenodd" clip-rule="evenodd" d="M218.1,2.5c-0.4,0.7-2.6,0.3-4.2,0.2C214.3,2,216.5,2.4,218.1,2.5z"/>
			<path fill-rule="evenodd" clip-rule="evenodd" d="M218.1,2.5C218.2,1.9,221,2.7,218.1,2.5L218.1,2.5z"/>
			<path fill-rule="evenodd" clip-rule="evenodd" d="M223.7,2.3c-0.2,0.7-1.8,0.5-3.5,0.4C220.8,2.4,221.9,2.3,223.7,2.3z"/>
			<path fill-rule="evenodd" clip-rule="evenodd" d="M225.7,2.7C222.7,2.8,225.5,1.9,225.7,2.7L225.7,2.7z"/>
			<path fill-rule="evenodd" clip-rule="evenodd" d="M239.6,2.3c-2.8,0.8-5.7,0.3-9.7,0.6c2.6-0.5-0.2-0.4-2.1-0.2
				C230.8,1.8,235.1,2.6,239.6,2.3z"/>
			<path fill-rule="evenodd" clip-rule="evenodd" d="M241.7,2.5c-0.4-0.1,0.5-0.3,0.7-0.2C242.8,2.4,241.9,2.6,241.7,2.5z"/>
			<path fill-rule="evenodd" clip-rule="evenodd" d="M243.8,2.5c0.3-0.5,3.4-0.1,4.9-0.2c3.5,0.1,3.2,0.1,6.9,0.2
				c3,0,0.1,0.4-1.4,0.2c-2-0.2-1.8,0.3-3.5,0.2C248.5,2.8,245.6,2.8,243.8,2.5z"/>
			<path fill-rule="evenodd" clip-rule="evenodd" d="M266,2.5c-0.3,0.5-3.4,0.1-4.9,0.2C262.3,2.1,263.7,2.5,266,2.5z"/>
			<path fill-rule="evenodd" clip-rule="evenodd" d="M274.4,2.5c-1.6,0.1-2.6,0.3-4.9,0.2c1-0.3,2.7-0.4,4.9-0.4
				C274.4,2.4,274.4,2.4,274.4,2.5z"/>
			<path fill-rule="evenodd" clip-rule="evenodd" d="M311.9,2.5c0.2-0.3,5.7-0.5,4.9,0.2C314.5,2.8,313.5,2.6,311.9,2.5z"/>
			<path fill-rule="evenodd" clip-rule="evenodd" d="M361.9,2.5c0.2-0.5,3.1-0.1,3.5,0C365.2,3,362.3,2.6,361.9,2.5z"/>
			<path fill-rule="evenodd" clip-rule="evenodd" d="M375.1,2.5c-0.1-0.5,2.5-0.1,3.5-0.2C378.5,2.8,376,2.8,375.1,2.5z"/>
			<path fill-rule="evenodd" clip-rule="evenodd" d="M379.9,2.5c-0.1-0.5,2.5-0.1,3.5-0.2C382.8,3,382.1,2.4,379.9,2.5z"/>
			<path fill-rule="evenodd" clip-rule="evenodd" d="M409.1,2.5c-5.8,0.6-8.7-0.2-13.9,0.2C397.7,1.8,405.2,2.5,409.1,2.5z"/>
			<path fill-rule="evenodd" clip-rule="evenodd" d="M410.5,2.5c-0.4-0.1,0.5-0.3,0.7-0.2C411.5,2.4,410.7,2.6,410.5,2.5z"/>
			<path fill-rule="evenodd" clip-rule="evenodd" d="M414.7,2.5c0.5-0.4,1.3,0,2.1,0C416.2,2.9,415.5,2.5,414.7,2.5z"/>
			<path fill-rule="evenodd" clip-rule="evenodd" d="M423,2.5c-2.5-0.2-3.4,0.5-4.9,0c0.3-0.5,3.4-0.1,4.9-0.2
				C423,2.4,423,2.4,423,2.5z"/>
			<path fill-rule="evenodd" clip-rule="evenodd" d="M425.8,2.5c4-0.5,7.1,0,11.8-0.2c-0.5,0.9-1.7,0.3-4.9,0.4
				C430.4,2.7,427.1,2.9,425.8,2.5z"/>
			<path fill-rule="evenodd" clip-rule="evenodd" d="M441.1,2.5C441.9,1.9,444.7,2.7,441.1,2.5L441.1,2.5z"/>
			<path fill-rule="evenodd" clip-rule="evenodd" d="M457,2.7c-0.5,0-1.4,0-1.4,0.2c-1.8,0-4,0.1-4.9-0.2c-3-0.3-5.6,0.7-5.6-0.4
				C447.9,2.8,454.4,2.2,457,2.7z"/>
			<path fill-rule="evenodd" clip-rule="evenodd" d="M210.5,2.7c0-0.1,0.1-0.2,0.7-0.2c0,0.1,0,0.1,0,0.2
				C210.9,2.7,210.7,2.7,210.5,2.7z"/>
			<path fill-rule="evenodd" clip-rule="evenodd" d="M411.9,2.7c0.1-0.2,1.3-0.2,2.1-0.2C413.9,2.8,412.7,2.7,411.9,2.7z"/>
			<path fill-rule="evenodd" clip-rule="evenodd" d="M423,2.5C425.9,2.3,423.1,3.1,423,2.5L423,2.5z"/>
			<path fill-rule="evenodd" clip-rule="evenodd" d="M441.1,2.5C440.9,3.1,438.2,2.3,441.1,2.5L441.1,2.5z"/>
			<path fill-rule="evenodd" clip-rule="evenodd" d="M457,2.7c0.8-0.2,6.6-0.6,6.2,0.2c-3.4,0-3.4-0.2-6.2,0
				C457,2.9,457,2.8,457,2.7z"/>
			<path fill-rule="evenodd" clip-rule="evenodd" d="M467.4,2.7c14.2-0.4,32.6-0.3,45.2,0c-3.5,0.8-9.2,0.2-13.2,0.2
				c0.5-0.3-3.3-0.3-2.8,0C487.8,2.5,480,3.2,467.4,2.7z"/>
			<path fill-rule="evenodd" clip-rule="evenodd" d="M211.2,2.7C214,2.5,211.3,3.3,211.2,2.7L211.2,2.7z"/>
			<path fill-rule="evenodd" clip-rule="evenodd" d="M218.8,2.9c-0.4-0.1,0.5-0.3,0.7-0.2C219.8,2.8,219,3,218.8,2.9z"/>
			<path fill-rule="evenodd" clip-rule="evenodd" d="M225.7,2.7C228.6,2.5,225.9,3.3,225.7,2.7L225.7,2.7z"/>
			<path fill-rule="evenodd" clip-rule="evenodd" d="M467.4,2.7C467.5,3,466.4,2.8,467.4,2.7L467.4,2.7z"/>
			<path fill-rule="evenodd" clip-rule="evenodd" d="M518.8,2.7c-1.6,0-7.4-0.2-4.9,0.4c1.6-0.4,7.8,0.7,10.4,0
				C523.3,2.8,521.5,2.6,518.8,2.7z M522.3,2.9C520.8,3.6,517.9,2.7,522.3,2.9L522.3,2.9z"/>
			<path fill-rule="evenodd" clip-rule="evenodd" d="M551.5,3.1c0,0,0,0.2,0,0.2c6.2-0.4,14.4-0.2,20.1,0.4C571.5,4,570.5,4,569.5,4
				c-0.8,0-1.6-0.1-1.4-0.4c-1,0.1-1.7,0.3-2.8,0.4c-5.6-0.3-8.7-0.7-13.9-0.4c-2.2,0.2-2.2-0.3-3.5-0.4c-5.6,0.4-9.7,0.1-16.7,0.2
				c-1.3,0-1.5-0.2-0.7-0.4c-2.4,0.4-3.3,0-6.2,0C534.1,2.4,542.2,2.9,551.5,3.1z"/>
			<path fill-rule="evenodd" clip-rule="evenodd" d="M496.6,2.9C499.5,2.7,496.8,3.6,496.6,2.9L496.6,2.9z"/>
			<path fill-rule="evenodd" clip-rule="evenodd" d="M499.4,2.9C499.5,3.2,498.4,3.1,499.4,2.9L499.4,2.9z"/>
			<path fill-rule="evenodd" clip-rule="evenodd" d="M551.5,3.1C551.4,2.9,552.5,3,551.5,3.1L551.5,3.1z"/>
			<path fill-rule="evenodd" clip-rule="evenodd" d="M96.5,3.3c0.2,0,0.5,0,0.7,0c0.2,0.2,0.6,0.2,1.4,0.2c0,0.2-0.6,0.2-0.7,0.4
				c-0.5,0-0.9,0-1.4,0C96.5,3.8,96.5,3.6,96.5,3.3z"/>
			<path fill-rule="evenodd" clip-rule="evenodd" d="M547.3,3.6c-0.4-0.1,0.5-0.3,0.7-0.2C548.4,3.5,547.5,3.6,547.3,3.6z"/>
			<path fill-rule="evenodd" clip-rule="evenodd" d="M582.7,3.8c-3.2-0.2-0.7,0.3-2.1,0.4c-0.8,0-1.6-0.1-1.4-0.4
				c-3.5,0.7-5.4,0-9-0.2C573.3,3.3,578.3,3.5,582.7,3.8z"/>
			<path fill-rule="evenodd" clip-rule="evenodd" d="M116,3.6c0.6,0.8-3.3,0.3-4.9,0.4C112,3.6,114.8,3.8,116,3.6z"/>
			<path fill-rule="evenodd" clip-rule="evenodd" d="M122.2,3.8c-0.7,0.3-3,0.2-4.2,0.4C118.2,3.6,120.4,3.8,122.2,3.8z"/>
			<path fill-rule="evenodd" clip-rule="evenodd" d="M132,4c-1.6,0.5-6.2,0.1-9,0.2C124.9,3.9,129.6,3.5,132,4z"/>
			<path fill-rule="evenodd" clip-rule="evenodd" d="M157.7,3.8c-1.7,0.6-8.1-0.2-9.7,0.4c1.1,0,2.7-0.1,2.8,0.2
				c-2,0.6-5.5,0.2-8.3,0.2c-14.9,0.2-37.1-0.2-50.7,0.2c-2.8-0.9-6,0.2-9-0.6c-0.7,0.5-3.2,0.4-5.6,0.4c-0.9,0.2-1.4,0.6-2.8,0.6
				c-1.2,0.1-4.1-0.3-4.2,0.2c1.6,0.1,2.9,0.3,4.2,0.4c-0.3-0.4,0.5-0.4,1.4-0.4c2.1,0.2,3.8,0,7,0.2c5.9-0.1,16.6-0.1,21.5,0.2
				c0.8,0,2,0,2.1,0.2c-0.8,0-2,0-2.1-0.2c-1.7,0.1-3.7,0.1-6.2,0.4C91.8,6.3,90.8,6,85.4,6.1C84.7,6.1,85,6.5,84,6.5
				c0.3-0.4-0.5-0.4-1.4-0.4c-0.6,0.4-4.8,0.2-5.6,0c-0.1,0.7-4.5,0-4.2,0.8c0.9,0.6,5.5,0.2,6.9,0.6c-2.8,0.2-4.8,0.2-7.6,0
				c-2.6,0.3-4.3-0.3-5.6-0.2c-0.1,0-0.3,0.7-1.4,0.4C65.4,7.6,66,7.5,66,7.3c-2,0-2.9,0.4-4.9,0.4c-0.4-0.6-1.7-0.8-2.8-0.2
				c3.2-0.2-0.8,1,0,0c-4.1-0.3-7.9-0.3-10.4-0.6c0.9-0.3,3.1-0.3,4.2-0.6c6.9-0.1,11.4,0,16.7-0.8c-9.3-0.3-17,0.6-26.4,0.8
				c-0.5,0.4-2.1,0.5-2.8,0.8c-0.4-0.1-2.1-0.8-2.8-0.2c1.3,1.1,8.4,0.4,11.1,1c-4.7,0-8.1,0.4-13.2,0.2c-1.1,0.1,0.6,0.4-0.7,0.4
				c-2.9-0.3-6.4,0.2-9.7,0.2c-0.3,0.8,3.6,0.3,4.2,0.8C31,9.5,31.8,10,34,10c8,0.3,11.4,0.2,18.1,0.4c3.4-0.2,6.6-0.4,9,0.2
				c5.4-0.3,8.7-0.2,13.2,0.2c11.8-0.6,18.8,0.3,27.1-0.2c0.6,0.5,5.4-0.2,4.9,0.6c-2.9-0.2-5.5,0.1-9.7,0c-1.8,0.5-4.2-0.3-4.9,0.4
				c-0.9-0.1-1.1-0.4-2.1-0.4c0.6,1-1.8-0.3-2.1,0.4c0.8,0,0.4,0.3,0,0c-1.6-0.4-0.8,0.1-2.1,0.2c-4.8-0.9-9.1,0-15.3-0.2
				c-1.8,0.5,1.3,0.7,2.1,1c-2.7,0-5.1,0-6.3,0.4c1.4-0.1,2.2,0,2.1,0.4c-5.3-0.2-8.7-0.4-13.2,0.2c0.5,0,1.4,0,1.4,0.2
				c-0.5,0-1.4,0-1.4-0.2c-1.7,0-3.4,0-3.5,0.4c3.3,0.2,6.3,0.6,10.4,0.6c1.6,0.4,2.9,0.8,4.9,1c10.2-0.1,23.9,0.6,38.2,0
				c-0.5,0-1.4,0-1.4-0.2c-0.4,0.1-3.3,0.5-3.5,0c1.2,0.1,2.9-0.6,3.5,0c0.5,0,1.4,0,1.4,0.2c3.8-0.2,5.4,0.3,9,0.2
				c1.9,0.2,1.4-0.4,2.8-0.4c-0.1,0.9,1.1,0,2.1,0c1.4,0.8,4.4-0.1,6.9,0.4c5.1-0.2,11.4-0.3,16,0c0.3-0.3,0.9-0.4,2.1-0.4
				c1.9-0.2,1.4,0.4,2.8,0.4c2.7-0.3,5.8-0.2,8.3,0c0.3-0.3,0.9-0.4,2.1-0.4c1.7,0.3,3.4,0.1,6.3,0c1.2,0,1.5,0.2,2.8,0.2
				c10.7-0.1,24.7,0.1,35.4-0.2c1.2,0,2.9-0.3,4.2-0.2c1.7-0.1,1.5,0.4,3.5,0.2c11.8-0.2,20.6,0,29.2-0.2c0.9,0,1.2,0.2,1.4,0.2
				c1,0,2.4-0.2,3.5-0.2c4.1,0,8.2,0.3,13.2-0.2c1.7-0.1,1.5,0.4,3.5,0.2c1.1,0.1,1.2-0.2,2.1-0.2c-0.2,0.4,0.7,0.4,0.7,0.2
				c2.3-0.1,3.2,0.1,4.9,0.2c4.2-0.6,12.1,0.3,14.6-0.4c0.8,0.2,2.5,0.2,4.2,0.2c2.9-0.2,4.6,0,8.3,0c1.9,0,3.6-0.3,5.6-0.2
				c10.8,0.2,23.9-0.1,36.1,0.4c9.9-0.5,23.3-0.1,34.7-0.2c11.9,0.5,28.9-0.1,38.9,0.4c2.1,0.1,2.5-0.2,4.2-0.2
				c1.3,0.2,2.5,0.4,4.2,0.4c3.1-0.4,6.2-0.2,11.1,0c5.1-0.2,10.8,0.2,14.6-0.2c0.6,0.3,1.8,0.4,3.5,0.4c10.5,0,20.4-0.6,29.2,0.4
				c1.1-0.2,1-0.7,2.8-0.6c-0.8,0.3-0.3,0.3,0,0.6c2.6,0.1,3-0.4,5.6-0.2c2,0.3,4.9,0.3,6.9,0c1.4,0.7,2.8,0.1,4.9,0.4
				c5.1,0,10.2,0,15.3,0c3,0.4,5.1,0.3,8.3,0.2c1.7-0.1,1.5,0.4,3.5,0.2c4.4-0.2,6.8,0,11.1,0.2c10-0.3,18.1,0.3,29.2,0
				c19.5,0.9,37.9,0.7,57,1c-0.8,0-1.2,0-1.4,0.2c10-0.1,17.3,0.7,25,0.2c1.2,0.6,1.8,0.2,4.2,0.2c-0.3,0.4,0.5,0.4,1.4,0.4
				c6.3-0.1,13.1,0.6,18.8,0c1.1,0.8,6.7,0.2,9,0.6c10.2,0.1,17,0.1,24.3,0.6c11.4-0.1,21.1,0.9,34,0.8c1.9,0.5,1.7,0.2,4.2,0.4
				c3.7-0.3,7.3,0.3,10.4,0.4c1.2,0,2.5-0.3,3.5-0.2c0.5,0,0.8,0.4,2.1,0.4c1.2,0.1,2.9,0,4.2,0c4.7,0.2,9.4,0.7,14.6,0.8
				c4.7,0.1,8.8,0.2,14.6,0.2c1.3,0.2,2.5,0.3,4.2,0.4c2.4-0.1,6.6,0.3,6.9-0.4c-1-0.4-2.5-0.6-4.9-0.6c-2.8,0.1-3.8-0.5-4.9,0.2
				c0.1-0.5-0.6-0.7-2.1-0.6c-1.2-0.6-2.2,0.6-2.8,0c-1.3-0.4-1.7,0-3.5,0c-1.4,0-0.9-0.6-2.8-0.4c-1.6,0.4-4.9,0.1-6.3-0.2
				c3.3,0,6.8,0.1,6.9-0.8c-0.1-0.5-2.9-0.1-4.2-0.2c0.3-0.4-0.5-0.4-1.4-0.4c0,0.1-0.6,0.2-0.7,0c-0.8-0.2-1.9-0.3-3.5-0.2
				c0,0.1-0.1,0.2-0.7,0.2c0,0.1-0.6,0.2-0.7,0c0.2,0,0.5,0,0.7,0c0-0.1,0.1-0.2,0.7-0.2c0-0.1,0-0.1,0-0.2c-1.2-0.4-2.3,0.2-4.9,0
				c-0.2-0.8-5.8,0.1-5.6-0.8c1.1,0.3,4.1,0.2,6.2,0.2c0-0.2,0.8-0.2,1.4-0.2c-0.3,0.4,0.5,0.4,1.4,0.4c5.6,0,8.7,0.5,13.9,0
				c3.9,1,6.6,0.1,11.1,0.8c11.4-0.1,17.9,0.6,29.9,0.6c0.6,0.1,1.2,0.2,1.4,0.4c2.6-0.4,4.4,0.2,6.9-0.2
				c13.3,0.8,30.4,1.1,40.3,1.2c1.8-0.4,5.9,0,5.6-1c-0.6-0.4-2.6-0.3-2.8-0.8c-6.1-0.1-7.2-0.6-13.2-0.8c0.1,0.3-1,0.1,0,0
				c0-0.2-0.8-0.2-1.4-0.2c-4.6,0.3-5.9-0.1-9-0.6c2.4-0.1,8,0,11.8-0.2c-0.7-1.4,4.2,0,3.5-1.2c-1.3-0.4-5.5,0-6.3-0.6
				c-3.2,0.6-8.3-0.6-11.8,0c0.3-0.4-0.5-0.4-1.4-0.4c-1.7-0.1-1.5,0.4-3.5,0.2c-7.7-0.5-15.6-0.8-22.9-0.8
				c-0.9-0.1-1.1-0.4-2.1-0.4c-4.6,0.2-9.5-0.2-13.9-0.4c-7.1,0-9.6-0.5-16-0.4c-1.3-0.2-2.5-0.3-4.2-0.4c-6.3,0-11.5-0.3-16.7-0.6
				c-0.7,0.3-2.3,0.3-2.8,0.6c0.4-0.9-3.9-0.5-5.6-0.8c-2.3,0-4.6,0-7,0c-5.8-0.6-14.5-0.2-21.5-0.8c-2.1,0-4.2,0-6.3,0
				c-14.5-0.8-26.5-0.5-38.2-1.3c-2-0.2-1.8,0.3-3.5,0.2c-15.2-0.9-25.9-0.4-39.6-1.2c-2.7-0.2-6.1,0.4-6.9,0c2.2-0.3,5.2-0.6,6.9,0
				c3.2,0,6.8,0.1,9-0.2c-0.1,0.2,0.2,0.4,0.7,0.4c0.6-0.3,1,0.1,2.8-0.2c-0.1-0.3,1-0.1,0,0c0,0.2,0.8,0.2,1.4,0.2
				c5.6,0,6,0.3,9.7,0c3.8,0.6,6.6,0.2,9,0.4c2.2,0.3,0.5-0.7,2.8-0.4c0.8,0.1,0.5,0.4,1.4,0.4c0.8-0.7-1.1-0.5-1.4-0.8
				c1.2,0.1,4.1-0.3,4.2,0.2c-1.4-0.2-3.1,0.5-1.4,0.6c5.3-0.4,13.5,0.7,21.5,0.2c3,0.1,6.3,0.6,9,0.2c0.9,0,2.1,0.8,2.8,0.2
				c-0.8,0-0.4-0.3,0,0c6,0.3,8.3-0.1,13.9,0.4c1.6,0.1,2.7,0,3.5-0.2c6.2,0.8,14,0.3,20.8,0.8c-0.1-0.3,1-0.1,0,0
				c0.7,0.5,2.7-0.3,4.9,0c4.8,0.4,11.3,0.2,16,0.6c0.9-0.1,1.1-0.4,2.1-0.4c-0.3,0.4,0.5,0.4,1.4,0.4c1.6,0.1,2.7,0,3.5-0.2
				c0,0.1,0,0.3,0,0.4c2.4-0.1,4.6-0.4,5.6,0.2c4.2-0.3,10.6,0.2,15.3,0.4c1.6,0,3.2,0,4.9,0c0.6,0.1,1.1,0.2,2.1,0.2
				c3,0,6.3-0.1,8.3,0.2c0.8-0.1,0.5-0.4,1.4-0.4c0,0.6,2.5,0.6,3.5,0.6c1,0.1,2.3-0.2,3.5,0c2.8,0.2,4.8,0.4,5.6-0.6
				c-3-0.5-6.1-0.2-9.7-0.2c-22.1-1.2-42.1-1.2-67.4-2.3c-1.9,0-4-0.1-4.9,0.2c0.3-0.9-1.7,0.2-2.8-0.4c-2.3,0.1-3.2-0.1-4.9-0.2
				c-1.6-0.1-2.7,0-3.5,0.2c-5.9-0.9-15.7-0.4-22.9-1c-2.1-0.1-6,0.3-7-0.2c-1-0.1-3.6,0.2-3.5-0.2c-0.5,0-1.4,0-1.4-0.2
				c0.5,0,1.4,0,1.4,0.2c1,0.1,3.6-0.2,3.5,0.2c2.4-0.2,2.1,0.1,3.5-0.4c1.8,0.2,10,0.6,9.7-0.4c-2-0.6-6.2-0.5-8.3-1
				c-2.9,0-3.3-0.3-5.6,0c-0.6-0.5-3.6-0.2-4.2-0.6c-1.7-0.1-1.5,0.4-3.5,0.2c-1.4,0-0.9-0.6-2.8-0.4c-8-0.1-13.6-0.9-22.2-0.8
				c-1.3-0.2-2.5-0.3-4.2-0.4c-15.4-0.5-33.3-1.2-46.5-1.7c-1.8-0.2-3,0.2-4.2,0.2c-0.3,0-0.7-0.4-1.4-0.4c-0.1,0-1.2,0.3-2.1,0.2
				c-1.3-0.1-2.3-0.4-4.2-0.4c-12.5,0.1-19-0.6-30.6-0.4c-0.5,0.7,4.1,0.4,5.6,0.4c1.1,0,4.8,0.5,6.2-0.2c2.6,0.8,10,0.9,13.9,0.6
				c0.6,0.3,2.2,0.3,3.5,0.4c15.2,0.4,30.8,0.8,44.5,1.7c1.8-0.5,5,0.3,8.3,0c6.7,0.8,17.5,0.7,25,1.5c8.5,0.4,14.1,0.3,20.8,1.2
				c-9-0.1-15.1-0.2-27.1-0.4c-1.5-0.1-1,0.4-2.1,0.4c0.2-0.4-0.1-0.7-1.4-0.6c-2.5-0.1-4.5,0-6.3,0.2c-2.8-0.2-5.5-0.1-9-0.4
				c-6.9,0.1-14.7-0.1-22.2-0.4c-0.3,0.3-0.9,0.4-2.1,0.4c-14.5-1-25.1-0.2-36.1-1c-5.8,0.1-9.9,0.2-15.3-0.2
				c-5.3,0.4-11.2-0.1-18.8-0.4c-2.4,0.3-3,0.1-6.3,0c-8.4,0.2-12.5-0.5-20.8,0c-0.2-0.2-1.4-0.1-1.4-0.4c-1.6,0-2,0.4-4.2,0.2
				c-8.3-0.6-15.3-0.3-27.1-0.4c0.1,0.3-1,0.1,0,0C497.4,5.7,484.4,6,473,5.6c-0.2,0.4-3,0.1-3.5,0.4c0.3-0.4-0.5-0.4-1.4-0.4
				c-4.2,0.1-10.1-0.1-14.6-0.2c-6.5,0-14.7,0.2-21.5-0.2c-2.8,0.3-5,0.3-6.9-0.2c0.3,0.4-0.5,0.4-1.4,0.4
				c-6.5-0.3-15.7-0.3-21.5-0.2c-7.6-0.5-20,0-28.5-0.4C373.8,5,373.4,5,373,5c2.1,0.4-2.6,0.8-2.8,0.4c0.1-0.4,2.3-0.1,2.8-0.4
				c-2.1-0.7-5.7,0.9-7.6,0.2c1.2,0,1.8-0.2,2.1-0.4c-2-0.1-2.4,0.4-3.5,0.6c-0.2-0.4-1.9-0.4-2.8-0.6c-1.8,0.5-7.1,0-9,0.4
				C339.9,4.7,326.2,5,314.6,5c-4.6,0-9.1-0.2-13.2-0.2c-2.3,0.3-7.7-0.2-11.1-0.2c-7.8,0.3-20.7-0.1-29.2,0.2
				c-4.1-0.3-7.9,0.1-13.2-0.4c-0.9,0.3-3.1,0.6-4.2,0.2c0,0.2-1.2,0.3-1.4,0c-12.8-0.3-22.6-0.1-35.4-0.4c-3,0.3-6.2-0.1-9.7,0.4
				c-0.7-0.3-2.9-0.2-4.2-0.4c-4,0.1-9.9-0.3-11.8,0.4c-0.5-0.8-5.3-0.2-7-0.6c-4.5,0.1-10.9,0-15.3,0.2c0,0.1-0.1,0.2-0.7,0.2
				c0,0.3-1.9,0.3-2.1,0c0.7,0,1.4,0,2.1,0c0-0.1,0.1-0.2,0.7-0.2C158.7,4,158.4,3.8,157.7,3.8z M152.8,4.4
				c-0.4-0.1,0.5-0.3,0.7-0.2C153.9,4.3,153,4.4,152.8,4.4z M169.5,4.4c-0.4-0.1,0.5-0.3,0.7-0.2C170.5,4.3,169.7,4.4,169.5,4.4z
				 M598.7,4.4c-0.4-0.1,0.5-0.3,0.7-0.2C599.8,4.3,598.9,4.4,598.7,4.4z M172.9,4.8c-0.4-0.1,0.5-0.3,0.7-0.2
				C174,4.7,173.1,4.9,172.9,4.8z M204.2,4.8c0-0.2,0.8-0.2,1.4-0.2C205.6,4.8,204.7,4.8,204.2,4.8z M77.8,5
				c-0.4-0.1,0.5-0.3,0.7-0.2C78.8,4.9,78,5.1,77.8,5z M177.8,5c-0.4-0.1,0.5-0.3,0.7-0.2C178.9,4.9,178,5.1,177.8,5z M183.4,5
				c-0.2-0.4,3.9-0.4,2.8,0.2C184.9,5.2,184.7,5,183.4,5z M116.7,5.2c-0.4-0.1,0.5-0.3,0.7-0.2C117.7,5.1,116.9,5.3,116.7,5.2z
				 M127.8,5.2c0-0.2,0.9-0.2,1.4-0.2C129.2,5.2,128.3,5.2,127.8,5.2z M143.1,5.4c0.4-0.4,1.1-0.4,2.1-0.2c-0.1-0.3,1-0.1,0,0
				C145,5.5,144.1,5.4,143.1,5.4z M155.6,5c-0.2,0.3-2.1,0.1-2.1,0.4C151.3,5.2,154.2,4.8,155.6,5z M160.4,5.2
				c0-0.2,0.8-0.2,1.4-0.2C161.8,5.2,161,5.2,160.4,5.2z M162.5,5.8c0.6-0.8,2-0.1,4.2-0.2c7.2-0.2,13.1,0.1,20.8-0.4
				c2.9,0.4,3.1,0.3,7,0.2c1.1,0,0.5-0.5,2.1-0.4c0,0.2,0.6,0.2,0.7,0.4c2.5,0.1,7.5,0.5,9.7,0c-3.7,0.2-0.8-0.6,0,0
				c1.2,0,2.3,0,3.5,0c-0.5-0.7,1.4-0.3,1.4,0c6.3,0.2,10.4,0,16.7,0.4c0.4,0,0.8-0.2,0-0.2c0.1-0.5,2.3,0,2.1,0.2
				c1-0.2,1.8-0.2,2.8,0c4.6-0.2,12.3-0.5,15.3,0c0.5,0,0.8-0.2,0.7-0.4c6.3,0.4,15.5,0.2,21.5,0.2c4.2,0.2,15.1-0.2,19.5,0
				c-0.1,0.3-1.7,0.2-2.8,0.2c0.3,1,2.3,0.1,4.2,0.6c2.4-0.3,4.3-0.1,8.3-0.2c-0.1-0.2-0.8-0.3-1.4-0.4c0.5-0.5,4-0.1,3.5,0.4
				c4.1-0.4,9.2,0.3,12.5-0.2c0.5-1,4.2,0.1,5.6-0.4c-0.9,0.9-3.9,0-5.6,0.4c7.5,0.7,17.4-0.3,23.6,0.4c5.2,0.1,8-0.3,11.8,0.2
				c2.1,0.1,2.5-0.2,4.2-0.2c0.1,0.3,4.8,0.3,4.9,0c2,0.7,5.7-0.1,8.3,0.4c7.7,0.2,12.7-0.1,19.4,0.4c2.9-0.2,0.1,0.6,0,0
				c-11.1,0.4-20.6-0.3-35.4,0.2c-0.8-0.1-1.6-0.2-2.1-0.4c-1.3,0.1-1.7,0.4-3.5,0.4c-10.6-0.4-17.9-0.2-31.9-0.4
				c-0.9,0-1.6,0.1-1.4,0.4c3.7-0.2,0.8,0.6,0,0c-0.5,0-0.9,0-1.4,0c0-0.1-0.6-0.2-0.7,0c-3.3-0.6-8.7-0.7-13.2-0.4
				c0,0.1-0.1,0.2-0.7,0.2c0.1,0.3-1,0.1,0,0c0-0.1,0.1-0.2,0.7-0.2c-9.9-0.6-19.5,0.1-26.4-0.2c-0.7,0-0.9,0.4,0,0.4
				c-0.3,0.5-3.4,0.1-4.9,0.2c-0.3-0.6,3.8,0.2,3.5-0.4c-2.6-0.4-4.2,0-7.6-0.2c-2.1,0-3.5-0.6-4.9-0.2c1.9,0.5-1.3,0.3-1.4,0.8
				c-3.4-0.4-6.4,0.3-9.7-0.2c1.9-1.1,9,0.5,11.1-0.6c0.7-0.8-3-0.2-3.5-0.6c-2.4,0.2-5,0-5.6,0c-0.6,0-0.9,0.2-1.4,0.2
				c-0.8,0-2-0.4-2.1-0.4c-0.6,0-3.3,0.9-2.8,0.2c-1.4,0-2.8,0-4.2,0c0,0.3,1.9,0.1,2.1,0.4c1.1,0,2.4,0,2.1,0.4c-0.5,0-0.9,0-1.4,0
				c0.3,0.5,3.4,0.1,4.9,0.2c0.6,0.8-3.3,0.3-4.9,0.4c-1.2-0.2-3.5-0.1-4.2-0.4c-4.5,0.6-7.7,0.2-10.4,0.2c-3.7,0-7.3,0.5-11.1-0.2
				c5.2-0.2,16.2,0.2,20.8-0.2c-0.1-0.5-3-0.1-4.2-0.2c-0.4-0.7-3.4-0.5-4.9-0.4c-1.7-0.1,0.4,1-2.1,0.6c0-0.2,0-0.4,0-0.6
				c-2.6,0.1-7.1-0.3-7.6,0.4c-1.4,0-0.9-0.6-2.8-0.4c-8.6-0.1-18.9,0.3-26.4-0.2c-5.1,0.5-12.3-0.2-16,0.2c1.4,0.5-0.2,0.2-0.7,0.6
				c0.8,0,0.4,0.3,0,0c-2.7,0.7-7.6,0-11.1-0.2c0,0.1-0.6,0.2-0.7,0c-0.5,0-0.9,0-1.4,0c0,0.1,0,0.1,0,0.2c0.8,0,0.4,0.3,0,0
				c-1.1,0-2.4,0-2.1-0.4c0.5,0,0.9,0,1.4,0c0,0.1,0.1,0.2,0.7,0.2c0-0.2,1.2-0.3,1.4,0c0.2,0,0.5,0,0.7,0c0-0.3,1.9-0.1,2.1-0.4
				c0.5,0,0.8,0.2,0.7,0.4c0.7-0.5,5,0.1,5.6-0.4c-0.5,0-1.4,0-1.4-0.2C165.1,6.1,164.7,5.7,162.5,5.8z M200,5.2
				c0-0.2,0.8-0.2,1.4-0.2C201.4,5.2,200.6,5.2,200,5.2z M226.4,5.2c-0.4-0.1,0.5-0.3,0.7-0.2C227.5,5.1,226.6,5.3,226.4,5.2z
				 M290.3,5.2C290,5.1,290.8,5,291,5C291.4,5.1,290.5,5.3,290.3,5.2z M137.5,5.4c0-0.2,0.8-0.2,1.4-0.2c0.7,0,1.4,0,2.1,0
				C141.1,5.7,138.5,5.3,137.5,5.4z M149.3,5.4c-0.4-0.1,0.5-0.3,0.7-0.2C150.4,5.3,149.5,5.5,149.3,5.4z M202.1,5.4
				c0-0.2,0.9-0.2,1.4-0.2C203.5,5.4,202.7,5.4,202.1,5.4z M222.3,5.4c0-0.2,0.8-0.2,1.4-0.2c0.7,0,1.4,0,2.1,0
				C225.9,5.7,223.3,5.3,222.3,5.4z M325.8,5.2c0.5,0,0.9,0,1.4,0c0,0.1,0,0.3,0,0.4c-0.5,0-0.9,0-1.4,0
				C325.8,5.5,325.8,5.4,325.8,5.2z M380.6,5.2c-0.6,0.3-1.7,0.4-3.5,0.4C377.3,5.2,378.9,5.2,380.6,5.2z M382.7,5.4
				c-0.4-0.1,0.5-0.3,0.7-0.2C383.8,5.3,382.9,5.5,382.7,5.4z M388.3,5.4c0.1,0.5-2.5,0.1-3.5,0.2C385.3,5,386.6,5.4,388.3,5.4z
				 M393.1,5.4c0-0.2,0.9-0.2,1.4-0.2C394.5,5.4,393.7,5.4,393.1,5.4z M307.7,5.6c0-0.2,0.8-0.2,1.4-0.2
				C309.1,5.6,308.2,5.6,307.7,5.6z M311.2,5.6c0-0.2,0.9-0.2,1.4-0.2C312.5,5.6,311.7,5.6,311.2,5.6z M389,5.6
				c0.1-0.2,1.3-0.2,2.1-0.2C390.9,5.7,389.8,5.6,389,5.6z M400.8,5.6c3.7,0.1,4.7,0.2,9.7,0.2c0.7,0,1.8-0.1,0.7-0.2
				c1-0.7,1.7,0.4,3.5,0.2c2.2,0.1,2.5-0.4,4.9-0.2c3.9,0.1,7.8,0.5,11.1,0.2c6.2,0.7,13,0,20.8,0.2c0.2,0.8-1,0-2.8,0.2
				c-0.2,0.4-1.9-0.3-2.8,0.2c-3.2-0.3-5.9,0.1-10.4,0c-1.8-0.1-3.8-0.1-4.9-0.4c-3.8,0.5-7.2,0.1-9.7,0c-3.2-0.1-6.5,0.2-9.7,0.2
				C407.7,6.2,401.3,6.1,400.8,5.6c-0.2,0-0.5,0-0.7,0c-0.1,0.3-0.2,0.5-1.4,0.4c0-0.1-0.1-0.2-0.7-0.2c0.1-0.2,1.1-0.2,2.1-0.2
				C400.1,5.5,400.6,5.4,400.8,5.6z M406.3,5.6c-0.4-0.1,0.5-0.3,0.7-0.2C407.4,5.5,406.5,5.7,406.3,5.6z M291.7,5.8
				c-0.2-0.4,3.9-0.4,2.8,0.2C293,6.1,292.7,5.9,291.7,5.8z M295.2,5.8c0.1-0.2,1.3-0.2,2.1-0.2C297.2,5.9,296,5.8,295.2,5.8z
				 M303.5,5.8c-0.4-0.1,0.5-0.3,0.7-0.2C304.6,5.7,303.7,5.9,303.5,5.8z M321.6,5.8c0-0.2,0.8-0.2,1.4-0.2
				C323,5.8,322.1,5.8,321.6,5.8z M329.2,5.8c0-0.2,0.9-0.2,1.4-0.2C330.6,5.8,329.8,5.8,329.2,5.8z M332.7,5.8
				c0.3-0.5,3.4-0.1,4.9-0.2c0,0.1,0,0.1,0,0.2c2.9-0.2,0.1,0.6,0,0C335.6,6.1,334.7,6.1,332.7,5.8z M339.6,5.8
				c0.1-0.2,1.3-0.2,2.1-0.2C341.6,5.9,340.5,5.8,339.6,5.8z M394.5,5.8c0-0.2,0.8-0.2,1.4-0.2C395.9,5.8,395.1,5.8,394.5,5.8z
				 M107,6.1c-0.4-0.1,0.5-0.3,0.7-0.2C108,6,107.2,6.1,107,6.1z M344.5,6.1c0.1-0.2,1.3-0.2,2.1-0.2C346.5,6.1,345.3,6,344.5,6.1z
				 M357.7,6.1c-0.4-0.1,0.5-0.3,0.7-0.2C358.8,6,357.9,6.1,357.7,6.1z M458.4,6.1c1.5-0.3,4.2,0.2,5.6,0.2c3.9,0.1,7.5-0.2,9.7,0
				c-0.5,0.5-5.1-0.2-4.9,0.6c1.3,0.4,1.7,0,3.5,0c0.5,0.6-4.5,1-3.5,0C467.2,6.1,460.7,7.1,458.4,6.1z M120.9,6.3
				c0.5,0,0.9,0,1.4,0c-0.5-0.3,3.3-0.3,2.8,0c8.9,0.1,11.9-0.3,18.8,0c2.6,0,4.6-0.5,4.9,0.2c1.1-0.2,2.8-0.3,4.2-0.2
				c2,0.1,1.5,0.5,2.1,0.6c-4.4,0.2-10.6-0.6-15.3,0.2c0-0.2,0.6-0.2,0.7-0.4c-4.2,0.1-11.4,0.2-15.3-0.4c-0.9,0-1.9,0-2.8,0
				C122.8,6.9,120.9,6.6,120.9,6.3C118,6.5,120.7,5.6,120.9,6.3z M340.3,6.3c0-0.2,0.9-0.2,1.4-0.2C341.7,6.3,340.9,6.2,340.3,6.3z
				 M375.8,6.3c0-0.2,0.9-0.2,1.4-0.2C377.1,6.3,376.3,6.2,375.8,6.3z M454.9,6.1c1.5-0.1,1.3,0.3,1.4,0.6c-0.6,0-0.7-0.2-1.4-0.2
				C454.9,6.3,454.9,6.2,454.9,6.1z M85.4,6.5c0-0.2,0.8-0.2,1.4-0.2C86.8,6.5,86,6.4,85.4,6.5z M252.8,6.7
				C252.7,7.3,249.9,6.5,252.8,6.7C252.2,5.8,254.9,6.6,252.8,6.7z M371.6,6.5c0.1-0.5,2.4-0.1,2.8,0C373.9,7.1,372.9,6.3,371.6,6.5
				z M379.2,6.3c-0.3,0.3-0.9,0.4-2.1,0.4C377.5,6.4,378,6.2,379.2,6.3z M495.2,6.5c-1.1,0.7-5.6-0.2-8.3,0.4
				c-1.6-0.5-6.5,0-8.3-0.4c-2.1-0.1-2,0.4-4.2,0.2c-0.2-0.7,3.1-0.4,4.2-0.4C484.8,6.2,490.7,6.4,495.2,6.5z M116,6.7
				c0.1-0.2,0.7-0.1,0.7,0C116.6,6.9,116,6.8,116,6.7z M213.9,7.1c0,0.5-0.5,0.3-1.4,0.2c-1.4-0.1-1.8,0.1-2.8,0.2
				c-2.7-0.4-7.1-0.1-11.1-0.2c-2.8-0.1-6.9-0.5-10.4,0c-4.9-0.1-7.1-0.2-13.2-0.2c-4.7,0.1-1.5-0.4,1.4-0.2
				c2.8-0.2,7.1,0.3,10.4-0.2c4.1,0.2,6.6,0.3,10.4-0.2c0.6,0,0.7,0.1,0.7,0.2C202.5,7.2,211,6.6,213.9,7.1z M210.5,6.7
				c-0.4-0.1,0.5-0.3,0.7-0.2C211.5,6.6,210.6,6.7,210.5,6.7z M223,6.7c-0.4-0.1,0.5-0.3,0.7-0.2C224,6.6,223.2,6.7,223,6.7z
				 M228.5,6.7c-0.4-0.1,0.5-0.3,0.7-0.2C229.6,6.6,228.7,6.7,228.5,6.7z M244.5,6.7c0-0.2,0.8-0.2,1.4-0.2
				C245.9,6.7,245,6.6,244.5,6.7z M249.3,6.7c-0.4-0.1,0.5-0.3,0.7-0.2C250.4,6.6,249.5,6.7,249.3,6.7z M388.3,6.7
				c0-0.2,0.9-0.2,1.4-0.2c0.7,0,1.4,0,2.1,0C391.9,6.9,389.3,6.6,388.3,6.7z M454.2,6.7C449.9,7.4,450.7,6.2,454.2,6.7L454.2,6.7z
				 M457.7,6.7c-0.4-0.1,0.5-0.3,0.7-0.2C458.8,6.6,457.9,6.7,457.7,6.7z M495.9,6.7c0.1-0.2,1.3-0.2,2.1-0.2
				C497.9,6.7,496.7,6.6,495.9,6.7z M498.7,6.7c0.8-0.4,5.4-0.2,6.3,0c2.3,0,3.7-0.4,4.2,0.4c0.9,0.3,3.3,0.1,4.2,0.4
				c10.8-0.3,21.1,0.3,31.3,0c2.9,0,4.4,0.4,7.6,0.2c2.2,0.1-1.8-0.6,0.7-0.6c2.1-0.1,2,0.4,4.2,0.2c0,0.2-0.6,0.2-0.7,0.4
				c2.1,0.2,7,0.4,9,0c10.7,0.5,24.8,0.2,38.2,0.8c1.6,0.1,2.7,0,3.5-0.2c4.5,0.7,9.1-0.2,12.5,0.6c4.8-0.1,8-0.2,11.8,0
				c-0.1-0.3,1-0.1,0,0c3.7,0.1,10.1,0.2,15.3,0.4c-0.1-0.8,0.6-0.1,2.1-0.2c0.9-0.6,3.6,0,3.5,0.4c2.6-0.3,8.6,0,11.8,0.2
				c0-0.1,0.6-0.2,0.7,0c5,0,6.7,0,11.1,0.4c-0.1,0.5-2.4,0.1-2.8,0c-7.1-0.1-10.6,0.2-16.7-0.4c-1.2,0-2.2,0-2.8,0.2
				c-1.7,0.1-1.5-0.4-3.5-0.2c-10.3,0-15.3,0.1-25.7-0.4c-6.5,0.2-15.1-0.2-22.2-0.4c-2.2-0.1-2.5,0.4-4.9,0.2
				c-2.3-0.1-4.7-0.1-6.3-0.4c-1.1,0-0.5,0.5-2.1,0.4c-3.5-0.7-7.6-0.2-13.2-0.4c-1.6-0.1-2.7,0-3.5,0.2
				c-13.4-0.3-28.4-0.8-38.9-0.4c0-0.3-1.2-0.2-1.4-0.4c-3.5,0.3-10,0-13.2-0.2c-6.7,0.5-12.7-0.7-21.5,0
				c-6.9-0.9-16.6-0.1-22.9-0.8c9.7-0.2,22.8,0.6,34.7,0C505.6,7,502.5,6.7,498.7,6.7z M415.3,7.1c-0.9,0.3-3,0.2-4.9,0.2
				c-1.8,0-3.3-0.1-4.2-0.4c-1.3,0.2-3.3,0.3-4.9,0.4c-2.1-0.1-2.5-0.6-5.6-0.4c13.9-0.4,26.7-0.1,37.5,0.2c-0.1-0.3,1-0.1,0,0
				c1.7,0.4,5.8-0.1,8.3,0.4c1.3,0,1.5-0.2,2.8-0.2c-0.2,0.4-1.2,0.5-2.8,0.4c0-0.1,0-0.1,0-0.2C431.6,7.4,422.3,7.7,415.3,7.1z
				 M511.9,6.9c0-0.2,0.8-0.2,1.4-0.2C513.3,6.9,512.4,6.8,511.9,6.9z M520.2,6.7c-0.5,0.8-2.8,0-5.6,0.2
				C512.8,6.5,518.7,6.7,520.2,6.7z M520.9,6.9c-0.4-0.1,0.5-0.3,0.7-0.2C522,6.8,521.1,6.9,520.9,6.9z M532.7,6.9
				c-0.4-0.1,0.5-0.3,0.7-0.2C533.8,6.8,532.9,6.9,532.7,6.9z M138.2,7.1c-0.4-0.1,0.5-0.3,0.7-0.2C139.3,7,138.4,7.2,138.2,7.1z
				 M459.8,7.1c-0.4-0.1,0.5-0.3,0.7-0.2C460.9,7,460,7.2,459.8,7.1z M525.8,7.1c-0.4-0.1,0.5-0.3,0.7-0.2
				C526.8,7,526,7.2,525.8,7.1z M529.3,7.1c0.1-0.2,1.3-0.2,2.1-0.2C531.2,7.1,530.1,7.1,529.3,7.1z M536.2,7.1
				c-0.4-0.1,0.5-0.3,0.7-0.2C537.3,7,536.4,7.2,536.2,7.1z M120.9,7.3c-0.4-0.1,0.5-0.3,0.7-0.2C121.9,7.2,121,7.4,120.9,7.3z
				 M126.4,7.3c-0.4-0.1,0.5-0.3,0.7-0.2C127.5,7.2,126.6,7.4,126.4,7.3z M136.8,7.3c-0.4-0.1,0.5-0.3,0.7-0.2
				C137.9,7.2,137,7.4,136.8,7.3z M142.4,7.3c0-0.2,0.9-0.2,1.4-0.2C143.8,7.3,142.9,7.3,142.4,7.3z M146.6,7.3
				c0-0.2,0.8-0.2,1.4-0.2C147.9,7.3,147.1,7.3,146.6,7.3z M258.4,7.1c0.5,0,0.9,0,1.4,0c0,0.1,0,0.3,0,0.4c-0.5,0-0.9,0-1.4,0
				C258.4,7.4,258.4,7.2,258.4,7.1z M263.9,7.1c0.7,0.6-1.5,0.4-2.8,0.4C261.3,7.1,262.4,7,263.9,7.1z M272.3,7.5
				c0.7-0.3,2.9-0.2,4.2-0.4c0,0.1,0,0.1,0,0.2c0.8,0,0.4,0.3,0,0C275.6,7.5,274,7.5,272.3,7.5z M281.3,7.3
				c-0.2-0.3,3.7-0.3,2.1,0.2C283.6,7.4,281.3,7.3,281.3,7.3z M302.1,7.1c0.5,0,0.9,0,1.4,0c0,0.1,0,0.3,0,0.4c-0.5,0-0.9,0-1.4,0
				C302.1,7.4,302.1,7.2,302.1,7.1z M466.1,7.3c0-0.2,0.8-0.2,1.4-0.2C467.4,7.3,466.6,7.3,466.1,7.3z M532.7,7.3
				c0-0.2,0.9-0.2,1.4-0.2C534.1,7.3,533.3,7.3,532.7,7.3z M544.5,7.3c0-0.2,0.9-0.2,1.4-0.2C545.9,7.3,545.1,7.3,544.5,7.3z
				 M559.1,7.3c-0.4-0.1,0.5-0.3,0.7-0.2C560.2,7.2,559.3,7.4,559.1,7.3z M562.6,7.3C562.5,7.9,559.7,7.1,562.6,7.3
				C562.5,7.1,563.6,7.2,562.6,7.3z M156.3,7.5c0-0.2,0.9-0.2,1.4-0.2C157.6,7.5,156.8,7.5,156.3,7.5z M286.2,7.5
				c0-0.2,0.8-0.2,1.4-0.2C287.5,7.5,286.7,7.5,286.2,7.5z M289.6,7.5c0-0.2,0.9-0.2,1.4-0.2C291,7.5,290.2,7.5,289.6,7.5z
				 M299.4,7.5c0.1-0.2,1.3-0.2,2.1-0.2C301.3,7.5,300.2,7.5,299.4,7.5z M390.4,7.5c-0.4-0.1,0.5-0.3,0.7-0.2
				C391.4,7.4,390.5,7.6,390.4,7.5z M404.9,7.5c-0.4-0.1,0.5-0.3,0.7-0.2C406,7.4,405.1,7.6,404.9,7.5z M549.4,7.5
				c0.1-0.2,1.3-0.2,2.1-0.2C551.4,7.5,550.2,7.5,549.4,7.5z M50.7,7.7c-0.4-0.1,0.5-0.3,0.7-0.2C51.8,7.6,50.9,7.8,50.7,7.7z
				 M139.6,7.7C140.5,7.7,140,8,139.6,7.7C138.8,7.7,139.2,7.4,139.6,7.7z M170.2,7.7c-0.4-0.1,0.5-0.3,0.7-0.2
				C171.2,7.6,170.4,7.8,170.2,7.7z M293.8,7.7c0-0.2,0.9-0.2,1.4-0.2C295.2,7.7,294.3,7.7,293.8,7.7z M344.5,7.7
				c0.3-0.3,0.6,0,1.4,0C345.7,8,344.5,7.9,344.5,7.7z M410.5,7.7c-0.4-0.1,0.5-0.3,0.7-0.2C411.5,7.6,410.7,7.8,410.5,7.7z
				 M445.2,7.7c0-0.2,0.9-0.2,1.4-0.2C446.6,7.7,445.8,7.7,445.2,7.7z M451.5,7.7c0-0.2,0.9-0.2,1.4-0.2
				C452.8,7.7,452,7.7,451.5,7.7z M467.4,7.7c-0.4-0.1,0.5-0.3,0.7-0.2C468.5,7.6,467.6,7.8,467.4,7.7z M473,7.7
				c-0.4-0.1,0.5-0.3,0.7-0.2C474.1,7.6,473.2,7.8,473,7.7z M54.9,7.9c-0.4-0.1,0.5-0.3,0.7-0.2C55.9,7.8,55.1,8,54.9,7.9z
				 M172.3,7.7c0.5,0,0.9,0,1.4,0c0,0.1,0,0.3,0,0.4c-0.5,0-0.9,0-1.4,0C172.3,8,172.3,7.9,172.3,7.7z M339.6,7.9
				c0.1-0.2,1.3-0.2,2.1-0.2C341.6,8,340.5,7.9,339.6,7.9z M368.1,7.9c-0.4-0.1,0.5-0.3,0.7-0.2C369.2,7.8,368.3,8,368.1,7.9z
				 M453.6,7.9c0-0.2,0.8-0.2,1.4-0.2C454.9,7.9,454.1,7.9,453.6,7.9z M470.2,7.9c-0.4-0.1,0.5-0.3,0.7-0.2
				C471.3,7.8,470.4,8,470.2,7.9z M477.2,7.9c-0.4-0.1,0.5-0.3,0.7-0.2C478.2,7.8,477.4,8,477.2,7.9z M145.2,8.1
				c-0.1,0.3-1.7,0.2-2.8,0.2c-0.5,0.6-1.5-0.2-2.8,0c0.1-0.5,2.4-0.1,2.8,0C142.6,7.9,144.2,7.9,145.2,8.1z M251.4,8.1
				c-0.4-0.1,0.5-0.3,0.7-0.2C252.5,8,251.6,8.2,251.4,8.1z M600.8,8.1c-0.4-0.1,0.5-0.3,0.7-0.2C601.9,8,601,8.2,600.8,8.1z
				 M98.6,10.2c-5.5,0.4-8.5-0.3-14.6,0.2c-4.8-0.5-6.5-0.4-10.4-0.2c-13.3-0.5-23.9-0.3-36.1-1c1.5-0.7,6.9-0.3,10.4-0.4
				c4.7,0.1,6.8-0.3,9,0c9.2-0.1,19.9-0.4,31.3,0c1.9-0.1,2.9-0.5,4.9-0.6c0.1,0.2-1,0.3,0,0.4c3.3-0.2,8.9-0.4,12.5,0.2
				c1.4,0,0.9-0.6,2.8-0.4c4.6,0.5,11.3,0,14.6,0.4c2.2,0.3,0.5-0.7,2.8-0.4c-0.5,0.7,1.4,0.3,1.4,0c1.8,0,2.4,0.4,3.5,0.6
				c2.6-0.9,5.4,0.4,8.3-0.4c1.4-0.1,1.4,0.3,2.1,0.4c4.7-0.1,11.3,0.3,13.9-0.4c1.5,0.6,2.3,0.1,4.2,0.4c0.8,0,1.6-0.1,1.4-0.4
				c1.8,0.3,4.7,0.2,6.9,0.4c2,0.1,2.1-0.5,4.2-0.4c0.1-0.6,2.9,0.2,0,0c0.1,0-0.1,0.2,0,0.2c3.4,0.3,10.2,0.3,13.9,0
				c-1.3,0.9-8.6,0.1-11.1,0.6c-9.7-0.1-16-0.1-23.6,0.2c-3.3-0.3-5.5-0.1-8.3,0c-4.3,0.1-14.6-0.4-20.1,0c-0.7,0.1-0.9-0.2-1.4-0.2
				c-1.3,0.1-2,0.7-3.5,0.4c-2,0.1,1.1,0.3,0.7,0.6c3.7-0.2,0.8,0.6,0,0C112.2,10.5,105.2,10.6,98.6,10.2z M177.1,8.1
				c0.5,0,0.9,0,1.4,0c0,0.1,0,0.3,0,0.4c-0.5,0-0.9,0-1.4,0C177.1,8.4,177.1,8.3,177.1,8.1z M190.3,8.1c0.7,0.8-2.7,0.3-4.2,0.4
				C186.2,8,188.5,8.1,190.3,8.1z M194.5,8.8c-1.5,0.1-1.8-0.1-2.8-0.2C191.8,7.9,195,8.1,194.5,8.8z M225.7,8.3
				c0-0.2,0.9-0.2,1.4-0.2C227.1,8.3,226.3,8.3,225.7,8.3z M247.3,8.3c-0.4-0.1,0.5-0.3,0.7-0.2C248.3,8.2,247.5,8.4,247.3,8.3z
				 M475.8,8.3c-0.4-0.1,0.5-0.3,0.7-0.2C476.8,8.2,476,8.4,475.8,8.3z M478.6,8.3c-0.4-0.1,0.5-0.3,0.7-0.2
				C479.6,8.2,478.7,8.4,478.6,8.3z M165.3,8.6c-0.2-0.4,3.9-0.4,2.8,0.2C166.6,8.8,166.2,8.6,165.3,8.6z M174.3,8.6
				c0-0.2,0.9-0.2,1.4-0.2C175.7,8.5,174.9,8.5,174.3,8.6z M182.7,8.6c0.2-0.3,1.7-0.2,2.8-0.2C185.2,8.6,183.7,8.5,182.7,8.6z
				 M195.2,8.6c0.2-0.3,1.7-0.2,2.8-0.2C197.7,8.6,196.2,8.5,195.2,8.6z M199.3,8.6c0.5-0.5,3.9-0.1,5.6-0.2
				C203.6,8.6,200.4,8.9,199.3,8.6z M205.6,8.6c0-0.2,0.8-0.2,1.4-0.2c0.7,0,1.4,0,2.1,0c1.4,0,2.8,0,4.2,0c0.1,0.5-2.5,0.1-3.5,0.2
				C208.4,8.6,207,8.6,205.6,8.6z M213.9,8.6c0.1-0.2,1.3-0.2,2.1-0.2C215.9,8.6,214.7,8.5,213.9,8.6z M217.4,8.6
				c-0.4-0.1,0.5-0.3,0.7-0.2C218.5,8.5,217.6,8.6,217.4,8.6z M220.2,8.6c0-0.2,0.9-0.2,1.4-0.2C221.6,8.5,220.7,8.5,220.2,8.6z
				 M507.7,8.6c0-0.2,0.9-0.2,1.4-0.2C509.1,8.5,508.3,8.5,507.7,8.6z M150,8.8c0-0.2,0.8-0.2,1.4-0.2C151.4,8.8,150.6,8.7,150,8.8z
				 M254.2,8.8c-0.4-0.1,0.5-0.3,0.7-0.2C255.3,8.7,254.4,8.8,254.2,8.8z M264.6,9.2c-0.1-0.2,1-0.3,0-0.4c0.6-0.6,1.1,0.2,1.4,0.2
				c0.9,0.1,2.7-0.1,2.8,0.2c0.5,0,0.9,0,1.4,0c1.5-0.6,4.4,0.2,0,0c0,0.2-1.2,0.3-1.4,0C267.4,9.2,266,9.2,264.6,9.2z M271.6,8.8
				c0-0.2,0.9-0.2,1.4-0.2C272.9,8.8,272.1,8.7,271.6,8.8z M277.1,8.8c0-0.2,0.9-0.2,1.4-0.2C278.5,8.8,277.7,8.7,277.1,8.8z
				 M288.9,8.6C287.4,9.2,284.5,8.3,288.9,8.6L288.9,8.6z M297.3,8.8c-0.4-0.1,0.5-0.3,0.7-0.2C298.3,8.7,297.5,8.8,297.3,8.8z
				 M307,8.8C305.3,9.4,303.7,8.2,307,8.8L307,8.8z M325.1,8.6C323.5,9.2,320.6,8.3,325.1,8.6L325.1,8.6z M335.5,8.8
				c-0.1,0.5-2.4,0.1-2.8,0c-1.4,0.1-5.5-0.1-2.1-0.2C332.5,8.6,334.6,8.5,335.5,8.8z M340.3,8.6C338.8,9.2,335.9,8.3,340.3,8.6
				L340.3,8.6z M342.4,8.8c1.6-0.1,4.2-0.4,5.6,0C347.2,8.9,344,9.2,342.4,8.8C341.6,8.8,342,8.5,342.4,8.8z M348.7,8.8
				C350.8,8,351,9.4,348.7,8.8L348.7,8.8z M354.9,8.8c-0.4-0.1,0.5-0.3,0.7-0.2C356,8.7,355.1,8.8,354.9,8.8z M362.6,8.8
				c-0.4-0.1,0.5-0.3,0.7-0.2C363.6,8.7,362.8,8.8,362.6,8.8z M364.6,8.8c0.1-0.5,2.4-0.1,2.8,0C367.3,9.3,365.1,8.8,364.6,8.8z
				 M420.2,8.8c-0.4-0.1,0.5-0.3,0.7-0.2C421.3,8.7,420.4,8.8,420.2,8.8z M439.7,8.8c-0.4-0.1,0.5-0.3,0.7-0.2
				C440.7,8.7,439.9,8.8,439.7,8.8z M505,8.8c-0.4-0.1,0.5-0.3,0.7-0.2C506,8.7,505.1,8.8,505,8.8z M643.2,8.8c0.3-0.3,0.6,0,1.4,0
				C644.4,9,643.2,9,643.2,8.8z M710.5,8.8c-0.4-0.1,0.5-0.3,0.7-0.2C711.6,8.7,710.7,8.8,710.5,8.8z M35.4,9
				c-0.4-0.1,0.5-0.3,0.7-0.2C36.5,8.9,35.6,9,35.4,9z M187.5,9C187.4,9.6,184.6,8.8,187.5,9C188.4,8.3,191.2,9.2,187.5,9z M242.4,9
				c-0.4-0.1,0.5-0.3,0.7-0.2C243.5,8.9,242.6,9,242.4,9z M247.3,8.8c-0.3,0.3-0.9,0.4-2.1,0.4c-0.1,0.6-2.9-0.2,0,0
				C245.5,8.9,246.1,8.8,247.3,8.8z M280.6,9C278.5,9.7,278.3,8.3,280.6,9L280.6,9z M368.8,9c0.4-0.4,3.7-0.2,5.6-0.2
				c2.1,0,5.2-0.3,4.9,0.4C376.8,8.9,371.6,9.2,368.8,9z M393.8,9c-0.1,0.5-2.9,0.1-4.2,0.2C390.3,8.4,391.7,9.1,393.8,9z M401.5,9
				c0.1-0.2,1.3-0.2,2.1-0.2C403.4,9,402.3,8.9,401.5,9z M540.4,9c-0.4-0.1,0.5-0.3,0.7-0.2C541.4,8.9,540.6,9,540.4,9z M554.3,9
				c-0.4-0.1,0.5-0.3,0.7-0.2C555.3,8.9,554.5,9,554.3,9z M652.9,9c-0.4-0.1,0.5-0.3,0.7-0.2C653.9,8.9,653.1,9,652.9,9z M238.2,9.2
				C239.1,9.2,238.7,9.5,238.2,9.2C237.4,9.2,237.8,8.9,238.2,9.2z M253.5,9.4c-1.4-0.4-4.6-0.2-6.3,0
				C247.1,8.8,253.9,8.6,253.5,9.4z M254.2,9c1.2,0,1.5,0.3,2.8,0.2C257.2,9.5,253.1,9.5,254.2,9z M262.5,9.2
				c-0.9,0.4-3.3,0.3-3.5,0.8c-0.5,0-0.8-0.2-0.7-0.4c-0.5,0-0.8-0.2-0.7-0.4C259.3,9.2,260.9,9.2,262.5,9.2
				C262.7,8.6,265.4,9.4,262.5,9.2z M288.2,9c-0.5,0.3-1.5,0.4-2.8,0.4C285.6,9,286.7,8.9,288.2,9z M288.9,9.2
				c0-0.2,0.9-0.2,1.4-0.2C290.3,9.2,289.5,9.1,288.9,9.2z M291.7,9.2c0.1-0.2,1.3-0.2,2.1-0.2C293.7,9.2,292.5,9.1,291.7,9.2z
				 M299.4,9.2c-0.4-0.1,0.5-0.3,0.7-0.2C300.4,9.1,299.5,9.2,299.4,9.2z M313.3,9.2c-0.4-0.1,0.5-0.3,0.7-0.2
				C314.3,9.1,313.4,9.2,313.3,9.2z M325.8,9.2c-0.4-0.1,0.5-0.3,0.7-0.2C326.8,9.1,325.9,9.2,325.8,9.2z M388.3,9.2
				c-0.4-0.1,0.5-0.3,0.7-0.2C389.3,9.1,388.5,9.2,388.3,9.2z M411.2,9.4c1-0.3,4.1-0.6,5.6-0.2c0.8-0.6,3.7,0.2,0,0
				C415.1,9.7,413.6,9.5,411.2,9.4z M429.9,9.4c4.6,0.2,8.8-0.5,11.1,0.2c1.5-0.1,7.4,0.2,5.6-0.2c0.9-0.5,3.8,0.2,5.6,0.2
				c-1.9,0.1-7.9,0.5-11.1,0c-4.2,0.2-10.1,0.1-14.6-0.2c0.3,0.4-3.2,0.3-2.1-0.2c0.2,0,0.5,0,0.7,0C426,8.6,428.7,9.3,429.9,9.4z
				 M548.7,9.2c0-0.2,0.8-0.2,1.4-0.2C550.1,9.2,549.2,9.1,548.7,9.2z M564.7,9c0.5,0,0.9,0,1.4,0c0.3,0.4-1,0.4-2.1,0.4
				C564.1,9.2,564.7,9.2,564.7,9z M568.2,9.2c-0.4-0.1,0.5-0.3,0.7-0.2C569.2,9.1,568.4,9.2,568.2,9.2z M664.7,9.2
				c-0.4-0.1,0.5-0.3,0.7-0.2C665.8,9.1,664.9,9.2,664.7,9.2z M231.3,9.4c0.2-0.3,1.7-0.2,2.8-0.2c0,0.2,0,0.4,0,0.6
				C231.8,10.1,233.5,9.1,231.3,9.4z M276.4,9.4c0-0.2,0.9-0.2,1.4-0.2C277.8,9.4,277,9.3,276.4,9.4z M301.4,9.4
				c0-0.2,0.8-0.2,1.4-0.2C302.8,9.4,302,9.3,301.4,9.4z M404.9,9.4c-0.4-0.1,0.5-0.3,0.7-0.2C406,9.3,405.1,9.4,404.9,9.4z
				 M407,9.4c0-0.2,0.9-0.2,1.4-0.2c0.7,0,1.4,0,2.1,0C410.6,9.6,408,9.3,407,9.4z M419.5,9.4c-0.4-0.1,0.5-0.3,0.7-0.2
				C420.6,9.3,419.7,9.4,419.5,9.4z M523.7,9.4c-0.4-0.1,0.5-0.3,0.7-0.2C524.8,9.3,523.9,9.4,523.7,9.4z M552.9,9.4
				c-0.4-0.1,0.5-0.3,0.7-0.2C553.9,9.3,553.1,9.4,552.9,9.4z M555,9.4c-0.4-0.1,0.5-0.3,0.7-0.2C556,9.3,555.1,9.4,555,9.4z
				 M581.4,9.4c0-0.2,0.9-0.2,1.4-0.2C582.7,9.4,581.9,9.3,581.4,9.4z M586.2,9.4c0-0.2,0.9-0.2,1.4-0.2
				C587.6,9.4,586.8,9.3,586.2,9.4z M661.9,9.4c0-0.2,0.8-0.2,1.4-0.2C663.3,9.4,662.5,9.3,661.9,9.4z M675.1,9.4
				c-0.4-0.1,0.5-0.3,0.7-0.2C676.2,9.3,675.3,9.4,675.1,9.4z M298,9.4c1.6,0.3,7.5,0.4,9,0c1.7,0.5,1.8,0.2,4.9,0.2
				c0.7,0.7-2.2,0.3-3.5,0.4c-1.2-0.1-4.1,0.3-4.2-0.2c-2.4,0.3-6.3,0.2-9.7,0.2c-0.4,0-0.8,0.2,0,0.2c-0.1,0.3-1.8,0.2-1.4-0.2
				c-12,0.1-20.7,0.1-32.6,0c1.7-0.7,4.7-0.1,9-0.2c0.8,0,1.6-0.1,1.4-0.4c8.3,0.6,17.5,0.2,25.7,0c0,0.1,0,0.1,0,0.2
				C297.1,9.5,298,9.6,298,9.4z M331.3,9.8c-0.8,0-1.6,0.1-1.4,0.4c-4.7-0.6-10.1-0.4-14.6-0.2c0.2-0.9,4.2-0.4,7.6-0.4
				c3.4,0,7.6,0.2,9.7-0.2c1.7,0.4,5.6,0.1,8.3,0.2c0.7,0,1.4,0,2.1,0c0.7,0,0.5,0.3-0.7,0.2c-0.7,0-1.4,0-2.1,0
				c-0.9,0-1,0.3-2.1,0.2c-0.1-0.3-4.8-0.3-4.9,0c0.8,0,0.4,0.3,0,0C332.4,10,331.9,9.9,331.3,9.8z M454.2,9.6
				c0.9,0,1.4-0.3,1.4,0.2c2.9-0.2,0.1,0.6,0,0C455.1,9.8,454.3,9.8,454.2,9.6C453.4,9.6,453.8,9.3,454.2,9.6z M514,9.6
				c-0.1-0.5,2.5-0.1,3.5-0.2C516.6,9.7,514.8,9.9,514,9.6z M588.3,9.6c0-0.2,0.8-0.2,1.4-0.2c0.7,0,1.4,0,2.1,0
				C591.9,9.8,589.3,9.5,588.3,9.6z M592.5,9.6c-0.4-0.1,0.5-0.3,0.7-0.2C593.5,9.5,592.7,9.7,592.5,9.6z M593.9,9.6
				c0-0.2,0.8-0.2,1.4-0.2C595.2,9.6,594.4,9.5,593.9,9.6z M689,9.6c-0.4-0.1,0.5-0.3,0.7-0.2C690.1,9.5,689.2,9.7,689,9.6z
				 M158.4,9.8c0-0.2,0.9-0.2,1.4-0.2C159.7,9.8,158.9,9.8,158.4,9.8z M162.5,9.8c-0.4-0.1,0.5-0.3,0.7-0.2
				C163.6,9.7,162.7,9.9,162.5,9.8z M236.8,9.8C239.9,9.8,237,10.6,236.8,9.8C234,10,236.7,9.2,236.8,9.8z M241.7,9.8
				c0.5-0.5,3.9-0.1,5.6-0.2C246.8,10.4,244.5,9.5,241.7,9.8z M251.4,9.6c-0.2,0.4-1.2,0.5-2.8,0.4C248,9.4,250.2,9.6,251.4,9.6z
				 M252.8,9.8C252.9,10.1,251.8,9.9,252.8,9.8C253,9.2,255.7,10,252.8,9.8z M313.3,9.8c-0.4-0.1,0.5-0.3,0.7-0.2
				C314.3,9.7,313.4,9.9,313.3,9.8z M348,9.6c0.5,0,0.9,0,1.4,0c0,0.1,0,0.3,0,0.4c-0.5,0-0.9,0-1.4,0C348,9.9,348,9.7,348,9.6z
				 M350.8,9.8c0-0.2,0.8-0.2,1.4-0.2C352.1,9.8,351.3,9.8,350.8,9.8z M458.4,9.8c0.1-0.2,0.7-0.1,0.7,0C459,10,458.4,9.9,458.4,9.8
				z M467.4,9.6c-0.6,0.6-1,0.2-2.8,0.2c-0.8,0.6-3.7-0.2,0,0C464.8,9.5,466.3,9.6,467.4,9.6z M521.6,9.8
				C521.7,10.1,520.6,9.9,521.6,9.8C521.8,9.2,524.5,10,521.6,9.8z M524.4,9.8c-0.4-0.1,0.5-0.3,0.7-0.2
				C525.5,9.7,524.6,9.9,524.4,9.8z M525.8,9.8c0.1-0.2,0.7-0.1,0.7,0C526.4,10,525.8,9.9,525.8,9.8z M539.7,9.6c0.5,0,0.9,0,1.4,0
				c0.3,0.4-1,0.4-2.1,0.4C539.1,9.8,539.7,9.8,539.7,9.6z M598.7,9.8c-0.4-0.1,0.5-0.3,0.7-0.2C599.8,9.7,598.9,9.9,598.7,9.8z
				 M602.2,9.8c-0.4-0.1,0.5-0.3,0.7-0.2C603.2,9.7,602.4,9.9,602.2,9.8z M605,9.8c-0.4-0.1,0.5-0.3,0.7-0.2
				C606,9.7,605.2,9.9,605,9.8z M607.1,9.8c0.1-0.2,1.3-0.2,2.1-0.2C609,9.8,607.9,9.8,607.1,9.8z M610.5,9.8
				c0.2-0.3,1.7-0.2,2.8-0.2C612.6,9.9,611.4,10.1,610.5,9.8z M622.3,9.6c0.7,0.1,0.7,0.5,2.1,0.4C623.7,10.6,620.4,9.9,622.3,9.6z
				 M719.6,9.8c-0.4-0.1,0.5-0.3,0.7-0.2C720.6,9.7,719.8,9.9,719.6,9.8z M45.8,10c-0.4-0.1,0.5-0.3,0.7-0.2
				C46.9,9.9,46,10.1,45.8,10z M150,10c-0.4-0.1,0.5-0.3,0.7-0.2C151.1,9.9,150.2,10.1,150,10z M171.6,10c-0.4-0.1,0.5-0.3,0.7-0.2
				C172.6,9.9,171.8,10.1,171.6,10z M173.6,10c-0.4-0.1,0.5-0.3,0.7-0.2C174.7,9.9,173.8,10.1,173.6,10z M198,10
				c-0.4-0.1,0.5-0.3,0.7-0.2C199,9.9,198.1,10.1,198,10z M254.9,10c0-0.2,0.8-0.2,1.4-0.2C256.3,10,255.5,10,254.9,10z M356.3,10
				c0.1-0.2,1.3-0.2,2.1-0.2C358.3,10,357.1,10,356.3,10z M361.2,10c-0.4-0.1,0.5-0.3,0.7-0.2C362.2,9.9,361.4,10.1,361.2,10z
				 M373.7,10c0-0.2,0.9-0.2,1.4-0.2C375,10,374.2,10,373.7,10z M473,10c0-0.2,0.8-0.2,1.4-0.2C474.4,10,473.5,10,473,10z M534.1,10
				c0.1-0.2,1.3-0.2,2.1-0.2C536.1,10,534.9,10,534.1,10z M580.7,9.8c0.5,0,0.9,0,1.4,0c0,0.1,0,0.3,0,0.4c-0.5,0-0.9,0-1.4,0
				C580.7,10.1,580.7,9.9,580.7,9.8z M614.7,10c0.2-0.3,1.7-0.2,2.8-0.2C617.3,10.1,615.7,10,614.7,10z M698.7,10
				c-0.4-0.1,0.5-0.3,0.7-0.2C699.8,9.9,698.9,10.1,698.7,10z M152.8,10.2c-0.4-0.1,0.5-0.3,0.7-0.2C153.9,10.1,153,10.3,152.8,10.2
				z M236.1,10c-0.2,0.4-1.2,0.5-2.8,0.4C232.7,9.8,234.9,10.1,236.1,10z M322.3,10.2c-0.4-0.1,0.5-0.3,0.7-0.2
				C323.3,10.1,322.5,10.3,322.3,10.2z M475.8,10.2c-0.4-0.1,0.5-0.3,0.7-0.2C476.8,10.1,476,10.3,475.8,10.2z M484.8,10.2
				c0-0.2,0.9-0.2,1.4-0.2c0.7,0,1.4,0,2.1,0C488.4,10.5,485.8,10.1,484.8,10.2z M502.9,10.2c0.9-0.6,2.4,0.2,4.2,0
				C506.3,10.8,504.1,10.2,502.9,10.2z M543.8,10.2c0.1-0.2,1.3-0.2,2.1-0.2C545.8,10.3,544.7,10.2,543.8,10.2z M589,10.2
				c0.1-0.2,1.3-0.2,2.1-0.2C591,10.3,589.8,10.2,589,10.2z M619.6,10.2c-0.4-0.1,0.5-0.3,0.7-0.2C620.6,10.1,619.7,10.3,619.6,10.2
				z M629.3,10.2c1.2-0.4,2.3,0.2,4.9,0c0,0.1,0,0.1,0,0.2c3.7-0.2,0.8,0.6,0,0C632.7,10.3,629.6,10.7,629.3,10.2
				C625.6,10.4,628.5,9.6,629.3,10.2z M648.7,10.2c-0.4-0.1,0.5-0.3,0.7-0.2C649.8,10.1,648.9,10.3,648.7,10.2z M157.7,10.4
				c-0.4-0.1,0.5-0.3,0.7-0.2C158.7,10.3,157.9,10.5,157.7,10.4z M347.3,10.4c-0.4-0.1,0.5-0.3,0.7-0.2
				C348.3,10.3,347.5,10.5,347.3,10.4z M368.8,10.4c0-0.2,0.9-0.2,1.4-0.2C370.2,10.4,369.4,10.4,368.8,10.4z M373,10.4
				c0-0.2,0.8-0.2,1.4-0.2C374.4,10.4,373.5,10.4,373,10.4z M497.3,10.4c0-0.2,0.9-0.2,1.4-0.2C498.7,10.4,497.9,10.4,497.3,10.4z
				 M551.5,10.4c0-0.2,0.8-0.2,1.4-0.2C552.9,10.4,552,10.4,551.5,10.4z M593.9,10.4c0-0.2,0.8-0.2,1.4-0.2
				C595.2,10.4,594.4,10.4,593.9,10.4z M598,10.4c0-0.2,0.8-0.2,1.4-0.2C599.4,10.4,598.6,10.4,598,10.4z M684.8,10.4
				c-0.4-0.1,0.5-0.3,0.7-0.2C685.9,10.3,685,10.5,684.8,10.4z M427.9,10.6c0.1-0.2,1.3-0.2,2.1-0.2
				C429.8,10.7,428.7,10.6,427.9,10.6z M501.5,10.6c-0.4-0.1,0.5-0.3,0.7-0.2C502.5,10.5,501.7,10.7,501.5,10.6z M603.6,10.6
				c-0.4-0.1,0.5-0.3,0.7-0.2C604.6,10.5,603.8,10.7,603.6,10.6z M614,10.4C612.5,11.1,609.5,10.2,614,10.4L614,10.4z M207.7,10.8
				c-0.4-0.1,0.5-0.3,0.7-0.2C208.7,10.7,207.9,10.9,207.7,10.8z M261.2,10.8c-0.4-0.1,0.5-0.3,0.7-0.2
				C262.2,10.7,261.3,10.9,261.2,10.8z M270.2,10.6C268.7,11.3,265.7,10.4,270.2,10.6L270.2,10.6z M246.6,11.1
				c0,0.2-0.6,0.2-0.7,0.4c5.8,0,11.6,0,17.4,0c-0.1-0.2-0.6-0.2-1.4-0.2c1.7-0.4,3.6,0.2,4.9,0.2c0.5,0,0.8-0.2,0.7-0.4
				c2.5,0.1,1.7,0.6,4.2,0.2c0.9-0.1-0.5-0.8,2.8-0.6c0.5,0.9-1.9-0.3-1.4,0.6c1.8,0.3,3.9,0.1,6.2-0.2c0,0.2-0.6,0.2-0.7,0.4
				c3.3,0.3,2.9-0.5,5.6-0.4c0.4,0,0.8-0.2,0-0.2c0.5-0.6,1.5,0.2,2.8,0c-1,0.3-2.2,0.4,0.7,0.4c0.1-0.6,2.9,0.2,0,0
				c-0.5,0.7,0.6,0.9,2.1,1c-5.2,0.5-8.9-0.3-13.9,0.4c-9.4-0.8-25,0-38.2-0.6c-1.7,0.2-5.4,0.4-6.9,0c-0.8,0.1-1.6,0.2-2.1,0.4
				c-0.4-0.3-2.7,0-2.8-0.4c-1.4,0.6-4.5,0-8.3,0.2c-0.5,0-0.8,0.2-0.7,0.4c0.4,0,0.8,0.2,0,0.2c0,0.1-0.1,0.2-0.7,0.2
				c0,0.2-1.2,0.3-1.4,0c-0.8,0-0.4-0.3,0,0c0.5,0,0.9,0,1.4,0c0-0.1,0.1-0.2,0.7-0.2c0-0.1,0-0.1,0-0.2c-1.7-0.4-4.9-0.8-6.2-0.2
				c-0.6,0.8-2.1,0.1-4.2,0.2c0.2-0.2,0.6-0.2,1.4-0.2c-1.2-0.6-2.8,0.3-3.5-0.4c0,0.1-0.6,0.2-0.7,0c-2.3,0.1-3.2-0.1-4.9-0.2
				c1.1,1-4.7-0.5-4.2,0.6c-0.5,0-0.8-0.2-0.7-0.4c-5.6-0.2-10.6,0.3-13.9-0.2c-2.5,0.3-2.5,0-4.9,0.2c0.3-0.9,5.8-0.2,8.3-0.4
				c1.4-0.1,2.4-0.4,2.8-0.8c1.7,0,0.2,0.7,0,0.8c5.2-0.1,7.7-0.3,12.5,0.2c-0.1-0.2,3-0.4,0.7-0.6c0.1-0.3,1.8-0.2,1.4,0.2
				c2.1,0.2,1.3-0.6,3.5-0.4c-1.4,0.4,0.3,0.4,0.7,0.8c0.6,0,2.1-0.7,0.7-0.6c1.6-0.5,4.6,0.4,6.9,0.4c2-0.2,2.1-0.2,4.2,0
				c0.1-0.4-0.7-0.5-2.1-0.4c-0.1-0.5,2.5-0.1,3.5-0.2c0.3,0.3,0.8,0.4,0,0.6c1.8,0,3.3-0.1,4.2-0.4c-2.1,0,0.7-0.9,0,0
				C230.7,11.8,236.8,11.3,246.6,11.1z M279.9,10.8c-0.4-0.1,0.5-0.3,0.7-0.2C281,10.7,280.1,10.9,279.9,10.8z M308.4,10.8
				c0-0.2,0.8-0.2,1.4-0.2C309.8,10.8,308.9,10.8,308.4,10.8z M325.8,11.1c0,0.2-0.6,0.2-0.7,0.4c0.8,0,1.6-0.1,1.4-0.4
				c1.7-0.2,4.2,0.7,4.2-0.2c2.1,0.2,4.1,0.5,6.3,0.2c0,0.1,0,0.3,0,0.4c0.3-0.5,3-0.2,2.8-0.8c2.1-0.2,1.3,0.6,3.5,0.4
				c0-0.1,0-0.1,0-0.2c-0.8,0-0.4-0.3,0,0c0.4,0,0.8,0.2,0,0.2c0,0.1,0,0.1,0,0.2c0.5,0,0.9,0,1.4,0c1.1-0.3,3-0.3,4.9-0.4
				c0,0.1,0,0.3,0,0.4c1.8-0.3,7.9-0.4,9.7,0c3.6-0.4,12.1-0.2,13.9,0c2-0.3,4.2,0.1,7.6,0c0.8,0,1.6-0.1,1.4-0.4
				c2.9,0.9,9.7-0.1,13.9,0.6c0.3,0.9-2.5,0.5-3.5,0.2c-1.7,0-2.1,0.4-3.5,0c-2-0.2-1.8,0.3-3.5,0.2c-0.8-0.3-6.2-0.3-6.9,0
				c2.9-0.2,0.1,0.6,0,0c-2.2-0.2-4.6-0.4-7.6-0.4c-1.8-0.2-2.4,0.9-3.5,0.2c-0.6,0.5-4.4-0.1-4.9,0.4c-1.9-0.1,0-0.7,1.4-0.4
				c-0.7-0.5-4.4-0.1-6.3-0.2c0.1,0.3,1.8,0.2,1.4,0.6c-2.1-0.2-2,0.4-4.2,0.2c0-0.2,0.6-0.2,0.7-0.4c-2.2,0.2-1.6,0-4.2,0
				c-0.8,0-1.6,0.1-1.4,0.4c-7.3-0.7-15.8,0.3-22.9-0.4c-1.3,0-1.5,0.2-2.8,0.2c-0.3-0.3-5.2-0.3-5.6,0c-6.3-0.4-11.2-0.1-16.7-0.6
				c0.9-0.6,2.3-0.1,4.9-0.4c3.3,0.4,8.8,0.1,13.2,0.2c0.1-0.6,2.9,0.2,0,0C321.8,11.9,323.3,10.8,325.8,11.1z M444.5,10.8
				c0.1-0.2,1.3-0.2,2.1-0.2C446.5,10.9,445.3,10.8,444.5,10.8z M454.2,10.8c-0.4-0.1,0.5-0.3,0.7-0.2
				C455.3,10.7,454.4,10.9,454.2,10.8z M616.1,10.8c-0.4-0.1,0.5-0.3,0.7-0.2C617.1,10.7,616.3,10.9,616.1,10.8z M632.1,10.8
				c-0.4-0.1,0.5-0.3,0.7-0.2C633.1,10.7,632.3,10.9,632.1,10.8z M108.4,11.1c0.1-0.2,1.3-0.2,2.1-0.2
				C110.3,11.1,109.2,11,108.4,11.1z M113.9,10.8C112.4,11.5,109.5,10.6,113.9,10.8L113.9,10.8z M169.5,11.1c0-0.2,0.9-0.2,1.4-0.2
				C170.8,11,170,11,169.5,11.1z M173.6,11.1C174.5,11,174.1,11.4,173.6,11.1c-0.2,0-0.5,0-0.7,0c0.7,0.9-2.1,0,0,0
				C172.9,10.9,173.5,10.8,173.6,11.1z M236.1,11.1c-0.4-0.1,0.5-0.3,0.7-0.2C237.2,11,236.3,11.1,236.1,11.1z M252.1,11.1
				c0.1-0.2,1.3-0.2,2.1-0.2C254.1,11.1,252.9,11,252.1,11.1z M257,11.1c-0.3-0.4,3.2-0.3,2.1,0.2c-0.5,0-0.9,0-1.4,0
				C257.8,11.1,257.4,11.1,257,11.1z M618.2,11.1c-0.4-0.1,0.5-0.3,0.7-0.2C619.2,11,618.4,11.1,618.2,11.1z M640.4,11.1
				c0-0.2,0.8-0.2,1.4-0.2C641.8,11,640.9,11,640.4,11.1z M707.8,11.1c-0.4-0.1,0.5-0.3,0.7-0.2C708.8,11,708,11.1,707.8,11.1z
				 M116.7,11.3c-0.4-0.1,0.5-0.3,0.7-0.2C117.7,11.2,116.9,11.3,116.7,11.3z M247.3,11.3c-0.4-0.1,0.5-0.3,0.7-0.2
				C248.3,11.2,247.5,11.3,247.3,11.3z M301.4,11.3c-0.6,0.8-2.1,0.1-4.2,0.2C297.9,11.1,300.3,10.9,301.4,11.3z M416.7,11.3
				c0-0.2,0.9-0.2,1.4-0.2C418.1,11.3,417.3,11.2,416.7,11.3z M477.2,11.3c-0.4-0.1,0.5-0.3,0.7-0.2
				C478.2,11.2,477.4,11.3,477.2,11.3z M481.3,11.3c0.3-0.5,3.7-0.2,4.2,0C484.7,11.9,483.1,11,481.3,11.3z M496.6,11.3
				c-0.4-0.1,0.5-0.3,0.7-0.2C497.7,11.2,496.8,11.3,496.6,11.3z M516.8,11.3c-0.4-0.1,0.5-0.3,0.7-0.2
				C517.8,11.2,517,11.3,516.8,11.3z M568.9,11.3c-0.4-0.1,0.5-0.3,0.7-0.2C569.9,11.2,569,11.3,568.9,11.3z M712.6,11.3
				c-0.4-0.1,0.5-0.3,0.7-0.2C713.7,11.2,712.8,11.3,712.6,11.3z M108.4,11.5C111.2,11.3,108.5,12.1,108.4,11.5
				C107.5,11.5,107.9,11.2,108.4,11.5z M156.3,11.3c2.2-0.1,1.6,0.6,4.2,0.4c-1.1,0.3-3.1,0.3-4.9,0.4c0-0.2,0.8-0.2,1.4-0.2
				C156.6,11.7,156.2,11.5,156.3,11.3z M160.4,11.5c-0.4-0.1,0.5-0.3,0.7-0.2C161.5,11.4,160.6,11.5,160.4,11.5z M168.8,11.5
				c-0.4-0.1,0.5-0.3,0.7-0.2C169.8,11.4,169,11.5,168.8,11.5z M397.3,11.3c1.6,0,3.2,0,4.9,0C401.8,11.9,397.1,12.1,397.3,11.3z
				 M645.3,11.5c-0.4-0.1,0.5-0.3,0.7-0.2C646.3,11.4,645.4,11.5,645.3,11.5z M665.4,11.5c-0.4-0.1,0.5-0.3,0.7-0.2
				C666.5,11.4,665.6,11.5,665.4,11.5z M732.8,11.5c0-0.2,0.8-0.2,1.4-0.2C734.1,11.5,733.3,11.4,732.8,11.5z M404.2,11.5
				c0.5,0,0.9,0,1.4,0c0.9,0,1.9,0,2.8,0C408.5,12,400,11.6,404.2,11.5z M410.5,11.7c-0.4-0.1,0.5-0.3,0.7-0.2
				C411.5,11.6,410.7,11.7,410.5,11.7z M414,11.7c0-0.2,0.8-0.2,1.4-0.2C415.3,11.7,414.5,11.6,414,11.7z M418.8,11.7
				c0.1-0.2,1.3-0.2,2.1-0.2C420.8,11.7,419.6,11.6,418.8,11.7z M423.7,11.7c0.1-0.2,0.7-0.1,0.7,0
				C424.2,11.9,423.7,11.8,423.7,11.7z M436.9,11.7c0-0.2,0.8-0.2,1.4-0.2C438.3,11.7,437.4,11.6,436.9,11.7z M453.6,11.7
				c0-0.2,0.8-0.2,1.4-0.2C454.9,11.7,454.1,11.6,453.6,11.7z M459.8,11.7c-0.4-0.1,0.5-0.3,0.7-0.2C460.9,11.6,460,11.7,459.8,11.7
				z M468.1,11.7c0.2-0.3,1.4-0.2,1.4,0C468.9,11.8,468.3,11.9,468.1,11.7z M500.1,11.5c-0.5,0.3-1.5,0.4-2.8,0.4
				C496.6,11.3,498.9,11.5,500.1,11.5z M512.6,11.7c-0.4-0.1,0.5-0.3,0.7-0.2C513.6,11.6,512.8,11.7,512.6,11.7z M655.7,11.7
				c-0.4-0.1,0.5-0.3,0.7-0.2C656.7,11.6,655.9,11.7,655.7,11.7z M670.3,11.7c0.8,0,2,0,2.1,0.2c0.5,0,1.4,0,1.4,0.2
				c0.8,0,0.4,0.3,0,0c-0.9,0-1.4,0.3-1.4-0.2C671.3,12.1,670.6,12.1,670.3,11.7C669.4,11.7,669.8,11.4,670.3,11.7z M79.9,11.9
				c-0.4-0.1,0.5-0.3,0.7-0.2C80.9,11.8,80.1,11.9,79.9,11.9z M154.9,12.1c-3,0.3-3.4,0-6.9,0c-1.8,0.2-4.2,0.8-6.3,0.2
				c1.4-0.8,7.6-0.1,9.7-0.6C152.7,11.8,155.6,11.4,154.9,12.1z M161.1,11.9c0-0.2,0.8-0.2,1.4-0.2
				C162.5,11.9,161.7,11.8,161.1,11.9z M170.2,11.9C171,11.9,170.6,12.2,170.2,11.9C165.7,12.1,168.6,11.3,170.2,11.9z M371.6,11.9
				c0.1-0.2,1.3-0.2,2.1-0.2C373.6,11.9,372.4,11.9,371.6,11.9z M429.9,11.9c0-0.2,0.9-0.2,1.4-0.2
				C431.3,11.9,430.5,11.8,429.9,11.9z M489,11.9c0.1-0.2,1.3-0.2,2.1-0.2c0.7,0,1.4,0,2.1,0C493.1,12.1,490.2,11.8,489,11.9z
				 M501.5,11.9c1.2-0.7,2.8,0.2,0.7,0.2C501.8,12.1,501.2,12,501.5,11.9z M505.6,11.9c2.9,0,0,0.3,0,0.6
				C504.6,12.5,505.2,12.1,505.6,11.9C502.8,12.1,505.5,11.3,505.6,11.9z M508.4,12.1c0.2-0.2,1.4-0.1,1.4-0.4
				c1.1-0.1,1.2,0.2,2.1,0.2c1.4-0.1,6.4,0.1,2.8,0.2C512.6,12.1,510.5,12.1,508.4,12.1z M516.8,11.9c-0.4-0.1,0.5-0.3,0.7-0.2
				C517.8,11.8,517,11.9,516.8,11.9z M518.2,11.7c2.2-0.2,2.1,0.3,3.5,0.4C521.1,12.6,517.7,12.2,518.2,11.7z M617.5,11.9
				c-0.4-0.1,0.5-0.3,0.7-0.2C618.5,11.8,617.7,11.9,617.5,11.9z M663.3,11.9c0-0.2,0.8-0.2,1.4-0.2
				C664.7,11.9,663.9,11.8,663.3,11.9z M668.2,11.9c0.1-0.2,0.7-0.1,0.7,0C668.7,12.1,668.2,12,668.2,11.9z M677.2,11.9
				c-0.4-0.1,0.5-0.3,0.7-0.2C678.3,11.8,677.4,11.9,677.2,11.9z M123.6,12.1c-1.4-0.1-1.4,0.3-2.1,0.4c-3.5-0.3-10.6-0.4-13.2,0.2
				c-0.9-0.2-2.6-0.2-3.5-0.4c-3.2,0.1-4,0.3-6.9,0c-2.1-0.1-2.7,0.7-4.2,0.2c3.1-0.6,7-0.5,11.1-0.4c10.1-0.1,16.5-0.1,27.8-0.2
				c2.5-0.2,2.5,0.4,0,0.2c-3.6,0.1-3.5,0.2-7.6,0.2c-0.5,0-0.9,0-1.4,0c0.1,0.3-1,0.1,0,0C123.6,12.2,123.6,12.2,123.6,12.1z
				 M164.6,12.1c0.1-0.2,1.3-0.2,2.1-0.2C166.6,12.1,165.4,12.1,164.6,12.1z M360.5,12.1c-0.4-0.1,0.5-0.3,0.7-0.2
				C361.5,12,360.7,12.2,360.5,12.1z M439.7,12.1c0.1-0.2,1.3-0.2,2.1-0.2C441.6,12.1,440.5,12.1,439.7,12.1z M451.5,12.1
				c-0.4-0.1,0.5-0.3,0.7-0.2C452.5,12,451.7,12.2,451.5,12.1z M455.6,12.3c0.6-0.7,1.3-0.1,3.5-0.2c0-0.2,1.2-0.3,1.4,0
				c2.1,0,3.9,0.5,5.6,0c-0.1-0.3,1-0.1,0,0c0.1,0.2,0.8,0.3,1.4,0.4c-0.2,0.2-0.6,0.2-1.4,0.2c-1.7,0.6-3-0.6-5.6-0.4
				c0-0.1,0-0.1,0-0.2c-0.5,0-0.9,0-1.4,0C459.2,12.5,456.6,12.2,455.6,12.3z M523.7,12.1c0.1-0.2,1.3-0.2,2.1-0.2
				C525.7,12.1,524.5,12.1,523.7,12.1z M536.2,12.1C539.9,11.9,537,12.7,536.2,12.1C535.4,12.1,535.8,11.8,536.2,12.1z M622.3,12.1
				c0-0.2,0.8-0.2,1.4-0.2C623.7,12.1,622.9,12,622.3,12.1z M628.6,11.9c-0.2,0.3-2.1,0.1-2.1,0.4C624.3,12.1,627.2,11.7,628.6,11.9
				z M682.1,12.1c0.1-0.2,1.3-0.2,2.1-0.2C684,12.1,682.9,12.1,682.1,12.1z M684.8,12.1c-0.4-0.1,0.5-0.3,0.7-0.2
				C685.9,12,685,12.2,684.8,12.1z M469.5,12.3c2.8-0.2,10.2,0.3,13.9-0.2c0.6,0.7,1.6,0,2.8,0.4c1,0.2,1.9-0.2,3.5-0.2
				c3.8,0,11,0,13.9,0.2c0.1,0-0.1,0.4,0,0.4c3.7-0.1,11.4-0.2,15.3,0c-0.1-0.3,1-0.1,0,0c-3.6,0.2-10.5,0.4-15.3,0
				c-3.2,0.3-6.6,0.5-11.1,0.4c0-0.3-0.9-0.3-0.7-0.6c-3.1,0.1-8.2-0.4-8.3,0.6c3.1,0,0.2,0.8,0,0c-0.9,0-1.9,0-2.8,0
				c-0.7-0.6,1.6-0.4,2.8-0.4c-1.2-1.2-5.8,0.8-7.6-0.2C474.9,12.2,470.3,12.8,469.5,12.3c-0.2,0-0.5,0-0.7,0c0.1,0.3-1,0.1,0,0
				C468.8,12.2,469.4,12.1,469.5,12.3z M491.1,12.3c-0.4-0.1,0.5-0.3,0.7-0.2C492.1,12.2,491.2,12.4,491.1,12.3z M499.4,12.3
				c0-0.2,0.8-0.2,1.4-0.2C500.8,12.3,499.9,12.3,499.4,12.3z M528.6,12.3c-0.4-0.1,0.5-0.3,0.7-0.2
				C529.6,12.2,528.8,12.4,528.6,12.3z M677.2,12.3C680.9,12.1,678,12.9,677.2,12.3C674.3,12.5,677.1,11.7,677.2,12.3z M686.2,12.3
				c0-0.2,0.8-0.2,1.4-0.2C687.6,12.3,686.8,12.3,686.2,12.3z M159.1,12.5c-0.4-0.1,0.5-0.3,0.7-0.2
				C160.1,12.4,159.2,12.6,159.1,12.5z M165.3,12.5c0-0.2,0.8-0.2,1.4-0.2C166.7,12.5,165.8,12.5,165.3,12.5z M363.3,12.5
				c-0.3-0.1,0.5-0.3,0.7-0.2C364.3,12.4,363.4,12.6,363.3,12.5z M514,12.5c0.1-0.2,1.3-0.2,2.1-0.2C516,12.5,514.8,12.5,514,12.5z
				 M527.2,12.5c-0.4-0.1,0.5-0.3,0.7-0.2C528.2,12.4,527.4,12.6,527.2,12.5z M539.7,12.5c2.7,0,5.1,0,6.9,0.2
				C543.9,13.1,541,13.4,539.7,12.5C538.8,12.5,539.2,12.2,539.7,12.5z M572.3,12.5c0-0.2,0.9-0.2,1.4-0.2
				C573.7,12.5,572.9,12.5,572.3,12.5z M688.3,12.5c0.4-0.3,0.7,0,0.7,0.2C687.8,12.8,687.6,12.5,688.3,12.5z M694.6,12.5
				c-0.4-0.1,0.5-0.3,0.7-0.2C695.6,12.4,694.8,12.6,694.6,12.5z M702.2,12.5c-0.4-0.1,0.5-0.3,0.7-0.2
				C703.3,12.4,702.4,12.6,702.2,12.5z M116,12.7c0-0.2,0.8-0.2,1.4-0.2C117.4,12.7,116.5,12.7,116,12.7z M118.8,12.7
				c0.2,0.2,0.6,0.2,1.4,0.2c-0.1,0.3-4.8,0.3-4.9,0c-3.7,0.2-0.8-0.6,0,0C116.9,13,118,12.9,118.8,12.7
				C118.7,12.5,119.8,12.6,118.8,12.7z M124.3,12.7c-0.1-0.3,4.3-0.3,4.2,0c0.5,0.7-1.4,0.3-2.1,0.2c-0.9,0.7,2.2,0.2,1.4,0.8
				c-1.4,0-2.8,0-4.2,0C123.6,13.5,126.2,12.9,124.3,12.7z M139.6,12.7c-0.4-0.1,0.5-0.3,0.7-0.2C140.7,12.6,139.8,12.8,139.6,12.7z
				 M157.7,12.7c-0.4-0.1,0.5-0.3,0.7-0.2C158.7,12.6,157.9,12.8,157.7,12.7z M164.6,12.5c-0.3,0.3-0.9,0.4-2.1,0.4
				C162.8,12.7,163.4,12.5,164.6,12.5z M185.5,12.7c1.9-0.2,3.6-0.2,5.6,0C189.6,12.9,187.1,13,185.5,12.7c-0.2,0-0.5,0-0.7,0
				c-1.5,0.6-4.4-0.2,0,0C184.8,12.6,185.3,12.5,185.5,12.7z M196.6,12.7c-0.4-0.1,0.5-0.3,0.7-0.2
				C197.6,12.6,196.8,12.8,196.6,12.7z M199.3,12.7c2.8-0.1,0.4,0.6-1.4,0.4C198,12.9,199.2,12.9,199.3,12.7
				C198.5,12.7,198.9,12.4,199.3,12.7z M211.8,12.7c0.1-0.2,1.3-0.2,2.1-0.2C213.8,12.8,212.7,12.7,211.8,12.7z M229.2,12.5
				c1.4-0.1,2.2,0,2.1,0.4c-0.7,0-1.4,0-2.1,0C229.2,12.8,229.2,12.7,229.2,12.5z M232,12.7c0.5-0.6,1.5,0.2,2.8,0
				C234.7,13.2,232.4,12.8,232,12.7z M245.2,13.1c-0.8-0.2-2.5-0.2-4.2-0.2C241.7,12.7,246.1,12,245.2,13.1z M251.4,12.7
				c0.2-0.3,1.4-0.2,1.4,0C252.2,12.8,251.6,13,251.4,12.7z M258.4,12.7c0.5,0,0.9,0,1.4,0c0.1-0.6,2.9,0.2,0,0
				C259.8,12.9,258.6,13,258.4,12.7c-0.5,0-0.9,0-1.4,0c-0.1,0.6-2.9-0.2,0,0C257,12.5,258.2,12.5,258.4,12.7z M266,12.7
				C266.9,12.7,266.4,13,266,12.7c-0.5,0-0.9,0-1.4,0c-0.1,0.6-2.9-0.2,0,0C264.6,12.5,265.8,12.5,266,12.7z M437.6,12.7
				C435.5,13.5,435.2,12.1,437.6,12.7L437.6,12.7z M530,12.7c0.1-0.2,1.3-0.2,2.1-0.2c0.7,0,1.4,0,2.1,0C534,13,531.2,12.6,530,12.7
				z M536.2,12.7c0.1-0.2,1.3-0.2,2.1-0.2C538.2,12.8,537,12.7,536.2,12.7z M558.4,12.5c0.3,0.7-1.7,0.6-2.8,0.8
				c-1.3-0.4-6.3,0.2-6.3-0.6C553.4,12.3,554.4,13.1,558.4,12.5z M598.7,12.7c-0.4-0.1,0.5-0.3,0.7-0.2
				C599.8,12.6,598.9,12.8,598.7,12.7z M685.5,12.7c-0.4-0.1,0.5-0.3,0.7-0.2C686.6,12.6,685.7,12.8,685.5,12.7z M689.7,12.5
				c1.1-0.1,1.2,0.2,2.1,0.2C692.1,13.1,688.6,13,689.7,12.5z M703.6,12.7c0-0.2,0.9-0.2,1.4-0.2C705,12.7,704.1,12.7,703.6,12.7z
				 M766.8,12.7c-0.4-0.1,0.5-0.3,0.7-0.2C767.9,12.6,767,12.8,766.8,12.7z M105.6,12.9c-0.4-0.1,0.5-0.3,0.7-0.2
				C106.6,12.8,105.8,13,105.6,12.9z M153.5,12.9c-0.4-0.1,0.5-0.3,0.7-0.2C154.6,12.8,153.7,13,153.5,12.9z M159.8,12.9
				c0-0.2,0.8-0.2,1.4-0.2C161.1,12.9,160.3,12.9,159.8,12.9z M166,12.9c-0.1-0.3,4.5-0.4,3.5,0.2C168.7,13,167.6,12.9,166,12.9z
				 M175,12.9c0.1-0.2,1.3-0.2,2.1-0.2C177,13,175.9,12.9,175,12.9z M193.8,12.9c0.1-0.2,1.3-0.2,2.1-0.2
				C195.8,13,194.6,12.9,193.8,12.9z M220.9,12.7C219.3,13.4,216.4,12.5,220.9,12.7L220.9,12.7z M222.3,12.9
				c-0.4-0.1,0.5-0.3,0.7-0.2C223.3,12.8,222.5,13,222.3,12.9z M227.1,12.9c-0.4-0.1,0.5-0.3,0.7-0.2
				C228.2,12.8,227.3,13,227.1,12.9z M235.5,12.9c0.2-0.3,1.7-0.2,2.8-0.2C238,13,236.5,12.9,235.5,12.9z M245.9,12.9
				c0-0.2,0.8-0.2,1.4-0.2C247.2,12.9,246.4,12.9,245.9,12.9z M249.3,12.9c0-0.2,0.9-0.2,1.4-0.2C250.7,12.9,249.9,12.9,249.3,12.9z
				 M305.6,12.9c-0.4-0.1,0.5-0.3,0.7-0.2C306.7,12.8,305.8,13,305.6,12.9z M422.3,12.9C422.4,13.2,421.3,13.1,422.3,12.9
				C422.2,12.7,423.3,12.8,422.3,12.9z M425.8,12.9c0.4-0.3,0.7,0,0.7,0.2C425.2,13.2,425,12.9,425.8,12.9z M456.3,12.9
				c0-0.2,0.9-0.2,1.4-0.2C457.7,12.9,456.9,12.9,456.3,12.9z M470.2,12.9c-0.1,0.3-0.2,0.5-1.4,0.4c0-0.1,0-0.3,0-0.4
				C469.3,12.9,469.8,12.9,470.2,12.9C471,12.3,473.9,13.2,470.2,12.9z M473,12.9c0-0.2,0.8-0.2,1.4-0.2
				C474.4,12.9,473.5,12.9,473,12.9z M565.4,12.9c0.2-0.3,1.7-0.2,2.8-0.2c0,0.2,0,0.4,0,0.6C567.1,13.3,567.6,12.7,565.4,12.9z
				 M592.5,12.9c0-0.2,0.8-0.2,1.4-0.2C593.8,12.9,593,12.9,592.5,12.9z M695.3,12.9c-0.4-0.1,0.5-0.3,0.7-0.2
				C696.3,12.8,695.5,13,695.3,12.9z M696.7,12.9c-0.4-0.1,0.5-0.3,0.7-0.2C697.7,12.8,696.8,13,696.7,12.9z M709.2,12.9
				c0-0.2,0.9-0.2,1.4-0.2C710.5,12.9,709.7,12.9,709.2,12.9z M716.1,12.7C718.5,13.3,712.5,13.2,716.1,12.7L716.1,12.7z M70.8,13.1
				c-0.4-0.1,0.5-0.3,0.7-0.2C71.9,13,71,13.2,70.8,13.1z M294.5,13.1c0.5,0,1.4,0,1.4-0.2c3.2,0.6,11.1-0.3,13.2,0.6
				c0.9-0.2,2.6-0.2,3.5-0.4c5.9,0.5,9.3-0.2,14.6,0c0-0.1,0.6-0.2,0.7,0c4.2,0.3,5.5,0,7.6,0c1.3,0,1.5,0.2,2.8,0.2
				c2.7,0.1,6-0.3,7.6,0.2c1.1,0,0.5-0.5,2.1-0.4c0,0.2-0.6,0.2-0.7,0.4c1.6-0.3,4.8-0.1,6.3-0.4c-0.1-0.3,1-0.1,0,0
				c1.5,0.3,3.9,0.4,6.3,0.4c-4.5,0.6-8.9,0.2-13.9,0.2c-5,0-10.4,0.6-16.7,0c-0.7,0.3-6.2,0.3-6.9,0c-3.4,0.4-9.4,0.1-13.9,0.2
				c-3.1,0.3-4.1,0-6.9,0.4c0-0.2,0.6-0.2,0.7-0.4c-2.3-0.1-3.2,0.1-4.9,0.2c-1.9-0.1-5.5,0.3-6.3-0.2c-0.8,0-1.1,0.2-1.4,0.4
				c-2.1-0.6-3.7-0.1-7.6-0.2c0,0.1-0.6,0.2-0.7,0c-4.5-0.3-6.4,0.4-11.8,0.2c-12.4-0.4-21.3,0.1-34-0.2c0.2,0.2,0.6,0.2,1.4,0.2
				c-2.3,0.3-7.7-0.2-11.1-0.2c0.6-0.3,2.2-0.3,3.5-0.4c0.9,0,1.6,0.1,1.4,0.4c0.7-0.4,1.9-0.5,4.2-0.4c2.2,0.1,1.6-0.6,4.2-0.4
				c0.1-0.6,2.9,0.2,0,0c0,0.2-0.6,0.2-0.7,0.4c4.6-0.1,5.3-0.1,9-0.2c1.6-0.1,2.6,0.1,2.8,0.4c0.9,0,0.6-0.4,1.4-0.4
				c2.2,0.3,4-0.2,6.3-0.2c0.8,0,4.9,0.6,4.9,0c5.6,0.4,15.8-0.5,23.6,0.2c1.3-0.1,1.7-0.4,3.5-0.4c2-0.2,1.8,0.3,3.5,0.2
				C293.6,13.3,294.5,13.3,294.5,13.1C290.8,13.4,293.7,12.5,294.5,13.1z M308.4,13.1c0.1-0.2,1.3-0.2,2.1-0.2
				C310.4,13.2,309.2,13.1,308.4,13.1z M370.2,13.1c0-0.2,0.9-0.2,1.4-0.2C371.6,13.1,370.7,13.1,370.2,13.1z M428.6,13.1
				c0.1-0.2,1.3-0.2,2.1-0.2C430.5,13.2,429.4,13.1,428.6,13.1z M438.3,13.1c0.1-0.2,1.3-0.2,2.1-0.2
				C440.2,13.2,439.1,13.1,438.3,13.1z M530.6,13.1C528.5,13.9,528.3,12.5,530.6,13.1L530.6,13.1z M569.5,13.1
				c-0.4-0.1,0.5-0.3,0.7-0.2C570.6,13,569.7,13.2,569.5,13.1z M618.2,12.9c1.4,0.3,0.9,0,2.8,0C622,13.6,617.1,13.6,618.2,12.9z
				 M632.8,13.1C632.8,13.4,631.7,13.3,632.8,13.1C632.7,12.9,633.8,13,632.8,13.1z M638.3,13.1c-0.4-0.1,0.5-0.3,0.7-0.2
				C639.4,13,638.5,13.2,638.3,13.1z M658.4,13.1c0-0.2,0.9-0.2,1.4-0.2C659.8,13.1,659,13.1,658.4,13.1z M664,12.9
				c1.6,0.1,2.9,0.2,4.2,0.4C667.1,13.6,664.4,13.7,664,12.9z M693.9,13.1c-0.4-0.1,0.5-0.3,0.7-0.2C694.9,13,694.1,13.2,693.9,13.1
				z M705.7,13.1c-0.4-0.1,0.5-0.3,0.7-0.2C706.7,13,705.9,13.2,705.7,13.1z M441.1,13.3c0-0.2,0.8-0.2,1.4-0.2
				C442.4,13.3,441.6,13.3,441.1,13.3z M449.4,13.3c0.1-0.2,1.3-0.2,2.1-0.2C451.4,13.4,450.2,13.3,449.4,13.3z M489.7,13.3
				c-0.4-0.1,0.5-0.3,0.7-0.2C490.7,13.2,489.9,13.4,489.7,13.3z M628.6,13.3c0-0.2,0.8-0.2,1.4-0.2C630,13.3,629.1,13.3,628.6,13.3
				z M634.8,13.3c-0.4-0.1,0.5-0.3,0.7-0.2C635.9,13.2,635,13.4,634.8,13.3z M645.9,13.3c-0.4-0.1,0.5-0.3,0.7-0.2
				C647,13.2,646.1,13.4,645.9,13.3z M720.3,13.3c-0.4-0.1,0.5-0.3,0.7-0.2C721.3,13.2,720.5,13.4,720.3,13.3z M721.7,13.3
				c0-0.2,0.9-0.2,1.4-0.2C723,13.3,722.2,13.3,721.7,13.3z M728.6,13.3c-0.4-0.1,0.5-0.3,0.7-0.2C729.7,13.2,728.8,13.4,728.6,13.3
				z M734.2,13.3c0.1-0.2,1.3-0.2,2.1-0.2C736.1,13.4,735,13.3,734.2,13.3z M92.4,13.6c-0.4-0.1,0.5-0.3,0.7-0.2
				C93.4,13.5,92.6,13.6,92.4,13.6z M360.5,13.6c1.8-0.3,3,0,6.3-0.2C366.3,14.1,362.1,13.7,360.5,13.6z M367.4,13.6
				c-0.2-0.4,3.9-0.4,2.8,0.2C368.7,13.9,368.4,13.6,367.4,13.6z M436.9,15.2c-2.4,0-5,0.2-7.6,0.2c-8.4,0-18.7-0.5-23.6-0.2
				c-2.8-0.2-7.9-0.5-10.4,0c-2.8-0.4-8.3,0-11.1-0.4c-6.7,0.7-18.7-0.2-25,0c-2.2-0.3-5.8-0.2-9-0.2c4-0.9,8.1,0.2,13.2-0.4
				c2.6,0,5.1,0,7.6,0c2.1-0.1-0.7-0.4,0-0.8c4.2,0.1,5,0.1,8.3,0.2c-0.5,0.7-2.8,0.1-5.6,0.4c5.1,0.9,14.1-0.6,19.4,0.4
				c0.8-0.1,1.6-0.2,2.1-0.4c-2-0.3,1.2-0.7,2.8-0.6c1.1,0.8-3,0.1-2.8,0.6c2.3,0.2,3.9-0.1,6.9,0.2c3.8-0.3,5.3,0,8.3-0.4
				c0.8,0.5,5.4-0.1,6.2,0.4c13.2-0.3,25.8,0.1,43.1,0c3.7,0.5,7.9,0,11.8,0c7.9,0,15.8,0.8,23.6,0.4c2.9,0.4,6.4-0.1,8.3,0.2
				c0.1-0.6,2.9,0.2,0,0c0,0.1,0.1,0.2,0.7,0.2c6.9-0.5,12,0.3,18.8-0.2c0.9,0.3,3.3,0.1,4.2,0.4c4.1-0.5,7.8,0,11.8-0.2
				c1.4-0.1,1.4,0.3,2.1,0.4c8.7-0.3,14.7,0.2,23.6,0.4c-0.6,0.5-4.3,0.6-5.6,0.2c-1.2,0.8-2.8-0.4-4.9,0.4
				c-4.7-0.9-16-0.2-20.8-0.4c-1.6,0.1,0.8,0.3-0.7,0.6c-1.4-0.1-1.5-0.3-0.7-0.6c-6.8-0.1-6.8-0.1-13.2,0c-0.1,0.6-2.9-0.2,0,0
				c-5.2-0.5-8.2,0.3-13.2-0.4c-1.4-0.1-1.4,0.3-2.1,0.4c0.1,0.3-1,0.1,0,0c-6.5-0.3-16.3-0.5-20.8-0.2c-0.1,0.6-2.9-0.2,0,0
				c-5.3-0.4-12.9-0.2-20.1-0.2c-1.2,0-2.2,0-2.8-0.2c0.1,0.3-4.3,0.3-4.2,0C449.1,15.6,442.5,15.3,436.9,15.2z M384.1,13.3
				c0.6,0.1,1.1,0.2,2.1,0.2c-0.5,0.3-1.5,0.4-2.8,0.4C383.8,13.8,384.1,13.6,384.1,13.3z M389,13.6c0.2-0.3,1.4-0.2,1.4,0
				C390,13.9,389.7,13.5,389,13.6z M393.8,13.3c0.7,0.6-1.5,0.4-2.8,0.4C391.2,13.4,392.2,13.3,393.8,13.3z M410.5,13.6
				c-0.4-0.1,0.5-0.3,0.7-0.2C411.5,13.5,410.7,13.6,410.5,13.6z M471.6,13.6c-0.4-0.1,0.5-0.3,0.7-0.2
				C472.7,13.5,471.8,13.6,471.6,13.6z M501.5,13.6c0-0.2,0.8-0.2,1.4-0.2C502.8,13.5,502,13.5,501.5,13.6z M505,13.6
				c0-0.2,0.9-0.2,1.4-0.2C506.3,13.5,505.5,13.5,505,13.6z M630.7,13.6c-0.4-0.1,0.5-0.3,0.7-0.2C631.7,13.5,630.9,13.6,630.7,13.6
				z M636.9,13.6c-0.4-0.1,0.5-0.3,0.7-0.2C638,13.5,637.1,13.6,636.9,13.6z M639,13.6c0-0.2,0.9-0.2,1.4-0.2
				C640.4,13.5,639.5,13.5,639,13.6z M641.8,13.6c-0.4-0.1,0.5-0.3,0.7-0.2C642.8,13.5,642,13.6,641.8,13.6z M712.6,13.6
				c0.2-0.3,1.7-0.2,2.8-0.2C715.2,13.6,713.7,13.5,712.6,13.6z M795.3,13.6c-0.4-0.1,0.5-0.3,0.7-0.2
				C796.3,13.5,795.5,13.6,795.3,13.6z M86.8,13.8c-0.4-0.1,0.5-0.3,0.7-0.2C87.9,13.7,87,13.8,86.8,13.8z M91.7,13.6
				C89.9,14.3,86.9,13.4,91.7,13.6L91.7,13.6z M170.9,13.8c-0.4-0.1,0.5-0.3,0.7-0.2C171.9,13.7,171.1,13.8,170.9,13.8z M190.3,14
				c-0.1-0.4,0.7-0.5,2.1-0.4c0,0.1,0,0.1,0,0.2c2.5-0.2,0.8,0.6-0.7,0.4c0-0.1,0-0.1,0-0.2C191.2,14,190.8,14,190.3,14z M198,13.8
				c0-0.2,0.9-0.2,1.4-0.2C199.3,13.8,198.5,13.7,198,13.8z M212.5,13.8c1.2,0,1.7,0.2,0,0.2c-0.8,0.6-3.7-0.2,0,0
				C212.5,13.9,212.5,13.8,212.5,13.8C211.7,13.8,212.1,13.5,212.5,13.8z M220.2,13.8c0-0.2,0.9-0.2,1.4-0.2
				C221.6,13.8,220.7,13.7,220.2,13.8z M380.6,13.8c-0.3-0.4,3.2-0.3,2.1,0.2c-0.5,0-0.9,0-1.4,0C381.4,13.8,381,13.8,380.6,13.8z
				 M400.1,13.8c0-0.2,0.9-0.2,1.4-0.2C401.4,13.8,400.6,13.7,400.1,13.8z M499.4,13.8c0-0.2,0.8-0.2,1.4-0.2
				C500.8,13.8,499.9,13.7,499.4,13.8z M517.5,13.8c0-0.2,0.8-0.2,1.4-0.2C518.8,13.8,518,13.7,517.5,13.8z M601.5,13.8
				C598,14.5,597,13.3,601.5,13.8L601.5,13.8z M780.7,16.9c7.8,0.5,16.5,1,26.4,1c10,0.5,19.9,1,30.6,1.2c2.5,0.1,5.4,0.7,7.6,0.2
				c0.9,0.7,5.5,0.3,7.6,0.6c2.6,0.2,6,0.2,7.6,0.6c2.9-0.5,4,0.5,8.3,0.2c1.1,0.4,2.6,0.6,4.2,0.8c-7.6,0.6-14.8-0.6-20.8,0
				c-0.6-0.3-2.2-0.3-3.5-0.4c-5.2,0.3-10-0.6-13.9,0c-5.4-0.7-12.9-0.7-20.1-0.8c-1.2-0.4,0.1-0.3,0-0.8c-6.8,0-12.6-0.9-18.7-0.4
				c-0.2-0.4-3.1-0.1-3.5-0.4c-2.9,0-5.7,0-7.6-0.2c-5.7,0.1-8.2-0.4-12.5-0.2c-7.9-0.7-16.1-0.4-25-1.2c-2.1-0.2-5.4,0.3-5.6,0
				c-1.9-0.2-1.7-0.1-4.2,0c-2.3-0.3-6.7-0.1-9-0.4c-7.2,0.1-11.8-0.3-18.1,0c-1.7-0.7-3.4-0.1-6.2-0.4c-3.8,0.1-4.6-0.3-7.6,0
				c-15.4-0.5-31-0.6-46.5-1c-1,0-2.7,0-1.4,0.2c-1,0.3-4.2-0.4-6.2-0.4c-7.8,0.3-15-0.7-20.1-0.2c-0.7-0.3-2.9-0.2-4.2-0.4
				c-2.1-0.2-2.5,0.2-4.2,0.2c-1.6-0.1-2.9-0.2-4.2-0.4c-1.6,0-3.2,0-4.9,0c-0.5-0.3-3.4,0-2.8-0.6c3.1,0.7,8-0.2,11.1,0.6
				c-0.5-0.6,3.3,0.1,2.8-0.4c0.7,0,1.4,0,2.1,0c0,0.2-0.6,0.2-0.7,0.4c1.6-0.2,4.2-0.1,5.6-0.4c10.8,0.4,22.2,0,34,0.4
				c1.5-0.8,2.2,0.6,3.5,0c0.9,0.3,2.1,0.1,2.8-0.2c0.9,0,0.6,0.4,1.4,0.4c3.7-0.4,5.6,0.2,8.3-0.2c5,0.4,11.9,0.2,16.7,0.6
				c5.5-0.4,9.7,0.7,13.9,0.2c3,0.3,3.7,0,6.3,0.4c4.5,0,5,0.1,9,0c6.2,0.3,8.2,0.6,13.9,0.2c5,0.9,11.6,0.4,16.7,1
				c7.9-0.9,16,0,22.9-0.2c-0.1-0.3,1-0.1,0,0C775.3,17,776.5,16.7,780.7,16.9z M632.8,13.8c-0.4-0.1,0.5-0.3,0.7-0.2
				C633.8,13.7,632.9,13.8,632.8,13.8z M147.9,14c-0.4-0.1,0.5-0.3,0.7-0.2C149,13.9,148.1,14,147.9,14z M222.3,14
				c0.4-0.5,3.5-0.1,2.8,0.4C223.7,14.4,224.2,13.8,222.3,14z M543.2,13.8C541.6,14.4,538.7,13.5,543.2,13.8L543.2,13.8z M545.9,14
				c-0.4-0.1,0.5-0.3,0.7-0.2C547,13.9,546.1,14,545.9,14z M556.4,13.8c2.2,0.2,1.6,0,4.2,0C560.9,14.2,555.7,14.5,556.4,13.8z
				 M564,14C561.8,14.7,560.3,13.5,564,14L564,14z M566.1,14c0-0.2,0.8-0.2,1.4-0.2C567.4,14,566.6,13.9,566.1,14z M666.1,14
				c0-0.2,0.9-0.2,1.4-0.2C667.5,14,666.6,13.9,666.1,14z M756.4,14c-0.4-0.1,0.5-0.3,0.7-0.2C757.4,13.9,756.6,14,756.4,14z M75,14
				C74,14.8,71.1,13.9,75,14L75,14z M77.1,14.2c0.3-0.5,3.4-0.1,4.9-0.2C80.9,14.6,79.3,14.2,77.1,14.2z M86.8,14
				c1.2-0.1,1.3,0.2,1.4,0.4c0.9-0.3,3.9-0.3,4.9,0c-1.2,0.2-6.8,0.3-9.7,0C83.5,14,86.4,14.3,86.8,14z M93.8,14.2
				c0-0.2,0.9-0.2,1.4-0.2C95.1,14.2,94.3,14.1,93.8,14.2z M100.7,14.2c-0.1,0.5-2.9,0.1-4.2,0.2C96.6,13.8,99.8,13.9,100.7,14.2z
				 M107,14.2c1.4,0.5-0.3,0.5-1.4,0.2c-0.1,0.6-2.9-0.2,0,0C105.7,14.2,106.2,14.1,107,14.2C107.8,13.5,110.7,14.4,107,14.2z
				 M115.3,14c0,0.2-0.9,0.2-1.4,0.2c0,0.2,0.8,0.2,1.4,0.2c-1.6,0.4-2.5-0.1-4.9,0.2C111,14.1,112.7,13.9,115.3,14z M145.2,14.2
				c0.1-0.2,1.3-0.2,2.1-0.2C147.1,14.2,146,14.1,145.2,14.2z M220.9,14C219.3,14.6,216.4,13.7,220.9,14L220.9,14z M347.3,14.2
				c-0.6,0.3-1.7,0.4-3.5,0.4C344,13.9,345.6,14.1,347.3,14.2z M474.4,14.2c-0.4-0.1,0.5-0.3,0.7-0.2
				C475.4,14.1,474.6,14.2,474.4,14.2z M733.5,14.2c0-0.2,0.8-0.2,1.4-0.2C734.8,14.2,734,14.1,733.5,14.2z M757.8,14.2
				c0-0.2,0.9-0.2,1.4-0.2C759.1,14.2,758.3,14.1,757.8,14.2z M121.6,14.2c1.9,0.2-0.3,0.8-2.1,0.6c0-0.1,0-0.1,0-0.2
				C113.2,14.6,121.4,14.1,121.6,14.2z M183.4,14.2c2-0.3,2,0.9,0,0.6C183.4,14.6,183.4,14.4,183.4,14.2z M187.5,14.4
				C188.4,14.4,188,14.7,187.5,14.4C186.7,14.4,187.1,14.1,187.5,14.4z M331.3,14.4c0-0.2,0.8-0.2,1.4-0.2
				C332.7,14.4,331.8,14.3,331.3,14.4z M334.1,14.4C334.2,14.6,333.1,14.5,334.1,14.4C334,14.1,335.1,14.3,334.1,14.4z M481.3,14.4
				c0.1-0.2,1.3-0.2,2.1-0.2C483.3,14.4,482.2,14.4,481.3,14.4z M495.2,14.4c-0.4-0.1,0.5-0.3,0.7-0.2
				C496.3,14.3,495.4,14.4,495.2,14.4z M500.1,14.4c0-0.2,0.8-0.2,1.4-0.2C501.5,14.4,500.6,14.3,500.1,14.4z M505,14.4
				c-0.4-0.1,0.5-0.3,0.7-0.2C506,14.3,505.1,14.4,505,14.4z M731.4,14.4c-0.4-0.1,0.5-0.3,0.7-0.2
				C732.4,14.3,731.6,14.4,731.4,14.4z M759.9,14.4c0-0.2,0.8-0.2,1.4-0.2C761.2,14.4,760.4,14.3,759.9,14.4z M64.6,14.4
				C63.1,15,60.1,14.1,64.6,14.4L64.6,14.4z M143.1,14.6c0-0.2,0.9-0.2,1.4-0.2C144.5,14.6,143.6,14.5,143.1,14.6z M172.3,14.4
				c-1,0.3-2.7,0.4-4.9,0.4C166.8,14,170.7,14.5,172.3,14.4z M177.1,14.6c0-0.2,0.9-0.2,1.4-0.2C178.5,14.6,177.7,14.5,177.1,14.6z
				 M179.2,14.6c-0.4-0.1,0.5-0.3,0.7-0.2C180.3,14.5,179.4,14.7,179.2,14.6z M185.5,14.6c-0.4-0.1,0.5-0.3,0.7-0.2
				C186.5,14.5,185.6,14.7,185.5,14.6z M322.3,14.4c0.5,0.6-3.3-0.1-2.8,0.4C317.1,14.5,320.9,14.3,322.3,14.4z M323.7,14.6
				c-0.4-0.1,0.5-0.3,0.7-0.2C324.7,14.5,323.9,14.7,323.7,14.6z M325.1,14.6c0-0.2,0.8-0.2,1.4-0.2
				C326.4,14.6,325.6,14.5,325.1,14.6z M327.8,14.6c-0.4-0.1,0.5-0.3,0.7-0.2C328.9,14.5,328,14.7,327.8,14.6z M341.7,14.6
				c0-0.2,0.9-0.2,1.4-0.2C343.1,14.6,342.3,14.5,341.7,14.6z M507.7,14.6c0-0.2,0.9-0.2,1.4-0.2C509.1,14.6,508.3,14.5,507.7,14.6z
				 M606.4,14.6c0-0.2,0.9-0.2,1.4-0.2C607.7,14.6,606.9,14.5,606.4,14.6z M708.5,14.6c-0.4-0.1,0.5-0.3,0.7-0.2
				C709.5,14.5,708.7,14.7,708.5,14.6z M195.2,14.8c-1,0.5-4.8,0.1-6.9,0.2C188.5,14.3,193.9,14.5,195.2,14.8z M198.6,14.6
				c-0.2,0.4-1.2,0.5-2.8,0.4C196.3,14.7,197.4,14.6,198.6,14.6z M202.1,14.8c0-0.2,0.9-0.2,1.4-0.2
				C203.5,14.8,202.7,14.8,202.1,14.8z M216.7,14.8c-0.4-0.1,0.5-0.3,0.7-0.2C217.8,14.7,216.9,14.9,216.7,14.8z M229.2,14.8
				c-0.4-0.1,0.5-0.3,0.7-0.2C230.3,14.7,229.4,14.9,229.2,14.8z M231.3,14.8c0.1-0.2,0.7-0.1,0.7,0C231.9,15,231.3,14.9,231.3,14.8
				z M291.7,14.8c0.2-0.3,1.4-0.2,1.4,0C292.8,15.1,292.5,14.8,291.7,14.8z M314.6,14.8c-0.4-0.1,0.5-0.3,0.7-0.2
				C315.7,14.7,314.8,14.9,314.6,14.8z M530.6,14.8c-0.4-0.1,0.5-0.3,0.7-0.2C531.7,14.7,530.8,14.9,530.6,14.8z M616.8,14.8
				c0-0.2,0.8-0.2,1.4-0.2C618.1,14.8,617.3,14.8,616.8,14.8z M774.4,14.8c-0.2-0.3,3.8-0.3,2.1,0.2
				C776.8,14.9,774.4,14.8,774.4,14.8z M777.9,14.8c-0.4-0.1,0.5-0.3,0.7-0.2C779,14.7,778.1,14.9,777.9,14.8z M781.4,14.8
				c-0.4-0.1,0.5-0.3,0.7-0.2C782.4,14.7,781.6,14.9,781.4,14.8z M163.9,15c0.1-0.2,1.3-0.2,2.1-0.2C165.9,15,164.7,15,163.9,15z
				 M174.3,15C175.2,15,174.8,15.3,174.3,15C171.5,15.2,174.2,14.4,174.3,15z M186.8,15c-0.4-0.1,0.5-0.3,0.7-0.2
				C187.9,14.9,187,15.1,186.8,15z M209.8,15c-0.4-0.1,0.5-0.3,0.7-0.2C210.8,14.9,210,15.1,209.8,15z M213.9,15
				C214,15.3,212.9,15.1,213.9,15C213.9,14.8,214.9,14.9,213.9,15z M263.9,15c-0.4-0.1,0.5-0.3,0.7-0.2
				C265,14.9,264.1,15.1,263.9,15z M268.1,15c-0.4-0.1,0.5-0.3,0.7-0.2C269.2,14.9,268.3,15.1,268.1,15z M280.6,14.8
				C279.1,15.4,276.2,14.6,280.6,14.8L280.6,14.8z M335.5,15c-0.4-0.1,0.5-0.3,0.7-0.2C336.5,14.9,335.7,15.1,335.5,15z M346.6,15
				c0.5,0,0.9,0,1.4,0c-0.1-0.3,1-0.1,0,0C348,15.2,346.8,15.3,346.6,15C343.7,15.2,346.4,14.4,346.6,15z M543.2,15
				c0.1-0.2,1.3-0.2,2.1-0.2C545.1,15,544,15,543.2,15z M545.9,15c0-0.2,0.8-0.2,1.4-0.2C547.3,15,546.5,15,545.9,15z M752.2,15
				c-0.4-0.1,0.5-0.3,0.7-0.2C753.3,14.9,752.4,15.1,752.2,15z M754.3,15c-0.4-0.1,0.5-0.3,0.7-0.2C755.4,14.9,754.5,15.1,754.3,15z
				 M755.7,15c-0.4-0.1,0.5-0.3,0.7-0.2C756.7,14.9,755.9,15.1,755.7,15z M770.3,15c0.1-0.2,1.3-0.2,2.1-0.2
				C772.3,15,771.1,15,770.3,15z M782.8,15c-0.4-0.1,0.5-0.3,0.7-0.2C783.8,14.9,783,15.1,782.8,15z M234.8,15.2
				c-0.4-0.1,0.5-0.3,0.7-0.2C235.8,15.1,235,15.3,234.8,15.2z M258.4,15.2c0.1-0.2,1.3-0.2,2.1-0.2
				C260.3,15.3,259.2,15.2,258.4,15.2z M265.3,15.2c-0.4-0.1,0.5-0.3,0.7-0.2C266.4,15.1,265.5,15.3,265.3,15.2z M271.6,15.2
				c0-0.2,0.9-0.2,1.4-0.2C272.9,15.2,272.1,15.2,271.6,15.2z M319.5,15.2c0-0.2,0.8-0.2,1.4-0.2C320.9,15.2,320,15.2,319.5,15.2z
				 M565.4,15C563.9,15.6,560.9,14.8,565.4,15L565.4,15z M568.9,15.2c-0.4-0.1,0.5-0.3,0.7-0.2C569.9,15.1,569,15.3,568.9,15.2z
				 M570.2,15.2c0.1-0.2,1.3-0.2,2.1-0.2c0.7,0,1.4,0,2.1,0C574.3,15.5,571.5,15.1,570.2,15.2z M586.2,15.2
				c-0.4-0.1,0.5-0.3,0.7-0.2C587.3,15.1,586.4,15.3,586.2,15.2z M709.2,15.2c-0.4-0.1,0.5-0.3,0.7-0.2
				C710.2,15.1,709.3,15.3,709.2,15.2z M727.9,15.2c-0.4-0.1,0.5-0.3,0.7-0.2C729,15.1,728.1,15.3,727.9,15.2z M729.3,15.2
				c-0.4-0.1,0.5-0.3,0.7-0.2C730.4,15.1,729.5,15.3,729.3,15.2z M88.2,15.2c-0.3,0.3-0.9,0.4-2.1,0.4
				C85.8,15.2,87.1,15.2,88.2,15.2z M89.6,15.4c2.3,0,3.5-0.4,6.2-0.2C94.1,15.5,90.8,16.1,89.6,15.4C88.8,15.5,89.2,15.1,89.6,15.4
				z M99.3,15.4c0-0.2,0.9-0.2,1.4-0.2C100.7,15.4,99.9,15.4,99.3,15.4z M119.5,15.4c0-0.2,0.8-0.2,1.4-0.2
				C120.8,15.4,120,15.4,119.5,15.4z M150,15.4c0.1-0.2,1.3-0.2,2.1-0.2C152,15.5,150.8,15.4,150,15.4z M629.3,15.4
				c-0.4-0.1,0.5-0.3,0.7-0.2C630.3,15.3,629.5,15.5,629.3,15.4z M632.1,15.4c-0.4-0.1,0.5-0.3,0.7-0.2
				C633.1,15.3,632.3,15.5,632.1,15.4z M733.5,15.4c-0.4-0.1,0.5-0.3,0.7-0.2C734.5,15.3,733.7,15.5,733.5,15.4z M79.9,15.6
				c-0.4-0.1,0.5-0.3,0.7-0.2C80.9,15.5,80.1,15.7,79.9,15.6z M128.5,15.6c0-0.2,0.8-0.2,1.4-0.2C129.9,15.6,129,15.6,128.5,15.6z
				 M568.2,15.4c0.5,0,0.9,0,1.4,0c0,0.1,0,0.3,0,0.4c-0.5,0-0.9,0-1.4,0C568.2,15.7,568.2,15.6,568.2,15.4z M611.2,15.6
				c-0.4-0.1,0.5-0.3,0.7-0.2C612.3,15.5,611.4,15.7,611.2,15.6z M634.8,15.6c-0.4-0.1,0.5-0.3,0.7-0.2
				C635.9,15.5,635,15.7,634.8,15.6z M780.7,15.6c-0.4-0.1,0.5-0.3,0.7-0.2C781.7,15.5,780.9,15.7,780.7,15.6z M97.9,15.8
				c-0.4-0.1,0.5-0.3,0.7-0.2C99,15.7,98.1,15.9,97.9,15.8z M572.3,15.6c0.9,0,1,0.3,2.1,0.2c0.1-0.6,2.9,0.2,0,0
				C574.7,16.3,571.2,16.2,572.3,15.6z M580.7,15.8c-0.4-0.1,0.5-0.3,0.7-0.2C581.7,15.7,580.8,15.9,580.7,15.8z M614.7,15.8
				c-0.4-0.1,0.5-0.3,0.7-0.2C615.7,15.7,614.9,15.9,614.7,15.8z M619.6,15.8c0.2-0.3,1.4-0.2,1.4,0C620.3,16,619.7,16.1,619.6,15.8
				z M755,15.8c-0.4-0.1,0.5-0.3,0.7-0.2C756,15.7,755.2,15.9,755,15.8z M470.9,16.1c-0.4-0.1,0.5-0.3,0.7-0.2
				C472,16,471.1,16.1,470.9,16.1z M474.4,16.1c-0.4-0.1,0.5-0.3,0.7-0.2C475.4,16,474.6,16.1,474.4,16.1z M475.8,16.1
				c-0.4-0.1,0.5-0.3,0.7-0.2C476.8,16,476,16.1,475.8,16.1z M579.3,15.8C577.7,16.5,574.8,15.6,579.3,15.8L579.3,15.8z M590.4,16.1
				c-0.4-0.1,0.5-0.3,0.7-0.2C591.4,16,590.6,16.1,590.4,16.1z M596.6,16.1c-0.4-0.1,0.5-0.3,0.7-0.2
				C597.7,16,596.8,16.1,596.6,16.1z M648.7,16.1c-0.4-0.1,0.5-0.3,0.7-0.2C649.8,16,648.9,16.1,648.7,16.1z M570.9,16.3
				c-0.4-0.1,0.5-0.3,0.7-0.2C572,16.2,571.1,16.3,570.9,16.3z M580.7,16.3c0.1-0.2,1.3-0.2,2.1-0.2
				C582.6,16.3,581.5,16.2,580.7,16.3z M598.7,16.3c-0.4-0.1,0.5-0.3,0.7-0.2C599.8,16.2,598.9,16.3,598.7,16.3z M600.8,16.3
				c-0.4-0.1,0.5-0.3,0.7-0.2C601.9,16.2,601,16.3,600.8,16.3z M602.2,16.3c0.7-0.5,4.4-0.1,6.3-0.2
				C606.6,16.7,605.4,16.2,602.2,16.3z M613.3,16.3c0.2-0.3,1.7-0.2,2.8-0.2c1.4,0.5,6.8-0.3,6.9,0.6
				C619.5,16.3,615.5,16.5,613.3,16.3z M525.1,16.5c0.1-0.2,1.3-0.2,2.1-0.2C527.1,16.5,525.9,16.4,525.1,16.5z M527.9,16.5
				c0.2-0.3,1.7-0.2,2.8-0.2C530.4,16.5,528.9,16.4,527.9,16.5z M550.8,16.5c-0.1,0.2-1.1,0.2-2.1,0.2c-0.9,0.6-2.4-0.2-4.2,0
				c0.1-0.3,1.7-0.2,2.8-0.2C547.5,16,550.4,16.4,550.8,16.5z M609.1,16.5c-0.4-0.1,0.5-0.3,0.7-0.2
				C610.2,16.4,609.3,16.5,609.1,16.5z M625.1,16.5C626,16.4,625.5,16.8,625.1,16.5c-0.2,0-0.5,0-0.7,0c0.1,0.3-1,0.1,0,0
				C624.4,16.4,625,16.2,625.1,16.5z M539.7,16.7c-0.4-0.1,0.5-0.3,0.7-0.2C540.7,16.6,539.9,16.7,539.7,16.7z M564,16.9
				c-2.1,0-4.2,0-6.3,0c-0.5-0.6,3.3,0.1,2.8-0.4C562.2,16.9,564.1,16.1,564,16.9z M593.9,16.9c6.9-0.2,13.9,0.1,20.8,0.4
				c2.3-0.4,6.4,0.2,9.7,0.2c1.9,0,3.7,0,5.6,0c0.1,0.2,1.1,0.2,2.1,0.2c1,0,2.7,0,1.4,0.2c0.1,0.8-0.6,0.1-2.1,0.2
				c-0.2,0.7-2.6-0.5-2.8,0.2c-2.3-0.3-5.6-0.3-8.3-0.4c-6.4-0.1-9.9-0.1-16-0.4c-12.7,0-21.3-0.4-34-0.4c-1.3,0-1.5-0.2-2.8-0.2
				c-0.2,0.3-1.5,0.1-2.1,0c0.2-0.3,1.5-0.1,2.1,0C576.3,16.5,585.3,16.5,593.9,16.9z M629.3,16.7c0.1-0.2,1.3-0.2,2.1-0.2
				c0.7,0,1.4,0,2.1,0C633.4,16.9,630.5,16.6,629.3,16.7z M818.2,16.7c-0.4-0.1,0.5-0.3,0.7-0.2C819.3,16.6,818.4,16.7,818.2,16.7z
				 M514,16.9c0-0.2,0.9-0.2,1.4-0.2C515.4,16.9,514.5,16.8,514,16.9z M533.4,16.9c-0.4-0.1,0.5-0.3,0.7-0.2
				C534.5,16.8,533.6,16.9,533.4,16.9z M555,16.9c0-0.2,0.9-0.2,1.4-0.2C556.3,16.9,555.5,16.8,555,16.9z M648.7,16.9
				C649.6,16.9,649.2,17.2,648.7,16.9c-0.5,0-0.9,0-1.4,0c0.1,0.3-1,0.1,0,0C647.3,16.7,648.6,16.6,648.7,16.9z M679.3,16.9
				c-0.4-0.1,0.5-0.3,0.7-0.2C680.3,16.8,679.5,16.9,679.3,16.9z M701.5,16.9c-0.4-0.1,0.5-0.3,0.7-0.2
				C702.6,16.8,701.7,16.9,701.5,16.9z M786.2,16.9c-0.4-0.1,0.5-0.3,0.7-0.2C787.3,16.8,786.4,16.9,786.2,16.9z M645.3,17.1
				c-0.4-0.1,0.5-0.3,0.7-0.2C646.3,17,645.4,17.2,645.3,17.1z M548.7,17.3c-0.4-0.1,0.5-0.3,0.7-0.2
				C549.8,17.2,548.9,17.4,548.7,17.3z M651.5,17.3c-0.4-0.1,0.5-0.3,0.7-0.2C652.6,17.2,651.7,17.4,651.5,17.3z M654.3,17.5
				c0.5,0,0.9,0,1.4,0c1-0.4,6.5,0.3,8.3,0c1.6,0.1,3.5,0.4,4.9,0c0,0.3,5.1,0.5,4.2-0.2c1.7,0.6,3.7,0.3,5.6,0.4
				c3.7,0.2,9.8,0.1,14.6,0.4c2.5,0.1,4.5,0,6.3-0.2c1.9,0.6,4.2,0.3,6.2,0.6c8-0.1,11.6,0.3,18.1,0.4c4.5-0.1,13.1,0.7,17.4,0.2
				c0.1,0.6,2.9,0.4,4.9,0.4c0.1-0.6,2.9,0.2,0,0c6.8,0.5,15.4,0.7,22.9,1.5c3.1-0.1,2.3,0.6,0,0.2c0.1,0.3-1,0.1,0,0
				c0-0.1,0-0.1,0-0.2c-2,0-2.9,0.4-4.9,0.4c0.1,0.3-1,0.1,0,0c-0.1-0.7-1-0.1-2.8-0.4c-12.5,0.1-18.1-0.8-32-0.8
				c-3.4-0.4-7.5-0.5-12.5-0.4c0.1,0.3-1,0.1,0,0c-4.9-0.3-11-0.3-16-0.6c-3.6,0.2-5-0.3-8.3-0.2c-2.5-0.3-4.3,0.1-6.9-0.4
				c-10.8-0.1-20.4-0.5-29.9-1C655.7,17.7,654.5,17.8,654.3,17.5C651.5,17.5,654.4,16.6,654.3,17.5z M709.2,17.3
				c0.4-0.3,0.7,0,0.7,0.2C708.6,17.6,708.4,17.3,709.2,17.3z M728.6,17.3c0-0.2,0.9-0.2,1.4-0.2C730,17.3,729.1,17.3,728.6,17.3z
				 M825.1,17.1c0.5,0,0.9,0,1.4,0c0,0.1,0.1,0.2,0.7,0.2c0.1-0.6,2.9,0.2,0,0C827.5,17.7,824.1,17.6,825.1,17.1z M846.7,17.3
				c-0.4-0.1,0.5-0.3,0.7-0.2C847.7,17.2,846.9,17.4,846.7,17.3z M671,17.5c0-0.2,0.8-0.2,1.4-0.2C672.3,17.5,671.5,17.5,671,17.5z
				 M732.1,17.5c0-0.2,0.9-0.2,1.4-0.2C733.4,17.5,732.6,17.5,732.1,17.5z M745.3,17.5C744.5,18.1,741.6,17.3,745.3,17.5
				C746.1,16.9,749,17.7,745.3,17.5z M795.3,17.5c-0.4-0.1,0.5-0.3,0.7-0.2C796.3,17.4,795.5,17.6,795.3,17.5z M831.4,17.5
				c0-0.2,0.8-0.2,1.4-0.2C832.8,17.5,831.9,17.5,831.4,17.5z M834.2,17.5c0.4-0.3,0.7,0,0.7,0.2C833.6,17.8,833.4,17.5,834.2,17.5z
				 M855.7,17.5c-0.4-0.1,0.5-0.3,0.7-0.2C856.8,17.4,855.9,17.6,855.7,17.5z M578.6,17.7c0-0.2,0.9-0.2,1.4-0.2
				C579.9,17.7,579.1,17.7,578.6,17.7z M693.2,17.7c0-0.2,0.9-0.2,1.4-0.2C694.5,17.7,693.7,17.7,693.2,17.7z M718.2,17.7
				c-0.4-0.1,0.5-0.3,0.7-0.2C719.2,17.6,718.4,17.8,718.2,17.7z M719.6,17.7c0-0.2,0.8-0.2,1.4-0.2c0.7,0,1.4,0,2.1,0
				C723.2,18,720.6,17.6,719.6,17.7z M739.7,17.7c0-0.2,0.9-0.2,1.4-0.2C741.1,17.7,740.3,17.7,739.7,17.7z M634.8,17.9
				c0-0.2,0.9-0.2,1.4-0.2C636.2,17.9,635.4,17.9,634.8,17.9z M705.7,17.9c-0.4-0.1,0.5-0.3,0.7-0.2C706.7,17.8,705.9,18,705.7,17.9
				z M842.5,17.9c0-0.2,0.8-0.2,1.4-0.2C843.9,17.9,843.1,17.9,842.5,17.9z M639.7,17.9c-0.1,1.1-2.3,0.3-4.9,0.4
				C635.8,18,637.5,17.9,639.7,17.9z M823.1,18.1c-0.4-0.1,0.5-0.3,0.7-0.2C824.1,18,823.3,18.2,823.1,18.1z M848.1,18.1
				c-0.4-0.1,0.5-0.3,0.7-0.2C849.1,18,848.3,18.2,848.1,18.1z M641.1,18.3C641.2,18.6,640.1,18.5,641.1,18.3
				C641.2,17.7,644,18.5,641.1,18.3z M643.2,18.3c4.4-0.4,8,0,12.5,0c0,0.1,0,0.1,0,0.2c0.5,0,1.4,0,1.4,0.2c2.7-0.4,6.9-0.2,9.7,0
				c0,0.1,0,0.1,0,0.2c0.8,0,0.4,0.3,0,0c-3.7,0.2-5.2-0.1-9.7,0c0-0.1,0-0.1,0-0.2c-0.5,0-1.4,0-1.4-0.2
				C651.8,19.2,647.1,18.6,643.2,18.3z M711.9,18.3c-0.4-0.1,0.5-0.3,0.7-0.2C713,18.2,712.1,18.4,711.9,18.3z M852.9,18.3
				c-0.4-0.1,0.5-0.3,0.7-0.2C854,18.2,853.1,18.4,852.9,18.3z M727.9,18.6c-0.4-0.1,0.5-0.3,0.7-0.2
				C729,18.5,728.1,18.6,727.9,18.6z M824.5,18.6c-0.4-0.1,0.5-0.3,0.7-0.2C825.5,18.5,824.6,18.6,824.5,18.6z M832.1,18.3
				C830.6,19,827.6,18.1,832.1,18.3L832.1,18.3z M758.5,18.8c-0.4-0.1,0.5-0.3,0.7-0.2C759.5,18.7,758.7,18.8,758.5,18.8z
				 M834.2,18.8c-0.4-0.1,0.5-0.3,0.7-0.2C835.2,18.7,834.4,18.8,834.2,18.8z M838.3,18.8c0-0.2,0.9-0.2,1.4-0.2
				C839.7,18.8,838.9,18.7,838.3,18.8z M684.8,19c-0.4-0.1,0.5-0.3,0.7-0.2C685.9,18.9,685,19,684.8,19z M840.4,18.8
				c1.4,0.1,4.6-0.3,4.9,0.2c1.3-0.4,1.3,0.1,3.5,0c0.3,0.3-3.8,0.3-3.5,0C843.9,18.8,840.7,19.2,840.4,18.8z M668.2,19.2
				c0.1-0.2,1.3-0.2,2.1-0.2C670.1,19.2,669,19.1,668.2,19.2z M671,19.2c0-0.2,0.8-0.2,1.4-0.2C672.3,19.2,671.5,19.1,671,19.2z
				 M758.5,19.2C759.3,19.2,758.9,19.5,758.5,19.2C757.6,19.2,758,18.9,758.5,19.2z M791.1,19.2c-0.4-0.1,0.5-0.3,0.7-0.2
				C792.2,19.1,791.3,19.2,791.1,19.2z M850.1,19.2C850.2,19.4,849.1,19.3,850.1,19.2C850.1,18.9,851.2,19.1,850.1,19.2z
				 M674.4,19.4c0-0.2,0.8-0.2,1.4-0.2C675.8,19.4,675,19.3,674.4,19.4z M682.1,19.2c-0.3,0.3-0.9,0.4-2.1,0.4
				C680.3,19.3,680.9,19.2,682.1,19.2z M764,19.4c-0.4-0.1,0.5-0.3,0.7-0.2C765.1,19.3,764.2,19.4,764,19.4z M688.3,19.6
				c0.1-0.2,1.3-0.2,2.1-0.2C690.3,19.6,689.1,19.6,688.3,19.6z M691.8,19.6c0-0.2,0.8-0.2,1.4-0.2
				C693.2,19.6,692.3,19.6,691.8,19.6z M694.6,19.6c-0.4-0.1,0.5-0.3,0.7-0.2C695.6,19.5,694.8,19.7,694.6,19.6z M696.7,19.6
				c0-0.2,0.8-0.2,1.4-0.2C698,19.6,697.2,19.6,696.7,19.6z M749.4,19.6c-0.4-0.1,0.5-0.3,0.7-0.2C750.5,19.5,749.6,19.7,749.4,19.6
				z M771,19.6c-0.4-0.1,0.5-0.3,0.7-0.2C772,19.5,771.2,19.7,771,19.6z M780,19.6C780.8,19.6,780.4,19.9,780,19.6
				C779.2,19.6,779.6,19.3,780,19.6z M702.9,20c0.1-0.2,1.3-0.2,2.1-0.2C704.9,20,703.7,20,702.9,20z M786.9,20
				c0.1-0.2,1.3-0.2,2.1-0.2C788.9,20,787.8,20,786.9,20z M705.7,20.2c0-0.2,0.9-0.2,1.4-0.2C707.1,20.2,706.2,20.2,705.7,20.2z
				 M713.3,20.2c-0.4-0.1,0.5-0.3,0.7-0.2C714.4,20.1,713.5,20.3,713.3,20.2z M721.7,20.2C720,20.9,718.8,19.5,721.7,20.2
				L721.7,20.2z M717.5,20.4c-0.4-0.1,0.5-0.3,0.7-0.2C718.5,20.3,717.7,20.5,717.5,20.4z M768.2,20.6c-0.4-0.1,0.5-0.3,0.7-0.2
				C769.2,20.5,768.4,20.7,768.2,20.6z M727.9,21.3c-0.4-0.1,0.5-0.3,0.7-0.2C729,21.2,728.1,21.3,727.9,21.3z M771.7,21.3
				c-0.4-0.1,0.5-0.3,0.7-0.2C772.7,21.2,771.9,21.3,771.7,21.3z M740.4,21.7c0-0.2,0.9-0.2,1.4-0.2
				C741.8,21.7,740.9,21.6,740.4,21.7z M875.2,21.7c-0.4-0.1,0.5-0.3,0.7-0.2C876.2,21.6,875.3,21.7,875.2,21.7z M756.4,22.3
				c-0.4-0.1,0.5-0.3,0.7-0.2C757.4,22.2,756.6,22.4,756.4,22.3z M864.7,22.3c-0.4-0.1,0.5-0.3,0.7-0.2
				C865.8,22.2,864.9,22.4,864.7,22.3z M761.9,22.5c-0.4-0.1,0.5-0.3,0.7-0.2C763,22.4,762.1,22.6,761.9,22.5z M787.6,23.1
				c-0.4-0.1,0.5-0.3,0.7-0.2C788.7,23,787.8,23.2,787.6,23.1z M775.1,23.3c0-0.2,0.9-0.2,1.4-0.2C776.5,23.3,775.7,23.3,775.1,23.3
				z M793.2,23.6c-0.4-0.1,0.5-0.3,0.7-0.2C794.3,23.5,793.4,23.6,793.2,23.6z"/>
			<path fill-rule="evenodd" clip-rule="evenodd" d="M134.1,4.2c-0.4-0.1,0.5-0.3,0.7-0.2C135.1,4.1,134.2,4.2,134.1,4.2z"/>
			<path fill-rule="evenodd" clip-rule="evenodd" d="M136.8,4.2c0-0.2,0.9-0.2,1.4-0.2c0.7,0,1.4,0,2.1,0
				C140.4,4.4,137.8,4.1,136.8,4.2z"/>
			<path fill-rule="evenodd" clip-rule="evenodd" d="M143.1,4.2C139.4,4.4,142.3,3.5,143.1,4.2L143.1,4.2z"/>
			<path fill-rule="evenodd" clip-rule="evenodd" d="M144.5,4.2c0-0.2,0.9-0.2,1.4-0.2C145.8,4.2,145,4.1,144.5,4.2z"/>
			<path fill-rule="evenodd" clip-rule="evenodd" d="M143.1,4.2C143.9,4.2,143.5,4.5,143.1,4.2L143.1,4.2z"/>
			<path fill-rule="evenodd" clip-rule="evenodd" d="M242.4,4.6c0-0.2,1.2-0.3,1.4,0C243.3,4.6,242.9,4.6,242.4,4.6z"/>
			<path fill-rule="evenodd" clip-rule="evenodd" d="M301.4,4.8C300.6,4.8,301,4.5,301.4,4.8L301.4,4.8z"/>
			<path fill-rule="evenodd" clip-rule="evenodd" d="M68.8,5.4C69.6,5.4,69.2,5.7,68.8,5.4L68.8,5.4z"/>
			<path fill-rule="evenodd" clip-rule="evenodd" d="M197.3,5.4c0,0.1-0.6,0.2-0.7,0C196.8,5.4,197,5.4,197.3,5.4z"/>
			<path fill-rule="evenodd" clip-rule="evenodd" d="M210.5,5.4c0.5,0,0.9,0,1.4,0C211.8,5.6,210.6,5.7,210.5,5.4z"/>
			<path fill-rule="evenodd" clip-rule="evenodd" d="M270.9,5.6C271,5.9,269.9,5.8,270.9,5.6L270.9,5.6z"/>
			<path fill-rule="evenodd" clip-rule="evenodd" d="M166.7,6.1C166.6,5.8,167.7,5.9,166.7,6.1L166.7,6.1z"/>
			<path fill-rule="evenodd" clip-rule="evenodd" d="M171.6,6.3c-2.2-0.1-2.1,0.4-3.5,0C168.3,5.6,170.7,6,171.6,6.3z"/>
			<path fill-rule="evenodd" clip-rule="evenodd" d="M241.7,6.1C241.6,5.8,242.7,5.9,241.7,6.1L241.7,6.1z"/>
			<path fill-rule="evenodd" clip-rule="evenodd" d="M261.9,6.3c5.7,0,15.9-0.4,22.2-0.2c-1.6,0.4-5.3,0.4-9,0.4
				C270.9,6.5,265.8,6.6,261.9,6.3z"/>
			<path fill-rule="evenodd" clip-rule="evenodd" d="M234.1,6.3c0-0.2,1.2-0.3,1.4,0C235,6.3,234.5,6.3,234.1,6.3z"/>
			<path fill-rule="evenodd" clip-rule="evenodd" d="M257.7,6.3c-0.4-0.1,0.5-0.3,0.7-0.2C258.7,6.2,257.9,6.3,257.7,6.3z"/>
			<path fill-rule="evenodd" clip-rule="evenodd" d="M284.8,6.3c0.1-0.2,1.3-0.2,2.1-0.2C286.7,6.3,285.6,6.2,284.8,6.3z"/>
			<path fill-rule="evenodd" clip-rule="evenodd" d="M234.1,6.3C234.1,6.5,233.1,6.4,234.1,6.3L234.1,6.3z"/>
			<path fill-rule="evenodd" clip-rule="evenodd" d="M235.5,6.3c0.5,0,1.4,0,1.4,0.2C236.3,6.4,235.5,6.5,235.5,6.3z"/>
			<path fill-rule="evenodd" clip-rule="evenodd" d="M261.9,6.3C261.7,6.9,259,6.1,261.9,6.3L261.9,6.3z"/>
			<path fill-rule="evenodd" clip-rule="evenodd" d="M300.1,6.3C302.9,6.1,300.2,6.9,300.1,6.3L300.1,6.3z"/>
			<path fill-rule="evenodd" clip-rule="evenodd" d="M236.8,6.5c1,0.2,1.8,0.2,2.8,0c0.1,0.2,0.7,0.2,0.7,0.4
				C238.5,6.8,234.8,7.1,236.8,6.5z"/>
			<path fill-rule="evenodd" clip-rule="evenodd" d="M164.6,6.9c0.1-0.2,1.3-0.2,2.1-0.2c0.9,0,1.9,0,2.8,0
				C169.2,7.1,166.1,6.8,164.6,6.9z"/>
			<path fill-rule="evenodd" clip-rule="evenodd" d="M367.4,6.9C367.5,7.1,366.4,7,367.4,6.9L367.4,6.9z"/>
			<path fill-rule="evenodd" clip-rule="evenodd" d="M412.6,7.1c0-0.2,0.8-0.2,1.4-0.2C413.9,7.1,413.1,7,412.6,7.1z"/>
			<path fill-rule="evenodd" clip-rule="evenodd" d="M556.4,7.7c0,0.2-1.2,0.3-1.4,0C555.1,7.5,555.7,7.6,556.4,7.7z"/>
			<path fill-rule="evenodd" clip-rule="evenodd" d="M425.1,9.2c0.5,0,1.4,0,1.4,0.2C425.9,9.3,425.1,9.4,425.1,9.2z"/>
			<path fill-rule="evenodd" clip-rule="evenodd" d="M648.7,9.2c0.8,0,2,0,2.1,0.2C650,9.4,648.8,9.4,648.7,9.2z"/>
			<path fill-rule="evenodd" clip-rule="evenodd" d="M258.4,9.6C258.3,9.3,259.4,9.5,258.4,9.6L258.4,9.6z"/>
			<path fill-rule="evenodd" clip-rule="evenodd" d="M646.6,9.4c0.4,0,0.8,0.2,0,0.2C646.6,9.5,646.6,9.5,646.6,9.4z"/>
			<path fill-rule="evenodd" clip-rule="evenodd" d="M296.6,9.6c0,0.2-1.2,0.3-1.4,0C295.7,9.6,296.1,9.6,296.6,9.6z"/>
			<path fill-rule="evenodd" clip-rule="evenodd" d="M664,9.8c0.2,0,0.5,0,0.7,0C664.7,9.9,664.1,10,664,9.8z"/>
			<path fill-rule="evenodd" clip-rule="evenodd" d="M244.5,11.3C243,11.9,240,11,244.5,11.3L244.5,11.3z"/>
			<path fill-rule="evenodd" clip-rule="evenodd" d="M283.4,11.5c-0.4-0.1,0.5-0.3,0.7-0.2C284.4,11.4,283.6,11.5,283.4,11.5z"/>
			<path fill-rule="evenodd" clip-rule="evenodd" d="M343.1,11.3c-0.6,0.4-2.6,0.6-2.8,0C341.3,11.3,342.2,11.3,343.1,11.3z"/>
			<path fill-rule="evenodd" clip-rule="evenodd" d="M344.5,11.3c0.8,0,2,0,2.1,0.2C345.8,11.4,344.6,11.5,344.5,11.3z"/>
			<path fill-rule="evenodd" clip-rule="evenodd" d="M353.5,11.5C353.5,11.2,354.5,11.3,353.5,11.5L353.5,11.5z"/>
			<path fill-rule="evenodd" clip-rule="evenodd" d="M366,11.5c-0.4-0.1,0.5-0.3,0.7-0.2C367.1,11.4,366.2,11.5,366,11.5z"/>
			<path fill-rule="evenodd" clip-rule="evenodd" d="M353.5,11.5C353.4,12.1,350.7,11.3,353.5,11.5L353.5,11.5z"/>
			<path fill-rule="evenodd" clip-rule="evenodd" d="M367.4,11.7C367.4,11.4,368.4,11.6,367.4,11.7L367.4,11.7z"/>
			<path fill-rule="evenodd" clip-rule="evenodd" d="M393.1,11.7c-0.4-0.1,0.5-0.3,0.7-0.2C394.2,11.6,393.3,11.7,393.1,11.7z"/>
			<path fill-rule="evenodd" clip-rule="evenodd" d="M203.5,11.9C202.7,11.9,203.1,11.6,203.5,11.9L203.5,11.9z"/>
			<path fill-rule="evenodd" clip-rule="evenodd" d="M203.5,12.1c0-0.1,0-0.1,0-0.2c0.4,0,0.8,0,0.7,0.2
				C204,12.1,203.7,12.1,203.5,12.1z"/>
			<path fill-rule="evenodd" clip-rule="evenodd" d="M210.5,12.5c-0.8,0-2,0-2.1-0.2C209.2,12.3,210.3,12.3,210.5,12.5z"/>
			<path fill-rule="evenodd" clip-rule="evenodd" d="M466.1,12.7c-0.5,0-1.4,0-1.4-0.2C465.2,12.6,466,12.5,466.1,12.7z"/>
			<path fill-rule="evenodd" clip-rule="evenodd" d="M475.8,12.7c0-0.3,1.9-0.3,2.1,0C477.2,12.7,476.5,12.7,475.8,12.7z"/>
			<path fill-rule="evenodd" clip-rule="evenodd" d="M492.4,12.9c0.5-0.5,3.9-0.1,5.6-0.2C497.5,13.5,495.2,12.7,492.4,12.9z"/>
			<path fill-rule="evenodd" clip-rule="evenodd" d="M327.1,13.1c0.2,0,0.5,0,0.7,0C327.8,13.3,327.3,13.4,327.1,13.1z"/>
			<path fill-rule="evenodd" clip-rule="evenodd" d="M295.2,13.6c-0.4-0.1,0.5-0.3,0.7-0.2C296.3,13.5,295.4,13.6,295.2,13.6z"/>
			<path fill-rule="evenodd" clip-rule="evenodd" d="M324.4,13.6c-0.4-0.1,0.5-0.3,0.7-0.2C325.4,13.5,324.6,13.6,324.4,13.6z"/>
			<path fill-rule="evenodd" clip-rule="evenodd" d="M314.6,13.8c-0.4-0.1,0.5-0.3,0.7-0.2C315.7,13.7,314.8,13.8,314.6,13.8z"/>
			<path fill-rule="evenodd" clip-rule="evenodd" d="M329.2,13.8c-0.5,0-1.4,0-1.4-0.2C328.4,13.6,329.2,13.6,329.2,13.8z"/>
			<path fill-rule="evenodd" clip-rule="evenodd" d="M191.7,14c0-0.1,0.1-0.2,0.7-0.2C192.5,13.9,192.1,14,191.7,14z"/>
			<path fill-rule="evenodd" clip-rule="evenodd" d="M281.3,14.2c0-0.1,0.6-0.2,0.7,0C281.8,14.2,281.5,14.2,281.3,14.2z"/>
			<path fill-rule="evenodd" clip-rule="evenodd" d="M613.3,14.2c0.7,0,1.8,0.1,0.7,0.2C613.6,14.4,613.2,14.4,613.3,14.2z"/>
			<path fill-rule="evenodd" clip-rule="evenodd" d="M657.1,14.2C657.9,14.2,657.5,14.5,657.1,14.2L657.1,14.2z"/>
			<path fill-rule="evenodd" clip-rule="evenodd" d="M119.5,14.6c0-0.1,0.6-0.2,0.7,0C119.9,14.6,119.7,14.6,119.5,14.6z"/>
			<path fill-rule="evenodd" clip-rule="evenodd" d="M455.6,15.4C455.8,14.8,458.5,15.6,455.6,15.4L455.6,15.4z"/>
			<path fill-rule="evenodd" clip-rule="evenodd" d="M459.8,15.4c-0.5,0-1.4,0-1.4-0.2C459,15.3,459.8,15.2,459.8,15.4z"/>
			<path fill-rule="evenodd" clip-rule="evenodd" d="M434.1,16.5c-0.4-0.1,0.5-0.3,0.7-0.2C435.2,16.4,434.3,16.5,434.1,16.5z"/>
			<path fill-rule="evenodd" clip-rule="evenodd" d="M547.3,16.5c0.5,0,1.4,0,1.4,0.2C548.2,16.6,547.3,16.7,547.3,16.5z"/>
			<path fill-rule="evenodd" clip-rule="evenodd" d="M735.5,16.7c-0.4-0.1,0.5-0.3,0.7-0.2C736.6,16.6,735.7,16.7,735.5,16.7z"/>
			<path fill-rule="evenodd" clip-rule="evenodd" d="M610.5,17.5c-0.4-0.1,0.5-0.3,0.7-0.2C611.6,17.4,610.7,17.6,610.5,17.5z"/>
			<path fill-rule="evenodd" clip-rule="evenodd" d="M766.8,19.6C767.6,19.6,767.2,19.9,766.8,19.6L766.8,19.6z"/>
			<path fill-rule="evenodd" clip-rule="evenodd" d="M774.4,20.6c0-0.1,0.6-0.2,0.7,0C774.9,20.6,774.7,20.6,774.4,20.6z"/>
			<path fill-rule="evenodd" clip-rule="evenodd" d="M821.7,24.4c0-0.2,0.9-0.2,1.4-0.2c0.7,0,1.4,0,2.1,0
				C825.3,24.6,822.7,24.3,821.7,24.4z"/>
		</g>
	</g>
</g>
</svg>
