<?xml version="1.0" encoding="utf-8"?>
<!-- Generator: Adobe Illustrator 18.1.1, SVG Export Plug-In . SVG Version: 6.00 Build 0)  -->
<svg version="1.1" id="Layer_1" xmlns="http://www.w3.org/2000/svg" xmlns:xlink="http://www.w3.org/1999/xlink" x="0px" y="0px"
	 viewBox="195 0 10 400" enable-background="new 195 0 10 400" xml:space="preserve">
<g>
	<g>
		<g>
			<path d="M201.9,285.2c0-0.2,0,0.2,0,0.3C201.9,285.7,201.9,285.3,201.9,285.2z"/>
			<path d="M201.9,294.5c0,0,0,0.4,0,0.6C201.9,295,201.9,294.7,201.9,294.5z"/>
			<path d="M201.8,240c0-0.2,0,0.2,0,0.3C201.8,240.5,201.8,240.1,201.8,240z"/>
			<path d="M201.9,287.8c0,0.9-0.2,1.2,0,1.9c-0.1,1.1-0.2-0.6-0.2-1.3C201.8,288.3,201.8,287.5,201.9,287.8z"/>
			<path d="M201.6,291.3c0-0.3,0-0.3,0-0.3c0,0,0-0.1,0-0.3c0.1,0.9,0.2,1.3,0.2,3.2c-0.1,0.3-0.1-0.9-0.2-1.3
				c0-0.1-0.1-0.3-0.1-0.3C201.6,292,201.8,290.7,201.6,291.3z"/>
			<path d="M201.9,343.5c0,1.6-0.3,0.8-0.2,2.9c0-0.2,0-0.3-0.1-0.3c0-0.9,0.1-1.5,0.1-1.9c0-0.4-0.1-0.3-0.1-1
				c0.1,0,0.1,0.4,0.2,0.3c0-0.9-0.1-0.6-0.1-1C201.8,341.2,201.8,343.6,201.9,343.5z"/>
			<path d="M201.8,294.8c0-0.2,0,0.2,0,0.3C201.8,295.2,201.8,294.9,201.8,294.8z"/>
			<path d="M201.8,306.6c0-0.5-0.2,0.1-0.2-1C201.8,305.7,201.8,305.7,201.8,306.6z"/>
			<path d="M201.8,244.4c0-0.2,0,0.2,0,0.3C201.8,244.9,201.8,244.5,201.8,244.4z"/>
			<path d="M201.8,247c0-0.6-0.3,0-0.2-1.3c0.1-0.1,0.1,0.2,0.1,0.6c0-0.1,0-0.3,0-0.6C201.8,245.9,201.8,246.4,201.8,247z"/>
			<path d="M201.8,275C201.9,275.8,201.5,275.8,201.8,275L201.8,275z"/>
			<path d="M201.8,293.8c0.1,0.1,0,1-0.1,0.6c0-0.6,0-1,0.1-1c0,0.3,0,0.3,0,0.6C201.8,294.2,201.8,294,201.8,293.8z"/>
			<path d="M201.8,297c0.1,0.3,0,1.4-0.1,0.6C201.7,297.3,201.8,297.4,201.8,297z"/>
			<path d="M201.8,276c0,0.2,0,0.4,0,0.6c0,0,0,0-0.1,0C201.7,276.4,201.7,276.2,201.8,276C201.7,276,201.7,276,201.8,276z"/>
			<path d="M201.7,239.6c0-0.2,0,0.2,0,0.3C201.7,240.1,201.7,239.7,201.7,239.6z"/>
			<path d="M201.7,252.7c0,0.5,0,1-0.2,1c0-0.4,0-0.9,0-1.3C201.6,252.7,201.7,252.8,201.7,252.7z"/>
			<path d="M201.7,295.7c0-0.2,0,0.2,0,0.3C201.7,296.2,201.7,295.8,201.7,295.7z"/>
			<path d="M201.7,306.6c0,0.1,0,0.6,0,0.6C201.6,307,201.7,306.9,201.7,306.6z"/>
			<path d="M201.6,209.7c0.1,0.1,0,0.4-0.1,0.3C201.5,209.9,201.6,209.6,201.6,209.7z"/>
			<path d="M201.6,210.4c0-0.2,0,0.2,0,0.3C201.7,210.8,201.6,210.5,201.6,210.4z"/>
			<path d="M201.7,257.5c0,0.5-0.1,0-0.1,0C201.6,256.9,201.6,257.4,201.7,257.5z"/>
			<path d="M201.6,213.9c0,0.7-0.1,0.1-0.2,0.3C201.5,213.6,201.6,213.3,201.6,213.9z"/>
			<path d="M201.5,248.9c0-0.2,0,0.2,0,0.3C201.6,249.4,201.5,249,201.5,248.9z"/>
			<path d="M201.5,365.5c0-0.2,0,0.2,0,0.3C201.6,366,201.5,365.6,201.5,365.5z"/>
			<path d="M201.5,211c0-0.1-0.1-0.4-0.1-1C201.4,210.2,201.5,210.5,201.5,211z"/>
			<path d="M201.3,201.5c0-0.2,0,0.2,0,0.3C201.3,201.9,201.3,201.5,201.3,201.5z"/>
			<path d="M201.3,167.7c0,0.5,0,0.5,0,1c0,0,0,0-0.1,0c0-0.4,0-0.5,0-0.6C201.1,167.6,201.2,167.7,201.3,167.7z"/>
			<path d="M201.2,170.2c0,0.1,0,0.4,0,0.3C201.1,170.5,201.1,170.2,201.2,170.2z"/>
			<path d="M201.1,169.3c0-0.2,0,0.2,0,0.3C201.1,169.8,201.1,169.4,201.1,169.3z"/>
			<path d="M201.1,166.4c0,0,0,0.6,0,1C201.1,167.3,201.1,166.8,201.1,166.4z"/>
			<path d="M201,158.4c0-0.2,0,0.2,0,0.3C201,158.9,201,158.5,201,158.4z"/>
			<path d="M201,271.8c0,0,0,0.6,0,1C201,272.7,201,272.2,201,271.8z"/>
			<path d="M201,331.1c0,0,0,0.4,0,0.6C201,331.7,201,331.3,201,331.1z"/>
			<path d="M201,335.2c0,0.3,0,0.9,0,1C200.9,337.7,200.8,334.5,201,335.2z"/>
			<path d="M200.9,147c0-0.2,0,0.2,0,0.3C200.9,147.5,200.9,147.1,200.9,147z"/>
			<path d="M200.6,128.8c0,0,0,0.6,0,1c-0.1,0.1-0.2,0.1-0.2-1C200.5,128.8,200.6,130.2,200.6,128.8z"/>
			<path d="M200.6,143.1c0-0.2,0,0.2,0,0.3C200.6,143.6,200.6,143.2,200.6,143.1z"/>
			<path d="M200.5,140.6c0-0.2,0,0.2,0,0.3C200.5,141.1,200.5,140.7,200.5,140.6z"/>
			<path d="M199.8,304c0,1-0.1,0.3-0.2,1.3c-0.2-0.4,0-0.8,0-1.6C199.8,303.6,199.8,303.9,199.8,304z"/>
			<path d="M199.8,297.6c0.1,0.2,0,0.6,0,1C199.7,298.3,199.8,298,199.8,297.6z"/>
			<path d="M199.8,301.8c0-0.2,0,0.2,0,0.3C199.8,302.2,199.8,301.8,199.8,301.8z"/>
			<path d="M199.8,278.2c-0.1,1.2-0.1-0.8-0.2-1c0-0.4,0.1-0.3,0.2-0.3C199.7,277.2,199.7,277.7,199.8,278.2
				C199.7,278.2,199.7,278.2,199.8,278.2z"/>
			<path d="M199.7,296.4c0-0.2,0,0.2,0,0.3C199.7,296.8,199.7,296.5,199.7,296.4z"/>
			<path d="M199.7,283.3c0,0.1,0,0.6,0,0.6C199.6,283.8,199.7,283.7,199.7,283.3z"/>
			<path d="M199.7,286.2c-0.1,0.1-0.1-0.5-0.1-1.3C199.7,285.2,199.7,285.3,199.7,286.2z"/>
			<path d="M199.7,298.3C199.5,297.3,199.8,297,199.7,298.3L199.7,298.3z"/>
			<path d="M199.7,316.1L199.7,316.1c0,1.2-0.1-0.5,0-0.6C199.7,315.4,199.7,315.9,199.7,316.1z"/>
			<path d="M199.6,307.5c0,0.3,0,0.5,0,0.3C199.5,307.5,199.6,307.3,199.6,307.5z"/>
			<path d="M199.6,313.8c0,0.1,0,0.6,0,0.6C199.6,314.3,199.6,314.2,199.6,313.8z"/>
			<path d="M199.7,341.6c0-0.5-0.1-0.5-0.1-1.3C199.6,340.6,199.7,340.6,199.7,341.6z"/>
			<path d="M199.6,298.6c0-0.2,0,0.2,0,0.3C199.6,299.1,199.6,298.7,199.6,298.6z"/>
			<path d="M199.5,235.5c0,0.3,0,0.5,0,1c0,0,0-0.3-0.1-0.3c0-0.2,0-0.4,0-0.6C199.5,235.5,199.5,235.5,199.5,235.5z"/>
			<path d="M199.5,246C199.3,245.1,199.6,245,199.5,246L199.5,246z"/>
			<path d="M199.5,236.8c0,0,0,0.4,0,0.6C199.5,237.4,199.5,237,199.5,236.8z"/>
			<path d="M199.5,244.1c0,0,0,0.4,0,0.6C199.5,244.7,199.5,244.4,199.5,244.1z"/>
			<path d="M199.4,362.6c0-0.2,0,0.2,0,0.3C199.4,363.1,199.4,362.7,199.4,362.6z"/>
			<path d="M199.3,207.8c0-0.2,0,0.2,0,0.3C199.3,208.3,199.3,207.9,199.3,207.8z"/>
			<path d="M199.3,209.4c0-0.2,0,0.2,0,0.3C199.3,209.9,199.3,209.5,199.3,209.4z"/>
			<path d="M198.7,143.1c0.1,0.3,0,1.1,0,1.6c0-0.1,0-0.5-0.1-0.6C198.5,143.5,198.7,144,198.7,143.1z"/>
			<path d="M198.7,146c0-0.2,0,0.2,0,0.3C198.7,146.5,198.6,146.1,198.7,146z"/>
			<path d="M198.7,148.2c0,0.5,0,1-0.2,1C198.6,148.7,198.6,148,198.7,148.2z"/>
			<path d="M198.6,164.8c0,0,0,0.4,0,0.6C198.6,165.4,198.6,165,198.6,164.8z"/>
			<path d="M198.5,145c0,0.1,0,0.6,0,0.6C198.4,145.4,198.4,145.1,198.5,145z"/>
			<path d="M198.5,147.3c0,0,0,0.6,0,1C198.5,148.2,198.5,147.6,198.5,147.3z"/>
			<path d="M198.2,159.4c0-0.2,0,0.2,0,0.3C198.2,159.9,198.2,159.5,198.2,159.4z"/>
			<path d="M198.2,141.2c0,0,0,0.3,0,0.3C198.1,141.5,198.1,141.2,198.2,141.2z"/>
			<path d="M198.1,121.5c0,1-0.2,0-0.1-1C198.1,120.6,198,121.6,198.1,121.5z"/>
			<path d="M198.1,126.9c0,0.4-0.1,0.2-0.1,0.6C197.9,127.4,198,126.5,198.1,126.9z"/>
			<path d="M198,109.7c0,1.2-0.2,0.2-0.1-1C198,108.6,197.9,110.2,198,109.7z"/>
			<path d="M198,119c0,0,0,0.1,0,0.3c0,0.2,0,0.4,0,0.6c0,0-0.1,0-0.1,0C197.9,119.5,198,119.4,198,119z"/>
			<path d="M197.8,94.4c0,0,0.1,0.9,0.1,1.6c0-0.3-0.1-0.3-0.2-0.6c0-0.4,0-0.9,0-1.3c0,0,0.1,0,0.2,0
				C197.9,94.4,197.9,94.4,197.8,94.4z"/>
			<path d="M197.8,101.1c0,0,0,0.4,0,0.6C197.8,101.8,197.8,101.3,197.8,101.1z"/>
			<path d="M197.6,195.7c0,0.8-0.1,0.8-0.2,1C197.4,195.5,197.6,195.2,197.6,195.7z"/>
			<path d="M197.4,25.3c-0.1,1.5,0.1,5.4-0.1,6.4c-0.1-0.8-0.1-2.1,0-3.2c0-1.6,0-1.5,0-2.9C197.3,25.4,197.3,25.3,197.4,25.3z"/>
			<path d="M197.8,59.1c0.1,0.3,0,0.2,0,0.6c0,0.3,0,0.3,0,0.6c0,1,0.1,3.1,0.1,4.1c0,0.5,0,0.6-0.1,0.6c0.1,1.1,0,2.7,0,4.1
				c0,0.3,0,0.3,0.1,0.3c0,0.7,0,0.7-0.1,0.3c0,0.6,0.1,0.5,0.1,0.6c0,0,0,1.5,0,1.9c0,2.5,0,5,0,8c-0.1-0.5-0.2-0.6-0.2-1.6
				c0-0.6,0-0.7,0-1.3c0-2.5,0-6.1-0.1-8.3c0-0.5,0-0.6,0-1c0-0.2-0.1-0.6-0.1-0.6c0-0.5,0-0.5,0-1c0-1.9-0.1-4.3-0.1-6.1
				c0-1.8,0-4.6,0-6.4c0-1.2,0.1-1.3,0-2.2c0.1-1,0-2.2,0.1-3.2c0-1-0.1-2-0.1-2.9c0.1-2.8,0-5.9,0-8.9c0-0.7,0-1.4,0-2.2
				c0-0.5,0-0.5,0-1c0-1.2,0-2,0-3.2c0-1.4,0-2.8,0-4.1c0-0.6,0-0.7,0-1.3s0.1-1.2,0.1-1.9c0-0.6,0-1.3,0-1.9c0-1.5,0.1-2.8,0.1-4.8
				c0-0.3,0-1.3,0-1.3c0-0.6,0.1-1.1,0.1-1.6c0-0.6,0-1.1,0-1.6c0.1,0,0.1-0.4,0.2,0c0.1-0.1,0.1-0.8,0.1-1.3c0-0.3,0.1-0.6,0.1-1
				c0-0.3,0-0.9,0-1.3c0-0.5,0.1-0.4,0.2-1c0-0.2,0-0.8,0-1c0-0.1,0.1-0.2,0.1-0.3c0-0.3,0.1-0.8,0.2-1.3c0-0.3,0.1-0.4,0.1-0.6
				c0-0.5,0.2-0.7,0.3-1c0-0.1,0,0.4,0.1,0.4c0.1,0,0.2-0.5,0.3-0.6c0.2-0.2,0.3,0.2,0.5-0.6c0.2,0.8,0.4,0.2,0.6,1
				c0.2-2,0.5-1.1,0.7-3.2c0.1,0,0.2-0.2,0.2,0.3c0.2-1.4,0.4-0.8,0.6-0.6c0,1,0.1,1.7,0.1,2.9c0,0.7,0,1.3-0.1,1.9
				c0,0.8,0.1,1,0,1.9c0,0.6-0.1,0.7-0.1,1.3c0,0.3,0,0.7,0,1c0,0.2-0.1,0.2-0.1,0.3c0,0.5,0,0.9,0,1.3c0,0.7-0.1,0.9-0.1,2.2
				c0,1.5,0,3.2-0.1,5.7c0,0.6-0.1,1.1-0.1,1.6c0,0.6,0,1.3,0,1.9c0,1,0,4-0.1,5.4c0,1.5,0,4.2,0,5.4c0,0.8-0.1,3.8-0.1,5.4
				c0,0.3,0,0.5,0,1c0,0.7,0,1.5,0,2.2c0,0.5,0,0.5,0,1c0,2.4,0,4.7,0,7c0,0.5,0,0.8,0.1,1c-0.1,0.3,0,0.7,0,2.2c0,0.9,0,0.7,0,1.6
				c0,0.5,0,1.4,0,1.9c0,0.3,0,0.3,0,0.6c0,0.8,0.1,2.1,0,3.2c0.1,2.9,0.1,5.8,0.1,8.6c0,2,0,5.5,0,8c0,0.5,0,0.5,0,1
				c0,0.5,0,1.2,0,1.3c0,0.9,0,1.7,0,2.5c0,1.7,0.1,3.4,0,5.1c0,1.5,0,4.3,0,6.7c0,0.9,0,0.7,0,1.6c0,1.2-0.1,2.7,0,3.2
				c-0.1,0.2,0,1.5,0,3.2c0,0.2,0,0.7,0,0.6c0,1,0.1,2.1,0.1,3.2c0,3.6,0,7.9,0.1,11.2c0,1.3,0,3.3,0,4.1c0,2.1,0.1,4.9,0.1,8
				c0,0.5,0,0.6,0,1c0,1,0.1,2,0.1,2.9c0,2,0,4.1,0,6.1c0,0.5,0,0.6,0,1c0,0.7,0,1.4,0,2.2c0,1.2,0,2.3,0,3.5c0,0.8,0.1,1.7,0.1,2.5
				c0,0.7,0,0.8,0,1.3c0,1.4,0.1,3,0.1,4.1c0,0.6-0.1,0.8-0.1,1.3c0,0.1,0.1,1.8,0.1,1.9c0,0.2-0.1,1,0,1.3c-0.1,0.5,0,1.7,0,2.2
				c0,0.3,0,0.3,0,0.6c0,0.5,0,0.8,0.1,1.3c0,2.2,0,5.4,0,7.3c0,0.5,0.1,0.9,0.1,1.3c0,0.5,0,0.5,0,1c0,0.6,0,1.2,0,1.3
				c0,0.3,0,0.3,0,0.6c0,3.5,0,7.4,0.1,10.5c0,0.5,0,0.5,0,1c0,0.4,0.1,0.7,0.1,1c0,0.5,0,0.5,0,0.6c0,0.7,0.1,2.4,0,3.5
				c0.2,2.9,0,8.8,0.2,12.7c0,0.5,0,1.3-0.1,1.6c0.1,0.5,0.1,4.7,0.1,6.4c0,1.6-0.1,2.9,0,4.5c0,0.3,0.1,1,0.1,1.3
				c0,0.6,0,1.5,0,2.2c0,0.9,0.1,3.4,0.1,5.1c0,1.4,0,2.8,0,4.5c0,0.5,0.1,2.1,0,2.9c0,1.2,0.1,2.8,0.1,3.8c0,0.9,0,1.7,0,2.5
				c0,0.9,0.1,1.7,0.1,2.5c0,1.3,0,2.5,0,3.8c0,0.3,0,0.6,0.1,0.6c-0.2,2.4,0.1,5.7,0,8c0,0.3,0.1,0.2,0.1,0.3c0,0.5,0,1.6,0,2.5
				c0,2.9,0,6.6,0,9.2c0,0.6,0.1,1.7,0,1.6c0.2,1.1,0,4.3,0.1,7c0,0-0.1,0-0.1,0c0,0.6,0.1,0.2,0.2,0.6c-0.1,1,0.1,3-0.1,3.8
				c0.2,0.5,0,2.3,0,3.8c0,0.4,0.1,0.9,0.1,1c0,0.4-0.1,0.5-0.1,1c0,0.9,0.1,2.1,0.1,3.2c0,0.4-0.1,0.4-0.1,0.6c0,0.5,0,0.5,0,0.6
				c0,0.2,0,0.5,0,1c0,0.7,0,1,0,1.6c0,0.6,0.1,1.1,0.1,1.6c0,0.5,0,1.1,0,1.6c0,0.5,0,0.5,0,1c0,1.7-0.1,3.4-0.1,5.1
				c0,0.5,0,0.5,0,1c0,0.3,0,0.7,0,0.6c0,0.2,0.1,0.6,0.1,0.6c0,0.2,0,0.4,0,0.6c0,0.4,0,0.5,0,0.6c0,1.1,0,2.4,0,3.5
				c0,0.4,0,1.2,0,1.6c0,1.3-0.2,2.9,0,4.1c-0.1,6.4,0,14-0.1,19.1c0,0.3,0,0.2,0.1,0.3c0,1.8-0.1,3.8,0,5.1c0,1.2,0,2.9-0.1,4.5
				c0,1.5,0.1,2.6,0,3.5c0,0.4,0.1,0.2,0.1,0.6c0,0.7,0,1-0.1,1c0.1,2.7,0,6.3,0,10.8c0,1.6,0,3.5,0,5.1c0,0.1-0.1,0.9-0.1,1
				c0,1.5,0,2.7,0,4.1c0,0.7,0,0.8,0,1.3s-0.1,1.2-0.1,1.6c0,1.5,0.1,4.2,0,3.5c0,0.7,0.1,0.5,0.1,1c0,1.3-0.1,2.2-0.2,2.9
				c0,1,0.1,1.2,0.1,2.2c0,0.5,0,1,0,1.6c0,0.5,0,0.5,0,1c0,0.6-0.1,0.7-0.1,1c0,0.5,0,1.4,0,1.9c0,1.5-0.1,3.4-0.1,4.8
				c0,0.6,0,0.9,0,1.3s0,0.6-0.1,1.3c0,0.4,0,0.9,0,1.3c0,0.3-0.1,0.2-0.1,0.6c0,1.5,0,4-0.2,4.5c0,0.3,0,0.6,0,1
				c-0.1,0-0.2,0.6-0.4,0.6l-0.1-0.6c0,0-0.2,0.4-0.3-0.3c0-0.1,0-0.5,0-0.6c0-0.4-0.1-0.1,0-0.3c0-0.3,0-0.3,0-0.6
				c-0.1,0-0.1,0.4-0.2,0.3c0,0.6,0,0.7,0,1.3c-0.1,0.2,0-0.5,0-0.3c-0.1-1.1-0.2-0.7,0-1.6c0-0.8-0.1,0.5-0.2,0c0-0.4,0.2-1,0-1.3
				c0-0.5,0,0.1,0.1,0c0.1-0.6,0.1-1.3,0.1-2.5c0-0.6-0.2-0.1-0.2-1c0-0.7,0.2-1.1,0-1.3c0-0.7,0.2-0.2,0.2,0.3
				c0-0.4,0.1-1.1,0.1-1.9c-0.1-0.1,0,1.9-0.1,0.3c0-1.2,0-0.8,0-1.9c0-0.9-0.1-1.7,0-2.2c0.1-0.6,0.1-0.7,0.2-1.9
				c0,0.1,0,0.5,0.1,0.6c0-0.5-0.1-2.5-0.2-1.9c-0.1-0.1,0-0.5,0-1c0-1,0-1.6,0.1-2.2c0-0.4-0.1,0.3-0.2-0.6c0-0.5,0-0.6,0.1-0.6
				c0-1-0.1-1.1-0.1-2.2c0.1,0,0.1-0.5,0.2-1c0-0.6-0.1-0.5-0.1-0.6c0,0.1,0-1.5,0-1.9c0-0.3,0.1-0.8,0.1-1c0-0.9-0.1-0.7,0-1.3
				c-0.1-1.8,0-2.1,0-4.1c0.1,1.4,0.2-0.3,0.4,0c0-0.7-0.2-0.5-0.3-1c0-0.9,0-0.8,0-1.6c0,0.1,0.1,0.5,0,0.6c0,0.5,0.1,0.9,0.2,1.3
				c0.1-0.1,0.2-0.7,0.1-1.6c-0.1,0-0.1,0.7-0.2,1c-0.1-0.6,0-1.7-0.1-2.2c0,1-0.1,0.3-0.2-0.6c0-0.8,0.2-1.1,0-1.6
				c0.1-0.2,0-0.3,0-1.3c0.1,0,0.1,0.5,0.2,0.6c0-0.8,0-1-0.2-1c0-0.2,0.1-1.5,0-1.3c0.1-1.5,0.1-1.3,0-2.5c0-0.1,0.3-1.5,0.3,0
				c0-0.6,0-1.7,0.2-1.9c0-0.7-0.2-0.1-0.2-0.6c0.1-0.3,0.1-1,0.1-1.6c-0.1-0.1,0,1.2-0.2,1c0,0.9,0,0.8,0,1.6
				c-0.1-0.1-0.1,0.2-0.1,0.3c0,0.8-0.2-0.1-0.2-1.3c0.1,0.6,0,0.2,0.1-0.6c0-0.2,0.1,0,0.1-0.6c0-0.7-0.1-0.5-0.2-0.3
				c0-0.9,0.2-0.9,0.3-1.6c0-0.8-0.1,0.5-0.2,0c0-0.4,0-0.9,0-1.6c0.1,0.8,0.2-0.3,0.3,0.3c0-2.1,0-3.3,0-4.5c0-0.7,0,0.4-0.1-0.3
				c-0.1-1.5,0-2-0.1-3.5c0,0.3-0.1,0.2-0.1,0.6c-0.1-0.5,0-2.4,0.1-2.9c0-1.2,0-1.9,0.1-2.4c0.1,0.2,0,0.6,0,1
				c0.2-0.5,0.1-1.2,0.2-2.2c-0.1-0.1-0.1,0.6-0.2,0.3c0-0.8,0.1-1,0.2-0.6c0-1.4-0.3-2.6-0.3-1.3c-0.1-0.2-0.1-1.8,0-1.9
				c0-0.3-0.1-0.3-0.1-1c0,0,0-0.4,0-0.6c0.1,0.2,0.2,0.6,0.2-0.6c0,0,0,0.6,0,1c0,0,0.1,0,0.2,0c0-0.4,0-1.2-0.1-1.6
				c-0.2-0.5-0.2,1-0.3,0.3c0-1.5,0.2-1.6,0.3-1.3c0-0.8,0.1-3.9-0.1-3.8c0-0.6,0.2-0.1,0.2-1c0-0.6-0.3-0.3-0.3,0
				c0.1,0.5,0.1,0.2,0.1,1c0,1-0.2,0.2,0,1.3c0.1,0.9,0,0,0,1c0,0.5,0,0.6,0.1,0.6c0,0.7-0.1-0.2-0.2,0.3c0.1-0.6,0-0.9,0-1.3
				c0-0.5,0-1.7,0-2.2c0-0.8,0-1.1,0-2.2c0-1.4,0-2.4,0-3.5c0.1,0.2,0.1-0.5,0.2-0.3c-0.1,0.5-0.1,2.4,0.1,2.9c0,0.7-0.1,0.5-0.1,1
				c0,0.8,0,1,0.2,1c0-0.6-0.1-0.5-0.1-0.6c0-0.3,0.1-0.6,0.1-1c0-0.8,0-1.7,0-1.9c-0.1-0.3,0-2-0.1-2.2c0.1-0.1,0-2.5,0.2-2.5
				c0-0.5,0-1.6-0.1-1.9c0.1-0.5,0-1.9,0-2.9c0-0.5,0-0.6-0.1-0.6c0-0.4,0.2-1.6,0.1-1c-0.1-0.4,0-1.2,0-1.9c0-0.5,0.1-0.8,0.1-1
				c0-0.5,0-0.7,0-1.3c0-0.1,0-0.5,0-1c0-0.4-0.1-0.9-0.1-1.3c0-1,0-1.5,0-2.9c0-0.3,0-1,0-1c0-0.2,0.1-0.7,0.1-0.6
				c0-0.4-0.1-0.5-0.1-1c0-1.3,0.1-2.9-0.1-3.8c0.1-0.5,0.1-2.2,0.2-2.5c0-0.4-0.1-0.3-0.2-0.3c0.1-0.6,0-2.3,0-2.5h0.1
				c0-0.4-0.1-0.5-0.1-1c0-0.6,0.1-1,0-1c0-0.4,0.1-0.6,0.2-1c0-0.4,0-0.9,0-1.6c-0.2-0.5,0-1.7-0.2-2.2c0.1-0.5,0.2-2.2,0-2.5
				c0-0.7,0-0.6,0.1-0.6c0-0.4-0.1-0.5-0.1-1c0-0.5,0-1.6,0-2.2c0-2.1-0.1-4.9,0-7.6c-0.1-0.3,0-2-0.1-2.5c0-0.4,0-0.6,0.1-0.6
				c0-0.7-0.1-1.1-0.2-1.3c0-0.4,0-0.1,0.1-0.3c0-0.1,0-0.4,0-0.6c0-0.1,0.1-0.3,0.1-0.3c0-0.6-0.1-1.4,0-2.2c0-0.5-0.1-0.7-0.2-0.6
				c-0.1-0.3,0.1-0.4,0.1-0.3c0-3.8,0-6,0-8.9c0-0.8,0-1.5-0.1-1.9c0.1-0.2,0-0.9,0-1.6c0-1.4,0-3.1,0-4.1c0.1-1.2,0.1-3.7,0-4.8
				c0-0.8,0-1.5,0-1.9c0-0.9-0.2-0.6-0.3-0.6c-0.1-1.1,0.1-2.4,0-1.6c0,1,0,1.4,0.2,1.3c0-0.1,0.1-0.6,0.1-0.6
				c0-0.6-0.1-0.4-0.1-0.6c0-0.1,0-0.8,0.1-0.6c0-0.4-0.2-0.8-0.3,0.3c-0.1-1.6-0.1-2.7,0-5.1c-0.1,0.1-0.1-0.9,0-1.9
				c0,0,0,0.4,0,0.6c-0.1-1.1-0.1-2-0.1-3.2c0.1,0,0.1-0.5,0.2-0.6c0-1-0.1,0.5-0.2-0.3c0-1.3,0.1,0.3,0.1-1c0-0.4,0-0.2,0,0
				c0-0.5-0.1-2,0-2.9c0.1,1,0.2,0.2,0.4,0.3c0-0.7,0-0.6-0.1-0.6c0.1-1.5,0.1-2.9,0-4.1c0.2,1.5,0-0.5,0.1-1c-0.1-1-0.3-1-0.5-0.6
				c0-1.3,0.1-1,0-2.2c0-0.2,0-0.3,0.1-0.3c0-0.5-0.1-1-0.2-0.3c-0.1-0.6,0.1-1,0.2-1.3c0-0.4-0.1-0.3-0.1,0c0-0.4,0-1.6-0.1-2.5
				c0,0.4,0.1,0.4,0.2,0c0-1.1-0.2-0.5-0.1-1.9c0,0-0.1-0.6-0.2-1.3c0-0.3,0.1-0.3,0.1-1c0-0.8-0.1-0.8-0.1-1.3c0-1.2,0-1.1,0-1.9
				c0-1,0-1.6,0.1-2.2c0-0.3-0.1-0.3-0.1-1c0.1-0.2,0.2,0.4,0.2-0.3c0-0.1-0.1-0.2-0.2-0.6c0-0.5,0-0.8,0.1-1.3
				c-0.1-1.3,0-2.2-0.1-3.5c0.1-0.1,0.1,0,0.2,0.3c0.1-0.5,0-0.7,0.1-0.3c0-2.1-0.4,0.6-0.4-1.9c0,0.2,0,0.3,0.1,0.3
				c-0.1-1.2,0-1.8,0-2.9c0.1,0.9,0-0.7,0.2-0.3c0,0.7-0.1,0.5-0.1,1c0.1,1.5,0.2-0.3,0.4-0.3c0-0.6-0.1-0.2,0-1
				c0-1.1-0.1-1.1-0.2-1.3c0-0.6,0-1.1,0-0.6c-0.1-0.1,0.1-0.9,0-1c0-0.4,0.1-0.3,0.1-0.3c0-1-0.1-0.1-0.2-0.3c0-1,0-0.8-0.1-1.3
				c0-0.8,0-0.4,0.1-0.3c0-1.2-0.2-1.8,0-2.9c-0.1-0.5,0-0.4,0-1.6c0.1,0,0.1,0.4,0.2,0.3c0-1.2-0.2,0-0.1-1.3
				c0.1,0.3,0.1,0.5,0.2,0.6c0-0.1,0.1-0.6,0.1-1c0-0.5,0-0.5,0-0.6c0-0.2,0.1-0.6,0.1-0.6c0-0.4-0.1-1-0.1-1.3
				c0.1-1.2-0.1-3.5,0-4.8c0-1.1-0.1-0.4-0.2-0.6c-0.1-0.2-0.1-1.4-0.2-1c0.1-0.5,0-3.3,0.2-3.5c-0.1-0.6-0.1-1.5-0.1-2.9
				c-0.2-1.3,0-5.2-0.1-6.7c0.1-0.2,0.1-1.2,0.2-1.6c0,0,0,0.6,0,1c0.2-1.1-0.1-1.2,0-2.9c0-0.8-0.1,0.5-0.2,0
				c0,0.4,0.1,0.8,0.1,0.3c0.1,0.3,0,1.1,0,1.6c-0.1,0-0.1-2.2-0.2-1.3c-0.1-0.8,0.1-2.9,0-3.8c0-0.5,0.1,0.3,0.1-0.3
				c0-1-0.1-0.5-0.2-1.3c0-0.8,0-1,0.1-1.3c0-0.9,0-1.3,0-2.2c-0.2-2.1-0.1-4.2-0.1-7.6c0,0.2,0.1,0.4,0.2,0.3
				c-0.1-0.7-0.2-1.5-0.1-2.2c0-0.5,0,0.1-0.1,0c0.1-1.3,0-2.3-0.1-3.5c0-0.4,0.1-0.2,0.1-0.6c0-1.4-0.1-3.7-0.1-5.4
				c0-0.5,0-0.6,0.1-0.6c0,0-0.1-1.4,0-0.6c0-0.4,0-0.8-0.1-1.6c0-1,0-1.9,0-2.9c0-0.3,0-0.2-0.1-0.3c0-1.3,0-4,0-4.8
				c0-0.6-0.1-0.2,0-1c-0.2-0.4-0.2,2.3-0.1,2.5c0,0.5-0.1,0.6-0.1,0.6c0,1.3,0.1,2.1,0,3.2c0.1,0.1,0.1-0.2,0.1-0.6
				c0.1,0.2,0,1.4,0,1.9c0,0.4,0.1,1.1,0,1.3c0.2,0.9,0,1.9,0.1,3.5c-0.1-0.3-0.1,1-0.2,0c0,0.3,0,0.7-0.1,1.3c0.1,0,0,2.4,0.2,1.9
				c0,1.5-0.2,1.5-0.2,2.5c0,0.6,0,1.6,0,1.3c0,0.6,0.1-0.5,0.1,0.6c0,1.2,0,0.1-0.1,0.3c0,1,0.2,0.8,0.2,2.2
				c-0.1,0.2-0.1-0.1-0.1-1c-0.1-0.2,0,0.8,0,1.3c0,0.3-0.1,0.2-0.1,0.6c0,0.3,0.1,0.7,0,1.3c0,0,0-0.4,0-0.6c0,0.9,0.3,0.4,0.2,1.6
				c-0.1-0.1-0.1-1.1-0.2,0c0,0.6,0.1-0.2,0.2,0.6c0,0.4-0.1,1.5,0,1.6c0,0.9-0.1-0.7-0.2-0.6c0,0.8,0,1.2,0.2,1.3
				c0,0.9-0.1,0.9-0.2,1.6c0,0.6,0,1,0.1,1.3c-0.1,0.8,0,1.7,0,2.9c0,0.8-0.1,2.3,0,2.2c0,1.4,0,2.3,0,3.5c0,0.8,0.1,1,0,1.9
				c0.1,0.1,0.1,0,0.1-0.6c0.1-0.8,0,1.7-0.1,1c0,1.1,0,1.5,0.1,2.5c-0.1-0.3,0,0.7,0,1.3c0,0.3-0.1,3.5,0,4.1c0,1-0.1,0.8-0.1,1.6
				c0.1,0.5,0,0.2,0,1.3c0,1,0.1,2.5,0,3.2c0,0.5,0.1,0.8,0.1,1.3c0,2.6,0,4.9,0,7c0,1.1,0,2.3,0,3.2c0,0.5,0,1.3-0.1,1.6
				c0.1,0.2,0,0.8,0,1.6c0,0.9,0.1,1.1,0,1.9c0.1,1,0.1,2.2,0,3.5c0,0.4,0.1,0.5,0.1,1c0,0.7,0,2,0,2.5c0,0.5,0,0.6,0,1
				c0,1.5,0.1,3,0.1,4.5c0,0.5,0,0.5,0,1c0,0.6,0,0.7,0,1.3c0,0-0.1,0-0.1,0c0,0.2,0.1,2.7,0,3.2c0.1,0,0.2,2.5,0,2.2
				c0.2,0.5,0.2,1.9,0.2,3.2c0,0.7,0,0.6-0.1,1c0,0.5,0,0.5,0,0.6c0,0.6-0.1,0.9-0.1,1.3c0,0.5,0-0.1,0.1,0c0,1-0.2,3.5,0,3.2
				c0,1.2-0.1,3.6-0.1,4.5c0,0.8,0.1,1.5,0.1,2.2c0,0.9,0,1.7,0,2.5c0,1.1,0,2.1,0,3.2c0,1.1,0,2.4,0,3.8c0,0.4,0,0.1-0.1,0
				c0,0.4,0,0.5,0,1s0.1,0.1,0.1,0.6c0,0.7-0.1,0.5-0.1,1c0.1,0.4,0,0.8,0,2.9c0,0.3,0,0.3,0,0.6c0,0.5,0,0.6,0,1
				c0,0.8,0.1,1.6,0.1,2.2c0,0.6,0,0.7,0,1.3c0,0.8,0,1.6,0,2.5c0,1.9,0.1,3.8,0,4.1c0.2-0.1,0.1,2.2,0.2,2.9c0,0.6-0.1,0.9-0.1,1.3
				c0,0.8,0.1,1.3,0,1.9c0,0.5,0.1,0.7,0.1,1.3c0,0.9,0,1.8,0,2.5c0,0.6,0.1,1.2,0.1,1.9c0,0.2,0,0.4,0,0.6c0,0.4,0,0.6,0,0.6
				c0,1-0.1,1.8,0,2.9c-0.1,0-0.1,0.2-0.2,0.6c0,0.4,0.1,0.3,0.2,0.3c0,1.3,0.1,3.7,0,5.1c0.1,0.9,0,1.7,0.1,3.5
				c0-0.2,0-0.3-0.1-0.3c0.1,0.3,0.1,1,0.2,1.3c-0.1,1.7,0.1,4.2-0.2,4.1c0,0.6,0.1,0,0.2,0.3c0,0.5-0.2,1.1,0.1,1.3
				c-0.1,2.1,0.1,3.8,0,5.4c0,0.2,0,1.2-0.1,1c0.1,0.9,0.1,1.1,0.1,2.9c0,1.8,0.1,3-0.1,4.1c0,0.5,0,0.8,0.1,1c-0.2,0.5,0.1,1-0.2,1
				c0.1,0.3,0.1,0.9,0.2,1.3c0,1-0.1-0.5-0.2,0.3c0,0.7,0.1,0.7,0.2,0.6c0,0.4,0,1.5-0.1,1.9c-0.1-0.5-0.1,0.1-0.2,0.6
				c0,0.3,0.2,0.2,0.2,1.3c0,0.2,0,0.5,0,1c0-0.2-0.1-0.4-0.1,0.3c0,0.9,0.1-0.5,0.2,0.3c0,0.3,0,0.2-0.1,0.3c0,1.6,0.1,3.9,0,4.1
				c0,0.6,0.1,1.2,0.1,1.9c-0.1-0.9-0.2,0.1-0.3,0.3c0-0.4,0-0.6,0-0.6c0-0.4,0.1-0.5,0.1-1c0-0.7-0.1-0.7-0.2-0.6
				c0,0.3,0,1-0.1,1.6c0,0,0-0.4,0-0.6c0.1,0.1,0,1.4,0,1.6c0.1,0,0.3,0.5,0.5,0c-0.1,1.3,0.1,3-0.1,3.8c0,0.4,0.1,0.3,0.1,0.3
				c-0.1,1.2,0,2.3,0,3.2c0,0.5-0.1,0.8-0.1,1c0,0.2,0.1,0.7,0.1,0.6c0,0.8-0.1,1.1-0.1,1.9c0.1,0.3,0,1.4,0.1,1.3
				c-0.1,1.5-0.1,2.5,0,3.8c0,0.1,0,1-0.1,1c0.1,1.1,0,2.4,0.1,3.5c0,0.5-0.1,0.8-0.2,1.3c0,1,0.1-0.4,0.1-0.6c0,0.5,0,1.2,0,1.9
				c-0.1-0.2,0-1-0.1-0.3c0,0.6,0.1,1.9,0,2.2c0,0.8,0.2-0.2,0.1,1c-0.2-0.7,0,0.7,0,1.3c0,0,0,0-0.1,0c0,1.8,0,1.7,0,3.5
				c0,0,0-0.5-0.1-0.3c0,0.1,0,0.9,0,1c0-0.1-0.2-0.3-0.1,1c0,0,0-0.6,0-1c0,0.2-0.1,0.4-0.1,0c-0.1,0,0,1.1,0,1.6
				c0.1-0.9,0.1,1,0.2-0.3c0.1,1.1,0.3,2.5,0.2,4.1c-0.1,0-0.2,0.9-0.2,1.6c0,0.5,0-0.1,0.2,0.3c0,2,0.1,4.4,0,6.4
				c0,0.1-0.1,0-0.1,0c0,0.9,0.2,1.5,0,1.9c0,0.3,0,0.2,0.1,0.3c0,0.2,0,1-0.2,1c0,1.1,0.1,1.4,0.1,1.9c0,0.2-0.1,1.6,0.1,1.3
				c-0.1,0.6,0,2-0.2,2.2c0,0.9,0.1,1.8,0.1,2.5c0,0.5,0,0.5,0,1c0,0.1,0,0.3,0,0.6c0,0.1-0.1,0.5-0.1,0.6c0,0.6,0.1,1.7,0,1.6
				c0.1,0.3,0,1.8,0.1,2.9c0,0.2,0,0.7-0.1,0.6c0,0.6,0.1,0.5,0.1,0.6c0,0.1,0,0.5,0,0.6c0,0.3,0.1,0.8,0.1,1c0,0.3,0,1.8,0,2.2
				c0,0.3-0.1,0.5-0.1,0.6c0,0.1,0.1,0.8,0,1c0,0-0.1,0-0.1,0c0,0.4,0.1,0.7,0,1.6c0.1,1.1,0.2,2.5,0,3.5c0-0.1,0-0.6-0.1-0.6
				c0,0.1,0,0.8,0,1.3c0,0.4,0.1,0.6,0.2,0.6c-0.1,0.6-0.1,1.8-0.2,2.5c0.1,0.5,0,1.6,0.1,1.6c0,2.2,0,2.5,0,5.1
				c-0.2,0.3-0.2,1.9,0,2.5c0,0.2-0.1,1.2,0,1.3c-0.1,1.1-0.2,2.2-0.1,3.8c-0.1-0.2-0.1,0.6-0.2,0c0,0.8,0.1,0.7,0,1.6
				c-0.1,0.3-0.1,0.5-0.2,0.6c0-1.5-0.3-1.5-0.4-2.5c-0.1,1.2-0.5-0.3-0.6,0.3c-0.1-0.6-0.1-1.5-0.2-1.9c0.1-0.5,0-1.4,0-2.2
				c0-1.5,0-3.3,0.1-4.8c0-1-0.1-1.1,0-2.2c0.1-0.5,0,0,0.2,0c0-1-0.1-3.2-0.1-4.1c0-0.3,0-0.2,0.1-0.3c0-0.6-0.1-0.8-0.1-1
				c0-0.5,0.1-1.1,0.1-2.5c0.1,0.2,0.1-0.1,0.1-1c-0.1-0.1-0.1,0.2-0.1,0.6c-0.1,0.1,0-1.7-0.1-1.6c0-0.6,0.1,0.5,0.2-0.3
				c0-1-0.1-1.7-0.1-2.9c0.2,0.2,0-1.1,0-1.3c0-0.3,0.1-0.3,0.1-0.6c0-0.7-0.1-1.1,0-1.9c0.1,0.9,0.1-0.3,0.2-0.6c0-1,0,0.7-0.2,0.3
				c0-1.9,0-2.5,0-4.5c0,1.8,0.4-1,0.2,0.3c-0.1-0.2,0-0.6,0-1c0-0.6-0.1-0.3-0.1-1.3c0,0.2,0,0.3,0.1,0.3c0-1.2-0.1-0.5-0.1-1.6
				c0.1,0.6,0.1-0.4,0.2-0.6c0-0.4-0.1-0.4-0.1,0c0-0.3,0-1-0.1-1.6c0.1-0.2,0,0.6,0.1,0.6c0.1-1,0-1.1,0-2.5c0,0.2-0.1,0.7-0.1,1.3
				c-0.1,0.3,0-1.8-0.1-0.6c-0.1-0.4,0-1,0.1-1c0-0.3,0-0.5,0-1c-0.1,0-0.1,0.4-0.2,0.3c0-0.9,0.2-1.3,0.2-1.9
				c0-0.2,0.1-0.6,0.2-0.6c0-0.4,0-1.7-0.2-1.3c0-0.5,0-0.8,0.1-1c0-0.7-0.1-0.5-0.2-0.3c0-0.6,0.1-0.3,0.1-1.3c0-0.8-0.1,0-0.1,0.3
				c-0.1-0.7,0.1-2.2,0.2-1.3c0-1.2-0.1-1.7,0-2.2c0,0-0.1-0.1-0.1-0.3c-0.1,0,0,1.1,0,1.6c-0.1-0.1,0-1.5,0-2.2
				c0-0.8-0.2,0.2-0.1-1c0.1,0.6,0.2-0.5,0.3-0.6c0-1.1-0.1-0.6-0.2-1c0-1,0.1-0.3,0.2-0.6c0-1.3-0.1-0.6-0.1-1.9c0.1,1.3,0-0.3,0-1
				c0,0.2-0.1,1,0,1.3c0,0.8-0.1-0.4-0.2-0.3c0-0.5,0-1.8,0.2-1.6c0-0.3,0-0.6,0-0.6c0-0.4-0.1-0.6-0.2-1c0-2.2,0.2-3,0.3-4.8
				c0-0.9-0.1-1.5-0.3-1.6c0-0.7,0-1.5,0-2.2c0.1,0.2,0-1.9,0.2-1.6c0-0.3-0.1-0.8-0.1-0.6c0-0.5,0.1-0.6,0.2-1
				c0-0.9-0.1-0.5-0.2-1.6c0-0.8,0.1,0.6,0.2,0.3c0-1.5-0.1-0.7-0.2-1.3c0-0.6,0.1-1.1,0.2-1.6c0-0.6-0.1,0.8-0.2,0
				c0.1-0.5,0.1-1.9,0-2.9c0.1-0.5,0.2,0.5,0.2-0.6c0-0.5,0,0,0,0c-0.1-0.5,0-1.1-0.1-1.6c0-0.8,0.1,0.5,0.2,0c0-0.5-0.1-1-0.2-1.3
				c0.1-0.4,0.1-1,0-1.9c0,0.2,0,0.3-0.1,0.3c0-0.5,0-1.6,0-1.6c0-0.6,0,0.2,0.1,0c0-0.1,0-0.8,0-1c0-0.3,0.2-0.3,0.2-1.3
				c-0.1,0-0.1-1.4,0-1.3c0-1.4-0.2,0.1-0.2-1.3c0,0,0,0.1,0,0.3c0-0.1,0-0.6,0-0.6c0-0.7,0.1-0.6,0.2-0.6c0,0-0.1-1,0.1-0.6
				c0-1.1-0.1-1.4-0.1-1.9c0-0.8,0.1-1,0-1.3c0.1-1.1,0-3,0.2-3.8c0-0.9-0.2-1.3,0-1.9c0-0.5-0.1-0.8-0.1-1.9c0,0.1-0.1,0.5,0,0.6
				c0,0.5,0-0.1-0.2,0.3c0.1-1.3-0.1-0.9,0-1.9c0,0.1,0,1,0.1,1c0.1-0.1-0.1-1.2,0-1.3c0-0.4-0.1-0.3-0.2-0.3c0-1.6,0-2.3,0.1-2.9
				c-0.1,0,0-0.6,0-2.2c0.1-0.6,0.1,0.2,0.2,0c0-0.7-0.2-3,0-2.2c-0.1-0.7,0-1.2-0.1-1.9c0-1,0,0.7-0.2,0.3c0-1.2,0.1-1.3,0.2-1.6
				c0-2.2,0-3,0.1-5.1c0-0.3-0.2-0.3-0.3-0.6c0-0.4,0.1-1.1,0.1-0.3c0-0.2,0-0.7,0.1-0.6c0-1.2,0-3,0-4.5c0-0.3,0-0.2-0.1-0.3
				c0-0.7,0.1-1,0-1.9c-0.1-0.9-0.2-1.8-0.3-2.9c0.1-1.1,0-1.5,0-2.5c0,0,0.1,0,0.1,0c0-0.6-0.1-0.6-0.1-1.3c0-2,0.1-3.8,0.1-5.4
				c0,0,0,0,0.1,0c0-1-0.1,0.3-0.2,0c0-0.8-0.1-0.7,0-1.6c0.1,0.7,0.1-0.6,0.2,0c0-1.6-0.2-0.9-0.2-2.2c0-0.5,0.1,0,0.1,0
				c0-0.1-0.1-0.8-0.1-0.6c0-0.5,0.1-0.2,0.2-0.6c0.1-0.6,0-1.1,0.1-1.9c0-0.5-0.1-0.5-0.1-0.6c0-0.2,0.2-1.1,0-1.6
				c0-0.3,0-0.2,0.1-0.3c-0.1-0.5,0-2.5,0-3.8c0-0.7-0.1-0.5-0.1-1.3c0.2,0.7-0.1-1.4-0.2-1c0-0.9,0.2-1.3,0-1.6
				c0-0.6,0.1-1.9,0.2-1c0,0.9-0.1,0.9,0,1.6c0.1-0.9-0.1-2.5,0.1-3.5c-0.1,0.1-0.2,0.4-0.1-0.3c0-0.4-0.1-1.5-0.2-0.6
				c-0.2-0.8,0-1.3,0-2.5c0.2,1.3,0-0.4,0.2-0.6c-0.2-0.9,0-1.6,0-3.2c-0.1,0,0,1.6-0.2,1.6c0-1.1,0-1.5,0-2.5
				c0-0.3,0.1-0.4,0.2-0.3c0-1,0-0.6,0-1.6c-0.1,0.3,0,1.4-0.2,1.3c0-0.8,0-1.5-0.1-1.6c0.1-1.7,0.1-2.7,0.1-4.8
				c0.1,0,0.1-0.5,0.2,0c0-1.3-0.1,0.1-0.2-1c0-0.5,0.1-0.1,0.1-0.6c0-0.4-0.1-0.3-0.1-0.3c0-0.5,0.1-0.1,0.1-0.6
				c-0.1-0.4-0.2-1.4-0.2-2.9c0-0.6,0.2-0.5,0.2-1c0-0.7-0.2-0.2-0.2,0.3c-0.1-1.4,0-2.5-0.1-4.8c0.1,0.3,0.1-0.5,0.2-0.3
				c0-0.7-0.1-1,0-1.9c0-0.6-0.2-0.1-0.2-1.3c0.1,0.5,0.1,0.8,0.2,0c0-0.7-0.2,0-0.2-0.6c0-0.5,0.1-0.8,0.1-1c0-1.4-0.2-3.2,0-4.1
				c-0.1-0.6,0-2.5-0.1-3.5c0.1,0,0.1-0.4,0.2-0.3c-0.1-0.4,0-0.5,0-1.3c0-0.8-0.1-1.5-0.1-2.5c0,0,0.1,0,0.2,0c0-0.6-0.1,0-0.2-0.3
				c0-0.4-0.1-5.1,0-3.2c0-0.6,0-1.4-0.1-1.3c0-0.4,0.1-1.3,0-1.9c0,0-0.1,0-0.1,0c0-0.8,0.1-0.9,0.1-1.9c0.1-0.3,0.1,0.8,0.2,1
				c0-1.7-0.2-1.5-0.3-1.9c0-1.4,0-1.6,0.1-2.5c-0.1-1.4-0.1-3.1,0.1-4.5c0-0.9-0.2,0.1-0.1,1c0-1.3-0.1-4,0-5.7
				c0-0.4-0.1-0.3-0.1-0.3c0-0.3,0.1-0.8,0.1-1c0-0.6-0.1-0.9-0.1-1.6c0,0,0-0.6,0-1c0-1.5-0.1-2.9-0.1-4.1c-0.1-0.4,0,0.6-0.1,0.6
				c-0.1,0.1-0.2-1.1-0.2-0.3c-0.1-0.3,0-0.9,0.1-1c-0.2,0.2,0-3.9-0.2-3.2c-0.1-0.4,0-1.7,0.1-1.3c0-0.4-0.1-0.8-0.1-0.3
				c-0.1-0.3,0-1.2,0.1-1.3c-0.2,0.1,0-1.9-0.2-1.9c0-0.9,0.1-0.6,0.1-1c-0.1-0.5,0-1.8,0-2.5c0-0.1,0.1,0.3,0.1,0.3
				c0-0.4,0-0.9,0-1.6c0.1-0.1,0.1-0.8,0.2-1c-0.1-0.9,0.2-3.6-0.1-4.1c0-1,0-1.4,0-2.2c0-0.7,0-1,0.1-1c0-0.4,0-0.9,0-1.6
				c-0.1,0.1-0.2,0.7-0.1,1.6c-0.1-1-0.1,0.8-0.2,0.6c0.2-0.5,0-1.5,0-1.3c0-0.5,0.1-0.5,0.1-1.3c0-0.4-0.1-0.3-0.1-0.3
				c0.1-1.8,0-2.7,0.1-4.1c0-1.1-0.1-1-0.1-1.9c0.1-0.1,0.1,0.6,0.2,0.3c-0.2-0.6,0-2,0.1-2.9c0-0.5-0.1-0.1-0.1-0.3
				c0-0.4,0.1-1.2,0-1.6c0-0.2-0.1,1-0.2,0.3c0-1.1,0.1-0.5,0.2-1.3c0-0.6-0.2-0.5-0.1,0.3c-0.1-0.3,0-1.8,0-2.2
				c0-0.2-0.1-0.4-0.1-0.3c0-0.4,0,0,0.1-0.3c0-0.5,0-2.2,0.2-2.2c-0.1-0.3,0-2.3-0.2-1.9c0.1-0.5,0.1-1.1,0.2-0.6
				c0-1.1-0.2-0.3-0.2-1c0-0.6,0-1.3,0-1.9c0.1,1.8,0.1,0,0-1.6c0-0.3-0.1-0.5-0.1-0.6c0-0.6,0-1.3-0.1-1.6c0-1,0-1,0.1-1.6
				c0-0.3,0-0.2-0.1-0.3c0.1-1.2,0-1.7,0.1-2.9c0-0.6,0-1.4-0.1-1.3c0-1,0.1-2.3-0.1-2.2c0-4.5,0-8.1-0.1-13.1c0.1-0.2,0,0.2,0-1.9
				c0-0.6,0-1.4,0-2.2c0.3-0.5,0-3.6,0.1-4.5c0-0.5-0.1-0.7-0.1-1.6c0,0,0,0.3,0.1,0.3c0-1.4,0-1.7-0.1-2.5c0.1-3-0.1-4.5,0-6.4
				c-0.1-2-0.1-4.1-0.2-6.4c0-0.8,0-1.5,0-2.2c0-0.5,0-0.5,0-1c0-1.8,0-4.6,0-7.3c0-0.4,0-0.2,0,0c-0.1-0.3,0-0.6,0-0.6
				c0-0.9,0-1.4,0-2.2c0-0.5,0-0.5,0-1c0-1.3,0-2.4,0.1-3.5c0-1.1-0.1-1.8-0.2-1.9c0,1,0,2.4,0,3.8c0,1-0.1,1.8,0,2.5
				c-0.1,0.4,0,1.7-0.2,1.9c0.1,0.2,0.1,1.3,0.2,1.9c0,0.4-0.1,0.3-0.1,0.3C197.8,59.4,197.8,59.4,197.8,59.1z"/>
			<path d="M200.8,295.4c0-1.1,0-1.8,0-2.5c-0.1-0.1-0.1-1.1-0.2-1c0,0.6,0,1-0.1,1.3c0-0.2,0-0.4-0.1-0.3c0,1.1,0.1,0.5,0.2,1.3
				c-0.1,0.7,0,1.4,0.1,1.9C200.7,295.6,200.7,295.3,200.8,295.4z"/>
			<path d="M200.9,327.2c-0.3,0.7-0.1-0.5-0.3-1c0,0-0.1,0.1-0.1,0.6c0.2-0.1,0.1,0.8,0.1,1.6c0-0.1,0-0.5,0-0.3c0,0.3,0,1.3,0,1.3
				c0-0.2,0-1.2,0.1-1.3c0.1,0.6-0.1,1.4,0.1,1.6C200.8,328.6,201,328.4,200.9,327.2z"/>
			<path d="M199.6,335.8c0,0,0,0.9,0,1C199.7,337.7,199.8,334.7,199.6,335.8z"/>
			<path d="M202.8,345.1c0-0.1,0-0.5,0-0.3C202.8,344.8,202.8,345.3,202.8,345.1z"/>
			<path d="M202.3,326c0,0,0-0.5,0-0.6C202.3,325.4,202.3,325.7,202.3,326z"/>
			<path d="M202.3,379.2c0,0,0.1-0.2,0-0.3C202.3,378.8,202.3,379.1,202.3,379.2z"/>
			<path d="M202.3,326.3c0,0,0-0.3,0-0.3C202.3,326,202.3,326.2,202.3,326.3z"/>
			<path d="M202.2,287.4c0-0.2,0-0.6,0-0.6C202.1,287,202.1,287.4,202.2,287.4z"/>
			<path d="M202.2,314.8c0-0.1,0-0.5,0-0.3C202.1,314.6,202.2,315,202.2,314.8z"/>
			<path d="M201.9,336.5c0,0.6,0,1.4,0.1,1.3c0-0.5,0-0.7,0-1C202,336.9,201.9,336.4,201.9,336.5z"/>
			<path d="M202,351.4C201.9,352.4,202.1,350.6,202,351.4L202,351.4z"/>
			<path d="M201.9,341.9c0,0,0-0.3,0-0.3C201.9,341.6,201.9,341.8,201.9,341.9z"/>
			<path d="M201.9,350.8c0-0.1,0-0.5,0-0.3C201.9,350.6,201.9,351,201.9,350.8z"/>
			<path d="M201.9,352.1c0-0.1,0-0.5,0-0.3C201.8,351.9,201.9,352.3,201.9,352.1z"/>
			<path d="M201.8,360.4c0,0.5,0,0.8,0.1,1C201.9,360.8,201.9,360.2,201.8,360.4z"/>
			<path d="M201.9,223.1C201.9,223,201.8,223.1,201.9,223.1c-0.1-0.4,0-0.9,0-1.3c-0.2-0.2-0.1,1.1-0.1,1.3c0,0.3-0.1,0.2-0.1,1
				c0,0.4,0,0.7,0.1,1c0,0.3,0,0.8,0.1,0.6C201.8,224.3,201.9,223.8,201.9,223.1z"/>
			<path d="M201.8,355c0,0.2,0,0.4,0,0.6c0,0,0,0,0.1,0C201.9,355.4,201.9,355.2,201.8,355C201.8,355,201.8,355,201.8,355z"/>
			<path d="M201.7,218c0,0.4,0,0.6,0,1.3c0,0,0.1,0.1,0.2-0.3C201.8,219.1,201.8,218,201.7,218z"/>
			<path d="M201.8,367.1c0,0,0-0.3,0-0.3C201.8,366.7,201.8,367,201.8,367.1z"/>
			<path d="M201.8,369.3c0-0.3,0-1.2,0-1.3C201.7,367.7,201.8,369.5,201.8,369.3z"/>
			<path d="M201.8,323.7c0-0.1,0-0.5,0-0.3C201.7,323.5,201.8,323.9,201.8,323.7z"/>
			<path d="M201.6,355.6c0,0.2,0.2,1,0.1,0.3C201.7,355.9,201.7,355.3,201.6,355.6z"/>
			<path d="M201.7,201.5c0-0.1,0-0.5,0-0.3C201.7,201.2,201.7,201.6,201.7,201.5z"/>
			<path d="M201.7,377.9c0-0.2-0.1,0.1-0.1-0.3c0-0.2,0.2-0.7,0-1c0,0.4-0.1,0.6-0.2,0.6c0,0.5,0,1.2,0,1.3c0-1.8,0.1,1.5,0.2,0.3
				C201.6,378.9,201.7,378,201.7,377.9z"/>
			<path d="M201.7,202.4c0-0.1,0-0.5,0-0.3C201.6,202.2,201.7,202.5,201.7,202.4z"/>
			<path d="M201.7,203.7c0-0.1,0-0.5,0-0.3C201.6,203.5,201.7,203.8,201.7,203.7z"/>
			<path d="M201.7,358.1c0-0.1,0-0.5,0-0.3C201.6,357.9,201.7,358.3,201.7,358.1z"/>
			<path d="M201.5,367.4c0,0,0,0.5,0.1,0.6c0-1.7,0.1,0.1,0.1-1.6C201.6,366.5,201.5,367,201.5,367.4z"/>
			<path d="M201.5,207.2C201.4,207.7,201.8,208.1,201.5,207.2l0.1,0.3C201.6,207.5,201.5,207.1,201.5,207.2z"/>
			<path d="M201.6,218c0,0,0-0.3,0-0.3C201.6,217.7,201.5,217.9,201.6,218z"/>
			<path d="M201.6,379.8c0,0,0-0.3,0-0.3C201.6,379.5,201.5,379.7,201.6,379.8z"/>
			<path d="M201.6,388.7c0-0.1,0-0.5,0-0.3C201.6,388.5,201.6,388.9,201.6,388.7z"/>
			<path d="M201.5,172.8c0-0.7,0.1-1.2,0-1.3C201.5,171.7,201.4,172.7,201.5,172.8z"/>
			<path d="M201.5,173.7C201.4,174.8,201.7,174.7,201.5,173.7L201.5,173.7z"/>
			<path d="M201.5,175c0,0.7,0,0.7,0,0.3C201.6,176.2,201.6,174.8,201.5,175z"/>
			<path d="M201.5,176.3c0-0.1,0-0.5,0-0.3C201.5,176.1,201.5,176.5,201.5,176.3z"/>
			<path d="M201.5,179.8c0-0.4,0-0.9,0-1C201.5,179.2,201.5,179.7,201.5,179.8z"/>
			<path d="M201.5,203.7c0-0.1,0-0.5,0-0.3C201.5,203.5,201.5,203.8,201.5,203.7z"/>
			<path d="M201.5,372.2c0-0.1,0-0.5,0-0.3C201.4,371.9,201.5,372.3,201.5,372.2z"/>
			<path d="M201.5,178.8c0-0.1,0-0.5,0-0.3C201.4,178.6,201.4,179,201.5,178.8z"/>
			<path d="M201.3,188.1c0.1,0,0.1-0.3,0.1-1C201.3,186.9,201.4,187.7,201.3,188.1z"/>
			<path d="M201.5,190c0-0.1,0-0.5,0-0.3C201.4,189.8,201.4,190.1,201.5,190z"/>
			<path d="M201.4,193.2C201.3,192.4,201.5,194.2,201.4,193.2L201.4,193.2z"/>
			<path d="M201.5,200.2c0-0.2,0-0.6,0-0.6C201.4,199.8,201.4,200.1,201.5,200.2z"/>
			<path d="M201.3,389c0-0.4,0-0.5,0.1-0.6c0,0.4,0,0.9,0,1c0-0.4,0-0.9,0-1.3c-0.1,0-0.1-0.2,0-0.6
				C201.3,387.1,201.3,389.2,201.3,389z"/>
			<path d="M201.3,149.5c0,0.5,0,0.8-0.1,1.3c0,0,0.1-0.1,0.1-0.3c0,0.2,0,0.6,0,0.6C201.4,150.3,201.4,149.6,201.3,149.5z"/>
			<path d="M201.3,152.1c0,0.2,0,0.4,0,0.6c0,0.4,0.1,0.4,0.1-0.3C201.4,152.4,201.4,152,201.3,152.1z"/>
			<path d="M201.4,160.3c0-0.1,0-0.5,0-0.3C201.4,160.1,201.4,160.5,201.4,160.3z"/>
			<path d="M201.4,174c0-0.1,0-0.5,0-0.3C201.4,173.8,201.4,174.2,201.4,174z"/>
			<path d="M201.4,184.9c0-0.1,0-0.5,0-0.3C201.4,184.7,201.4,185,201.4,184.9z"/>
			<path d="M201.4,382c0-0.1,0-0.5,0-0.3C201.4,381.8,201.4,382.2,201.4,382z"/>
			<path d="M201.4,394.8c0-0.1,0-0.5,0-0.3C201.4,394.6,201.4,394.9,201.4,394.8z"/>
			<path d="M201.3,140.3c0,0.2,0,0.4-0.1,0.3c0,1,0,1.8,0.1,2.2C201.3,142,201.4,140.8,201.3,140.3z"/>
			<path d="M201.4,157.5c0-0.2,0-0.6,0-0.6C201.3,157.1,201.3,157.5,201.4,157.5z"/>
			<path d="M201.3,148.9c0-0.1,0-0.5,0-0.3C201.3,148.6,201.3,149.1,201.3,148.9z"/>
			<path d="M201.2,158.8c0-0.1,0.1,0,0.1-0.3C201.2,158.5,201.2,158.4,201.2,158.8z"/>
			<path d="M201.1,159.4c0.1,0.1,0.1,0.9,0.2,1c0-1,0.1-3.4-0.1-2.2c0,0.1,0.1,0.4,0.1,1C201.3,159.8,201.2,158.5,201.1,159.4z"/>
			<path d="M201.3,161C201.2,160.1,201.4,161.9,201.3,161L201.3,161z"/>
			<path d="M201.3,184.9c0-0.1,0-0.5,0-0.3C201.3,184.7,201.3,185,201.3,184.9z"/>
			<path d="M201.3,135.5c0-0.1,0-0.5,0-0.3C201.3,135.3,201.3,135.7,201.3,135.5z"/>
			<path d="M201.3,143.8c0,0,0-0.5,0-0.6C201.2,143.2,201.3,143.5,201.3,143.8z"/>
			<path d="M201.3,134.2C201.3,132.2,201.1,133.5,201.3,134.2L201.3,134.2z"/>
			<path d="M201.3,134.9c0-0.1,0-0.5,0-0.3C201.2,134.6,201.3,135,201.3,134.9z"/>
			<path d="M201.1,153c0,0.1,0.1,0.8,0.2,0C201.3,152.9,201.1,152.2,201.1,153z"/>
			<path d="M201.2,157.2c0-0.2,0-0.6,0-0.6C201.2,156.8,201.2,157.2,201.2,157.2z"/>
			<path d="M201.1,154.3C201,153.4,201.2,155.2,201.1,154.3L201.1,154.3z"/>
			<path d="M201,298c0-0.1,0-0.5,0-0.3C201,297.7,201,298.1,201,298z"/>
			<path d="M200.9,243.1c0-0.1,0-0.5,0-0.3C200.9,242.9,200.9,243.3,200.9,243.1z"/>
			<path d="M200.9,345.1c0,0,0-0.3,0-0.3C200.9,344.8,200.8,345,200.9,345.1z"/>
			<path d="M200.8,294.8c0,0,0-0.3,0-0.3C200.8,294.5,200.8,294.7,200.8,294.8z"/>
			<path d="M200.9,309.7c0-0.1,0-0.5,0-0.3C200.8,309.5,200.9,309.9,200.9,309.7z"/>
			<path d="M200.8,118c0-0.1,0-0.5,0-0.3C200.8,117.8,200.8,118.1,200.8,118z"/>
			<path d="M200.6,290.6c0-1,0,0.7,0.2,0.3c0-0.8,0-2,0.1-1.6c0-1.3-0.1-1.5-0.2-1.6c0,0.6,0,0.6,0.1,1c0,0.3,0,0.9,0,1.6
				C200.7,289.6,200.4,290.4,200.6,290.6z"/>
			<path d="M200.8,334.2c0-0.4,0-0.5,0-1c-0.1-0.8-0.2,0.1-0.2,0.6c0-0.2,0-0.4,0-0.3c0,1.4,0.1,0.5,0.2,0.3c-0.1,0.2,0.1-1.1,0.1,0
				C200.8,333.9,200.8,334.2,200.8,334.2z"/>
			<path d="M200.7,296c0,0.4,0,2.1,0.1,1h0C200.8,296.8,200.8,295.8,200.7,296z"/>
			<path d="M200.6,309.4c0,0.6,0,1.3,0,1.9c0.1-0.1,0.1,0.4,0.2,0.3C200.8,310.6,200.8,308.7,200.6,309.4z"/>
			<path d="M200.5,325.3c0,0,0.1,0.1,0.1,0.6c0,0,0.1,0,0.2,0c0.1-1-0.1-1.4,0-2.2c0,0-0.1-1.1-0.2-0.3c0.1,0.5,0,1,0.1,1.6
				C200.6,325.5,200.5,324.6,200.5,325.3z"/>
			<path d="M200.6,267.4c0-0.9,0,0.5-0.1,0.6c0.1-0.2,0,3.1,0.2,1.6c-0.2-1.3,0.2-3.2,0-4.8c0,1,0-1.3-0.1-1
				C200.5,265.2,200.6,266.6,200.6,267.4z"/>
			<path d="M200.7,298.9c0,1,0,1,0.1,1.3C200.8,299.4,200.7,299.2,200.7,298.9z"/>
			<path d="M200.8,306.6c0-0.2,0-0.6,0-0.6C200.8,306.2,200.8,306.5,200.8,306.6z"/>
			<path d="M200.6,275.7c0,0.7,0,1.2,0,1.6c0.1,0,0.1-0.5,0.2-1C200.7,276.2,200.7,275.7,200.6,275.7z"/>
			<path d="M200.6,282c0,1,0,3.4,0.1,2.2c0-0.1,0-0.5,0-0.6c0-1.1,0-3.7-0.1-2.5c0,0,0,0.5,0,0.6C200.5,281.2,200.6,281.8,200.6,282
				z"/>
			<path d="M200.6,304.3c0,0.2,0,0.4,0,0.6c0,0,0,0.3,0.1,0.3c0-0.4,0-0.5,0-1C200.7,304.3,200.7,304.3,200.6,304.3z"/>
			<path d="M200.7,313.8c0-0.4,0-0.5,0-1C200.6,312.4,200.6,314,200.7,313.8z"/>
			<path d="M200.6,320.5c0.1,0,0,1,0,1.3c0,0,0.1,0.2,0.1,0.3c0,0.1,0,0.4,0,0.3c0-0.6,0-1.3,0-1.9
				C200.7,320.9,200.6,319.6,200.6,320.5z"/>
			<path d="M200.4,341.2c0,1,0.3,1.1,0.3,0.3C200.6,341.8,200.6,341.1,200.4,341.2z"/>
			<path d="M200.6,343.8c0,1.1-0.1,1.7-0.1,2.5c0.1-0.1,0.1,0.4,0.2,0.3c-0.1-1.4,0.1-1,0.1-2.2
				C200.6,344.7,200.7,343.8,200.6,343.8z"/>
			<path d="M200.3,353.7c0.1,0.3,0.2,0,0.2,0.3c0,0.9-0.1,0.3-0.2,1c0.1-0.1,0.1,0.4,0.2,0.3c0-0.8,0-0.8,0.1-1.3c0,0.1,0-0.5,0-1
				c0,0,0-0.2,0-0.3C200.7,352.9,200.4,352.7,200.3,353.7z"/>
			<path d="M200.7,351.4c-0.1-0.1-0.2,0.8-0.1,1.3C200.5,352.1,200.6,352.1,200.7,351.4z"/>
			<path d="M200.7,247.9c0-0.1,0-0.5,0-0.3C200.6,247.7,200.7,248.1,200.7,247.9z"/>
			<path d="M200.7,252.4c0-0.2-0.1-0.3-0.1-0.3C200.5,251.6,200.7,252.7,200.7,252.4z"/>
			<path d="M200.5,262.6c0,0.4,0.1,1.5,0.2,0.3C200.6,263.3,200.6,261.4,200.5,262.6z"/>
			<path d="M200.6,297.6c0.1,0.1,0.1-0.5,0.1-1.3C200.6,296,200.6,297.4,200.6,297.6z"/>
			<path d="M200.7,308.2c0,0.4,0,0.1,0-0.3C200.6,307.4,200.6,307.7,200.7,308.2z"/>
			<path d="M200.7,318.9c0,0-0.1,0-0.1,0.3c0,0,0.1,0,0.2,0c0-0.4,0-0.9,0-1C200.7,318.5,200.7,318.8,200.7,318.9z"/>
			<path d="M200.7,330.7c0-0.1,0-0.9,0-1C200.6,329.6,200.6,331.1,200.7,330.7z"/>
			<path d="M200.7,253c0-0.1,0-0.5,0-0.3C200.6,252.8,200.6,253.2,200.7,253z"/>
			<path d="M200.6,261C200.8,259.9,200.4,260,200.6,261L200.6,261z"/>
			<path d="M200.7,332c0-0.2,0-0.6,0-0.6C200.6,331.6,200.6,332,200.7,332z"/>
			<path d="M200.7,337.4c0-0.1,0-0.5,0-0.3C200.6,337.2,200.6,337.6,200.7,337.4z"/>
			<path d="M200.7,360.4c0-0.1,0-0.5,0-0.3C200.6,360.1,200.6,360.5,200.7,360.4z"/>
			<path d="M200.4,361.3c0.1-0.3,0.2,1.1,0.2,0.3C200.6,361.6,200.5,360.4,200.4,361.3z"/>
			<path d="M200.5,96.7c0,1,0,1.1,0,1.9c0,0.1-0.1,0-0.1,0.3c0.1,1.2,0.1-1.1,0.2-1.6C200.5,97.4,200.5,96.8,200.5,96.7z"/>
			<path d="M200.6,100.5c0-0.4,0-0.9,0-1C200.6,99.9,200.6,100.4,200.6,100.5z"/>
			<path d="M200.6,103.7c0,0,0-0.5,0-0.6C200.6,103.4,200.5,103.5,200.6,103.7z"/>
			<path d="M200.5,236.8c0,0.3,0,0.8,0,1c0,0.2-0.2,0.5-0.1,1c0-0.4,0-0.4,0.1-0.3c0,0.2,0,0.4,0,0
				C200.5,238.1,200.7,236.9,200.5,236.8z"/>
			<path d="M200.6,240.6c0-0.2,0-0.6,0-0.6C200.6,240.2,200.6,240.6,200.6,240.6z"/>
			<path d="M200.5,256.5c0,0.5,0,1.1,0.1,1c0-0.2,0-0.4,0-0.6C200.6,256.9,200.6,256.6,200.5,256.5z"/>
			<path d="M200.6,273.4c0-0.4,0-0.5,0-0.6C200.5,272.8,200.5,273.3,200.6,273.4z"/>
			<path d="M200.6,307.2c0-0.1,0-0.5,0-0.3C200.6,306.9,200.6,307.3,200.6,307.2z"/>
			<path d="M200.6,313.5c0-0.1,0-0.5,0-0.3C200.6,313.3,200.6,313.7,200.6,313.5z"/>
			<path d="M200.6,327.5c0-0.1,0-0.5,0-0.3C200.6,327.3,200.6,327.7,200.6,327.5z"/>
			<path d="M200.6,350.5c0-0.2,0-0.6,0-0.6C200.6,350.1,200.6,350.5,200.6,350.5z"/>
			<path d="M200.4,102.1c0,0.4,0,0.7,0.1,1c0-0.2,0.1-1.2,0-1.3c0,0.2,0,0.6,0,0.6C200.5,102,200.5,101.6,200.4,102.1z"/>
			<path d="M200.6,105.3C200.5,103.3,200.3,104.5,200.6,105.3L200.6,105.3z"/>
			<path d="M200.4,243.5c0.1,0,0.1-0.3,0.1-1C200.5,242.5,200.4,242.8,200.4,243.5z"/>
			<path d="M200.6,305.3c0-0.2,0-0.6,0-0.6C200.5,304.9,200.5,305.2,200.6,305.3z"/>
			<path d="M200.6,310.7c0-0.2,0-0.6,0-0.6C200.5,310.3,200.5,310.7,200.6,310.7z"/>
			<path d="M200.5,311.9C200.4,311.2,200.6,313,200.5,311.9L200.5,311.9z"/>
			<path d="M200.5,319.9c0,0,0-0.3,0-0.3C200.5,319.6,200.5,319.9,200.5,319.9z"/>
			<path d="M200.5,357.2c0-0.7,0-1.2,0-1.6C200.4,355.1,200.5,357.2,200.5,357.2z"/>
			<path d="M200.6,360.7c0-0.1,0-0.5,0-0.3C200.5,360.5,200.5,360.9,200.6,360.7z"/>
			<path d="M200.6,365.5c0-0.1,0-0.5,0-0.3C200.5,365.2,200.5,365.6,200.6,365.5z"/>
			<path d="M200.6,366.1c0-0.1,0-0.5,0-0.3C200.5,365.9,200.5,366.2,200.6,366.1z"/>
			<path d="M200.5,85.8C200.3,85.1,200.6,86.9,200.5,85.8L200.5,85.8z"/>
			<path d="M200.4,87.4c0,0.8,0.1,1.6,0,1.6c0,0.8,0,1.5,0.1,1.9C200.5,90.1,200.6,87.7,200.4,87.4z"/>
			<path d="M200.5,132.9c0,0,0-0.5,0-0.6C200.4,132.4,200.5,132.7,200.5,132.9z"/>
			<path d="M200.5,229.1c0-0.1,0-0.5,0-0.3C200.5,228.9,200.5,229.3,200.5,229.1z"/>
			<path d="M200.4,233.6c0.1,0.1,0.1-1.5,0-1c0,0.1,0,0.5,0,0.6C200.4,233.3,200.4,233.5,200.4,233.6z"/>
			<path d="M200.5,249.2c0-0.1,0-0.5,0-0.3C200.5,249,200.5,249.4,200.5,249.2z"/>
			<path d="M200.5,330.4c0-0.1,0-0.5,0-0.3C200.5,330.2,200.5,330.6,200.5,330.4z"/>
			<path d="M200.5,367.1c0,0,0-0.5,0-0.6C200.5,366.8,200.4,366.9,200.5,367.1z"/>
			<path d="M200.5,85.2c0-0.2,0-0.6,0-0.6C200.4,84.8,200.4,85.2,200.5,85.2z"/>
			<path d="M200.4,116.1c0,0,0-0.5,0-0.6C200.4,115.8,200.4,116,200.4,116.1z"/>
			<path d="M200.3,221.2c0,0,0.1,0.5,0.1,0C200.4,221.1,200.4,220.6,200.3,221.2z"/>
			<path d="M200.5,225.6c0-0.2,0-0.6,0-0.6C200.4,225.3,200.4,225.6,200.5,225.6z"/>
			<path d="M200.3,364.8c0,0.3,0,0.6,0,1c0.1,0,0.1-0.3,0.1-1C200.4,364.8,200.4,364.8,200.3,364.8z"/>
			<path d="M200.4,96c0-0.1,0-0.5,0-0.3C200.4,95.8,200.4,96.2,200.4,96z"/>
			<path d="M200.4,357.2c0-0.1,0-0.5,0-0.3C200.4,357,200.4,357.4,200.4,357.2z"/>
			<path d="M200.3,370.6c0,0,0-0.5,0-0.6C200.3,370.3,200.3,370.4,200.3,370.6z"/>
			<path d="M200.3,109.1c0-0.2,0-0.6,0-0.6C200.3,108.7,200.3,109,200.3,109.1z"/>
			<path d="M200.3,363.6c0,0,0-0.3,0-0.3C200.2,363.2,200.2,363.5,200.3,363.6z"/>
			<path d="M200.1,104.3c0,0,0-0.5,0-0.6C200.1,103.7,200.1,104,200.1,104.3z"/>
			<path d="M200.2,317.7c0-0.1,0-0.5,0-0.3C200.1,317.4,200.1,317.9,200.2,317.7z"/>
			<path d="M200.1,268c0-0.1,0-0.5,0-0.3C200.1,267.8,200.1,268.2,200.1,268z"/>
			<path d="M200.1,347c0-0.1,0-0.5,0-0.3C200.1,346.8,200.1,347.2,200.1,347z"/>
			<path d="M200.1,386.8c0,0,0-0.3,0-0.3C200.1,386.5,200,386.7,200.1,386.8z"/>
			<path d="M199.8,310.7c0-0.1,0-0.5,0-0.3C199.8,310.4,199.8,310.8,199.8,310.7z"/>
			<path d="M199.8,318.9c0,0.4,0,0.7,0.1,1C199.8,319.5,199.8,318.2,199.8,318.9z"/>
			<path d="M199.8,321.2c0,0.7,0,1.2,0.1,1.3C199.8,321.7,199.8,321.3,199.8,321.2z"/>
			<path d="M199.8,345.4c0-0.1,0-0.5,0-0.3C199.8,345.2,199.8,345.6,199.8,345.4z"/>
			<path d="M199.7,259.1c0,1,0,1.2,0,1.9C199.8,261,199.8,259.1,199.7,259.1z"/>
			<path d="M199.8,333.9c0-0.1,0-0.5,0-0.3C199.8,333.7,199.8,334.1,199.8,333.9z"/>
			<path d="M199.8,338.7c0-0.1,0-0.5,0-0.3C199.8,338.5,199.8,338.9,199.8,338.7z"/>
			<path d="M199.8,311.3c0-0.1,0-0.5,0-0.3C199.7,311.1,199.7,311.5,199.8,311.3z"/>
			<path d="M199.8,327.9c0-0.1,0-0.5,0-0.3C199.7,327.6,199.7,328,199.8,327.9z"/>
			<path d="M199.7,334.6c0,0,0-0.3,0-0.3C199.7,334.2,199.7,334.5,199.7,334.6z"/>
			<path d="M199.7,237.7c0-0.2,0-0.6,0-0.6C199.7,237.4,199.7,237.7,199.7,237.7z"/>
			<path d="M199.7,253.3c0-0.2,0-0.6,0-0.6C199.7,253,199.7,253.3,199.7,253.3z"/>
			<path d="M199.7,261.9c0-0.1,0-0.5,0-0.3C199.7,261.7,199.7,262.1,199.7,261.9z"/>
			<path d="M199.7,318.6c0-0.1,0-0.5,0-0.3C199.7,318.4,199.7,318.8,199.7,318.6z"/>
			<path d="M199.7,356.9c0-0.1,0-0.5,0-0.3C199.7,356.6,199.7,357,199.7,356.9z"/>
			<path d="M199.7,362c0-0.2,0-0.6,0-0.6C199.6,361.6,199.6,362,199.7,362z"/>
			<path d="M199.5,366.7c0,0.4,0.1,1.5,0.1,0.3c0,0,0,0,0,0C199.6,367,199.5,366.7,199.5,366.7z"/>
			<path d="M199.5,370.6c0,0,0.2-0.1,0.1-0.3C199.5,370,199.4,370.4,199.5,370.6z"/>
			<path d="M199.5,390.3c0.1,0.7,0.1,0,0.2-0.6C199.6,389.6,199.5,389.7,199.5,390.3z"/>
			<path d="M199.6,329.5c0-0.1,0-0.5,0-0.3C199.6,329.2,199.6,329.6,199.6,329.5z"/>
			<path d="M199.6,354.3c0-0.1,0-0.5,0-0.3C199.6,354.1,199.6,354.5,199.6,354.3z"/>
			<path d="M199.6,369.3c0-0.4,0-0.5,0-0.6C199.5,368.7,199.5,369.2,199.6,369.3z"/>
			<path d="M199.6,391.3c0-0.1,0-0.5,0-0.3C199.6,391,199.6,391.4,199.6,391.3z"/>
			<path d="M199.5,221.5c0,0.2,0,0.7-0.1,1C199.6,222.3,199.6,220.9,199.5,221.5z"/>
			<path d="M199.4,201.1c0,0.3,0,0.6,0,1c0.1,0.1,0.1-0.4,0.1-0.6c0,0.2,0,0.6,0,0.6c0-0.3,0-0.6,0-1
				C199.5,201.1,199.4,201.1,199.4,201.1z"/>
			<path d="M199.5,238.4c0-0.1,0-0.5,0-0.3C199.5,238.1,199.5,238.6,199.5,238.4z"/>
			<path d="M199.5,221.5C199.3,222.5,199.6,220.6,199.5,221.5L199.5,221.5z"/>
			<path d="M199.5,375.3c0-0.4,0-0.9,0-1C199.5,374.8,199.4,375.3,199.5,375.3z"/>
			<path d="M199.4,200.8c0,0,0-0.3,0-0.3C199.3,200.5,199.3,200.7,199.4,200.8z"/>
			<path d="M199.4,203.4c0-0.4,0-0.9,0-1C199.4,202.8,199.4,203.3,199.4,203.4z"/>
			<path d="M199.4,369.3c0-0.1,0-0.5,0-0.3C199.4,369.1,199.4,369.4,199.4,369.3z"/>
			<path d="M199.4,189.3c0-0.1,0-0.5,0-0.3C199.3,189.1,199.3,189.5,199.4,189.3z"/>
			<path d="M199.3,187.4c0-0.1,0-0.5,0-0.3C199.3,187.2,199.3,187.6,199.3,187.4z"/>
			<path d="M199.3,189.3C199.4,187.8,199.2,188.6,199.3,189.3L199.3,189.3z"/>
			<path d="M199.2,186.2c0-0.1,0-0.5,0-0.3C199.1,185.9,199.2,186.3,199.2,186.2z"/>
			<path d="M198.8,151.7c-0.1,1.1,0,2.1,0,3.8C199,154.9,199,152.4,198.8,151.7z"/>
			<path d="M198.8,156.5c0,0.9,0,0.8,0,1.6c0,0,0.1,0,0.1,0C198.8,157.2,198.9,156.9,198.8,156.5z"/>
			<path d="M198.8,163.5c0-0.4,0-0.8,0.1-0.6c0-1,0-0.6,0-1.6C198.7,160.8,198.7,163.2,198.8,163.5z"/>
			<path d="M198.8,158.8C198.7,158,198.9,159.8,198.8,158.8L198.8,158.8z"/>
			<path d="M198.7,139.3c0,0-0.1,0-0.1,0c0,0.6,0,1,0.1,1.3c0-0.4,0.1-0.3,0.1-0.6C198.8,139.9,198.7,139.7,198.7,139.3z"/>
			<path d="M198.7,161.6c0-0.1,0-0.5,0-0.3C198.6,161.4,198.6,161.8,198.7,161.6z"/>
			<path d="M198.6,136.8c0-0.1,0-0.5,0-0.3C198.5,136.5,198.5,136.9,198.6,136.8z"/>
			<path d="M198.5,127.5c0-0.2,0-0.6,0-0.6C198.4,127.2,198.4,127.5,198.5,127.5z"/>
			<path d="M198.3,114.5c0-0.1,0-0.5,0-0.3C198.3,114.3,198.3,114.6,198.3,114.5z"/>
			<path d="M197.8,47.6c0-0.2,0-0.6,0-0.6C197.8,47.2,197.8,47.6,197.8,47.6z"/>
			<path d="M197.8,71.5c0-0.1,0-0.5,0-0.3C197.8,71.3,197.8,71.7,197.8,71.5z"/>
			<path d="M197.7,61.6c0,0,0-0.3,0-0.3C197.6,61.3,197.6,61.6,197.7,61.6z"/>
			<path d="M197.7,65.4c0-0.1,0-0.5,0-0.3C197.7,65.2,197.7,65.6,197.7,65.4z"/>
			<path d="M200.7,125.9c-0.1,0.8-0.2-1.1-0.2-2.2C200.5,124.1,200.5,125.9,200.7,125.9z"/>
			<path d="M201.9,281.4c0,0.5-0.1,0.1-0.2,0c0-0.4,0-1.5-0.1-1.6c0-0.5,0.1-0.8,0.2-1C202,280.1,201.7,281.1,201.9,281.4z"/>
			<path d="M201.9,276.9c0.1,0,0,0.8,0,1.6c-0.1,0-0.1,0.4-0.2,0.3c0-0.2,0-0.4,0-0.6c0,0-0.1,0.1-0.1,0.3c-0.1,0.3,0-1.8,0-0.6
				c0-0.1,0.1-0.4,0.1-1C201.8,276.9,201.8,278.2,201.9,276.9z"/>
			<path d="M201.9,316.4c0.1,0.1,0,0.5,0,1.3C201.8,317.6,201.9,316.6,201.9,316.4z"/>
			<path d="M201.9,283.6c0,1-0.1,1.1,0,2.2c-0.1,0.4-0.1-0.5-0.2-0.6c0-0.8,0.2-1.7,0-1.6c0-0.7,0-1.2,0.1-1.9c0.1,0,0,1,0,1.3
				c0,0,0.1-1,0.1-0.3C201.9,282.8,201.8,283.8,201.9,283.6z"/>
			<path d="M201.9,253.3c0,0.6-0.1,0.4-0.1,0.6c0,0.3-0.1,1-0.2,1C201.7,254.3,201.7,253.3,201.9,253.3z"/>
			<path d="M201.8,307.8c-0.1,0.4-0.1,0.4,0-0.3C201.8,307.3,201.8,308.7,201.8,307.8z"/>
			<path d="M201.7,250.5c0,0.9,0-0.5-0.1-0.3C201.6,249.1,201.6,250.5,201.7,250.5z"/>
			<path d="M201.6,335.8c0,0,0,0.3,0,0.3c0,0.3,0,0.3,0,0.3C201.6,337.5,201.5,336.1,201.6,335.8z"/>
			<path d="M201.4,170.2c-0.1,0.6-0.1-0.5-0.2-0.3C201.3,168.9,201.4,170.1,201.4,170.2z"/>
			<path d="M201.3,180.1c0,0.2-0.1,0.4-0.1,0.3c0,0.1,0.1-1,0-0.6C201.3,179.6,201.3,179.5,201.3,180.1z"/>
			<path d="M199.6,269.6c0.2,0.4,0,1.5,0,2.2c0.1,0.1,0.1,2,0,1.6c0-1,0-1.1,0-2.5C199.7,271.2,199.6,270.1,199.6,269.6z"/>
			<path d="M199.6,300.2c0,0.1,0,1,0.1,1c0,0.3,0,0.2-0.1,0.3c0,0.3,0,0.3,0,0.3C199.6,302.7,199.6,300.5,199.6,300.2z"/>
			<path d="M199.6,248.2c0,0.3,0,0.5,0,1c-0.1,0.2,0-0.6-0.1-0.6c0-0.5,0,0.1,0.1,0c0-0.3,0-0.3,0-0.6
				C199.6,247.3,199.6,248.3,199.6,248.2z"/>
			<path d="M198.8,166.1c0,0.3-0.1,0.5-0.1,0.6C198.6,166.6,198.8,166,198.8,166.1z"/>
			<path d="M198.2,131.7c-0.1,1.4,0-1.6-0.1-1.6C198.1,129,198.1,131.6,198.2,131.7z"/>
			<path d="M198.1,99.2c-0.1-0.1-0.1-0.5-0.3,0c0.1-0.8-0.1-2,0-2.9c0.1-0.2,0.1,0.6,0.2,0.6c0,0.9,0,0.8,0,1.6
				C198,99.6,198.1,97.7,198.1,99.2z"/>
			<path d="M197.9,118.3c0-1,0,1,0,1C197.9,119.6,197.9,118.1,197.9,118.3z"/>
			<path d="M197.8,89c0.1,0.4,0,1.8,0.1,2.2c0,1.2-0.1,1.8-0.2,2.2c0-2,0-3.9-0.1-5.4c0.1,0,0-1.3,0-1.9c0,0.1,0.1-1.1,0-1.3
				c0.1-0.5,0-2.4,0.1-3.2c0,0,0,0.1,0,0.3c0.2,0.4-0.1-0.2,0,0.6c0,0,0.1,0,0.1,0c0,1.5,0,4.5,0.1,5.7C198,88.9,197.9,89,197.8,89z
				"/>
			<path d="M197.8,84.2c0-0.2,0-0.6,0-0.6C197.8,83.8,197.8,84.2,197.8,84.2z"/>
			<path d="M197.9,104.6c0,0.5,0-0.1-0.1,0c0-0.9,0-1,0-1.9C197.9,101.9,197.9,104.4,197.9,104.6z"/>
		</g>
	</g>
</g>
</svg>
