<?xml version="1.0" encoding="utf-8"?>
<!-- Generator: Adobe Illustrator 18.1.1, SVG Export Plug-In . SVG Version: 6.00 Build 0)  -->
<!DOCTYPE svg PUBLIC "-//W3C//DTD SVG 1.1//EN" "http://www.w3.org/Graphics/SVG/1.1/DTD/svg11.dtd">
<svg version="1.1" id="Calque_1" xmlns="http://www.w3.org/2000/svg" xmlns:xlink="http://www.w3.org/1999/xlink" x="0px" y="0px"
	 viewBox="0 0 629.9 174" enable-background="new 0 0 629.9 174" xml:space="preserve">
<path fill="#222222" d="M116.7,114.3V27.2h26.4c5.1,0,10,0.8,14.6,2.5c4.6,1.6,8.3,4.2,11.2,7.7c2.9,3.5,4.3,7.9,4.3,13.1
	c0,5.4-1.1,9.8-3.4,13c-2.3,3.3-5.1,5.6-8.4,7.1c-3.3,1.4-6.5,2.3-9.4,2.7c-3,0.4-6,0.5-9,0.5H126v40.5H116.7z M126,69.3h5.2
	c8.5,0,14.9-0.4,19.1-1.2c4-0.9,7.2-3,9.5-6.2c2.3-3.2,3.4-6.9,3.4-11.1c0-6.9-2.1-11.9-6.2-15s-9.8-4.7-16.9-4.7
	c-4.7,0-9.4,0.1-14.1,0.4V69.3z"/>
<path fill="#222222" d="M163,114.3l37.3-89.9l35.7,89.9h-9.7l-10.7-26.8h-36.1l-11.1,26.8H163z M181.9,82.7h31.9L198.2,43
	L181.9,82.7z"/>
<path fill="#222222" d="M242.6,114.3V27.2H272c5.1,0,9.9,0.9,14.4,2.6c4.5,1.8,8.2,4.5,10.9,8.1c2.8,3.6,4.1,8.1,4.1,13.3
	c0,14.4-9.8,21.5-29.5,21.5l29.4,41.5h-11.6L257,68.5c3.6,0.3,6.8,0.4,9.7,0.4c16.6,0,25-6,25-17.9c0-13.6-9.1-20.4-27.2-20.4
	c-1.7,0-3.8,0.1-6.3,0.2c-2.6,0.1-4.6,0.2-6.2,0.3v83.2H242.6z"/>
<polygon fill="#222222" points="325.3,114.3 325.3,32.2 304.9,32.2 304.9,27.2 355.9,27.2 355.9,32.2 334.6,32.2 334.6,114.3 "/>
<polygon fill="#222222" points="367.6,114.3 367.6,27.2 377.3,27.2 426.9,94.1 426.9,27.2 433.2,27.2 433.2,118.6 373.9,39.1 
	373.9,114.3 "/>
<polygon fill="#222222" points="448.9,114.3 448.9,27.2 499.3,27.2 499.3,32.2 458.2,32.2 458.2,67.7 497.3,67.7 497.3,72.7 
	458.2,72.7 458.2,109.5 501,109.5 501,114.3 "/>
<path fill="#222222" d="M512.4,114.3V27.2h29.4c5.1,0,9.9,0.9,14.4,2.6c4.5,1.8,8.2,4.5,10.9,8.1c2.8,3.6,4.1,8.1,4.1,13.3
	c0,14.4-9.8,21.5-29.5,21.5l29.4,41.5h-11.6l-32.8-45.9c3.5,0.3,6.8,0.4,9.7,0.4c16.6,0,25-6,25-17.9c0-13.6-9.1-20.4-27.2-20.4
	c-1.7,0-3.8,0.1-6.3,0.2c-2.6,0.1-4.6,0.2-6.2,0.3v83.2H512.4z"/>
<path fill="#222222" d="M580.4,103.8l4.2-3.1c2.4,4.2,4.9,7.3,7.6,9.2c2.6,1.9,6.2,2.8,10.7,2.8c3.2,0,6.1-0.9,8.8-2.7
	c2.6-1.8,4.7-4.1,6.2-7c1.5-2.9,2.3-5.9,2.3-9c0-6.1-1.6-10.6-4.8-13.3c-3.2-2.7-8-5.4-14.5-8c-6.5-2.6-11.4-5.4-14.6-8.5
	c-3.3-3.1-4.9-7.9-4.9-14.6c0-5.9,1.4-10.7,4.3-14.3c2.9-3.6,6.4-6.2,10.5-7.8c4.1-1.5,8.1-2.3,12-2.3c4.1,0,7.8,1.1,11.3,3.2
	c3.5,2.1,6.1,5,8,8.6l-3.6,2.1c-3.8-6.6-9.1-10-15.8-10c-5.1,0-9.3,1.8-12.5,5.3c-3.2,3.6-4.8,7.9-4.8,13.1c0,5.2,1.5,8.9,4.6,11.2
	c3,2.3,7.9,4.8,14.5,7.5c6.6,2.7,11.6,5.8,15,9.2c3.4,3.4,5.1,8.6,5.1,15.5c0,6.8-1.7,12.1-5.2,15.9c-3.5,3.8-7.3,6.4-11.5,7.8
	c-4.2,1.4-7.7,2-10.4,2C592.8,116.6,585.3,112.3,580.4,103.8"/>
<path fill="#999999" d="M0,113.1V26h23.4c5.7,0,11.4,0.8,17,2.3c5.6,1.6,10.8,4.1,15.6,7.5c4.7,3.4,8.5,8,11.4,13.6
	c2.9,5.6,4.3,12.3,4.3,19.9c0,6.3-1,12.2-3.1,17.5c-2.1,5.4-4.8,9.9-8.2,13.6c-3.4,3.7-6.9,6.5-10.6,8.3c-3.7,1.8-7.8,3-12.1,3.5
	c-4.3,0.5-9.3,0.8-15,0.8H0z M9.3,108.6h12.4c8.9,0,16.3-1.7,22.1-5c5.9-3.3,10.2-7.9,13-13.7c2.8-5.8,4.2-12.5,4.2-20
	c0-7.4-1.2-13.8-3.5-19c-2.4-5.2-5.6-9.3-9.7-12.4c-4.1-3.1-8.7-5.3-13.9-6.6c-5.1-1.3-10.7-2-16.8-2H9.3V108.6z"/>
<rect x="-19" y="0" fill="none" width="671.2" height="163.3"/>
<rect x="89.5" y="0" fill="#999999" width="1.9" height="126"/>
<rect x="-19" y="0" fill="none" width="671.2" height="163.3"/>
<g>
	<path fill="#999999" d="M456.3,154.2c0.1,1.5,0.5,2.9,1.1,4.1c0.6,1.2,1.4,2.2,2.3,3c0.9,0.8,2,1.4,3.1,1.9
		c1.2,0.4,2.4,0.6,3.6,0.6c2,0,3.7-0.4,5.2-1.1c1.4-0.7,2.8-1.7,3.9-3l2.7,2.4c-1.5,1.6-3.1,3-5,3.9c-1.9,1-4.2,1.5-6.9,1.5
		c-2,0-3.8-0.4-5.6-1.1c-1.8-0.7-3.3-1.8-4.6-3.1c-1.3-1.3-2.3-2.9-3.1-4.8c-0.8-1.9-1.1-3.9-1.1-6.2c0-2.1,0.3-4.1,1-5.9
		c0.7-1.8,1.7-3.5,2.9-4.8c1.2-1.4,2.7-2.4,4.4-3.2c1.7-0.8,3.6-1.2,5.6-1.2c2.1,0,4,0.4,5.7,1.2c1.7,0.8,3.1,1.9,4.3,3.3
		c1.2,1.4,2,3,2.6,4.9c0.6,1.9,0.9,3.9,0.9,6c0,0.2,0,0.4,0,0.6c0,0.2,0,0.5-0.1,0.9H456.3z M474.9,150.6c-0.1-1.3-0.4-2.5-0.8-3.7
		c-0.4-1.2-1.1-2.2-1.8-3.1c-0.8-0.9-1.7-1.6-2.8-2.1c-1.1-0.5-2.4-0.8-3.8-0.8c-1.2,0-2.4,0.2-3.5,0.7c-1.1,0.5-2,1.2-2.9,2
		c-0.8,0.9-1.5,1.9-2,3.1c-0.5,1.2-0.9,2.5-1,3.8H474.9z"/>
	<path fill="#999999" d="M484,137.9h4.8l9.7,24l9.8-24h4.6l-12.6,29.2h-3.8L484,137.9z"/>
	<path fill="#999999" d="M522.3,154.2c0.1,1.5,0.5,2.9,1.1,4.1c0.6,1.2,1.4,2.2,2.3,3s2,1.4,3.1,1.9c1.2,0.4,2.4,0.6,3.6,0.6
		c2,0,3.7-0.4,5.2-1.1c1.4-0.7,2.8-1.7,3.9-3l2.7,2.4c-1.5,1.6-3.1,3-5,3.9c-1.9,1-4.2,1.5-6.9,1.5c-2,0-3.8-0.4-5.6-1.1
		c-1.8-0.7-3.3-1.8-4.6-3.1c-1.3-1.3-2.3-2.9-3.1-4.8c-0.8-1.9-1.1-3.9-1.1-6.2c0-2.1,0.3-4.1,1-5.9c0.7-1.8,1.7-3.5,2.9-4.8
		c1.2-1.4,2.7-2.4,4.4-3.2c1.7-0.8,3.6-1.2,5.6-1.2c2.1,0,4,0.4,5.7,1.2c1.7,0.8,3.1,1.9,4.3,3.3c1.2,1.4,2,3,2.6,4.9
		c0.6,1.9,0.9,3.9,0.9,6c0,0.2,0,0.4,0,0.6c0,0.2,0,0.5-0.1,0.9H522.3z M540.9,150.6c-0.1-1.3-0.4-2.5-0.8-3.7s-1.1-2.2-1.8-3.1
		c-0.8-0.9-1.7-1.6-2.8-2.1c-1.1-0.5-2.4-0.8-3.8-0.8c-1.2,0-2.4,0.2-3.5,0.7c-1.1,0.5-2,1.2-2.9,2s-1.5,1.9-2,3.1s-0.9,2.5-1,3.8
		H540.9z"/>
	<path fill="#999999" d="M552.9,137.9h4.3v5c1-1.6,2.2-2.9,3.8-4c1.6-1.1,3.6-1.7,6.1-1.7c1.8,0,3.3,0.3,4.7,0.8
		c1.4,0.6,2.5,1.4,3.5,2.4c1,1,1.7,2.2,2.2,3.7s0.8,3,0.8,4.7v18h-4.3V150c0-2.7-0.7-4.8-2.1-6.4c-1.4-1.6-3.4-2.3-5.9-2.3
		c-1.2,0-2.4,0.2-3.4,0.6c-1.1,0.4-2,1-2.8,1.8c-0.8,0.8-1.4,1.8-1.8,2.9c-0.4,1.1-0.6,2.3-0.6,3.7v16.5h-4.3V137.9z"/>
	<path fill="#999999" d="M597,167.4c-1.2,0-2.2-0.1-3.2-0.4c-1-0.3-1.9-0.8-2.6-1.4c-0.7-0.7-1.3-1.5-1.7-2.5
		c-0.4-1-0.6-2.3-0.6-3.8v-17.5h-4v-3.8h4v-8.7h4.3v8.7h9.2v3.8h-9.2v16.9c0,1.8,0.4,3,1.3,3.7c0.9,0.7,2.1,1.1,3.5,1.1
		c0.7,0,1.4-0.1,2.1-0.2c0.7-0.1,1.4-0.4,2.1-0.7v3.7c-0.7,0.4-1.5,0.7-2.4,0.9C599,167.3,598.1,167.4,597,167.4z"/>
	<path fill="#999999" d="M619.6,167.4c-2.1,0-4.2-0.4-6.3-1.1c-2.1-0.8-4-1.8-5.7-3.1l2.2-3.1c1.6,1.2,3.2,2.1,4.9,2.7
		c1.7,0.6,3.4,1,5.1,1c1.8,0,3.2-0.4,4.3-1.2s1.7-1.9,1.7-3.4v-0.1c0-0.7-0.2-1.3-0.6-1.8c-0.4-0.5-0.9-1-1.6-1.4
		c-0.7-0.4-1.4-0.7-2.3-1c-0.9-0.3-1.8-0.6-2.7-0.8c-1.1-0.3-2.2-0.7-3.4-1.1c-1.1-0.4-2.2-0.9-3.1-1.5c-0.9-0.6-1.7-1.3-2.2-2.2
		c-0.6-0.9-0.9-2-0.9-3.4v-0.1c0-1.2,0.2-2.4,0.7-3.4c0.5-1,1.2-1.9,2-2.6c0.9-0.7,1.9-1.3,3.1-1.7c1.2-0.4,2.5-0.6,3.9-0.6
		c1.8,0,3.6,0.3,5.4,0.9c1.8,0.6,3.5,1.4,5,2.3l-2,3.2c-1.3-0.9-2.8-1.5-4.2-2c-1.5-0.5-2.9-0.8-4.3-0.8c-1.7,0-3.1,0.4-4.1,1.2
		c-1,0.8-1.5,1.8-1.5,3v0.1c0,0.7,0.2,1.3,0.6,1.8c0.4,0.5,1,0.9,1.7,1.3c0.7,0.4,1.5,0.7,2.4,1c0.9,0.3,1.8,0.6,2.8,0.9
		c1.1,0.3,2.2,0.7,3.3,1.1c1.1,0.4,2.1,0.9,3,1.6c0.9,0.6,1.6,1.4,2.2,2.3c0.5,0.9,0.8,2,0.8,3.3v0.1c0,1.4-0.3,2.6-0.8,3.7
		c-0.5,1.1-1.3,2-2.2,2.7c-0.9,0.7-2,1.3-3.2,1.7C622.4,167.2,621,167.4,619.6,167.4z"/>
</g>
</svg>
