<?xml version="1.0" encoding="utf-8"?>
<!-- Generator: Adobe Illustrator 18.1.1, SVG Export Plug-In . SVG Version: 6.00 Build 0)  -->
<!DOCTYPE svg PUBLIC "-//W3C//DTD SVG 1.1//EN" "http://www.w3.org/Graphics/SVG/1.1/DTD/svg11.dtd">
<svg version="1.1" id="Calque_1" xmlns="http://www.w3.org/2000/svg" xmlns:xlink="http://www.w3.org/1999/xlink" x="0px" y="0px"
	 viewBox="0 303 612 186" enable-background="new 0 303 612 186" xml:space="preserve">
<g>
	<g>
		<path fill="none" d="M62.7,483.8"/>
	</g>
	<g>
		<path fill="none" d="M62.7,338.8"/>
	</g>
	<g>
		<path fill="none" d="M84.9,483.8"/>
	</g>
	<g>
		<path fill="none" d="M84.9,424.7"/>
	</g>
	<g>
		<path fill="#D60057" d="M402,396.5c3.8-3,7.2-5.8,10.1-8.3c3-2.5,5.4-5.1,7.2-7.7c1.9-2.6,3.4-5.4,4.4-8.3c1-3,1.4-6.2,1.4-10
			v-0.2c0-4.2-0.8-8-2.2-11.4c-1.5-3.4-3.6-6.3-6.2-8.8c-2.6-2.4-5.9-4.3-9.7-5.6c-3.7-1.3-8-2-12.5-2c-3.9,0-7.5,0.4-10.6,1.2
			c-3.2,0.8-6,2-8.6,3.6c-2.5,1.5-5,3.5-7.2,5.8c-2.2,2.3-4.4,4.9-6.6,7.8l-0.4,0.7l14.7,11.8l0.5-0.7c3.2-3.9,6-6.8,8.5-8.6
			c2.4-1.8,5.4-2.7,8.5-2.7c3.3,0,5.9,0.9,7.9,2.6c2,1.8,3,4.4,3,7.8c0,1.8-0.2,3.3-0.8,4.7c-0.5,1.4-1.3,3-2.5,4.5
			c-1.2,1.5-2.7,3.3-4.6,4.9c-1.9,1.8-4.2,3.7-6.9,6l-29.2,23.8v16.3h65.8v-17.8h-36.2L402,396.5z"/>
		<path fill="#D60057" d="M493.5,347.4c-3.4-4-7.5-7.3-12.5-9.6c-4.8-2.3-10.3-3.5-16.1-3.5c-5.9,0-11.3,1.2-16.2,3.5
			c-4.8,2.4-9.1,5.7-12.5,9.7c-3.4,4.2-6.1,9-8,14.5c-1.9,5.5-2.8,11.5-2.8,17.8v0.2c0,6.3,1,12.4,2.7,17.8
			c1.9,5.5,4.5,10.4,7.9,14.4c3.4,4,7.5,7.3,12.5,9.6c4.8,2.3,10.3,3.5,16.2,3.5c5.9,0,11.3-1.2,16.2-3.5c4.8-2.4,9.1-5.7,12.5-9.7
			c3.4-4.2,6.1-9,8-14.5c1.9-5.5,2.8-11.5,2.8-17.8v-0.2c0-6.3-1-12.4-2.8-17.8C499.7,356.3,496.9,351.5,493.5,347.4z M457.4,355.1
			c2.2-1.3,4.7-2,7.4-2c2.6,0,5.1,0.7,7.3,2c2.2,1.3,4.2,3.2,5.8,5.6s3,5.3,3.8,8.5c0.9,3.3,1.3,6.9,1.3,10.7v0.2
			c0,3.8-0.4,7.5-1.3,10.7c-0.9,3.3-2.1,6.1-3.6,8.4s-3.5,4.2-5.7,5.5c-2.2,1.3-4.7,2-7.4,2s-5.3-0.7-7.4-2
			c-2.2-1.3-4.2-3.2-5.8-5.5s-2.8-5.3-3.7-8.5c-0.9-3.3-1.3-6.9-1.3-10.8v-0.2c0-3.8,0.4-7.5,1.3-10.7c0.9-3.3,2.1-6.1,3.7-8.4
			C453.4,358.2,455.3,356.4,457.4,355.1z"/>
		<path fill="#D60057" d="M602,381.8c-1.6-3.6-3.9-6.6-6.8-8.9c-2.8-2.3-6.2-4-10-5.1c-3.7-1.1-7.8-1.6-12-1.6
			c-2.4,0-4.6,0.1-6.3,0.4c-1.4,0.2-2.7,0.5-4.2,0.8l0.9-13.2h37.1v-18.4h-55l-2.6,44l11.8,7.8l0.4-0.2c2-0.9,4.3-1.6,6.7-2.3
			c2.4-0.5,4.9-0.9,7.5-0.9c4.4,0,7.9,1,10.6,3c2.6,2,3.9,4.6,3.9,8.1v0.2c0,3.7-1.2,6.3-3.6,8.3s-5.8,3-10.1,3
			c-3.7,0-7.2-0.8-10.4-2.4s-6.5-3.9-9.7-6.8l-0.7-0.5l-12.6,15v-76.7h-13.8l-25.9,7.7l4.4,17.2l14.9-3.6v67.8h20.5v-12.1l0.4,0.4
			c4.3,4,9.1,7.3,14.3,9.6c5.3,2.3,11.6,3.5,18.7,3.5c5,0,9.7-0.8,13.9-2.2s7.8-3.5,10.7-6.1c3-2.6,5.3-5.9,6.9-9.7
			c1.6-3.7,2.4-8.1,2.4-12.8v-0.2C604.5,389.7,603.7,385.3,602,381.8z"/>
	</g>
	<g>
		<path fill="#1D1D1B" d="M97.2,436.7h3.5l3,11.2h0.1l2.8-11.2h3.3l2.6,11.2h0.1l3.1-11.2h3.4l-4.7,14.9H111l-2.7-11h-0.1l-2.7,11
			h-3.5L97.2,436.7z"/>
		<path fill="#1D1D1B" d="M127.8,451.9c-1.2,0-2.3-0.2-3.2-0.5c-1-0.4-1.8-1-2.4-1.6c-0.7-0.7-1.1-1.5-1.4-2.5c-0.3-1-0.5-2-0.5-3.2
			c0-1.1,0.2-2.2,0.5-3.2c0.3-1,0.9-1.8,1.4-2.5c0.7-0.7,1.4-1.2,2.4-1.6c1-0.4,2-0.5,3.2-0.5c1.2,0,2.3,0.2,3.2,0.5
			c1,0.4,1.8,1,2.4,1.6c0.7,0.7,1.1,1.5,1.4,2.5c0.3,1,0.5,2,0.5,3.2s-0.2,2.2-0.5,3.2c-0.3,1-0.9,1.8-1.4,2.5
			c-0.7,0.7-1.4,1.2-2.4,1.6C129.9,451.8,129,451.9,127.8,451.9z M127.8,449.4c0.8,0,1.3-0.1,1.9-0.4c0.5-0.3,1-0.7,1.3-1.2
			c0.3-0.5,0.5-1.1,0.8-1.6c0.1-0.7,0.2-1.3,0.2-1.9c0-0.7-0.1-1.3-0.2-1.9c-0.1-0.7-0.4-1.2-0.8-1.6s-0.8-0.9-1.3-1.2
			s-1.2-0.4-1.9-0.4c-0.8,0-1.3,0.1-1.9,0.4c-0.5,0.3-1,0.7-1.3,1.2c-0.3,0.4-0.5,1.1-0.8,1.6c-0.1,0.7-0.2,1.3-0.2,1.9
			c0,0.7,0.1,1.3,0.2,1.9c0.1,0.7,0.4,1.2,0.8,1.6c0.3,0.5,0.8,0.9,1.3,1.2C126.4,449.2,127.1,449.4,127.8,449.4z"/>
		<path fill="#1D1D1B" d="M138,436.7h3.1v2.8h0.1c0.1-0.4,0.3-0.8,0.5-1.2c0.3-0.4,0.7-0.8,1-1.1c0.4-0.3,0.9-0.5,1.3-0.8
			c0.4-0.2,1-0.3,1.4-0.3s0.7,0,0.8,0c0.1,0,0.3,0,0.4,0.1v3.2c-0.2,0-0.4-0.1-0.7-0.1c-0.2,0-0.4,0-0.7,0c-0.5,0-1.1,0.1-1.5,0.3
			c-0.4,0.2-0.9,0.5-1.3,1c-0.3,0.4-0.7,1-0.9,1.6c-0.2,0.7-0.3,1.3-0.3,2.2v7.1H138L138,436.7L138,436.7z"/>
		<path fill="#1D1D1B" d="M148.2,431h3.3v20.6h-3.3V431z"/>
		<path fill="#1D1D1B" d="M169.1,451.6H166v-2h-0.1c-0.4,0.9-1.1,1.5-2,1.9c-0.9,0.3-1.8,0.5-2.6,0.5c-1.2,0-2.2-0.2-3.1-0.7
			c-0.9-0.4-1.6-1-2.2-1.6c-0.5-0.7-1-1.5-1.3-2.5s-0.4-2-0.4-3.2c0-1.3,0.2-2.5,0.5-3.5s0.9-1.8,1.4-2.4c0.7-0.7,1.3-1.1,2.1-1.4
			c0.8-0.3,1.5-0.4,2.4-0.4c0.4,0,1,0,1.4,0.1c0.4,0.1,1,0.2,1.4,0.4c0.4,0.2,0.9,0.4,1.2,0.8c0.3,0.3,0.7,0.7,1,1.1h0.1v-7.5h3.3
			v20.5H169.1z M157.6,444.2c0,0.7,0.1,1.2,0.2,1.9c0.1,0.7,0.4,1.2,0.8,1.6c0.3,0.4,0.8,0.9,1.3,1.2c0.5,0.3,1.1,0.4,1.9,0.4
			c0.8,0,1.3-0.1,1.9-0.4c0.5-0.3,1-0.7,1.3-1.2c0.3-0.5,0.5-1.1,0.8-1.6c0.1-0.7,0.2-1.3,0.2-1.9c0-1.6-0.3-3-1.1-3.8
			c-0.8-0.9-1.8-1.4-3-1.4c-0.8,0-1.4,0.1-2,0.4c-0.5,0.3-1,0.8-1.3,1.2c-0.3,0.5-0.5,1.1-0.8,1.8
			C157.7,442.9,157.6,443.6,157.6,444.2z"/>
		<path fill="#1D1D1B" d="M193.2,448.2c0,0.4,0,0.7,0.1,0.9c0.1,0.2,0.3,0.2,0.7,0.2c0.1,0,0.2,0,0.3,0s0.3,0,0.4-0.1v2.3
			c-0.1,0-0.2,0.1-0.4,0.1s-0.3,0.1-0.5,0.1s-0.4,0.1-0.5,0.1c-0.2,0-0.3,0-0.4,0c-0.7,0-1.2-0.1-1.6-0.4c-0.4-0.2-0.8-0.8-0.9-1.4
			c-0.7,0.7-1.4,1.1-2.4,1.4c-1,0.3-1.9,0.4-2.7,0.4c-0.7,0-1.3-0.1-2-0.2c-0.7-0.2-1.2-0.4-1.6-0.8s-0.9-0.8-1.1-1.3
			c-0.3-0.5-0.4-1.2-0.4-1.9c0-0.9,0.2-1.6,0.5-2.3c0.3-0.5,0.8-1,1.3-1.3s1.2-0.5,1.9-0.7c0.7-0.1,1.3-0.2,2.1-0.3
			c0.5-0.1,1.2-0.2,1.8-0.2s1-0.1,1.4-0.2c0.4-0.1,0.8-0.3,1-0.5c0.2-0.2,0.3-0.5,0.3-1.1c0-0.4-0.1-0.8-0.3-1s-0.4-0.4-0.8-0.7
			c-0.3-0.1-0.7-0.2-1-0.3c-0.3,0-0.7-0.1-1-0.1c-0.9,0-1.6,0.2-2.3,0.5c-0.5,0.4-1,1-1,1.8h-3.3c0.1-1,0.3-1.8,0.7-2.4
			c0.4-0.7,0.9-1.1,1.5-1.5c0.7-0.4,1.3-0.7,2.1-0.8c0.8-0.1,1.6-0.2,2.4-0.2c0.8,0,1.4,0.1,2.2,0.2c0.7,0.1,1.3,0.4,1.9,0.8
			c0.5,0.3,1,0.8,1.3,1.3c0.3,0.5,0.5,1.2,0.5,2L193.2,448.2L193.2,448.2z M189.9,444c-0.5,0.3-1.1,0.5-1.9,0.5
			c-0.8,0.1-1.4,0.2-2.2,0.3c-0.3,0.1-0.7,0.1-1,0.2c-0.3,0.1-0.7,0.2-0.9,0.4c-0.2,0.2-0.4,0.4-0.5,0.8c-0.1,0.3-0.2,0.7-0.2,1.1
			c0,0.3,0.1,0.7,0.3,0.9s0.4,0.4,0.8,0.5c0.3,0.1,0.7,0.2,1,0.3c0.3,0.1,0.7,0.1,1,0.1s0.8,0,1.2-0.1c0.4-0.1,0.8-0.2,1.2-0.4
			c0.3-0.2,0.7-0.5,1-0.9c0.2-0.3,0.3-0.8,0.3-1.3V444H189.9z"/>
		<path fill="#1D1D1B" d="M199.3,444.9c0,0.5,0.1,1.1,0.2,1.6c0.1,0.5,0.4,1,0.8,1.4c0.3,0.4,0.8,0.8,1.2,1c0.4,0.2,1.1,0.3,1.8,0.3
			c1,0,1.8-0.2,2.3-0.7c0.5-0.4,1-1,1.3-1.9h3.1c-0.2,0.8-0.4,1.5-0.9,2.2c-0.4,0.7-1,1.2-1.5,1.6c-0.5,0.4-1.3,0.8-2,1
			c-0.8,0.2-1.5,0.3-2.3,0.3c-1.2,0-2.2-0.2-3.1-0.5c-0.9-0.4-1.6-0.9-2.3-1.6c-0.7-0.7-1.1-1.5-1.4-2.5c-0.3-1-0.4-2-0.4-3.2
			c0-1.1,0.2-2.1,0.5-3c0.3-1,0.8-1.8,1.4-2.5s1.4-1.3,2.3-1.8s1.9-0.7,3-0.7c1.2,0,2.2,0.2,3.2,0.8c1,0.4,1.8,1.1,2.3,2
			c0.7,0.8,1.1,1.8,1.3,2.7c0.3,1.1,0.3,2.1,0.2,3.3H199.3z M207,442.8c0-0.5-0.1-1-0.3-1.5c-0.2-0.4-0.4-0.9-0.8-1.2
			c-0.3-0.3-0.7-0.7-1.2-0.9c-0.4-0.2-1-0.3-1.5-0.3c-0.5,0-1.1,0.1-1.5,0.3c-0.4,0.2-0.9,0.4-1.2,0.9c-0.3,0.3-0.7,0.8-0.8,1.2
			c-0.2,0.4-0.3,1-0.3,1.5H207z"/>
		<path fill="#1D1D1B" d="M215.2,446.8c0.1,1,0.4,1.6,1.1,2c0.7,0.4,1.4,0.5,2.3,0.5c0.3,0,0.7,0,1.1-0.1c0.4,0,0.8-0.1,1.1-0.2
			c0.3-0.1,0.7-0.3,0.9-0.5c0.2-0.2,0.3-0.5,0.3-1s-0.2-0.8-0.4-1c-0.3-0.2-0.7-0.4-1.1-0.7c-0.4-0.1-1-0.3-1.5-0.4
			c-0.5-0.1-1.2-0.2-1.8-0.3c-0.7-0.1-1.2-0.3-1.8-0.4c-0.5-0.2-1.1-0.4-1.5-0.8s-0.8-0.8-1.1-1.2c-0.2-0.5-0.4-1.1-0.4-1.9
			s0.2-1.5,0.5-2.1c0.4-0.5,0.9-1,1.5-1.3s1.3-0.5,2-0.7c0.8-0.1,1.4-0.2,2.1-0.2c0.8,0,1.5,0.1,2.2,0.2c0.7,0.1,1.3,0.4,1.9,0.8
			s1,0.9,1.4,1.4c0.3,0.5,0.7,1.3,0.7,2.1h-3.4c-0.1-0.8-0.5-1.3-1.1-1.5c-0.5-0.2-1.2-0.4-2-0.4c-0.2,0-0.5,0-0.8,0.1
			c-0.3,0-0.7,0.1-0.9,0.2c-0.3,0.1-0.5,0.2-0.7,0.4c-0.2,0.2-0.3,0.4-0.3,0.8c0,0.4,0.1,0.8,0.4,1c0.3,0.2,0.7,0.4,1.1,0.7
			c0.4,0.1,1,0.3,1.5,0.4c0.5,0.1,1.2,0.2,1.8,0.3c0.5,0.1,1.2,0.3,1.8,0.4c0.5,0.2,1.1,0.4,1.5,0.8c0.4,0.3,0.8,0.8,1.1,1.2
			c0.3,0.5,0.4,1.1,0.4,1.9c0,0.9-0.2,1.6-0.7,2.3c-0.4,0.7-0.9,1.1-1.5,1.5c-0.7,0.4-1.3,0.7-2.2,0.9c-0.8,0.2-1.5,0.2-2.3,0.2
			c-1,0-1.9-0.1-2.6-0.3c-0.8-0.2-1.5-0.5-2.1-1c-0.5-0.4-1.1-1-1.4-1.6c-0.3-0.7-0.5-1.4-0.5-2.3h3.4V446.8z"/>
		<path fill="#1D1D1B" d="M226.1,436.7h2.5v-4.5h3.3v4.5h3v2.4h-3v8c0,0.3,0,0.7,0,0.9c0,0.2,0.1,0.4,0.2,0.7
			c0.1,0.2,0.2,0.3,0.4,0.4s0.5,0.1,0.9,0.1c0.2,0,0.4,0,0.7,0c0.2,0,0.4,0,0.7-0.1v2.5c-0.3,0-0.8,0.1-1.1,0.1
			c-0.3,0-0.7,0.1-1.1,0.1c-0.9,0-1.5-0.1-2.1-0.2c-0.5-0.1-1-0.4-1.2-0.8c-0.3-0.3-0.5-0.8-0.7-1.2s-0.2-1-0.2-1.6v-8.8h-2.5v-2.5
			H226.1z"/>
		<path fill="#1D1D1B" d="M237.3,431h3.3v7.7h0.1c0.4-0.7,1-1.2,1.8-1.6c0.8-0.4,1.6-0.7,2.6-0.7c1.6,0,3,0.4,3.8,1.3
			c1,0.9,1.4,2.1,1.4,3.8v10.2H247v-9.3c0-1.2-0.3-2-0.8-2.5c-0.4-0.5-1.2-0.8-2.2-0.8c-0.5,0-1.1,0.1-1.5,0.3
			c-0.4,0.2-0.8,0.4-1.1,0.9c-0.3,0.3-0.5,0.8-0.8,1.2c-0.2,0.4-0.2,1-0.2,1.5v8.8h-3.3V431H237.3z"/>
		<path fill="#1D1D1B" d="M256.3,444.9c0,0.5,0.1,1.1,0.2,1.6c0.1,0.5,0.4,1,0.8,1.4c0.3,0.4,0.8,0.8,1.2,1c0.4,0.2,1.1,0.3,1.8,0.3
			c1,0,1.8-0.2,2.3-0.7c0.5-0.4,1-1,1.3-1.9h3.1c-0.2,0.8-0.4,1.5-0.9,2.2c-0.4,0.7-1,1.2-1.5,1.6c-0.5,0.4-1.3,0.8-2,1
			c-0.8,0.2-1.5,0.3-2.3,0.3c-1.2,0-2.2-0.2-3.1-0.5c-0.9-0.4-1.6-0.9-2.3-1.6c-0.7-0.7-1.1-1.5-1.4-2.5c-0.3-1-0.4-2-0.4-3.2
			c0-1.1,0.2-2.1,0.5-3c0.3-1,0.8-1.8,1.4-2.5c0.7-0.8,1.4-1.3,2.3-1.8c0.9-0.4,1.9-0.7,3-0.7c1.2,0,2.2,0.2,3.2,0.8
			c1,0.4,1.8,1.1,2.3,2c0.7,0.8,1.1,1.8,1.3,2.7c0.3,1.1,0.3,2.1,0.2,3.3H256.3z M263.9,442.8c0-0.5-0.1-1-0.3-1.5
			c-0.2-0.4-0.4-0.9-0.8-1.2c-0.3-0.3-0.7-0.7-1.2-0.9c-0.4-0.2-1-0.3-1.5-0.3c-0.5,0-1.1,0.1-1.5,0.3c-0.4,0.2-0.9,0.4-1.2,0.9
			c-0.3,0.3-0.7,0.8-0.8,1.2c-0.2,0.4-0.3,1-0.3,1.5H263.9z"/>
		<path fill="#1D1D1B" d="M268.2,436.7h2.5v-4.5h3.3v4.5h3v2.4h-3v8c0,0.3,0,0.7,0,0.9c0,0.2,0.1,0.4,0.2,0.7
			c0.1,0.2,0.2,0.3,0.4,0.4c0.2,0.1,0.5,0.1,0.9,0.1c0.2,0,0.4,0,0.7,0s0.4,0,0.7-0.1v2.5c-0.3,0-0.8,0.1-1.1,0.1
			c-0.3,0-0.7,0.1-1.1,0.1c-0.9,0-1.5-0.1-2.1-0.2c-0.5-0.1-1-0.4-1.2-0.8c-0.3-0.3-0.5-0.8-0.7-1.2c-0.1-0.4-0.2-1-0.2-1.6v-8.8
			H268v-2.5H268.2z"/>
		<path fill="#1D1D1B" d="M279.4,431h3.3v3.1h-3.3V431z M279.4,436.7h3.3v14.9h-3.3V436.7z"/>
		<path fill="#1D1D1B" d="M296.3,441.6c-0.1-0.9-0.5-1.6-1.1-2.1c-0.7-0.4-1.3-0.7-2.3-0.7c-0.4,0-0.9,0.1-1.3,0.2
			c-0.4,0.1-0.9,0.4-1.3,0.8c-0.4,0.4-0.8,1-1,1.6c-0.2,0.7-0.4,1.6-0.4,2.7c0,0.7,0.1,1.2,0.2,1.9c0.1,0.7,0.3,1.2,0.7,1.6
			s0.8,0.9,1.2,1.2c0.5,0.3,1.1,0.4,1.9,0.4c1,0,1.8-0.3,2.4-0.9s1-1.4,1.2-2.5h3.3c-0.3,2-1.1,3.4-2.2,4.5c-1.2,1-2.7,1.5-4.6,1.5
			c-1.2,0-2.2-0.2-3.1-0.5c-0.9-0.4-1.6-1-2.3-1.6s-1.1-1.5-1.4-2.4c-0.3-1-0.4-2-0.4-3.1c0-1.1,0.1-2.2,0.4-3.2
			c0.3-1,0.8-1.9,1.4-2.5c0.7-0.8,1.4-1.3,2.3-1.8c0.9-0.4,2-0.7,3.2-0.7c0.9,0,1.6,0.1,2.4,0.3c0.8,0.2,1.4,0.5,2.1,1
			c0.7,0.4,1.1,1,1.5,1.6c0.4,0.7,0.7,1.4,0.7,2.4H296.3L296.3,441.6z"/>
		<path fill="#1D1D1B" d="M324.2,451.6h-3.1v-2H321c-0.4,0.9-1.1,1.5-2,1.9c-0.9,0.3-1.8,0.5-2.6,0.5c-1.2,0-2.2-0.2-3.1-0.7
			c-0.9-0.4-1.6-1-2.2-1.6c-0.5-0.7-1-1.5-1.3-2.5s-0.4-2-0.4-3.2c0-1.3,0.2-2.5,0.5-3.5c0.3-1,0.9-1.8,1.4-2.4
			c0.7-0.7,1.3-1.1,2.1-1.4c0.8-0.3,1.5-0.4,2.4-0.4c0.4,0,1,0,1.4,0.1c0.4,0.1,1,0.2,1.4,0.4c0.4,0.2,0.9,0.4,1.2,0.8
			c0.3,0.3,0.7,0.7,1,1.1h0.1v-7.5h3.3v20.5H324.2z M312.7,444.2c0,0.7,0.1,1.2,0.2,1.9c0.1,0.7,0.4,1.2,0.8,1.6s0.8,0.9,1.3,1.2
			s1.1,0.4,1.9,0.4s1.3-0.1,1.9-0.4c0.5-0.3,1-0.7,1.3-1.2c0.3-0.5,0.5-1.1,0.8-1.6c0.1-0.7,0.2-1.3,0.2-1.9c0-1.6-0.3-3-1.1-3.8
			c-0.8-0.9-1.8-1.4-3-1.4c-0.8,0-1.4,0.1-2,0.4c-0.5,0.3-1,0.8-1.3,1.2c-0.3,0.5-0.5,1.1-0.8,1.8
			C312.8,442.9,312.7,443.6,312.7,444.2z"/>
		<path fill="#1D1D1B" d="M340.3,448.2c0,0.4,0,0.7,0.1,0.9c0.1,0.2,0.3,0.2,0.7,0.2c0.1,0,0.2,0,0.3,0c0.1,0,0.3,0,0.4-0.1v2.3
			c-0.1,0-0.2,0.1-0.4,0.1c-0.2,0-0.3,0.1-0.5,0.1s-0.4,0.1-0.5,0.1c-0.2,0-0.3,0-0.4,0c-0.7,0-1.2-0.1-1.6-0.4
			c-0.4-0.2-0.8-0.8-0.9-1.4c-0.7,0.7-1.4,1.1-2.4,1.4c-1,0.3-1.9,0.4-2.7,0.4c-0.7,0-1.3-0.1-2-0.2c-0.7-0.2-1.2-0.4-1.6-0.8
			s-0.9-0.8-1.1-1.3c-0.3-0.5-0.4-1.2-0.4-1.9c0-0.9,0.2-1.6,0.5-2.3c0.3-0.5,0.8-1,1.3-1.3c0.5-0.3,1.2-0.5,1.9-0.7
			c0.7-0.1,1.3-0.2,2.1-0.3c0.5-0.1,1.2-0.2,1.8-0.2s1-0.1,1.4-0.2c0.4-0.1,0.8-0.3,1-0.5c0.2-0.2,0.3-0.5,0.3-1.1
			c0-0.4-0.1-0.8-0.3-1c-0.2-0.2-0.4-0.4-0.8-0.7c-0.3-0.1-0.7-0.2-1-0.3c-0.3,0-0.7-0.1-1-0.1c-0.9,0-1.6,0.2-2.3,0.5
			c-0.5,0.4-1,1-1,1.8h-3.3c0.1-1,0.3-1.8,0.7-2.4c0.4-0.7,0.9-1.1,1.5-1.5c0.7-0.4,1.3-0.7,2.1-0.8s1.6-0.2,2.4-0.2
			s1.4,0.1,2.2,0.2c0.7,0.1,1.3,0.4,1.9,0.8c0.5,0.3,1,0.8,1.3,1.3c0.3,0.5,0.5,1.2,0.5,2L340.3,448.2L340.3,448.2z M337,444
			c-0.5,0.3-1.1,0.5-1.9,0.5c-0.8,0.1-1.4,0.2-2.2,0.3c-0.3,0.1-0.7,0.1-1,0.2c-0.3,0.1-0.7,0.2-0.9,0.4c-0.2,0.2-0.4,0.4-0.5,0.8
			c-0.1,0.3-0.2,0.7-0.2,1.1c0,0.3,0.1,0.7,0.3,0.9c0.2,0.2,0.4,0.4,0.8,0.5c0.3,0.1,0.7,0.2,1,0.3c0.3,0.1,0.7,0.1,1,0.1
			c0.3,0,0.8,0,1.2-0.1c0.4-0.1,0.8-0.2,1.2-0.4c0.3-0.2,0.7-0.5,1-0.9c0.2-0.3,0.3-0.8,0.3-1.3V444H337z"/>
		<path fill="#1D1D1B" d="M342.2,436.7h3.6l3.9,11.2h0.1l3.7-11.2h3.4l-5.8,15.6c-0.2,0.7-0.5,1.3-0.8,2s-0.5,1.2-1,1.6
			c-0.3,0.4-0.9,0.9-1.4,1.1c-0.5,0.3-1.3,0.4-2.1,0.4c-0.8,0-1.5-0.1-2.3-0.2v-2.7c0.2,0,0.5,0.1,0.8,0.1s0.5,0.1,0.8,0.1
			c0.4,0,0.7,0,1-0.1c0.2-0.1,0.4-0.2,0.7-0.4c0.1-0.2,0.3-0.4,0.4-0.7c0.1-0.2,0.2-0.5,0.3-0.9l0.3-1.2L342.2,436.7z"/>
	</g>
	<path fill="#1D1D1B" d="M333.1,307.6v40.9c-2.6-3.6-6.1-6.5-10.4-8.4c-4.6-2.1-9.5-3.2-14.7-3.2c-6.3,0-11.9,1.2-16.7,3.7
		c-4.8,2.4-8.8,5.7-11.9,9.7s-5.6,8.6-7.2,13.9c-0.1,0.4-0.2,0.9-0.4,1.3v-4.3c0-5-1.2-9.2-3.6-12.4c-2.3-3.1-5.4-5.5-9.1-7.2
		c-3.6-1.8-7.8-2.8-12.1-3.5c-4.4-0.5-8.9-0.9-13.1-0.9c-4.7,0-9.5,0.4-14.2,1.3s-9,2.4-12.8,4.6c-3.6,2.1-6.7,4.8-9.1,8.2l4.5-14.5
		h-25.3l-15.4,58.5l-14.2-58.5h-23.6l-13.9,58.7L94.6,337H68.7L96,424.9h25l14.2-55.6l14.9,55.6H175l18.3-59h24.4v-0.5
		c0.4-4.3,1.9-7.3,4.4-9.1c2.5-1.9,6.1-2.7,10.5-2.7c2.1,0,3.9,0.1,5.8,0.4c1.8,0.2,3.3,0.8,4.6,1.5c1.3,0.8,2.3,1.8,3.1,3.2
		c0.8,1.3,1.2,3.2,1.2,5.6c0.1,2.2-0.5,3.7-2,4.8c-1.4,1.2-3.5,2.1-6,2.6c-2.6,0.7-5.6,1.1-9,1.4s-6.9,0.8-10.4,1.3
		s-7.1,1.2-10.5,2.2c-3.5,0.9-6.7,2.3-9.4,4.2s-5,4.4-6.8,7.4c-1.8,3.1-2.6,7-2.6,11.8c0,4.3,0.8,8.1,2.3,11.2
		c1.5,3.2,3.6,5.8,6.3,7.8c2.6,2.1,5.8,3.6,9.4,4.5c3.5,1,7.4,1.4,11.5,1.4c5.3,0,10.6-0.8,15.6-2.3c4.7-1.4,9-3.8,12.6-7.1
		c0.1,1,0.2,2,0.4,3c0.2,0.9,1,2.2,1.9,3.6c0.5,1,1.2,2,1.3,2.4l0.1,0.3h25.2l-0.5-0.9c-1.1-1.8-3.8-6.2-4.3-9.4
		c-0.4-3.4-0.7-6.9-0.7-10.6v-8.1c0.1,0.4,0.2,1,0.4,1.4c1.6,5.4,4,10.2,7.2,14.3c3.2,4.2,7.2,7.5,12.1,10s10.6,3.6,17.1,3.6
		c5.7,0,10.8-1,15.3-3.1c4.2-1.9,7.7-4.8,10.4-8.9V425h23.3V307.6H333.1z M295.4,390.6c-0.8-3.2-1.1-6.3-1.1-9.5
		c0-3.4,0.3-6.7,1.1-9.7c0.7-3.1,1.9-5.8,3.4-8.2c1.5-2.4,3.6-4.3,6.1-5.8c2.5-1.4,5.7-2.2,9.4-2.2s6.9,0.8,9.3,2.2
		c2.4,1.4,4.5,3.4,6,5.7c1.5,2.3,2.6,5,3.3,8.1c0.7,3.1,1,6.3,1,9.7c0,3.4-0.3,6.7-1,9.8s-1.8,5.9-3.3,8.4c-1.5,2.4-3.5,4.4-6,5.8
		c-2.5,1.4-5.6,2.2-9.4,2.2c-3.5,0-6.6-0.8-9.1-2.3c-2.5-1.5-4.6-3.5-6.2-5.9C297.4,396.5,296.1,393.7,295.4,390.6z M247.3,383.2
		v7.3c0,1.2-0.1,2.8-0.4,5c-0.2,2.1-1,4-2.2,6c-1.2,2-3,3.7-5.4,5.1c-2.4,1.4-5.9,2.2-10.4,2.2c-1.9,0-3.6-0.1-5.4-0.4
		c-1.6-0.3-3.2-0.9-4.4-1.6c-1.2-0.8-2.2-1.8-3-3.1c-0.8-1.3-1.1-3-1.1-4.8c0-2,0.3-3.7,1.1-4.9c0.8-1.3,1.6-2.4,2.8-3.3
		c1.2-0.9,2.6-1.5,4.3-2.1c1.6-0.5,3.4-1,5.1-1.2c1.8-0.3,3.6-0.5,5.6-0.8c1.9-0.2,3.7-0.4,5.4-0.8c1.8-0.3,3.4-0.8,4.8-1.2
		C245.5,384.2,246.4,383.7,247.3,383.2z"/>
	<g>
		<g>
			<rect x="11.3" y="422.8" fill="#1D1D1B" width="1.6" height="1"/>
			<path fill="#1D1D1B" d="M24.9,423.8h-2.9v-1h2.9V423.8z M19,423.8h-2.9v-1H19V423.8z"/>
			<path fill="#1D1D1B" d="M353.7,423.8h-2.9v-1h2.9V423.8z M347.8,423.8h-2.9v-1h2.9V423.8z M342,423.8H339v-1h2.9V423.8z
				 M336.1,423.8h-2.9v-1h2.9V423.8z M330.3,423.8h-2.9v-1h2.9V423.8z M324.4,423.8h-2.9v-1h2.9V423.8z M318.6,423.8h-2.9v-1h2.9
				V423.8z M312.7,423.8h-2.9v-1h2.9V423.8z M306.9,423.8h-2.9v-1h2.9V423.8z M301,423.8h-2.9v-1h2.9V423.8z M295.2,423.8h-2.9v-1
				h2.9V423.8z M289.3,423.8h-2.9v-1h2.9V423.8z M283.4,423.8h-2.9v-1h2.9V423.8z M277.6,423.8h-2.9v-1h2.9V423.8z M271.7,423.8
				h-2.9v-1h2.9V423.8z M265.9,423.8H263v-1h2.9V423.8z M260,423.8h-2.9v-1h2.9V423.8z M254.2,423.8h-2.9v-1h2.9V423.8z
				 M248.3,423.8h-2.9v-1h2.9V423.8z M242.5,423.8h-2.9v-1h2.9V423.8z M236.6,423.8h-2.9v-1h2.9V423.8z M230.8,423.8h-2.9v-1h2.9
				V423.8z M224.9,423.8H222v-1h2.9V423.8z M219.1,423.8h-2.9v-1h2.9V423.8z M213.2,423.8h-2.9v-1h2.9V423.8z M207.4,423.8h-2.9v-1
				h2.9V423.8z M201.5,423.8h-2.9v-1h2.9V423.8z M195.7,423.8h-2.9v-1h2.9V423.8z M189.8,423.8h-2.9v-1h2.9V423.8z M184,423.8H181
				v-1h2.9V423.8z M178.1,423.8h-2.9v-1h2.9V423.8z M172.3,423.8h-2.9v-1h2.9V423.8z M166.4,423.8h-2.9v-1h2.9V423.8z M160.6,423.8
				h-2.9v-1h2.9V423.8z M154.7,423.8h-2.9v-1h2.9V423.8z M148.8,423.8h-2.9v-1h2.9V423.8z M143,423.8h-2.9v-1h2.9V423.8z
				 M137.1,423.8h-2.9v-1h2.9V423.8z M131.3,423.8h-2.9v-1h2.9V423.8z M125.4,423.8h-2.9v-1h2.9V423.8z M119.6,423.8h-2.9v-1h2.9
				V423.8z M113.7,423.8h-2.9v-1h2.9V423.8z M107.9,423.8H105v-1h2.9V423.8z M102,423.8h-2.9v-1h2.9V423.8z M96.2,423.8h-2.9v-1h2.9
				V423.8z M90.3,423.8h-2.9v-1h2.9V423.8z M84.5,423.8h-2.9v-1h2.9V423.8z M78.6,423.8h-2.9v-1h2.9V423.8z M72.8,423.8h-2.9v-1h2.9
				V423.8z M66.9,423.8H64v-1h2.9V423.8z M61.1,423.8h-2.9v-1h2.9V423.8z M55.2,423.8h-2.9v-1h2.9V423.8z M49.4,423.8h-2.9v-1h2.9
				V423.8z M43.5,423.8h-2.9v-1h2.9V423.8z M37.7,423.8h-2.9v-1h2.9V423.8z M31.8,423.8h-2.9v-1h2.9V423.8z"/>
			<rect x="355.4" y="422.8" fill="#1D1D1B" width="1.6" height="1"/>
		</g>
	</g>
	<g>
		<g>
			<rect x="72.8" y="462.6" fill="#1D1D1B" width="1.6" height="1"/>
			<path fill="#1D1D1B" d="M87.1,463.6H84v-1h3.1V463.6z M81,463.6h-3.1v-1H81V463.6z"/>
			<path fill="#1D1D1B" d="M352.8,463.6h-2.3v-1h2.3V463.6z M347.4,463.6h-3.1v-1h3.1V463.6z M341.2,463.6h-3.1v-1h3.1V463.6z
				 M335,463.6H332v-1h3.1V463.6z M328.9,463.6h-3.1v-1h3.1V463.6z M322.7,463.6h-3.1v-1h3.1V463.6z M316.5,463.6h-3.1v-1h3.1V463.6
				z M310.4,463.6h-3.1v-1h3.1V463.6z M304.2,463.6h-3.1v-1h3.1V463.6z M298,463.6H295v-1h3.1V463.6z M291.9,463.6h-3.1v-1h3.1
				V463.6z M285.7,463.6h-3.1v-1h3.1V463.6z M279.5,463.6h-3.1v-1h3.1V463.6z M273.4,463.6h-3.1v-1h3.1V463.6z M267.2,463.6h-3.1v-1
				h3.1V463.6z M261,463.6H258v-1h3.1V463.6z M254.9,463.6h-3.1v-1h3.1V463.6z M248.7,463.6h-3.1v-1h3.1V463.6z M242.5,463.6h-3.1
				v-1h3.1V463.6z M236.4,463.6h-3.1v-1h3.1V463.6z M230.2,463.6h-3.1v-1h3.1V463.6z M224,463.6H221v-1h3.1V463.6z M217.9,463.6
				h-3.1v-1h3.1V463.6z M211.7,463.6h-3.1v-1h3.1V463.6z M205.5,463.6h-3.1v-1h3.1V463.6z M199.4,463.6h-3.1v-1h3.1V463.6z
				 M193.2,463.6h-3.1v-1h3.1V463.6z M187,463.6h-3.1v-1h3.1V463.6z M180.9,463.6h-3.1v-1h3.1V463.6z M174.7,463.6h-3.1v-1h3.1
				V463.6z M168.5,463.6h-3.1v-1h3.1V463.6z M162.4,463.6h-3.1v-1h3.1V463.6z M156.2,463.6h-3.1v-1h3.1V463.6z M150,463.6h-3.1v-1
				h3.1V463.6z M143.9,463.6h-3.1v-1h3.1V463.6z M137.7,463.6h-3.1v-1h3.1V463.6z M131.5,463.6h-3.1v-1h3.1V463.6z M125.4,463.6
				h-3.1v-1h3.1V463.6z M119.2,463.6h-3.1v-1h3.1V463.6z M113,463.6h-3.1v-1h3.1V463.6z M106.9,463.6h-3.1v-1h3.1V463.6z
				 M100.7,463.6h-3.1v-1h3.1V463.6z M94.5,463.6h-3.1v-1h3.1V463.6z"/>
			<rect x="354.5" y="462.6" fill="#1D1D1B" width="1.6" height="1"/>
		</g>
	</g>
	<g>
		<g>
			<rect x="69.5" y="337.7" fill="#1D1D1B" width="1.6" height="1"/>
			<path fill="#1D1D1B" d="M83.8,338.7h-3.1v-1h3.1V338.7z M77.6,338.7h-3.1v-1h3.1V338.7z"/>
			<path fill="#1D1D1B" d="M331.1,338.7h-0.7v-1h0.7V338.7z M327.3,338.7h-3.1v-1h3.1V338.7z M321.1,338.7H318v-1h3.1V338.7z
				 M314.9,338.7h-3.1v-1h3.1V338.7z M308.6,338.7h-3.1v-1h3.1V338.7z M302.4,338.7h-3.1v-1h3.1V338.7z M296.2,338.7h-3.1v-1h3.1
				V338.7z M290,338.7h-3.1v-1h3.1V338.7z M283.8,338.7h-3.1v-1h3.1V338.7z M277.6,338.7h-3.1v-1h3.1V338.7z M271.4,338.7h-3.1v-1
				h3.1V338.7z M265.1,338.7H262v-1h3.1V338.7z M258.9,338.7h-3.1v-1h3.1V338.7z M252.7,338.7h-3.1v-1h3.1V338.7z M246.5,338.7h-3.1
				v-1h3.1V338.7z M240.3,338.7h-3.1v-1h3.1V338.7z M234.1,338.7H231v-1h3.1V338.7z M227.9,338.7h-3.1v-1h3.1V338.7z M221.7,338.7
				h-3.1v-1h3.1V338.7z M215.4,338.7h-3.1v-1h3.1V338.7z M209.2,338.7h-3.1v-1h3.1V338.7z M203,338.7h-3.1v-1h3.1V338.7z
				 M196.8,338.7h-3.1v-1h3.1V338.7z M190.6,338.7h-3.1v-1h3.1V338.7z M184.4,338.7h-3.1v-1h3.1V338.7z M178.2,338.7H175v-1h3.1
				V338.7z M171.9,338.7h-3.1v-1h3.1V338.7z M165.7,338.7h-3.1v-1h3.1V338.7z M159.5,338.7h-3.1v-1h3.1V338.7z M153.3,338.7h-3.1v-1
				h3.1V338.7z M147.1,338.7H144v-1h3.1V338.7z M140.9,338.7h-3.1v-1h3.1V338.7z M134.7,338.7h-3.1v-1h3.1V338.7z M128.4,338.7h-3.1
				v-1h3.1V338.7z M122.2,338.7h-3.1v-1h3.1V338.7z M116,338.7h-3.1v-1h3.1V338.7z M109.8,338.7h-3.1v-1h3.1V338.7z M103.6,338.7
				h-3.1v-1h3.1V338.7z M97.4,338.7h-3.1v-1h3.1V338.7z M91.2,338.7h-3.1v-1h3.1V338.7z"/>
			<rect x="332.7" y="337.7" fill="#1D1D1B" width="1.6" height="1"/>
		</g>
	</g>
	<g>
		<g>
			<rect x="69.1" y="337.4" fill="#1D1D1B" width="1" height="1.6"/>
			<path fill="#1D1D1B" d="M70.1,352h-1v-3.2h1V352z M70.1,345.7h-1v-3.2h1V345.7z"/>
			<path fill="#1D1D1B" d="M70.1,479h-1v-2.7h1V479z M70.1,473.2h-1v-3.2h1V473.2z M70.1,466.9h-1v-3.2h1V466.9z M70.1,460.6h-1
				v-3.2h1V460.6z M70.1,454.3h-1v-3.2h1V454.3z M70.1,447.9h-1v-3.2h1V447.9z M70.1,441.6h-1v-3.2h1V441.6z M70.1,435.3h-1v-3.2h1
				V435.3z M70.1,429h-1v-3.2h1V429z M70.1,422.7h-1v-3.2h1V422.7z M70.1,416.3h-1v-3.2h1V416.3z M70.1,410h-1v-3.2h1V410z
				 M70.1,403.7h-1v-3.2h1V403.7z M70.1,397.4h-1v-3.2h1V397.4z M70.1,391.1h-1v-3.2h1V391.1z M70.1,384.7h-1v-3.2h1V384.7z
				 M70.1,378.4h-1v-3.2h1V378.4z M70.1,372.1h-1v-3.2h1V372.1z M70.1,365.8h-1v-3.2h1V365.8z M70.1,359.5h-1v-3.2h1V359.5z"/>
			<rect x="69.1" y="480.8" fill="#1D1D1B" width="1" height="1.6"/>
		</g>
	</g>
	<g>
		<g>
			<rect x="91.3" y="423.3" fill="#1D1D1B" width="1" height="1.6"/>
			<path fill="#1D1D1B" d="M92.3,437.3h-1v-3h1V437.3z M92.3,431.3h-1v-3h1V431.3z"/>
			<path fill="#1D1D1B" d="M92.3,479.1h-1v-1.7h1V479.1z M92.3,474.4h-1v-3h1V474.4z M92.3,468.4h-1v-3h1V468.4z M92.3,462.4h-1v-3
				h1V462.4z M92.3,456.4h-1v-3h1V456.4z M92.3,450.4h-1v-3h1V450.4z M92.3,444.4h-1v-3h1V444.4z"/>
			<rect x="91.3" y="480.8" fill="#1D1D1B" width="1" height="1.6"/>
		</g>
	</g>
</g>
</svg>
