<?xml version="1.0" encoding="utf-8"?>
<!-- Generator: Adobe Illustrator 18.1.1, SVG Export Plug-In . SVG Version: 6.00 Build 0)  -->
<!DOCTYPE svg PUBLIC "-//W3C//DTD SVG 1.1//EN" "http://www.w3.org/Graphics/SVG/1.1/DTD/svg11.dtd">
<svg version="1.1" id="Calque_1" xmlns="http://www.w3.org/2000/svg" xmlns:xlink="http://www.w3.org/1999/xlink" x="0px" y="0px"
	 viewBox="0 0 559.5 163.8" enable-background="new 0 0 559.5 163.8" xml:space="preserve">
<g>
	<path fill="#FFFFFF" d="M57.3,162.2"/>
	<path fill="#FFFFFF" d="M57.3,29.6"/>
	<path fill="#FFFFFF" d="M77.6,162.2"/>
	<path fill="#FFFFFF" d="M77.6,108.1"/>
	<g>
		<path fill="#FFFFFF" d="M367.5,82.4c3.5-2.7,6.6-5.3,9.2-7.6c2.7-2.3,4.9-4.7,6.6-7c1.7-2.4,3.1-4.9,4-7.6
			c0.9-2.7,1.3-5.7,1.3-9.1v-0.2c0-3.8-0.7-7.3-2-10.4c-1.4-3.1-3.3-5.8-5.7-8c-2.4-2.2-5.4-3.9-8.9-5.1c-3.4-1.2-7.3-1.8-11.4-1.8
			c-3.6,0-6.9,0.4-9.7,1.1c-2.9,0.7-5.5,1.8-7.9,3.3c-2.3,1.4-4.6,3.2-6.6,5.3c-2,2.1-4,4.5-6,7.1l-0.4,0.6l13.4,10.8l0.5-0.6
			c2.9-3.6,5.5-6.2,7.8-7.9c2.2-1.6,4.9-2.5,7.8-2.5c3,0,5.4,0.8,7.2,2.4c1.8,1.6,2.7,4,2.7,7.1c0,1.6-0.2,3-0.7,4.3
			c-0.5,1.3-1.2,2.7-2.3,4.1c-1.1,1.4-2.5,3-4.2,4.5c-1.7,1.6-3.8,3.4-6.3,5.5l-26.7,21.8v14.9h60.2V91.1h-33.1L367.5,82.4z"/>
		<path fill="#FFFFFF" d="M451.2,37.5c-3.1-3.7-6.9-6.7-11.4-8.8c-4.4-2.1-9.4-3.2-14.7-3.2c-5.4,0-10.3,1.1-14.8,3.2
			c-4.4,2.2-8.3,5.2-11.4,8.9c-3.1,3.8-5.6,8.2-7.3,13.3c-1.7,5-2.6,10.5-2.6,16.3v0.2c0,5.8,0.9,11.3,2.5,16.3
			c1.7,5,4.1,9.5,7.2,13.2c3.1,3.7,6.9,6.7,11.4,8.8c4.4,2.1,9.4,3.2,14.8,3.2c5.4,0,10.3-1.1,14.8-3.2c4.4-2.2,8.3-5.2,11.4-8.9
			c3.1-3.8,5.6-8.2,7.3-13.3c1.7-5,2.6-10.5,2.6-16.3V67c0-5.8-0.9-11.3-2.6-16.3C456.8,45.6,454.3,41.2,451.2,37.5z M418.2,44.5
			c2-1.2,4.3-1.8,6.8-1.8c2.4,0,4.7,0.6,6.7,1.8c2,1.2,3.8,2.9,5.3,5.1c1.5,2.2,2.7,4.8,3.5,7.8c0.8,3,1.2,6.3,1.2,9.8v0.2
			c0,3.5-0.4,6.9-1.2,9.8c-0.8,3-1.9,5.6-3.3,7.7c-1.4,2.1-3.2,3.8-5.2,5c-2,1.2-4.3,1.8-6.8,1.8c-2.5,0-4.8-0.6-6.8-1.8
			c-2-1.2-3.8-2.9-5.3-5c-1.5-2.1-2.6-4.8-3.4-7.8c-0.8-3-1.2-6.3-1.2-9.9V67c0-3.5,0.4-6.9,1.2-9.8c0.8-3,1.9-5.6,3.4-7.7
			C414.5,47.3,416.2,45.7,418.2,44.5z"/>
		<path fill="#FFFFFF" d="M550.4,68.9c-1.5-3.3-3.6-6-6.2-8.1c-2.6-2.1-5.7-3.7-9.1-4.7c-3.4-1-7.1-1.5-11-1.5
			c-2.2,0-4.2,0.1-5.8,0.4c-1.3,0.2-2.5,0.5-3.8,0.7l0.8-12.1h33.9V26.8h-50.3L496.5,67l10.8,7.1l0.4-0.2c1.8-0.8,3.9-1.5,6.1-2.1
			c2.2-0.5,4.5-0.8,6.9-0.8c4,0,7.2,0.9,9.7,2.7c2.4,1.8,3.6,4.2,3.6,7.4v0.2c0,3.4-1.1,5.8-3.3,7.6c-2.2,1.8-5.3,2.7-9.2,2.7
			c-3.4,0-6.6-0.7-9.5-2.2c-2.9-1.5-5.9-3.6-8.9-6.2l-0.6-0.5L491,96.4V26.3h-12.6l-23.7,7l4,15.7l13.6-3.3v62H491V96.6l0.4,0.4
			c3.9,3.7,8.3,6.7,13.1,8.8c4.8,2.1,10.6,3.2,17.1,3.2c4.6,0,8.9-0.7,12.7-2c3.8-1.3,7.1-3.2,9.8-5.6c2.7-2.4,4.8-5.4,6.3-8.9
			c1.5-3.4,2.2-7.4,2.2-11.7v-0.2C552.6,76.1,551.9,72.1,550.4,68.9z"/>
	</g>
	<g>
		<path fill="#FFFFFF" d="M88.9,119.1h3.2l2.7,10.2h0.1l2.6-10.2h3l2.4,10.2h0.1l2.8-10.2h3.1l-4.3,13.6h-3.1l-2.5-10.1h-0.1
			l-2.5,10.1h-3.2L88.9,119.1z"/>
		<path fill="#FFFFFF" d="M116.8,133c-1.1,0-2.1-0.2-2.9-0.5c-0.9-0.4-1.6-0.9-2.2-1.5c-0.6-0.6-1-1.4-1.3-2.3
			c-0.3-0.9-0.5-1.8-0.5-2.9c0-1,0.2-2,0.5-2.9c0.3-0.9,0.8-1.6,1.3-2.3c0.6-0.6,1.3-1.1,2.2-1.5c0.9-0.4,1.8-0.5,2.9-0.5
			c1.1,0,2.1,0.2,2.9,0.5c0.9,0.4,1.6,0.9,2.2,1.5c0.6,0.6,1,1.4,1.3,2.3c0.3,0.9,0.5,1.8,0.5,2.9c0,1.1-0.2,2-0.5,2.9
			c-0.3,0.9-0.8,1.6-1.3,2.3c-0.6,0.6-1.3,1.1-2.2,1.5S117.9,133,116.8,133z M116.8,130.7c0.7,0,1.2-0.1,1.7-0.4
			c0.5-0.3,0.9-0.6,1.2-1.1c0.3-0.5,0.5-1,0.7-1.5c0.1-0.6,0.2-1.2,0.2-1.7c0-0.6-0.1-1.2-0.2-1.7c-0.1-0.6-0.4-1.1-0.7-1.5
			c-0.3-0.4-0.7-0.8-1.2-1.1c-0.5-0.3-1.1-0.4-1.7-0.4c-0.7,0-1.2,0.1-1.7,0.4c-0.5,0.3-0.9,0.6-1.2,1.1c-0.3,0.4-0.5,1-0.7,1.5
			c-0.1,0.6-0.2,1.2-0.2,1.7c0,0.6,0.1,1.2,0.2,1.7c0.1,0.6,0.4,1.1,0.7,1.5c0.3,0.5,0.7,0.8,1.2,1.1
			C115.6,130.5,116.2,130.7,116.8,130.7z"/>
		<path fill="#FFFFFF" d="M126.2,119.1h2.8v2.6h0.1c0.1-0.4,0.3-0.7,0.5-1.1c0.3-0.4,0.6-0.7,0.9-1c0.4-0.3,0.8-0.5,1.2-0.7
			c0.4-0.2,0.9-0.3,1.3-0.3c0.4,0,0.6,0,0.7,0c0.1,0,0.3,0,0.4,0.1v2.9c-0.2,0-0.4-0.1-0.6-0.1c-0.2,0-0.4,0-0.6,0
			c-0.5,0-1,0.1-1.4,0.3c-0.4,0.2-0.8,0.5-1.2,0.9c-0.3,0.4-0.6,0.9-0.8,1.5c-0.2,0.6-0.3,1.2-0.3,2v6.5h-3V119.1z"/>
		<path fill="#FFFFFF" d="M135.5,113.9h3v18.8h-3V113.9z"/>
		<path fill="#FFFFFF" d="M154.6,132.7h-2.8v-1.8h-0.1c-0.4,0.8-1,1.4-1.8,1.7c-0.8,0.3-1.6,0.5-2.4,0.5c-1.1,0-2-0.2-2.8-0.6
			c-0.8-0.4-1.5-0.9-2-1.5c-0.5-0.6-0.9-1.4-1.2-2.3c-0.3-0.9-0.4-1.8-0.4-2.9c0-1.2,0.2-2.3,0.5-3.2c0.3-0.9,0.8-1.6,1.3-2.2
			c0.6-0.6,1.2-1,1.9-1.3c0.7-0.3,1.4-0.4,2.2-0.4c0.4,0,0.9,0,1.3,0.1c0.4,0.1,0.9,0.2,1.3,0.4c0.4,0.2,0.8,0.4,1.1,0.7
			c0.3,0.3,0.6,0.6,0.9,1h0.1v-6.9h3V132.7z M144.1,126c0,0.6,0.1,1.1,0.2,1.7c0.1,0.6,0.4,1.1,0.7,1.5c0.3,0.4,0.7,0.8,1.2,1.1
			c0.5,0.3,1,0.4,1.7,0.4c0.7,0,1.2-0.1,1.7-0.4c0.5-0.3,0.9-0.6,1.2-1.1c0.3-0.5,0.5-1,0.7-1.5c0.1-0.6,0.2-1.2,0.2-1.7
			c0-1.5-0.3-2.7-1-3.5c-0.7-0.8-1.6-1.3-2.7-1.3c-0.7,0-1.3,0.1-1.8,0.4c-0.5,0.3-0.9,0.7-1.2,1.1c-0.3,0.5-0.5,1-0.7,1.6
			C144.2,124.8,144.1,125.4,144.1,126z"/>
		<path fill="#FFFFFF" d="M176.6,129.6c0,0.4,0,0.6,0.1,0.8c0.1,0.2,0.3,0.2,0.6,0.2c0.1,0,0.2,0,0.3,0c0.1,0,0.3,0,0.4-0.1v2.1
			c-0.1,0-0.2,0.1-0.4,0.1c-0.2,0-0.3,0.1-0.5,0.1c-0.2,0-0.4,0.1-0.5,0.1c-0.2,0-0.3,0-0.4,0c-0.6,0-1.1-0.1-1.5-0.4
			c-0.4-0.2-0.7-0.7-0.8-1.3c-0.6,0.6-1.3,1-2.2,1.3c-0.9,0.3-1.7,0.4-2.5,0.4c-0.6,0-1.2-0.1-1.8-0.2c-0.6-0.2-1.1-0.4-1.5-0.7
			c-0.4-0.3-0.8-0.7-1-1.2c-0.3-0.5-0.4-1.1-0.4-1.7c0-0.8,0.2-1.5,0.5-2.1c0.3-0.5,0.7-0.9,1.2-1.2c0.5-0.3,1.1-0.5,1.7-0.6
			s1.2-0.2,1.9-0.3c0.5-0.1,1.1-0.2,1.6-0.2c0.5,0,0.9-0.1,1.3-0.2c0.4-0.1,0.7-0.3,0.9-0.5c0.2-0.2,0.3-0.5,0.3-1
			c0-0.4-0.1-0.7-0.3-0.9c-0.2-0.2-0.4-0.4-0.7-0.6c-0.3-0.1-0.6-0.2-0.9-0.3c-0.3,0-0.6-0.1-0.9-0.1c-0.8,0-1.5,0.2-2.1,0.5
			c-0.5,0.4-0.9,0.9-0.9,1.6h-3c0.1-0.9,0.3-1.6,0.6-2.2c0.4-0.6,0.8-1,1.4-1.4c0.6-0.4,1.2-0.6,1.9-0.7c0.7-0.1,1.5-0.2,2.2-0.2
			c0.7,0,1.3,0.1,2,0.2c0.6,0.1,1.2,0.4,1.7,0.7c0.5,0.3,0.9,0.7,1.2,1.2c0.3,0.5,0.5,1.1,0.5,1.8V129.6z M173.6,125.8
			c-0.5,0.3-1,0.5-1.7,0.5c-0.7,0.1-1.3,0.2-2,0.3c-0.3,0.1-0.6,0.1-0.9,0.2c-0.3,0.1-0.6,0.2-0.8,0.4c-0.2,0.2-0.4,0.4-0.5,0.7
			c-0.1,0.3-0.2,0.6-0.2,1c0,0.3,0.1,0.6,0.3,0.8c0.2,0.2,0.4,0.4,0.7,0.5c0.3,0.1,0.6,0.2,0.9,0.3c0.3,0.1,0.6,0.1,0.9,0.1
			c0.3,0,0.7,0,1.1-0.1c0.4-0.1,0.7-0.2,1.1-0.4c0.3-0.2,0.6-0.5,0.9-0.8c0.2-0.3,0.3-0.7,0.3-1.2V125.8z"/>
		<path fill="#FFFFFF" d="M182.2,126.6c0,0.5,0.1,1,0.2,1.5c0.1,0.5,0.4,0.9,0.7,1.3c0.3,0.4,0.7,0.7,1.1,0.9s1,0.3,1.6,0.3
			c0.9,0,1.6-0.2,2.1-0.6c0.5-0.4,0.9-0.9,1.2-1.7h2.8c-0.2,0.7-0.4,1.4-0.8,2c-0.4,0.6-0.9,1.1-1.4,1.5c-0.5,0.4-1.2,0.7-1.8,0.9
			c-0.7,0.2-1.4,0.3-2.1,0.3c-1.1,0-2-0.2-2.8-0.5c-0.8-0.4-1.5-0.8-2.1-1.5c-0.6-0.6-1-1.4-1.3-2.3c-0.3-0.9-0.4-1.8-0.4-2.9
			c0-1,0.2-1.9,0.5-2.7c0.3-0.9,0.7-1.6,1.3-2.3c0.6-0.7,1.3-1.2,2.1-1.6c0.8-0.4,1.7-0.6,2.7-0.6c1.1,0,2,0.2,2.9,0.7
			c0.9,0.4,1.6,1,2.1,1.8c0.6,0.7,1,1.6,1.2,2.5c0.3,1,0.3,1.9,0.2,3H182.2z M189.2,124.7c0-0.5-0.1-0.9-0.3-1.4
			c-0.2-0.4-0.4-0.8-0.7-1.1c-0.3-0.3-0.6-0.6-1.1-0.8c-0.4-0.2-0.9-0.3-1.4-0.3c-0.5,0-1,0.1-1.4,0.3c-0.4,0.2-0.8,0.4-1.1,0.8
			c-0.3,0.3-0.6,0.7-0.7,1.1c-0.2,0.4-0.3,0.9-0.3,1.4H189.2z"/>
		<path fill="#FFFFFF" d="M196.7,128.3c0.1,0.9,0.4,1.5,1,1.8c0.6,0.4,1.3,0.5,2.1,0.5c0.3,0,0.6,0,1-0.1c0.4,0,0.7-0.1,1-0.2
			c0.3-0.1,0.6-0.3,0.8-0.5c0.2-0.2,0.3-0.5,0.3-0.9c0-0.4-0.2-0.7-0.4-0.9c-0.3-0.2-0.6-0.4-1-0.6c-0.4-0.1-0.9-0.3-1.4-0.4
			c-0.5-0.1-1.1-0.2-1.6-0.3c-0.6-0.1-1.1-0.3-1.6-0.4c-0.5-0.2-1-0.4-1.4-0.7c-0.4-0.3-0.7-0.7-1-1.1c-0.2-0.5-0.4-1-0.4-1.7
			c0-0.7,0.2-1.4,0.5-1.9c0.4-0.5,0.8-0.9,1.4-1.2c0.6-0.3,1.2-0.5,1.8-0.6c0.7-0.1,1.3-0.2,1.9-0.2c0.7,0,1.4,0.1,2,0.2
			c0.6,0.1,1.2,0.4,1.7,0.7c0.5,0.3,0.9,0.8,1.3,1.3c0.3,0.5,0.6,1.2,0.6,1.9h-3.1c-0.1-0.7-0.5-1.2-1-1.4c-0.5-0.2-1.1-0.4-1.8-0.4
			c-0.2,0-0.5,0-0.7,0.1c-0.3,0-0.6,0.1-0.8,0.2c-0.3,0.1-0.5,0.2-0.6,0.4c-0.2,0.2-0.3,0.4-0.3,0.7c0,0.4,0.1,0.7,0.4,0.9
			c0.3,0.2,0.6,0.4,1,0.6c0.4,0.1,0.9,0.3,1.4,0.4c0.5,0.1,1.1,0.2,1.6,0.3c0.5,0.1,1.1,0.3,1.6,0.4c0.5,0.2,1,0.4,1.4,0.7
			c0.4,0.3,0.7,0.7,1,1.1c0.3,0.5,0.4,1,0.4,1.7c0,0.8-0.2,1.5-0.6,2.1c-0.4,0.6-0.8,1-1.4,1.4c-0.6,0.4-1.2,0.6-2,0.8
			c-0.7,0.2-1.4,0.2-2.1,0.2c-0.9,0-1.7-0.1-2.4-0.3c-0.7-0.2-1.4-0.5-1.9-0.9c-0.5-0.4-1-0.9-1.3-1.5c-0.3-0.6-0.5-1.3-0.5-2.1
			H196.7z"/>
		<path fill="#FFFFFF" d="M206.7,119.1h2.3V115h3v4.1h2.7v2.2H212v7.3c0,0.3,0,0.6,0,0.8c0,0.2,0.1,0.4,0.2,0.6
			c0.1,0.2,0.2,0.3,0.4,0.4c0.2,0.1,0.5,0.1,0.8,0.1c0.2,0,0.4,0,0.6,0c0.2,0,0.4,0,0.6-0.1v2.3c-0.3,0-0.7,0.1-1,0.1
			c-0.3,0-0.6,0.1-1,0.1c-0.8,0-1.4-0.1-1.9-0.2c-0.5-0.1-0.9-0.4-1.1-0.7c-0.3-0.3-0.5-0.7-0.6-1.1c-0.1-0.4-0.2-0.9-0.2-1.5v-8
			h-2.3V119.1z"/>
		<path fill="#FFFFFF" d="M216.9,113.9h3v7h0.1c0.4-0.6,0.9-1.1,1.6-1.5c0.7-0.4,1.5-0.6,2.4-0.6c1.5,0,2.7,0.4,3.5,1.2
			c0.9,0.8,1.3,1.9,1.3,3.5v9.3h-3v-8.5c0-1.1-0.3-1.8-0.7-2.3c-0.4-0.5-1.1-0.7-2-0.7c-0.5,0-1,0.1-1.4,0.3c-0.4,0.2-0.7,0.4-1,0.8
			c-0.3,0.3-0.5,0.7-0.7,1.1c-0.2,0.4-0.2,0.9-0.2,1.4v8h-3V113.9z"/>
		<path fill="#FFFFFF" d="M234.3,126.6c0,0.5,0.1,1,0.2,1.5c0.1,0.5,0.4,0.9,0.7,1.3c0.3,0.4,0.7,0.7,1.1,0.9s1,0.3,1.6,0.3
			c0.9,0,1.6-0.2,2.1-0.6c0.5-0.4,0.9-0.9,1.2-1.7h2.8c-0.2,0.7-0.4,1.4-0.8,2c-0.4,0.6-0.9,1.1-1.4,1.5c-0.5,0.4-1.2,0.7-1.8,0.9
			c-0.7,0.2-1.4,0.3-2.1,0.3c-1.1,0-2-0.2-2.8-0.5c-0.8-0.4-1.5-0.8-2.1-1.5c-0.6-0.6-1-1.4-1.3-2.3c-0.3-0.9-0.4-1.8-0.4-2.9
			c0-1,0.2-1.9,0.5-2.7c0.3-0.9,0.7-1.6,1.3-2.3c0.6-0.7,1.3-1.2,2.1-1.6c0.8-0.4,1.7-0.6,2.7-0.6c1.1,0,2,0.2,2.9,0.7
			c0.9,0.4,1.6,1,2.1,1.8c0.6,0.7,1,1.6,1.2,2.5c0.3,1,0.3,1.9,0.2,3H234.3z M241.3,124.7c0-0.5-0.1-0.9-0.3-1.4
			c-0.2-0.4-0.4-0.8-0.7-1.1c-0.3-0.3-0.6-0.6-1.1-0.8c-0.4-0.2-0.9-0.3-1.4-0.3c-0.5,0-1,0.1-1.4,0.3c-0.4,0.2-0.8,0.4-1.1,0.8
			c-0.3,0.3-0.6,0.7-0.7,1.1c-0.2,0.4-0.3,0.9-0.3,1.4H241.3z"/>
		<path fill="#FFFFFF" d="M245.2,119.1h2.3V115h3v4.1h2.7v2.2h-2.7v7.3c0,0.3,0,0.6,0,0.8c0,0.2,0.1,0.4,0.2,0.6
			c0.1,0.2,0.2,0.3,0.4,0.4c0.2,0.1,0.5,0.1,0.8,0.1c0.2,0,0.4,0,0.6,0c0.2,0,0.4,0,0.6-0.1v2.3c-0.3,0-0.7,0.1-1,0.1
			c-0.3,0-0.6,0.1-1,0.1c-0.8,0-1.4-0.1-1.9-0.2c-0.5-0.1-0.9-0.4-1.1-0.7c-0.3-0.3-0.5-0.7-0.6-1.1c-0.1-0.4-0.2-0.9-0.2-1.5v-8
			h-2.3V119.1z"/>
		<path fill="#FFFFFF" d="M255.4,113.9h3v2.8h-3V113.9z M255.4,119.1h3v13.6h-3V119.1z"/>
		<path fill="#FFFFFF" d="M270.9,123.6c-0.1-0.8-0.5-1.5-1-1.9c-0.6-0.4-1.2-0.6-2.1-0.6c-0.4,0-0.8,0.1-1.2,0.2
			c-0.4,0.1-0.8,0.4-1.2,0.7c-0.4,0.4-0.7,0.9-0.9,1.5c-0.2,0.6-0.4,1.5-0.4,2.5c0,0.6,0.1,1.1,0.2,1.7c0.1,0.6,0.3,1.1,0.6,1.5
			c0.3,0.4,0.7,0.8,1.1,1.1c0.5,0.3,1,0.4,1.7,0.4c0.9,0,1.6-0.3,2.2-0.8c0.6-0.5,0.9-1.3,1.1-2.3h3c-0.3,1.8-1,3.1-2,4.1
			c-1.1,0.9-2.5,1.4-4.2,1.4c-1.1,0-2-0.2-2.8-0.5c-0.8-0.4-1.5-0.9-2.1-1.5c-0.6-0.6-1-1.4-1.3-2.2c-0.3-0.9-0.4-1.8-0.4-2.8
			c0-1,0.1-2,0.4-2.9c0.3-0.9,0.7-1.7,1.3-2.3c0.6-0.7,1.3-1.2,2.1-1.6c0.8-0.4,1.8-0.6,2.9-0.6c0.8,0,1.5,0.1,2.2,0.3
			c0.7,0.2,1.3,0.5,1.9,0.9c0.6,0.4,1,0.9,1.4,1.5c0.4,0.6,0.6,1.3,0.6,2.2H270.9z"/>
		<path fill="#FFFFFF" d="M296.4,132.7h-2.8v-1.8h-0.1c-0.4,0.8-1,1.4-1.8,1.7c-0.8,0.3-1.6,0.5-2.4,0.5c-1.1,0-2-0.2-2.8-0.6
			c-0.8-0.4-1.5-0.9-2-1.5c-0.5-0.6-0.9-1.4-1.2-2.3c-0.3-0.9-0.4-1.8-0.4-2.9c0-1.2,0.2-2.3,0.5-3.2c0.3-0.9,0.8-1.6,1.3-2.2
			c0.6-0.6,1.2-1,1.9-1.3c0.7-0.3,1.4-0.4,2.2-0.4c0.4,0,0.9,0,1.3,0.1c0.4,0.1,0.9,0.2,1.3,0.4c0.4,0.2,0.8,0.4,1.1,0.7
			c0.3,0.3,0.6,0.6,0.9,1h0.1v-6.9h3V132.7z M285.9,126c0,0.6,0.1,1.1,0.2,1.7c0.1,0.6,0.4,1.1,0.7,1.5c0.3,0.4,0.7,0.8,1.2,1.1
			c0.5,0.3,1,0.4,1.7,0.4c0.7,0,1.2-0.1,1.7-0.4c0.5-0.3,0.9-0.6,1.2-1.1c0.3-0.5,0.5-1,0.7-1.5c0.1-0.6,0.2-1.2,0.2-1.7
			c0-1.5-0.3-2.7-1-3.5c-0.7-0.8-1.6-1.3-2.7-1.3c-0.7,0-1.3,0.1-1.8,0.4c-0.5,0.3-0.9,0.7-1.2,1.1c-0.3,0.5-0.5,1-0.7,1.6
			C286,124.8,285.9,125.4,285.9,126z"/>
		<path fill="#FFFFFF" d="M311.1,129.6c0,0.4,0,0.6,0.1,0.8c0.1,0.2,0.3,0.2,0.6,0.2c0.1,0,0.2,0,0.3,0c0.1,0,0.3,0,0.4-0.1v2.1
			c-0.1,0-0.2,0.1-0.4,0.1c-0.2,0-0.3,0.1-0.5,0.1c-0.2,0-0.4,0.1-0.5,0.1c-0.2,0-0.3,0-0.4,0c-0.6,0-1.1-0.1-1.5-0.4
			c-0.4-0.2-0.7-0.7-0.8-1.3c-0.6,0.6-1.3,1-2.2,1.3c-0.9,0.3-1.7,0.4-2.5,0.4c-0.6,0-1.2-0.1-1.8-0.2c-0.6-0.2-1.1-0.4-1.5-0.7
			c-0.4-0.3-0.8-0.7-1-1.2c-0.3-0.5-0.4-1.1-0.4-1.7c0-0.8,0.2-1.5,0.5-2.1c0.3-0.5,0.7-0.9,1.2-1.2c0.5-0.3,1.1-0.5,1.7-0.6
			s1.2-0.2,1.9-0.3c0.5-0.1,1.1-0.2,1.6-0.2c0.5,0,0.9-0.1,1.3-0.2c0.4-0.1,0.7-0.3,0.9-0.5c0.2-0.2,0.3-0.5,0.3-1
			c0-0.4-0.1-0.7-0.3-0.9c-0.2-0.2-0.4-0.4-0.7-0.6c-0.3-0.1-0.6-0.2-0.9-0.3c-0.3,0-0.6-0.1-0.9-0.1c-0.8,0-1.5,0.2-2.1,0.5
			c-0.5,0.4-0.9,0.9-0.9,1.6h-3c0.1-0.9,0.3-1.6,0.6-2.2c0.4-0.6,0.8-1,1.4-1.4c0.6-0.4,1.2-0.6,1.9-0.7c0.7-0.1,1.5-0.2,2.2-0.2
			c0.7,0,1.3,0.1,2,0.2c0.6,0.1,1.2,0.4,1.7,0.7c0.5,0.3,0.9,0.7,1.2,1.2c0.3,0.5,0.5,1.1,0.5,1.8V129.6z M308.1,125.8
			c-0.5,0.3-1,0.5-1.7,0.5c-0.7,0.1-1.3,0.2-2,0.3c-0.3,0.1-0.6,0.1-0.9,0.2c-0.3,0.1-0.6,0.2-0.8,0.4c-0.2,0.2-0.4,0.4-0.5,0.7
			c-0.1,0.3-0.2,0.6-0.2,1c0,0.3,0.1,0.6,0.3,0.8c0.2,0.2,0.4,0.4,0.7,0.5c0.3,0.1,0.6,0.2,0.9,0.3c0.3,0.1,0.6,0.1,0.9,0.1
			c0.3,0,0.7,0,1.1-0.1c0.4-0.1,0.7-0.2,1.1-0.4c0.3-0.2,0.6-0.5,0.9-0.8c0.2-0.3,0.3-0.7,0.3-1.2V125.8z"/>
		<path fill="#FFFFFF" d="M312.8,119.1h3.3l3.6,10.2h0.1l3.4-10.2h3.1l-5.3,14.3c-0.2,0.6-0.5,1.2-0.7,1.8c-0.2,0.6-0.5,1.1-0.9,1.5
			c-0.3,0.4-0.8,0.8-1.3,1c-0.5,0.3-1.2,0.4-1.9,0.4c-0.7,0-1.4-0.1-2.1-0.2v-2.5c0.2,0,0.5,0.1,0.7,0.1c0.2,0,0.5,0.1,0.7,0.1
			c0.4,0,0.6,0,0.9-0.1c0.2-0.1,0.4-0.2,0.6-0.4c0.1-0.2,0.3-0.4,0.4-0.6c0.1-0.2,0.2-0.5,0.3-0.8l0.3-1.1L312.8,119.1z"/>
	</g>
	<path fill="#FFFFFF" d="M304.5,1.1v37.4c-2.4-3.3-5.6-5.9-9.5-7.7c-4.2-1.9-8.7-2.9-13.4-2.9c-5.8,0-10.9,1.1-15.3,3.4
		c-4.4,2.2-8,5.2-10.9,8.9c-2.9,3.7-5.1,7.9-6.6,12.7c-0.1,0.4-0.2,0.8-0.4,1.2v-3.9c0-4.6-1.1-8.4-3.3-11.3c-2.1-2.8-4.9-5-8.3-6.6
		c-3.3-1.6-7.1-2.6-11.1-3.2c-4-0.5-8.1-0.8-12-0.8c-4.3,0-8.7,0.4-13,1.2c-4.3,0.8-8.2,2.2-11.7,4.2c-3.3,1.9-6.1,4.4-8.3,7.5
		l4.1-13.3h-23.1l-14.1,53.5l-13-53.5h-21.6l-12.7,53.7L86.5,28H62.8l25,80.3h22.9l13-50.8l13.6,50.8h22.7l16.7-53.9H199l0-0.5
		c0.4-3.9,1.7-6.7,4-8.3c2.3-1.7,5.6-2.5,9.6-2.5c1.9,0,3.6,0.1,5.3,0.4c1.6,0.2,3,0.7,4.2,1.4c1.2,0.7,2.1,1.6,2.8,2.9
		c0.7,1.2,1.1,2.9,1.1,5.1c0.1,2-0.5,3.4-1.8,4.4c-1.3,1.1-3.2,1.9-5.5,2.4c-2.4,0.6-5.1,1-8.2,1.3c-3.1,0.3-6.3,0.7-9.5,1.2
		c-3.2,0.5-6.5,1.1-9.6,2c-3.2,0.8-6.1,2.1-8.6,3.8c-2.5,1.7-4.6,4-6.2,6.8c-1.6,2.8-2.4,6.4-2.4,10.8c0,3.9,0.7,7.4,2.1,10.2
		c1.4,2.9,3.3,5.3,5.8,7.1c2.4,1.9,5.3,3.3,8.6,4.1c3.2,0.9,6.8,1.3,10.5,1.3c4.8,0,9.7-0.7,14.3-2.1c4.3-1.3,8.2-3.5,11.5-6.5
		c0.1,0.9,0.2,1.8,0.4,2.7c0.2,0.8,0.9,2,1.7,3.3c0.5,0.9,1.1,1.8,1.2,2.2l0.1,0.3h23l-0.5-0.8c-1-1.6-3.5-5.7-3.9-8.6
		c-0.4-3.1-0.6-6.3-0.6-9.7v-7.4c0.1,0.4,0.2,0.9,0.4,1.3c1.5,4.9,3.7,9.3,6.6,13.1c2.9,3.8,6.6,6.9,11.1,9.1
		c4.5,2.2,9.7,3.3,15.6,3.3c5.2,0,9.9-0.9,14-2.8c3.8-1.7,7-4.4,9.5-8.1v10.8h21.3V1.1H304.5z M270.1,77c-0.7-2.9-1-5.8-1-8.7
		c0-3.1,0.3-6.1,1-8.9c0.6-2.8,1.7-5.3,3.1-7.5c1.4-2.2,3.3-3.9,5.6-5.3c2.3-1.3,5.2-2,8.6-2c3.4,0,6.3,0.7,8.5,2
		c2.2,1.3,4.1,3.1,5.5,5.2c1.4,2.1,2.4,4.6,3,7.4c0.6,2.8,0.9,5.8,0.9,8.9c0,3.1-0.3,6.1-0.9,9c-0.6,2.9-1.6,5.4-3,7.7
		c-1.4,2.2-3.2,4-5.5,5.3c-2.3,1.3-5.1,2-8.6,2c-3.2,0-6-0.7-8.3-2.1c-2.3-1.4-4.2-3.2-5.7-5.4C271.9,82.4,270.7,79.8,270.1,77z
		 M226.1,70.2v6.7c0,1.1-0.1,2.6-0.4,4.6c-0.2,1.9-0.9,3.7-2,5.5c-1.1,1.8-2.7,3.4-4.9,4.7c-2.2,1.3-5.4,2-9.5,2
		c-1.7,0-3.3-0.1-4.9-0.4c-1.5-0.3-2.9-0.8-4-1.5c-1.1-0.7-2-1.6-2.7-2.8c-0.7-1.2-1-2.7-1-4.4c0-1.8,0.3-3.4,1-4.5
		c0.7-1.2,1.5-2.2,2.6-3c1.1-0.8,2.4-1.4,3.9-1.9c1.5-0.5,3.1-0.9,4.7-1.1c1.6-0.3,3.3-0.5,5.1-0.7c1.7-0.2,3.4-0.4,4.9-0.7
		c1.6-0.3,3.1-0.7,4.4-1.1C224.4,71.1,225.3,70.7,226.1,70.2z"/>
	<g>
		<rect x="10.3" y="106.4" fill="#FFFFFF" width="1.5" height="1"/>
		<path fill="#FFFFFF" d="M23.5,107.4h-2.9v-1h2.9V107.4z M17.6,107.4h-2.9v-1h2.9V107.4z"/>
		<path fill="#FFFFFF" d="M321.9,107.4H319v-1h2.9V107.4z M316.1,107.4h-2.9v-1h2.9V107.4z M310.2,107.4h-2.9v-1h2.9V107.4z
			 M304.4,107.4h-2.9v-1h2.9V107.4z M298.5,107.4h-2.9v-1h2.9V107.4z M292.7,107.4h-2.9v-1h2.9V107.4z M286.8,107.4h-2.9v-1h2.9
			V107.4z M281,107.4H278v-1h2.9V107.4z M275.1,107.4h-2.9v-1h2.9V107.4z M269.3,107.4h-2.9v-1h2.9V107.4z M263.4,107.4h-2.9v-1h2.9
			V107.4z M257.6,107.4h-2.9v-1h2.9V107.4z M251.7,107.4h-2.9v-1h2.9V107.4z M245.9,107.4h-2.9v-1h2.9V107.4z M240,107.4h-2.9v-1
			h2.9V107.4z M234.1,107.4h-2.9v-1h2.9V107.4z M228.3,107.4h-2.9v-1h2.9V107.4z M222.4,107.4h-2.9v-1h2.9V107.4z M216.6,107.4h-2.9
			v-1h2.9V107.4z M210.7,107.4h-2.9v-1h2.9V107.4z M204.9,107.4H202v-1h2.9V107.4z M199,107.4h-2.9v-1h2.9V107.4z M193.2,107.4h-2.9
			v-1h2.9V107.4z M187.3,107.4h-2.9v-1h2.9V107.4z M181.5,107.4h-2.9v-1h2.9V107.4z M175.6,107.4h-2.9v-1h2.9V107.4z M169.8,107.4
			h-2.9v-1h2.9V107.4z M163.9,107.4H161v-1h2.9V107.4z M158.1,107.4h-2.9v-1h2.9V107.4z M152.2,107.4h-2.9v-1h2.9V107.4z
			 M146.4,107.4h-2.9v-1h2.9V107.4z M140.5,107.4h-2.9v-1h2.9V107.4z M134.7,107.4h-2.9v-1h2.9V107.4z M128.8,107.4h-2.9v-1h2.9
			V107.4z M123,107.4H120v-1h2.9V107.4z M117.1,107.4h-2.9v-1h2.9V107.4z M111.3,107.4h-2.9v-1h2.9V107.4z M105.4,107.4h-2.9v-1h2.9
			V107.4z M99.5,107.4h-2.9v-1h2.9V107.4z M93.7,107.4h-2.9v-1h2.9V107.4z M87.8,107.4h-2.9v-1h2.9V107.4z M82,107.4h-2.9v-1H82
			V107.4z M76.1,107.4h-2.9v-1h2.9V107.4z M70.3,107.4h-2.9v-1h2.9V107.4z M64.4,107.4h-2.9v-1h2.9V107.4z M58.6,107.4h-2.9v-1h2.9
			V107.4z M52.7,107.4h-2.9v-1h2.9V107.4z M46.9,107.4H44v-1h2.9V107.4z M41,107.4h-2.9v-1H41V107.4z M35.2,107.4h-2.9v-1h2.9V107.4
			z M29.3,107.4h-2.9v-1h2.9V107.4z"/>
		<rect x="324.9" y="106.4" fill="#FFFFFF" width="1.5" height="1"/>
	</g>
	<g>
		<rect x="66.6" y="142.7" fill="#FFFFFF" width="1.5" height="1"/>
		<path fill="#FFFFFF" d="M80.5,143.7h-3.1v-1h3.1V143.7z M74.3,143.7h-3.1v-1h3.1V143.7z"/>
		<path fill="#FFFFFF" d="M321,143.7h-3.1v-1h3.1V143.7z M314.8,143.7h-3.1v-1h3.1V143.7z M308.6,143.7h-3.1v-1h3.1V143.7z
			 M302.5,143.7h-3.1v-1h3.1V143.7z M296.3,143.7h-3.1v-1h3.1V143.7z M290.1,143.7h-3.1v-1h3.1V143.7z M284,143.7h-3.1v-1h3.1V143.7
			z M277.8,143.7h-3.1v-1h3.1V143.7z M271.6,143.7h-3.1v-1h3.1V143.7z M265.5,143.7h-3.1v-1h3.1V143.7z M259.3,143.7h-3.1v-1h3.1
			V143.7z M253.1,143.7h-3.1v-1h3.1V143.7z M247,143.7h-3.1v-1h3.1V143.7z M240.8,143.7h-3.1v-1h3.1V143.7z M234.6,143.7h-3.1v-1
			h3.1V143.7z M228.5,143.7h-3.1v-1h3.1V143.7z M222.3,143.7h-3.1v-1h3.1V143.7z M216.1,143.7h-3.1v-1h3.1V143.7z M210,143.7h-3.1
			v-1h3.1V143.7z M203.8,143.7h-3.1v-1h3.1V143.7z M197.6,143.7h-3.1v-1h3.1V143.7z M191.5,143.7h-3.1v-1h3.1V143.7z M185.3,143.7
			h-3.1v-1h3.1V143.7z M179.1,143.7h-3.1v-1h3.1V143.7z M173,143.7h-3.1v-1h3.1V143.7z M166.8,143.7h-3.1v-1h3.1V143.7z
			 M160.6,143.7h-3.1v-1h3.1V143.7z M154.5,143.7h-3.1v-1h3.1V143.7z M148.3,143.7h-3.1v-1h3.1V143.7z M142.1,143.7h-3.1v-1h3.1
			V143.7z M136,143.7h-3.1v-1h3.1V143.7z M129.8,143.7h-3.1v-1h3.1V143.7z M123.6,143.7h-3.1v-1h3.1V143.7z M117.5,143.7h-3.1v-1
			h3.1V143.7z M111.3,143.7h-3.1v-1h3.1V143.7z M105.1,143.7h-3.1v-1h3.1V143.7z M99,143.7h-3.1v-1H99V143.7z M92.8,143.7h-3.1v-1
			h3.1V143.7z M86.6,143.7h-3.1v-1h3.1V143.7z"/>
		<rect x="324.1" y="142.7" fill="#FFFFFF" width="1.5" height="1"/>
	</g>
	<g>
		<rect x="63.5" y="28.6" fill="#FFFFFF" width="1.5" height="1"/>
		<path fill="#FFFFFF" d="M77.4,29.6h-3.1v-1h3.1V29.6z M71.2,29.6h-3.1v-1h3.1V29.6z"/>
		<path fill="#FFFFFF" d="M301.1,29.6H298v-1h3.1V29.6z M294.9,29.6h-3.1v-1h3.1V29.6z M288.7,29.6h-3.1v-1h3.1V29.6z M282.5,29.6
			h-3.1v-1h3.1V29.6z M276.2,29.6h-3.1v-1h3.1V29.6z M270,29.6h-3.1v-1h3.1V29.6z M263.8,29.6h-3.1v-1h3.1V29.6z M257.6,29.6h-3.1
			v-1h3.1V29.6z M251.4,29.6h-3.1v-1h3.1V29.6z M245.2,29.6h-3.1v-1h3.1V29.6z M239,29.6h-3.1v-1h3.1V29.6z M232.7,29.6h-3.1v-1h3.1
			V29.6z M226.5,29.6h-3.1v-1h3.1V29.6z M220.3,29.6h-3.1v-1h3.1V29.6z M214.1,29.6H211v-1h3.1V29.6z M207.9,29.6h-3.1v-1h3.1V29.6z
			 M201.7,29.6h-3.1v-1h3.1V29.6z M195.5,29.6h-3.1v-1h3.1V29.6z M189.3,29.6h-3.1v-1h3.1V29.6z M183,29.6h-3.1v-1h3.1V29.6z
			 M176.8,29.6h-3.1v-1h3.1V29.6z M170.6,29.6h-3.1v-1h3.1V29.6z M164.4,29.6h-3.1v-1h3.1V29.6z M158.2,29.6h-3.1v-1h3.1V29.6z
			 M152,29.6h-3.1v-1h3.1V29.6z M145.8,29.6h-3.1v-1h3.1V29.6z M139.5,29.6h-3.1v-1h3.1V29.6z M133.3,29.6h-3.1v-1h3.1V29.6z
			 M127.1,29.6H124v-1h3.1V29.6z M120.9,29.6h-3.1v-1h3.1V29.6z M114.7,29.6h-3.1v-1h3.1V29.6z M108.5,29.6h-3.1v-1h3.1V29.6z
			 M102.3,29.6h-3.1v-1h3.1V29.6z M96,29.6h-3.1v-1H96V29.6z M89.8,29.6h-3.1v-1h3.1V29.6z M83.6,29.6h-3.1v-1h3.1V29.6z"/>
		<rect x="304.2" y="28.6" fill="#FFFFFF" width="1.5" height="1"/>
	</g>
	<g>
		<rect x="63.1" y="28.3" fill="#FFFFFF" width="1" height="1.5"/>
		<path fill="#FFFFFF" d="M64.1,42.5h-1v-3.2h1V42.5z M64.1,36.2h-1V33h1V36.2z"/>
		<path fill="#FFFFFF" d="M64.1,156.2h-1v-3.2h1V156.2z M64.1,149.9h-1v-3.2h1V149.9z M64.1,143.6h-1v-3.2h1V143.6z M64.1,137.3h-1
			v-3.2h1V137.3z M64.1,131h-1v-3.2h1V131z M64.1,124.6h-1v-3.2h1V124.6z M64.1,118.3h-1v-3.2h1V118.3z M64.1,112h-1v-3.2h1V112z
			 M64.1,105.7h-1v-3.2h1V105.7z M64.1,99.4h-1v-3.2h1V99.4z M64.1,93h-1v-3.2h1V93z M64.1,86.7h-1v-3.2h1V86.7z M64.1,80.4h-1v-3.2
			h1V80.4z M64.1,74.1h-1v-3.2h1V74.1z M64.1,67.8h-1v-3.2h1V67.8z M64.1,61.4h-1v-3.2h1V61.4z M64.1,55.1h-1V52h1V55.1z M64.1,48.8
			h-1v-3.2h1V48.8z"/>
		<rect x="63.1" y="159.4" fill="#FFFFFF" width="1" height="1.5"/>
	</g>
	<g>
		<rect x="83.4" y="106.9" fill="#FFFFFF" width="1" height="1.5"/>
		<path fill="#FFFFFF" d="M84.4,120.4h-1v-3h1V120.4z M84.4,114.4h-1v-3h1V114.4z"/>
		<path fill="#FFFFFF" d="M84.4,156.4h-1v-3h1V156.4z M84.4,150.4h-1v-3h1V150.4z M84.4,144.4h-1v-3h1V144.4z M84.4,138.4h-1v-3h1
			V138.4z M84.4,132.4h-1v-3h1V132.4z M84.4,126.4h-1v-3h1V126.4z"/>
		<rect x="83.4" y="159.4" fill="#FFFFFF" width="1" height="1.5"/>
	</g>
</g>
</svg>
